<svg width="64" height="33" viewBox="0 0 64 33" fill="none" xmlns="http://www.w3.org/2000/svg">
<path d="M63.2399 0H0V32.9394H63.2399V0Z" fill="#66C87D"/>
<path d="M59.9002 2.06006H3.33883C3.17066 2.06006 3.00414 2.09322 2.8488 2.15763C2.69346 2.22205 2.55235 2.31646 2.43353 2.43547C2.31471 2.55448 2.22053 2.69575 2.15636 2.85119C2.09219 3.00664 2.0593 3.17321 2.05957 3.34138V29.5981C2.0593 29.7663 2.09219 29.9328 2.15636 30.0883C2.22053 30.2437 2.31471 30.385 2.43353 30.504C2.55235 30.623 2.69346 30.7174 2.8488 30.7818C3.00414 30.8463 3.17066 30.8794 3.33883 30.8794H59.9002C60.0684 30.8794 60.2351 30.8463 60.3905 30.7819C60.546 30.7175 60.6872 30.6231 60.8062 30.5041C60.9252 30.3851 61.0196 30.2439 61.084 30.0884C61.1483 29.933 61.1815 29.7664 61.1815 29.5981V3.34138C61.1815 3.17311 61.1483 3.00649 61.084 2.85104C61.0196 2.69558 60.9252 2.55433 60.8062 2.43535C60.6872 2.31637 60.546 2.22199 60.3905 2.15759C60.2351 2.0932 60.0684 2.06006 59.9002 2.06006ZM59.1215 26.2053C59.0266 26.1928 58.9309 26.1866 58.8352 26.1867C58.2129 26.1867 57.6161 26.434 57.176 26.874C56.736 27.314 56.4888 27.9108 56.4888 28.5331C56.4888 28.6288 56.495 28.7245 56.5074 28.8194H6.73165C6.74404 28.7245 6.75023 28.6288 6.75019 28.5331C6.75046 28.2251 6.69002 27.92 6.57233 27.6353C6.45464 27.3507 6.282 27.092 6.06429 26.8741C5.84658 26.6562 5.58806 26.4833 5.3035 26.3654C5.01895 26.2475 4.71394 26.1867 4.40591 26.1867C4.31016 26.1866 4.2145 26.1928 4.11957 26.2053V6.73419C4.2145 6.74666 4.31016 6.75285 4.40591 6.75273C4.71394 6.75273 5.01895 6.69203 5.3035 6.57409C5.58806 6.45615 5.84658 6.28329 6.06429 6.06538C6.282 5.84748 6.45464 5.5888 6.57233 5.30414C6.69002 5.01949 6.75046 4.71442 6.75019 4.4064C6.75023 4.31065 6.74404 4.215 6.73165 4.12006H56.5074C56.495 4.215 56.4888 4.31065 56.4888 4.4064C56.4888 5.02868 56.736 5.62548 57.176 6.06551C57.6161 6.50553 58.2129 6.75273 58.8352 6.75273C58.9309 6.75285 59.0266 6.74666 59.1215 6.73419V26.2053Z" fill="#227042"/>
<path d="M15.4189 23.4448H11.0228C10.8214 23.4448 10.6582 23.6081 10.6582 23.8094V25.4162C10.6582 25.6176 10.8214 25.7809 11.0228 25.7809H15.4189C15.6202 25.7809 15.7835 25.6176 15.7835 25.4162V23.8094C15.7835 23.6081 15.6202 23.4448 15.4189 23.4448Z" fill="#227042"/>
<path d="M14.3896 11.9191V7.52307C14.3896 7.32169 14.2264 7.15845 14.025 7.15845H12.4182C12.2169 7.15845 12.0536 7.32169 12.0536 7.52307V11.9191C12.0536 12.1205 12.2169 12.2837 12.4182 12.2837H14.025C14.2264 12.2837 14.3896 12.1205 14.3896 11.9191Z" fill="#227042"/>
<path d="M51.1895 11.9191V7.52307C51.1895 7.32169 51.0262 7.15845 50.8248 7.15845H49.218C49.0167 7.15845 48.8534 7.32169 48.8534 7.52307V11.9191C48.8534 12.1205 49.0167 12.2837 49.218 12.2837H50.8248C51.0262 12.2837 51.1895 12.1205 51.1895 11.9191Z" fill="#227042"/>
<path d="M52.2157 23.4448H47.8197C47.6183 23.4448 47.4551 23.6081 47.4551 23.8094V25.4162C47.4551 25.6176 47.6183 25.7809 47.8197 25.7809H52.2157C52.4171 25.7809 52.5804 25.6176 52.5804 25.4162V23.8094C52.5804 23.6081 52.4171 23.4448 52.2157 23.4448Z" fill="#227042"/>
<path d="M30.4584 6.88046L23.8973 10.6688C23.5438 10.8727 23.2501 11.166 23.0458 11.5192C22.8415 11.8725 22.7338 12.2733 22.7334 12.6814V20.2581C22.7338 20.6662 22.8415 21.067 23.0458 21.4203C23.2501 21.7735 23.5438 22.0668 23.8973 22.2707L30.4563 26.059C30.8101 26.2626 31.2111 26.3697 31.6192 26.3697C32.0273 26.3697 32.4283 26.2626 32.7821 26.059L39.3473 22.2707C39.7006 22.0667 39.9939 21.7734 40.1979 21.4201C40.4018 21.0668 40.5092 20.666 40.5091 20.2581V12.6814C40.5092 12.2735 40.4018 11.8727 40.1979 11.5194C39.9939 11.1661 39.7006 10.8728 39.3473 10.6688L32.7841 6.88046C32.4304 6.67694 32.0294 6.56982 31.6213 6.56982C31.2131 6.56982 30.8122 6.67694 30.4584 6.88046ZM37.6684 20.357L31.9663 23.653C31.8619 23.7128 31.7437 23.7442 31.6233 23.7442C31.503 23.7442 31.3847 23.7128 31.2803 23.653L25.5783 20.357C25.4743 20.2967 25.388 20.2102 25.328 20.106C25.2679 20.0019 25.2363 19.8839 25.2363 19.7637V13.1841C25.2365 13.0639 25.2682 12.9459 25.3282 12.8418C25.3882 12.7378 25.4744 12.6512 25.5783 12.5908L31.2803 9.29478C31.3847 9.23497 31.503 9.20351 31.6233 9.20351C31.7437 9.20351 31.8619 9.23497 31.9663 9.29478L37.6684 12.5908C37.7721 12.6514 37.8582 12.738 37.9181 12.842C37.9781 12.9461 38.0099 13.064 38.0103 13.1841V19.776C38.008 19.8943 37.975 20.01 37.9147 20.1118C37.8545 20.2135 37.7689 20.298 37.6663 20.357H37.6684Z" fill="#227042"/>
<path d="M27.4883 18.8449V13.971H29.6842C29.904 13.9696 30.1211 14.0189 30.3187 14.1152C30.5094 14.2084 30.6807 14.3371 30.8234 14.4942C30.9651 14.6488 31.0781 14.8273 31.1571 15.0216C31.2356 15.211 31.2762 15.4139 31.2766 15.619C31.277 15.7663 31.2583 15.9131 31.221 16.0557C31.1857 16.193 31.1331 16.3252 31.0644 16.4492C30.9969 16.5717 30.9123 16.6841 30.8131 16.7829C30.7164 16.8803 30.6069 16.9641 30.4876 17.0321L31.5568 18.8449H30.2816L29.3485 17.2732H28.613V18.8449H27.4883ZM28.613 16.2905H29.643C29.7113 16.2894 29.7782 16.2718 29.8381 16.2391C29.898 16.2065 29.9491 16.1598 29.9871 16.1031C30.0872 15.962 30.1378 15.7918 30.1313 15.619C30.1401 15.4437 30.0811 15.2718 29.9665 15.139C29.9232 15.0855 29.869 15.0419 29.8076 15.011C29.7461 14.9801 29.6788 14.9626 29.6101 14.9598H28.613V16.2905Z" fill="#227042"/>
<path d="M35.1139 15.3985C35.0773 15.3638 35.0365 15.334 34.9923 15.3099C34.9107 15.26 34.8261 15.2153 34.7389 15.176C34.6359 15.1286 34.5206 15.0833 34.3949 15.038C34.2711 14.995 34.1435 14.964 34.0138 14.9453V15.8805L34.2342 15.9341C34.4488 15.9906 34.6599 16.0594 34.8666 16.1401C35.0397 16.2064 35.2006 16.3011 35.3425 16.4202C35.4724 16.5337 35.5758 16.6744 35.6453 16.8322C35.7199 17.0152 35.7557 17.2116 35.7504 17.409C35.7568 17.6383 35.7103 17.866 35.6144 18.0744C35.5279 18.25 35.4025 18.4036 35.2477 18.5235C35.0888 18.6428 34.9094 18.7322 34.7183 18.7872C34.5175 18.8472 34.3098 18.8818 34.1003 18.8902V19.6874H33.6265V18.884C33.308 18.8545 32.9937 18.7903 32.6892 18.6924C32.3979 18.5967 32.1207 18.4623 31.8652 18.2928L32.3596 17.3122C32.4033 17.3561 32.4525 17.3942 32.5059 17.4255C32.6038 17.4871 32.7056 17.5421 32.8108 17.5903C32.9452 17.6523 33.0827 17.7073 33.2228 17.7551C33.3789 17.8076 33.5396 17.8455 33.7028 17.8684V16.9579L33.3732 16.8611C33.1733 16.8024 32.9783 16.728 32.7902 16.6386C32.6387 16.5688 32.4995 16.4749 32.3782 16.3605C32.2705 16.259 32.1873 16.1343 32.1351 15.9959C32.0793 15.8422 32.0527 15.6794 32.0568 15.5159C32.0529 15.2981 32.0951 15.0819 32.1804 14.8814C32.2583 14.7018 32.3711 14.5393 32.5121 14.4035C32.6553 14.2689 32.8232 14.1633 33.0065 14.0924C33.2045 14.0142 33.4125 13.9643 33.6245 13.9441V13.252H34.0983V13.9441C34.3863 13.9713 34.6688 14.0408 34.9367 14.1501C35.1694 14.2422 35.3958 14.3496 35.6144 14.4715L35.1139 15.3985ZM33.2125 15.3367C33.2099 15.3882 33.2193 15.4395 33.2401 15.4868C33.2608 15.534 33.2923 15.5757 33.332 15.6086C33.4405 15.6884 33.5626 15.7478 33.6925 15.7837V14.9391C33.3711 14.9659 33.2125 15.0998 33.2125 15.3367ZM34.5432 17.5203C34.5453 17.4654 34.5331 17.4109 34.5078 17.3622C34.4826 17.3134 34.4451 17.2721 34.399 17.2422C34.2795 17.1645 34.1499 17.1035 34.0138 17.0609V17.8849C34.3661 17.8705 34.5432 17.7489 34.5432 17.5203Z" fill="#227042"/>
</svg>
