<svg width="71" height="54" viewBox="0 0 71 54" fill="none" xmlns="http://www.w3.org/2000/svg">
<path d="M59.0868 0.000114918L0 22.5396L11.74 53.3157L70.8268 30.7763L59.0868 0.000114918Z" fill="#66C87D"/>
<path d="M56.701 3.11756L3.85386 23.2808C3.53797 23.4021 3.28301 23.6436 3.14479 23.9525C3.00657 24.2614 2.99636 24.6124 3.11639 24.9288L12.4729 49.4613C12.5934 49.778 12.8346 50.0339 13.1435 50.1729C13.4525 50.3119 13.804 50.3227 14.1209 50.2029L66.968 30.0458C67.284 29.9244 67.5392 29.6832 67.6781 29.3745C67.817 29.0658 67.8283 28.7148 67.7096 28.3978L58.3552 3.85916C58.2953 3.70181 58.2051 3.5578 58.0895 3.43535C57.974 3.31291 57.8354 3.21444 57.6818 3.14557C57.5282 3.0767 57.3625 3.03878 57.1942 3.03397C57.0259 3.02916 56.8583 3.05757 56.701 3.11756ZM64.5785 25.9588C64.4857 25.9822 64.3943 26.0104 64.3045 26.0433C63.7231 26.2656 63.2537 26.7096 62.9996 27.2778C62.7454 27.8461 62.7272 28.4919 62.949 29.0735C62.9834 29.1625 63.0233 29.2491 63.0685 29.3331L16.5599 47.0697C16.539 46.9763 16.5107 46.8847 16.4755 46.7957C16.366 46.5078 16.2009 46.2442 15.9895 46.0202C15.7782 45.7961 15.5248 45.6159 15.2437 45.4898C14.9627 45.3637 14.6596 45.2943 14.3517 45.2854C14.0438 45.2766 13.7372 45.3284 13.4493 45.4381C13.3596 45.4721 13.2722 45.512 13.1877 45.5576L6.24964 27.3637C6.34288 27.3422 6.43444 27.314 6.52362 27.2793C6.81134 27.1696 7.07461 27.0044 7.29839 26.7929C7.52217 26.5814 7.70206 26.3279 7.82776 26.0468C7.95346 25.7657 8.02252 25.4627 8.03098 25.1549C8.03943 24.8471 7.98712 24.5407 7.87704 24.2531C7.84355 24.1632 7.80362 24.0757 7.75756 23.9915L54.2661 6.25288C54.2883 6.34594 54.3165 6.43746 54.3506 6.52686C54.5725 7.10811 55.0161 7.57743 55.584 7.83162C56.1519 8.08581 56.7974 8.10405 57.3788 7.88234C57.4685 7.84837 57.5559 7.80846 57.6404 7.76286L64.5785 25.9588Z" fill="#227042"/>
<path d="M22.7654 38.9522L18.6581 40.519C18.4699 40.5907 18.3756 40.8015 18.4473 40.9896L19.02 42.4909C19.0918 42.679 19.3025 42.7734 19.4906 42.7016L23.598 41.1348C23.7861 41.063 23.8805 40.8523 23.8087 40.6642L23.236 39.1629C23.1643 38.9747 22.9535 38.8804 22.7654 38.9522Z" fill="#227042"/>
<path d="M17.8691 28.5634L16.2865 24.4751C16.214 24.2878 16.0035 24.1948 15.8162 24.2672L14.3219 24.8457C14.1346 24.9182 14.0415 25.1288 14.114 25.3161L15.6966 29.4044C15.7691 29.5916 15.9797 29.6847 16.167 29.6122L17.6613 29.0338C17.8486 28.9613 17.9416 28.7507 17.8691 28.5634Z" fill="#227042"/>
<path d="M52.0757 15.4351L50.5089 11.3277C50.4371 11.1396 50.2264 11.0452 50.0382 11.117L48.537 11.6897C48.3488 11.7615 48.2545 11.9722 48.3262 12.1603L49.893 16.2677C49.9648 16.4558 50.1755 16.5502 50.3637 16.4784L51.8649 15.9057C52.0531 15.8339 52.1474 15.6232 52.0757 15.4351Z" fill="#227042"/>
<path d="M57.1453 25.8352L53.0379 27.402C52.8498 27.4738 52.7554 27.6845 52.8272 27.8727L53.3999 29.3739C53.4717 29.5621 53.6824 29.6564 53.8705 29.5847L57.9779 28.0179C58.166 27.9461 58.2604 27.7354 58.1886 27.5472L57.6159 26.0459C57.5441 25.8578 57.3334 25.7635 57.1453 25.8352Z" fill="#227042"/>
<path d="M65.0556 6.85183L2.19043 13.7256L5.77072 46.4698L68.6359 39.596L65.0556 6.85183Z" fill="#66C87D"/>
<path d="M61.9611 9.27287L5.73556 15.4096C5.56831 15.4278 5.40628 15.4788 5.25877 15.5597C5.11125 15.6406 4.98115 15.7499 4.8759 15.8811C4.77066 16.0124 4.69235 16.1631 4.64544 16.3247C4.59854 16.4863 4.58397 16.6555 4.60257 16.8228L7.45566 42.925C7.49252 43.261 7.66063 43.5688 7.92339 43.7813C8.18614 43.9939 8.52225 44.0941 8.85852 44.06L65.0964 37.9068C65.2637 37.8886 65.4257 37.8376 65.5732 37.7567C65.7208 37.6758 65.8509 37.5666 65.9561 37.4353C66.0614 37.304 66.1397 37.1533 66.1866 36.9917C66.2335 36.8301 66.248 36.6609 66.2294 36.4937L63.3743 10.3956C63.335 10.0596 63.1643 9.75292 62.8994 9.54252C62.6346 9.33213 62.2973 9.23517 61.9611 9.27287ZM63.8151 33.3584C63.7195 33.3564 63.6239 33.3605 63.5288 33.3707C62.9104 33.4386 62.3442 33.7493 61.9548 34.2345C61.5655 34.7197 61.3847 35.3396 61.4523 35.9581C61.4624 36.0538 61.4789 36.1488 61.5018 36.2423L12.0165 41.6416C12.0185 41.546 12.0144 41.4503 12.0041 41.3553C11.9708 41.0491 11.8774 40.7526 11.7295 40.4825C11.5815 40.2125 11.3817 39.9743 11.1417 39.7814C10.9016 39.5886 10.6259 39.445 10.3303 39.3587C10.0346 39.2725 9.72495 39.2453 9.41884 39.2788C9.32373 39.2887 9.22943 39.3052 9.13662 39.3282L7.01894 19.9643C7.11456 19.9662 7.2102 19.9621 7.30528 19.9519C7.92188 19.8834 8.48635 19.5738 8.8754 19.0906C9.26446 18.6073 9.4465 17.9898 9.38176 17.3728C9.36958 17.2813 9.35238 17.1905 9.33026 17.1009L58.8114 11.6892C58.8094 11.7849 58.8135 11.8805 58.8238 11.9756C58.8573 12.282 58.951 12.5788 59.0993 12.849C59.2477 13.1192 59.4478 13.3575 59.6882 13.5503C59.9287 13.7432 60.2048 13.8867 60.5008 13.9728C60.7968 14.0589 61.1068 14.0858 61.4132 14.0521C61.5083 14.0419 61.6025 14.0254 61.6954 14.0026L63.8151 33.3584Z" fill="#227042"/>
<path d="M20.0655 35.3575L15.6955 35.8354C15.4953 35.8573 15.3508 36.0373 15.3726 36.2375L15.5473 37.8347C15.5692 38.0349 15.7492 38.1795 15.9494 38.1576L20.3194 37.6797C20.5195 37.6579 20.6641 37.4778 20.6422 37.2777L20.4675 35.6804C20.4457 35.4802 20.2656 35.3357 20.0655 35.3575Z" fill="#227042"/>
<path d="M17.7899 24.0103L17.3121 19.6403C17.2902 19.4401 17.1102 19.2956 16.91 19.3175L15.3127 19.4921C15.1125 19.514 14.968 19.694 14.9899 19.8942L15.4677 24.2642C15.4896 24.4644 15.6696 24.6089 15.8698 24.587L17.4671 24.4124C17.6673 24.3905 17.8118 24.2105 17.7899 24.0103Z" fill="#227042"/>
<path d="M54.371 20.0091L53.8931 15.6391C53.8713 15.4389 53.6912 15.2944 53.4911 15.3162L51.8938 15.4909C51.6936 15.5128 51.5491 15.6928 51.571 15.893L52.0488 20.263C52.0707 20.4632 52.2507 20.6077 52.4509 20.5858L54.0481 20.4111C54.2483 20.3893 54.3929 20.2092 54.371 20.0091Z" fill="#227042"/>
<path d="M56.6494 31.3575L52.2795 31.8354C52.0793 31.8573 51.9347 32.0373 51.9566 32.2375L52.1313 33.8347C52.1532 34.0349 52.3332 34.1795 52.5334 34.1576L56.9034 33.6797C57.1035 33.6579 57.2481 33.4778 57.2262 33.2777L57.0515 31.6804C57.0296 31.4802 56.8496 31.3357 56.6494 31.3575Z" fill="#227042"/>
<path d="M69.7762 17.3267L8.15723 3.10083L0.747484 35.196L62.3665 49.4218L69.7762 17.3267Z" fill="#66C87D"/>
<path d="M66.0607 18.5841L10.9475 5.85946C10.6165 5.78367 10.2688 5.84243 9.98106 6.02282C9.69329 6.20321 9.4889 6.49047 9.41283 6.82148L3.5027 32.4046C3.42617 32.7354 3.48407 33.083 3.66368 33.3712C3.84328 33.6593 4.12991 33.8644 4.4606 33.9413L59.5738 46.6639C59.9049 46.7404 60.2528 46.6822 60.5409 46.5022C60.8291 46.3221 61.034 46.035 61.1105 45.7039L67.0207 20.1208C67.0971 19.7897 67.0389 19.4418 66.8589 19.1537C66.6789 18.8655 66.3918 18.6606 66.0607 18.5841ZM59.8704 41.9362C59.7805 41.9022 59.6882 41.8747 59.5944 41.8538C59.2942 41.7842 58.9833 41.7744 58.6794 41.8251C58.3754 41.8758 58.0845 41.9858 57.8231 42.149C57.5618 42.3122 57.3352 42.5254 57.1562 42.7762C56.9773 43.0271 56.8496 43.3107 56.7804 43.611C56.7591 43.7046 56.744 43.7996 56.7351 43.8953L8.24069 32.6971C8.27343 32.6075 8.30094 32.516 8.32309 32.4231C8.3927 32.123 8.40245 31.812 8.35179 31.5081C8.30113 31.2042 8.19105 30.9132 8.02785 30.6519C7.86465 30.3905 7.65153 30.1639 7.40068 29.985C7.14983 29.8061 6.86616 29.6784 6.56592 29.6092C6.47295 29.5874 6.37868 29.5716 6.2837 29.5618L10.6571 10.5913C10.7473 10.6243 10.8395 10.6518 10.9331 10.6737C11.5393 10.813 12.1759 10.706 12.7032 10.3761C13.2305 10.0462 13.6052 9.52048 13.745 8.91444C13.7663 8.82077 13.7814 8.72581 13.7903 8.63016L62.2909 19.8283C62.257 19.9176 62.2294 20.0091 62.2085 20.1023C62.0685 20.7084 62.175 21.3454 62.5045 21.8731C62.834 22.4008 63.3596 22.776 63.9657 22.9162C64.0592 22.9389 64.1542 22.9547 64.25 22.9636L59.8704 41.9362Z" fill="#227042"/>
<path d="M17.9072 29.4142L13.6238 28.4253C13.4276 28.38 13.2318 28.5023 13.1865 28.6985L12.8251 30.2642C12.7798 30.4604 12.9021 30.6562 13.0983 30.7014L17.3817 31.6903C17.5779 31.7356 17.7737 31.6133 17.819 31.4171L18.1804 29.8515C18.2257 29.6553 18.1034 29.4595 17.9072 29.4142Z" fill="#227042"/>
<path d="M19.4974 17.9519L20.4863 13.6685C20.5316 13.4723 20.4093 13.2765 20.2131 13.2312L18.6475 12.8698C18.4513 12.8245 18.2555 12.9468 18.2102 13.143L17.2213 17.4264C17.176 17.6226 17.2983 17.8184 17.4945 17.8637L19.0602 18.2251C19.2564 18.2704 19.4521 18.1481 19.4974 17.9519Z" fill="#227042"/>
<path d="M55.3519 26.2285L56.3408 21.9451C56.3861 21.7489 56.2638 21.5531 56.0676 21.5078L54.502 21.1464C54.3057 21.1011 54.11 21.2234 54.0647 21.4196L53.0758 25.703C53.0305 25.8992 53.1528 26.095 53.349 26.1403L54.9146 26.5017C55.1109 26.547 55.3066 26.4247 55.3519 26.2285Z" fill="#227042"/>
<path d="M53.7636 37.6942L49.4803 36.7053C49.2841 36.66 49.0883 36.7824 49.043 36.9786L48.6815 38.5442C48.6362 38.7404 48.7586 38.9362 48.9548 38.9815L53.2381 39.9704C53.4344 40.0157 53.6301 39.8933 53.6754 39.6971L54.0369 38.1315C54.0822 37.9353 53.9599 37.7395 53.7636 37.6942Z" fill="#227042"/>
<path d="M36.2881 16.6578L29.0472 18.8723C28.6571 18.9914 28.3054 19.2113 28.0273 19.5096C27.7492 19.808 27.5546 20.1743 27.4631 20.5718L25.7512 27.9548C25.6592 28.3524 25.6736 28.7671 25.7929 29.1574C25.9123 29.5476 26.1324 29.8995 26.431 30.1775L31.9703 35.344C32.2689 35.6224 32.6355 35.8173 33.0332 35.9092C33.431 36.001 33.8459 35.9866 34.2363 35.8672L41.4814 33.6528C41.8712 33.5332 42.2228 33.3133 42.5008 33.015C42.7789 32.7167 42.9736 32.3505 43.0655 31.9533L44.7712 24.5702C44.8632 24.1727 44.8488 23.7579 44.7295 23.3677C44.6101 22.9774 44.39 22.6256 44.0914 22.3475L38.55 17.181C38.2519 16.9031 37.8861 16.7085 37.4891 16.6167C37.0921 16.5248 36.6779 16.539 36.2881 16.6578ZM40.2804 31.4094L33.9912 33.3335C33.8764 33.3689 33.7542 33.3735 33.637 33.3468C33.5199 33.32 33.4118 33.2628 33.3238 33.181L28.5075 28.6902C28.4188 28.6086 28.3531 28.5052 28.3169 28.3902C28.2808 28.2753 28.2755 28.1528 28.3015 28.0351L29.7826 21.6162C29.8101 21.4992 29.8677 21.3914 29.9497 21.3036C30.0318 21.2157 30.1354 21.1509 30.2502 21.1156L36.5477 19.1895C36.6627 19.1547 36.7849 19.1507 36.902 19.1778C37.0191 19.2049 37.127 19.2622 37.2151 19.344L42.0252 23.8348C42.1139 23.9164 42.1796 24.0198 42.2158 24.1348C42.2519 24.2498 42.2572 24.3722 42.2312 24.4899L40.748 30.9027C40.7215 31.0208 40.6644 31.1299 40.5822 31.2188C40.5001 31.3078 40.396 31.3736 40.2804 31.4094Z" fill="#227042"/>
<path d="M30.6953 27.646L31.7912 22.908L33.9316 23.4003C34.1462 23.4478 34.3466 23.5452 34.5166 23.6846C34.6832 23.8177 34.823 23.9813 34.9286 24.1666C35.0312 24.3494 35.1009 24.5489 35.1346 24.7558C35.1678 24.9576 35.1615 25.164 35.1161 25.3635C35.0839 25.5067 35.0333 25.6452 34.9657 25.7755C34.8993 25.9011 34.8177 26.018 34.7226 26.1236C34.629 26.2271 34.5215 26.3172 34.4033 26.3914C34.2849 26.4655 34.1566 26.5224 34.0222 26.5603L34.6587 28.5668L33.4227 28.2825L32.8665 26.5397L32.1517 26.3749L31.7974 27.9055L30.6953 27.646ZM32.366 25.4129L33.3692 25.6436C33.436 25.6585 33.5054 25.6565 33.5712 25.6378C33.637 25.6191 33.6972 25.5843 33.7462 25.5365C33.8762 25.4224 33.964 25.2678 33.9954 25.0977C34.0432 24.9291 34.0248 24.7486 33.9439 24.593C33.9134 24.5312 33.8701 24.4767 33.8168 24.433C33.7635 24.3893 33.7015 24.3575 33.6349 24.3397L32.6647 24.1151L32.366 25.4129Z" fill="#227042"/>
<path d="M38.9078 26.0042C38.8805 25.9625 38.8479 25.9244 38.811 25.8909C38.7421 25.824 38.6692 25.7614 38.5926 25.7035C38.4957 25.6291 38.3946 25.5603 38.2898 25.4975C38.1789 25.4275 38.0617 25.3681 37.9396 25.3203L37.7336 26.2308L37.9396 26.3338C38.1351 26.439 38.3249 26.5546 38.5081 26.6799C38.6652 26.7838 38.8043 26.9125 38.9201 27.061C39.0227 27.1989 39.0931 27.358 39.1261 27.5266C39.1586 27.7213 39.1495 27.9207 39.0994 28.1116C39.0552 28.3373 38.9578 28.5492 38.8151 28.7296C38.6922 28.8822 38.5357 29.0041 38.3578 29.086C38.1761 29.1663 37.9814 29.213 37.783 29.224C37.5706 29.2367 37.3575 29.2229 37.1485 29.1828L36.9693 29.9594L36.5079 29.8523L36.6871 29.0695C36.3831 28.9707 36.0914 28.8373 35.8178 28.6719C35.5515 28.5145 35.3082 28.3211 35.0947 28.0972L35.7972 27.2505C35.8299 27.304 35.8702 27.3526 35.9167 27.3947C35.9971 27.4776 36.0839 27.5541 36.1762 27.6234C36.2949 27.7155 36.4187 27.8008 36.547 27.8788C36.6876 27.9651 36.8359 28.0382 36.9899 28.0972L37.1959 27.2073L36.8952 27.0404C36.7142 26.9377 36.5413 26.8213 36.3781 26.6923C36.2476 26.59 36.1343 26.4676 36.0423 26.3297C35.9625 26.2049 35.9105 26.0644 35.8899 25.9177C35.8703 25.7551 35.8808 25.5904 35.9208 25.4316C35.9663 25.2188 36.0561 25.0181 36.1845 24.8424C36.3011 24.6844 36.4482 24.5513 36.6171 24.451C36.7865 24.3526 36.9732 24.2875 37.1671 24.2594C37.3769 24.2305 37.5897 24.2305 37.7995 24.2594L37.9561 23.5837L38.4175 23.6909L38.2609 24.3665C38.5351 24.4549 38.7948 24.5833 39.0314 24.7476C39.2386 24.8894 39.4355 25.0456 39.6205 25.2153L38.9078 26.0042ZM37.0682 25.5181C37.055 25.5676 37.0531 25.6194 37.0628 25.6697C37.0724 25.72 37.0933 25.7674 37.1238 25.8085C37.2119 25.9108 37.318 25.996 37.4369 26.0599L37.6265 25.2359C37.3092 25.1926 37.1218 25.2853 37.0682 25.5181ZM37.8757 27.9427C37.8897 27.8897 37.8899 27.8341 37.8762 27.781C37.8625 27.728 37.8354 27.6794 37.7974 27.6399C37.6985 27.5375 37.5862 27.4488 37.4637 27.3762L37.2783 28.1796C37.6244 28.2455 37.8242 28.1672 37.8757 27.9427Z" fill="#227042"/>
</svg>
