<svg width="35" height="35" viewBox="0 0 35 35" fill="none" xmlns="http://www.w3.org/2000/svg">
<path d="M15.7234 18.3836C15.7032 19.6685 14.7901 20.717 13.6234 20.717C12.4739 20.717 11.5234 19.6732 11.5234 18.3836C11.5234 17.0941 12.4412 16.0503 13.6203 16.0503C14.7994 16.0503 15.7437 17.0987 15.7234 18.3836Z" fill="white"/>
<path d="M23.4742 18.3836C23.454 19.6685 22.5502 20.717 21.3773 20.717C20.2045 20.717 19.2773 19.6732 19.2773 18.3836C19.2773 17.0941 20.1951 16.0503 21.3773 16.0503C22.5596 16.0503 23.4898 17.0987 23.4742 18.3836Z" fill="white"/>
<path d="M17.5 0C14.0388 0 10.6554 1.02636 7.77753 2.94928C4.89967 4.87221 2.65665 7.60533 1.33212 10.803C0.00758243 14.0007 -0.338976 17.5194 0.336265 20.9141C1.01151 24.3087 2.67822 27.4269 5.12564 29.8744C7.57305 32.3218 10.6913 33.9885 14.0859 34.6637C17.4806 35.339 20.9993 34.9924 24.197 33.6679C27.3947 32.3433 30.1278 30.1003 32.0507 27.2225C33.9736 24.3446 35 20.9612 35 17.5C35 12.8587 33.1562 8.40752 29.8744 5.12563C26.5925 1.84374 22.1413 0 17.5 0V0ZM29.0671 23.38C27.2811 24.6974 25.2815 25.6972 23.156 26.3356C22.6771 25.6936 22.254 25.0119 21.8913 24.2978C22.5827 24.0395 23.25 23.7209 23.8856 23.3458C23.7207 23.2338 23.5573 23.1093 23.3971 22.9787C21.5508 23.8469 19.5356 24.297 17.4953 24.297C15.4551 24.297 13.4399 23.8469 11.5936 22.9787C11.438 23.1 11.2731 23.2244 11.1051 23.3458C11.7397 23.7204 12.4059 24.0384 13.0962 24.2962C12.7336 25.0108 12.3105 25.6931 11.8316 26.3356C9.70863 25.6923 7.71186 24.6895 5.92823 23.3707C5.51445 19.0384 6.34045 14.6424 9.38778 10.136C10.924 9.43378 12.545 8.93441 14.21 8.65044C14.4389 9.05738 14.6465 9.47586 14.8322 9.90422C16.6034 9.63821 18.4044 9.63821 20.1756 9.90422C20.3606 9.47556 20.5683 9.05705 20.7978 8.65044C22.4603 8.93196 24.0789 9.42982 25.6122 10.1313C27.8896 13.4633 29.1791 17.1609 29.1791 21.3391C29.1708 22.009 29.1335 22.6893 29.0671 23.38Z" fill="white"/>
</svg>
