<svg width="35" height="35" viewBox="0 0 35 35" fill="none" xmlns="http://www.w3.org/2000/svg">
<path d="M17.5002 21.3889C19.648 21.3889 21.3891 19.6477 21.3891 17.5C21.3891 15.3522 19.648 13.6111 17.5002 13.6111C15.3524 13.6111 13.6113 15.3522 13.6113 17.5C13.6113 19.6477 15.3524 21.3889 17.5002 21.3889Z" fill="white"/>
<path d="M26.9951 12.7851C26.9438 11.648 26.754 11.0304 26.5938 10.6182C26.4001 10.1144 26.1031 9.65678 25.7219 9.27474C25.3406 8.89269 24.8836 8.59472 24.3802 8.4C23.9696 8.24444 23.3504 8.05 22.2133 7.99866C20.9829 7.94266 20.6142 7.93022 17.5 7.93022C14.3858 7.93022 14.0156 7.94266 12.7851 7.99866C11.648 8.05466 11.0304 8.24444 10.6182 8.4C10.114 8.59417 9.65605 8.8919 9.27398 9.27397C8.89191 9.65605 8.59418 10.114 8.4 10.6182C8.24445 11.0304 8.05 11.648 7.99867 12.7851C7.94734 14.0156 7.93334 14.3842 7.93334 17.5C7.93334 20.6158 7.94578 20.9829 8.00178 22.2133C8.05312 23.3504 8.24289 23.9695 8.40312 24.3802C8.59676 24.8844 8.89393 25.3425 9.27546 25.7248C9.65699 26.1072 10.1144 26.4053 10.6182 26.6C11.0304 26.7555 11.648 26.95 12.7851 27.0029C14.0156 27.0589 14.3842 27.0698 17.5 27.0698C20.6158 27.0698 20.9829 27.0589 22.2133 27.0029C23.3504 26.95 23.9696 26.7602 24.3802 26.6C24.8849 26.4058 25.3432 26.1079 25.7256 25.7256C26.108 25.3432 26.4058 24.8849 26.6 24.3802C26.7556 23.9695 26.95 23.3504 27.0013 22.2133C27.0589 20.9829 27.0698 20.6142 27.0698 17.5C27.0698 14.3858 27.0527 14.0156 26.9951 12.7851ZM17.5 23.4889C16.3146 23.4895 15.1557 23.1385 14.1699 22.4803C13.184 21.8222 12.4155 20.8864 11.9616 19.7914C11.5077 18.6963 11.3888 17.4913 11.6199 16.3287C11.851 15.166 12.4217 14.0981 13.2599 13.2599C14.0981 12.4217 15.1661 11.851 16.3287 11.6199C17.4913 11.3888 18.6963 11.5077 19.7914 11.9616C20.8864 12.4155 21.8222 13.184 22.4804 14.1698C23.1385 15.1557 23.4895 16.3146 23.4889 17.5C23.4881 19.0881 22.8568 20.6109 21.7339 21.7339C20.6109 22.8568 19.0881 23.4881 17.5 23.4889ZM23.7222 12.67C23.4453 12.67 23.1747 12.5879 22.9444 12.4341C22.7142 12.2802 22.5348 12.0616 22.4288 11.8058C22.3228 11.5499 22.2951 11.2684 22.3491 10.9969C22.4031 10.7253 22.5365 10.4758 22.7323 10.28C22.9281 10.0843 23.1775 9.95092 23.4491 9.8969C23.7207 9.84288 24.0022 9.8706 24.258 9.97657C24.5138 10.0825 24.7324 10.262 24.8863 10.4922C25.0401 10.7224 25.1222 10.9931 25.1222 11.27C25.1226 11.6408 24.976 11.9966 24.7144 12.2593C24.4528 12.5221 24.0977 12.6703 23.7269 12.6716L23.7222 12.67ZM26.9889 12.7836C26.9376 11.6464 26.7478 11.0289 26.5876 10.6167C26.3944 10.1138 26.0983 9.6568 25.7181 9.27507C25.338 8.89334 24.8823 8.59527 24.3802 8.4C23.9696 8.24444 23.3504 8.05 22.2133 7.99866C20.9829 7.94266 20.6142 7.93022 17.5 7.93022C14.3858 7.93022 14.0156 7.94266 12.7851 7.99866C11.648 8.05466 11.0304 8.24444 10.6182 8.4C10.114 8.59417 9.65605 8.8919 9.27398 9.27397C8.89191 9.65605 8.59418 10.114 8.4 10.6182C8.24445 11.0304 8.05 11.648 7.99867 12.7851C7.94734 14.0156 7.93334 14.3842 7.93334 17.5C7.93334 20.6158 7.94578 20.9829 8.00178 22.2133C8.05312 23.3504 8.24289 23.9695 8.40312 24.3802C8.59676 24.8844 8.89393 25.3425 9.27546 25.7248C9.65699 26.1072 10.1144 26.4053 10.6182 26.6C11.0304 26.7555 11.648 26.95 12.7851 27.0029C14.0156 27.0589 14.3842 27.0698 17.5 27.0698C20.6158 27.0698 20.9829 27.0589 22.2133 27.0029C23.3504 26.95 23.9696 26.7602 24.3802 26.6C24.8849 26.4058 25.3432 26.1079 25.7256 25.7256C26.108 25.3432 26.4058 24.8849 26.6 24.3802C26.7556 23.9695 26.95 23.3504 27.0013 22.2133C27.0589 20.9829 27.0698 20.6142 27.0698 17.5C27.0698 14.3858 27.0527 14.0156 26.9951 12.7851L26.9889 12.7836ZM17.5 23.4889C16.3146 23.4895 15.1557 23.1385 14.1699 22.4803C13.184 21.8222 12.4155 20.8864 11.9616 19.7914C11.5077 18.6963 11.3888 17.4913 11.6199 16.3287C11.851 15.166 12.4217 14.0981 13.2599 13.2599C14.0981 12.4217 15.1661 11.851 16.3287 11.6199C17.4913 11.3888 18.6963 11.5077 19.7914 11.9616C20.8864 12.4155 21.8222 13.184 22.4804 14.1698C23.1385 15.1557 23.4895 16.3146 23.4889 17.5C23.4881 19.0881 22.8568 20.6109 21.7339 21.7339C20.6109 22.8568 19.0881 23.4881 17.5 23.4889ZM23.7222 12.67C23.4453 12.67 23.1747 12.5879 22.9444 12.4341C22.7142 12.2802 22.5348 12.0616 22.4288 11.8058C22.3228 11.5499 22.2951 11.2684 22.3491 10.9969C22.4031 10.7253 22.5365 10.4758 22.7323 10.28C22.9281 10.0843 23.1775 9.95092 23.4491 9.8969C23.7207 9.84288 24.0022 9.8706 24.258 9.97657C24.5138 10.0825 24.7324 10.262 24.8863 10.4922C25.0401 10.7224 25.1222 10.9931 25.1222 11.27C25.1226 11.6408 24.976 11.9966 24.7144 12.2593C24.4528 12.5221 24.0977 12.6703 23.7269 12.6716L23.7222 12.67ZM17.5 6.91544e-08C14.0388 6.91544e-08 10.6554 1.02636 7.77753 2.94928C4.89967 4.87221 2.65665 7.60533 1.33212 10.803C0.00758243 14.0007 -0.338976 17.5194 0.336265 20.9141C1.01151 24.3087 2.67822 27.4269 5.12564 29.8744C7.57305 32.3218 10.6913 33.9885 14.0859 34.6637C17.4806 35.339 20.9993 34.9924 24.197 33.6679C27.3947 32.3433 30.1278 30.1003 32.0507 27.2225C33.9736 24.3446 35 20.9612 35 17.5C35.0002 15.2018 34.5477 12.9261 33.6683 10.8028C32.7889 8.67951 31.4999 6.75024 29.8748 5.12517C28.2498 3.50011 26.3205 2.21108 24.1972 1.33169C22.0739 0.452307 19.7982 -0.000204242 17.5 6.91544e-08ZM29.0889 22.3098C29.0699 23.2773 28.8868 24.2346 28.5476 25.1409C28.2481 25.9163 27.7897 26.6204 27.202 27.2082C26.6142 27.796 25.9101 28.2543 25.1347 28.5538C24.2284 28.893 23.2711 29.0761 22.3036 29.0951C21.0591 29.1527 20.6609 29.1667 17.4938 29.1667C14.3267 29.1667 13.9269 29.1527 12.6824 29.0951C11.7149 29.0761 10.7576 28.893 9.85134 28.5538C9.07595 28.2543 8.37177 27.796 7.78402 27.2082C7.19626 26.6204 6.73793 25.9163 6.43845 25.1409C6.10397 24.2338 5.92567 23.2765 5.91112 22.3098C5.85356 21.0653 5.84112 20.6671 5.84112 17.5C5.84112 14.3329 5.85356 13.9331 5.91112 12.6887C5.93015 11.7211 6.11319 10.7639 6.45245 9.85755C6.75107 9.08292 7.20821 8.37921 7.79458 7.7915C8.38095 7.2038 9.08361 6.74505 9.85756 6.44466C10.7643 6.10806 11.7216 5.92765 12.6887 5.91111C13.9331 5.85355 14.3313 5.84111 17.5 5.84111C20.6687 5.84111 21.0653 5.85355 22.3098 5.91111C23.2773 5.93014 24.2346 6.11318 25.1409 6.45244C25.9163 6.75192 26.6205 7.21026 27.2082 7.79801C27.796 8.38576 28.2543 9.08994 28.5538 9.86533C28.89 10.7695 29.071 11.7241 29.0889 12.6887C29.1464 13.9331 29.1604 14.3313 29.1604 17.5C29.1604 20.6687 29.1527 21.0653 29.0889 22.3098ZM26.6 10.6182C26.4057 10.1138 26.1077 9.6558 25.7253 9.27372C25.343 8.89163 24.8847 8.59399 24.3802 8.4C23.9696 8.24444 23.3504 8.05 22.2133 7.99866C20.9829 7.94266 20.6142 7.93022 17.5 7.93022C14.3858 7.93022 14.0156 7.94266 12.7851 7.99866C11.648 8.05466 11.0304 8.24444 10.6182 8.4C10.114 8.59417 9.65605 8.8919 9.27398 9.27397C8.89191 9.65605 8.59418 10.114 8.4 10.6182C8.24445 11.0304 8.05 11.648 7.99867 12.7851C7.94734 14.0156 7.93334 14.3842 7.93334 17.5C7.93334 20.6158 7.94578 20.9829 8.00178 22.2133C8.05312 23.3504 8.24289 23.9695 8.40312 24.3802C8.59676 24.8844 8.89393 25.3425 9.27546 25.7248C9.65699 26.1072 10.1144 26.4053 10.6182 26.6C11.0304 26.7555 11.648 26.95 12.7851 27.0029C14.0156 27.0589 14.3842 27.0698 17.5 27.0698C20.6158 27.0698 20.9829 27.0589 22.2133 27.0029C23.3504 26.95 23.9696 26.7602 24.3802 26.6C24.8849 26.4058 25.3432 26.1079 25.7256 25.7256C26.108 25.3432 26.4058 24.8849 26.6 24.3802C26.7556 23.9695 26.95 23.3504 27.0013 22.2133C27.0589 20.9829 27.0698 20.6142 27.0698 17.5C27.0698 14.3858 27.0589 14.0156 27.0013 12.7851C26.9438 11.648 26.7556 11.0304 26.6 10.6182ZM17.5 23.4889C16.3146 23.4895 15.1557 23.1385 14.1699 22.4803C13.184 21.8222 12.4155 20.8864 11.9616 19.7914C11.5077 18.6963 11.3888 17.4913 11.6199 16.3287C11.851 15.166 12.4217 14.0981 13.2599 13.2599C14.0981 12.4217 15.1661 11.851 16.3287 11.6199C17.4913 11.3888 18.6963 11.5077 19.7914 11.9616C20.8864 12.4155 21.8222 13.184 22.4804 14.1698C23.1385 15.1557 23.4895 16.3146 23.4889 17.5C23.4881 19.0881 22.8568 20.6109 21.7339 21.7339C20.6109 22.8568 19.0881 23.4881 17.5 23.4889ZM23.7222 12.67C23.4453 12.67 23.1747 12.5879 22.9444 12.4341C22.7142 12.2802 22.5348 12.0616 22.4288 11.8058C22.3228 11.5499 22.2951 11.2684 22.3491 10.9969C22.4031 10.7253 22.5365 10.4758 22.7323 10.28C22.9281 10.0843 23.1775 9.95092 23.4491 9.8969C23.7207 9.84288 24.0022 9.8706 24.258 9.97657C24.5138 10.0825 24.7324 10.262 24.8863 10.4922C25.0401 10.7224 25.1222 10.9931 25.1222 11.27C25.1226 11.6408 24.976 11.9966 24.7144 12.2593C24.4528 12.5221 24.0977 12.6703 23.7269 12.6716L23.7222 12.67Z" fill="white"/>
</svg>
