<svg width="35" height="35" viewBox="0 0 35 35" fill="none" xmlns="http://www.w3.org/2000/svg">
<path d="M15.166 14L21.228 17.5L15.166 21V14Z" fill="white"/>
<path d="M17.5 0C14.0388 0 10.6554 1.02636 7.77753 2.94928C4.89967 4.87221 2.65665 7.60533 1.33212 10.803C0.00758243 14.0007 -0.338976 17.5194 0.336265 20.9141C1.01151 24.3087 2.67822 27.4269 5.12564 29.8744C7.57305 32.3218 10.6913 33.9885 14.0859 34.6637C17.4806 35.339 20.9993 34.9924 24.197 33.6679C27.3947 32.3433 30.1278 30.1003 32.0507 27.2225C33.9736 24.3446 35 20.9612 35 17.5C35 12.8587 33.1562 8.40752 29.8744 5.12563C26.5925 1.84374 22.1413 0 17.5 0V0ZM28.6782 23.1156C28.5456 23.6101 28.2852 24.061 27.9231 24.4231C27.561 24.7852 27.1101 25.0456 26.6156 25.1782C24.7956 25.6667 17.5 25.6667 17.5 25.6667C17.5 25.6667 10.2029 25.6667 8.38289 25.1782C7.88856 25.0451 7.43784 24.7846 7.07585 24.4226C6.71386 24.0606 6.4533 23.6099 6.32023 23.1156C5.83334 21.2956 5.83334 17.5 5.83334 17.5C5.83334 17.5 5.83334 13.7029 6.32023 11.8829C6.45358 11.3887 6.71424 10.9381 7.07619 10.5762C7.43814 10.2142 7.8887 9.95357 8.38289 9.82022C10.2029 9.33333 17.5 9.33333 17.5 9.33333C17.5 9.33333 24.7956 9.33333 26.6156 9.82022C27.11 9.95314 27.5608 10.2137 27.9228 10.5757C28.2848 10.9377 28.5453 11.3885 28.6782 11.8829C29.1667 13.7029 29.1667 17.5 29.1667 17.5C29.1667 17.5 29.1667 21.2956 28.6782 23.1156Z" fill="white"/>
</svg>
