<svg width="24" height="19" viewBox="0 0 24 19" fill="none" xmlns="http://www.w3.org/2000/svg">
<path d="M21.5752 18.3486H2.42072C1.77891 18.348 1.16357 18.0927 0.709734 17.6389C0.255902 17.1851 0.000653025 16.5697 0 15.9279L0 2.42072C0.000870168 1.77897 0.256189 1.16376 0.709974 0.709974C1.16376 0.256189 1.77897 0.000870168 2.42072 0L21.5793 0C22.221 0.000870168 22.8362 0.256189 23.29 0.709974C23.7438 1.16376 23.9991 1.77897 24 2.42072V15.9279C23.9993 16.5704 23.7435 17.1864 23.2888 17.6404C22.8341 18.0943 22.2177 18.3491 21.5752 18.3486ZM2.42072 1.15116C2.08408 1.15138 1.76129 1.2852 1.52324 1.52324C1.2852 1.76129 1.15138 2.08408 1.15116 2.42072V15.9279C1.15138 16.2646 1.2852 16.5873 1.52324 16.8254C1.76129 17.0634 2.08408 17.1973 2.42072 17.1975H21.5793C21.9159 17.197 22.2385 17.0631 22.4765 16.8252C22.7145 16.5872 22.8484 16.2645 22.8488 15.9279V2.42072C22.8486 2.25371 22.8155 2.08839 22.7514 1.93419C22.6872 1.77998 22.5933 1.63993 22.4751 1.52203C22.3568 1.40413 22.2164 1.31069 22.062 1.24706C21.9076 1.18342 21.7422 1.15083 21.5752 1.15116H2.42072Z" fill="white"/>
<path d="M11.9977 11.3381C11.8564 11.3382 11.7201 11.2864 11.6145 11.1925L0.764045 1.5154C0.657664 1.4119 0.595378 1.2713 0.590195 1.12296C0.585012 0.974628 0.637332 0.830025 0.73623 0.719348C0.835129 0.608671 0.972959 0.540477 1.12094 0.529007C1.26892 0.517536 1.41562 0.563675 1.53039 0.657789L11.9977 9.99286L22.465 0.657789C22.521 0.605041 22.5869 0.564041 22.659 0.53721C22.7311 0.510379 22.8078 0.498261 22.8846 0.501571C22.9614 0.504882 23.0368 0.523554 23.1063 0.556485C23.1758 0.589416 23.238 0.635939 23.2892 0.693305C23.3404 0.750671 23.3796 0.817717 23.4045 0.890484C23.4293 0.963251 23.4394 1.04026 23.434 1.11697C23.4286 1.19368 23.4079 1.26854 23.3731 1.33711C23.3383 1.40568 23.2901 1.46659 23.2314 1.51622L12.3776 11.1942C12.2727 11.2867 12.1376 11.3379 11.9977 11.3381Z" fill="white"/>
<path d="M1.13154 17.8232C1.01679 17.8223 0.904926 17.7871 0.810322 17.7221C0.715718 17.6572 0.642692 17.5654 0.600621 17.4587C0.55855 17.3519 0.549355 17.235 0.574217 17.123C0.59908 17.0109 0.656864 16.9089 0.740149 16.8299L9.53829 8.50624C9.64955 8.40343 9.79685 8.34863 9.94826 8.35372C10.0997 8.35881 10.243 8.42339 10.3471 8.53344C10.4512 8.64349 10.5077 8.79015 10.5044 8.94161C10.501 9.09306 10.4381 9.23709 10.3293 9.34247L1.52705 17.6662C1.42012 17.7671 1.2786 17.8233 1.13154 17.8232Z" fill="white"/>
<path d="M22.8645 17.8232C22.7175 17.8233 22.5759 17.7671 22.469 17.6662L13.6635 9.34246C13.6075 9.29078 13.5624 9.22851 13.5307 9.15927C13.499 9.09003 13.4814 9.01518 13.4788 8.93907C13.4763 8.86296 13.4888 8.7871 13.5158 8.71589C13.5428 8.64467 13.5836 8.57952 13.6359 8.52419C13.6883 8.46887 13.7511 8.42448 13.8207 8.3936C13.8903 8.36272 13.9653 8.34596 14.0415 8.34429C14.1176 8.34261 14.1933 8.35607 14.2642 8.38386C14.3351 8.41166 14.3998 8.45325 14.4545 8.50622L23.26 16.8299C23.3435 16.9091 23.4014 17.0115 23.4262 17.1239C23.4509 17.2364 23.4413 17.3536 23.3988 17.4605C23.3562 17.5675 23.2825 17.6592 23.1873 17.7239C23.092 17.7885 22.9796 17.8231 22.8645 17.8232Z" fill="white"/>
</svg>
