<svg width="20" height="24" viewBox="0 0 20 24" fill="none" xmlns="http://www.w3.org/2000/svg">
<path d="M9.92189 15.3991C8.53077 15.3991 7.14979 14.6269 6.1343 13.2804C4.93555 11.6919 4.30176 9.37952 4.30176 6.59288C4.30176 3.21147 5.83461 1.59068 7.12043 0.825992C7.98084 0.322385 8.94021 0.0395216 9.92189 0C10.9046 0.0390219 11.8651 0.321901 12.7264 0.825992C14.0112 1.59068 15.544 3.21147 15.544 6.59288C15.544 9.37952 14.9102 11.6919 13.7115 13.2804C12.696 14.6269 11.316 15.3991 9.92189 15.3991ZM9.92189 1.50571C9.16584 1.54726 8.42897 1.77322 7.7684 2.16608C6.41171 2.99852 5.72223 4.48703 5.72223 6.59288C5.72223 11.9489 8.23615 13.8934 9.92492 13.8934C11.6137 13.8934 14.1266 11.9489 14.1266 6.59288C14.1266 1.56379 10.096 1.50571 9.92189 1.50571Z" fill="white"/>
<path d="M19.2913 24H0.708717C0.520754 24 0.340489 23.9207 0.207578 23.7795C0.0746682 23.6383 0 23.4468 0 23.2471L0 22.4835C0.00255272 20.807 0.377522 19.1548 1.09442 17.6612C1.81132 16.1677 2.84991 14.8749 4.12575 13.8881C4.201 13.8298 4.28632 13.7878 4.37683 13.7646C4.46735 13.7414 4.56128 13.7373 4.65328 13.7526C4.74527 13.768 4.83352 13.8024 4.91299 13.854C4.99246 13.9055 5.06159 13.9732 5.11643 14.0531C5.17128 14.1331 5.21076 14.2237 5.23263 14.3199C5.25451 14.416 5.25834 14.5158 5.2439 14.6135C5.22947 14.7113 5.19706 14.805 5.14853 14.8894C5.09999 14.9738 5.03627 15.0473 4.96102 15.1055C3.86532 15.9522 2.97328 17.0617 2.35751 18.3438C1.74174 19.6258 1.41965 21.0442 1.41743 22.4835V22.4943H18.5826V22.4835C18.5807 21.023 18.2494 19.5842 17.6165 18.2877C16.9836 16.9911 16.0675 15.8745 14.9448 15.0313C14.8688 14.9743 14.804 14.9018 14.7543 14.8182C14.7046 14.7346 14.6709 14.6414 14.6551 14.5439C14.6393 14.4464 14.6418 14.3466 14.6623 14.2501C14.6828 14.1536 14.721 14.0624 14.7747 13.9816C14.8284 13.9008 14.8966 13.8321 14.9753 13.7793C15.0541 13.7265 15.1418 13.6907 15.2336 13.6739C15.3253 13.6571 15.4193 13.6597 15.5101 13.6815C15.6009 13.7033 15.6868 13.7439 15.7629 13.8009C17.0709 14.7832 18.1382 16.0842 18.8754 17.5949C19.6126 19.1056 19.9982 20.7819 20 22.4835V23.2471C20 23.4468 19.9253 23.6383 19.7924 23.7795C19.6595 23.9207 19.4792 24 19.2913 24Z" fill="white"/>
</svg>
