<svg id="SvgjsSvg1042" width="288" height="288" xmlns="http://www.w3.org/2000/svg" version="1.1" xmlns:xlink="http://www.w3.org/1999/xlink" xmlns:svgjs="http://svgjs.com/svgjs"><defs id="SvgjsDefs1043"></defs><g id="SvgjsG1044" transform="matrix(1,0,0,1,0,0)"><svg xmlns="http://www.w3.org/2000/svg" viewBox="0 0 24 24" width="288" height="288"><path d="M22,3V21a1,1,0,0,1-1,1H7a1,1,0,0,1-1-1V15a1,1,0,0,1,2,0v5H20V4H8V9A1,1,0,0,1,6,9V3A1,1,0,0,1,7,2H21A1,1,0,0,1,22,3ZM13.46,14.12a1,1,0,0,0,0,1.42,1,1,0,0,0,.71.29,1,1,0,0,0,.71-.29l2.83-2.83a1,1,0,0,0,.21-.33,1,1,0,0,0,0-.76,1,1,0,0,0-.21-.33L14.88,8.46a1,1,0,0,0-1.42,1.42L14.59,11H3a1,1,0,0,0,0,2H14.59Z" data-name="11 Exit" fill="#ffffff" class="color000 svgShape"></path></svg></g></svg>