<svg id="SvgjsSvg1016" width="288" height="288" xmlns="http://www.w3.org/2000/svg" version="1.1" xmlns:xlink="http://www.w3.org/1999/xlink" xmlns:svgjs="http://svgjs.com/svgjs"><defs id="SvgjsDefs1017"></defs><g id="SvgjsG1018" transform="matrix(1,0,0,1,0,0)"><svg xmlns="http://www.w3.org/2000/svg" width="288" height="288" viewBox="0 0 13 18"><path fill="#ffffff" fill-rule="evenodd" d="M298.48 610.792l-4.797-.392-.008-4.975c0-.349-.326-.987-1.116-.987-.613 0-1.115.442-1.115.987v8.378l-.925-1.175c-.393-.496-1.19-.558-1.673-.13-.374.334-.426.858-.124 1.244l2.399 3.955c.207.267.55.303.915.303h5.372c1.06 0 1.972-.54 2.18-1.462l.369-3.55c.22-.975-.414-1.881-1.477-2.196m-10.369-3.395c-.613 0-1.111-.44-1.111-.986v-1.233c0-6.904 11.11-6.904 11.11 0v1.233c0 .545-.498.986-1.111.986s-1.111-.44-1.111-.986v-1.233c0-3.945-6.666-3.945-6.666 0v1.233c0 .545-.498.986-1.111.986" transform="translate(-287 -600)" class="color000 svgShape"></path></svg></g></svg>