<svg width="38" height="24" viewBox="0 0 38 24" fill="none" xmlns="http://www.w3.org/2000/svg">
<path d="M8.84297 8.72067C8.82589 8.46099 8.86073 8.20051 8.94547 7.95445C9.03021 7.70839 9.16315 7.48169 9.33651 7.2876C9.68602 6.88261 10.1782 6.62799 10.7107 6.57672C10.7496 7.11738 10.5776 7.6521 10.2308 8.06866C10.0652 8.27684 9.85389 8.44399 9.61318 8.55709C9.37246 8.67018 9.10887 8.72616 8.84297 8.72067Z" fill="black"/>
<path d="M12.6486 13.4093C12.4957 13.8736 12.2769 14.3136 11.9988 14.7156C11.6117 15.2861 11.211 15.8476 10.5703 15.8476C9.92957 15.8476 9.75751 15.5012 9.05569 15.5012C8.35387 15.5012 8.11163 15.8476 7.52753 15.8793C6.94343 15.911 6.4431 15.2725 6.05371 14.702C5.25454 13.5452 4.65007 11.442 5.47188 10.0247C5.66279 9.68016 5.9403 9.39137 6.277 9.18689C6.61369 8.98241 6.99791 8.86932 7.39169 8.8588C7.99617 8.84748 8.55762 9.25952 8.92212 9.25952C9.28661 9.25952 9.93862 8.77956 10.7061 8.82937C11.0419 8.84251 11.3702 8.93288 11.6655 9.09347C11.9608 9.25405 12.215 9.48053 12.4086 9.75532C12.1053 9.94219 11.8541 10.2027 11.6784 10.5126C11.5026 10.8225 11.408 11.1718 11.4034 11.528C11.4075 11.9282 11.5272 12.3188 11.7481 12.6526C11.969 12.9863 12.2817 13.2491 12.6486 13.4093Z" fill="black"/>
<path d="M17.3734 7.23102H14.1564V15.8068H15.4876V12.8773H17.3304C19.0125 12.8773 20.1943 11.7249 20.1943 10.0474C20.1943 8.36978 19.0374 7.23102 17.3734 7.23102ZM17.0157 11.7589H15.4876V8.36299H17.0225C18.1749 8.36299 18.8337 8.98104 18.8337 10.0632C18.8337 11.1454 18.1749 11.7589 17.0157 11.7589Z" fill="black"/>
<path d="M23.3729 9.44287C21.8266 9.44287 20.8644 10.2737 20.792 11.4034H22.0055C22.1187 10.8442 22.5828 10.4979 23.3253 10.4979C24.1087 10.4979 24.5796 10.9122 24.5796 11.6095V12.0894L22.868 12.1913C21.3806 12.2751 20.543 12.9452 20.543 14.0387C20.543 15.1321 21.3987 15.9245 22.6235 15.9245C23.0238 15.9297 23.4181 15.8275 23.7653 15.6284C24.1126 15.4293 24.4 15.1406 24.5977 14.7926H24.6271V15.8204H25.8564V11.5189C25.8564 10.2443 24.8875 9.44287 23.3729 9.44287ZM24.5796 13.4659C24.5796 14.2809 23.8777 14.899 22.9812 14.899C22.2907 14.899 21.8379 14.5413 21.8379 13.9934C21.8379 13.4455 22.2726 13.1195 23.0401 13.0652L24.5796 12.9701V13.4659Z" fill="black"/>
<path d="M30.9775 9.55383H32.3358L29.9904 16.1351C29.4561 17.6497 28.8381 18.1387 27.5408 18.1387C27.3661 18.1375 27.1915 18.1269 27.0178 18.107V17.0678C27.1558 17.087 27.2952 17.0945 27.4344 17.0905C28.0298 17.0905 28.34 16.8414 28.546 16.2008C28.546 16.1872 28.6592 15.8204 28.6592 15.8136L26.3953 9.55383H27.7876L29.3723 14.6432H29.395L30.9775 9.55383Z" fill="black"/>
<path d="M37.4682 2.64654C37.4651 2.41057 37.4439 2.17518 37.4048 1.94246C37.3644 1.70584 37.2881 1.47679 37.1784 1.26328C37.0706 1.05283 36.9308 0.860372 36.7641 0.692765C36.5971 0.525313 36.4045 0.385469 36.1936 0.278464C35.9796 0.16987 35.7507 0.0935772 35.5144 0.0520706C35.2865 0.0186444 35.0565 0.00124482 34.8261 0L34.5024 0H2.97255H2.64881C2.41209 0.00489753 2.17603 0.026839 1.94246 0.0656542C1.70613 0.107161 1.47725 0.183454 1.26328 0.292048C1.05588 0.398484 0.866428 0.536751 0.701821 0.701821C0.535762 0.870029 0.396084 1.06237 0.28752 1.27233C0.178864 1.48628 0.102568 1.71517 0.0611263 1.95151C0.0220725 2.18117 0.00163065 2.4136 0 2.64654C0 2.75521 0 2.87294 0 2.97029V21.0184C0 21.1248 0 21.2448 0 21.3421C0.00348403 21.5783 0.0261985 21.8138 0.0679181 22.0462C0.10936 22.2826 0.185656 22.5115 0.294312 22.7254C0.402876 22.9354 0.542554 23.1277 0.708612 23.2959C0.87622 23.4627 1.06868 23.6024 1.27912 23.7102C1.49264 23.8199 1.72169 23.8962 1.95831 23.9366C2.19179 23.9758 2.42793 23.997 2.66465 24H2.9884H34.5024H34.8261C35.0621 23.9969 35.2975 23.9757 35.5302 23.9366C35.7669 23.8962 35.9959 23.8199 36.2094 23.7102C36.6336 23.4943 36.9784 23.1496 37.1942 22.7254C37.3039 22.5119 37.3802 22.2828 37.4206 22.0462C37.4597 21.8135 37.4809 21.5781 37.484 21.3421C37.484 21.2335 37.484 21.1157 37.484 21.0184V2.97029C37.4727 2.86162 37.4704 2.75521 37.4682 2.64654ZM36.6758 21.0139C36.6758 21.1157 36.6758 21.2176 36.6758 21.3195C36.672 21.5158 36.6554 21.7117 36.626 21.9059C36.6 22.0633 36.5504 22.216 36.4788 22.3586C36.3402 22.6332 36.1172 22.8561 35.8427 22.9948C35.7 23.0664 35.5473 23.116 35.3899 23.142C35.1973 23.1717 35.0029 23.1883 34.808 23.1918H2.66013C2.46452 23.1886 2.26936 23.1719 2.07603 23.142C1.91868 23.1155 1.76611 23.0659 1.62324 22.9948C1.48786 22.9254 1.36412 22.8352 1.25649 22.7277C1.14839 22.6196 1.05821 22.4951 0.989341 22.3586C0.918551 22.2159 0.869704 22.0632 0.844449 21.9059C0.8128 21.7127 0.796148 21.5175 0.794642 21.3218C0.794642 21.2199 0.794642 21.118 0.794642 21.0161V2.97481C0.794642 2.87294 0.794642 2.77106 0.794642 2.66918C0.799996 2.47245 0.820431 2.27643 0.855768 2.08282C0.881024 1.92547 0.929871 1.77282 1.00066 1.63003C1.07052 1.49625 1.16063 1.37406 1.2678 1.2678C1.37565 1.1595 1.50026 1.06929 1.63683 1.00066C1.77948 0.929087 1.93214 0.879476 2.08961 0.853504C2.28287 0.822979 2.47807 0.806334 2.67371 0.803698H2.98161H34.4956H34.8035C34.9991 0.806334 35.1943 0.822979 35.3876 0.853504C35.545 0.880003 35.6975 0.92959 35.8404 1.00066C35.9759 1.06993 36.0997 1.16008 36.2071 1.2678C36.3159 1.37523 36.4062 1.49992 36.4743 1.63683C36.5463 1.77932 36.5959 1.93204 36.6214 2.08961C36.651 2.28299 36.6677 2.47812 36.6713 2.67371C36.6713 2.77559 36.6713 2.87746 36.6713 2.98161L36.6758 21.0139Z" fill="black"/>
<path d="M8.84297 8.72067C8.82589 8.46099 8.86073 8.20051 8.94547 7.95445C9.03021 7.70839 9.16315 7.48169 9.33651 7.2876C9.68602 6.88261 10.1782 6.62799 10.7107 6.57672C10.7496 7.11738 10.5776 7.6521 10.2308 8.06866C10.0652 8.27684 9.85389 8.44399 9.61318 8.55709C9.37246 8.67018 9.10887 8.72616 8.84297 8.72067Z" fill="white"/>
<path d="M12.6486 13.4093C12.4957 13.8736 12.2769 14.3136 11.9988 14.7156C11.6117 15.2861 11.211 15.8476 10.5703 15.8476C9.92957 15.8476 9.75751 15.5012 9.05569 15.5012C8.35387 15.5012 8.11163 15.8476 7.52753 15.8793C6.94343 15.911 6.4431 15.2725 6.05371 14.702C5.25454 13.5452 4.65007 11.442 5.47188 10.0247C5.66279 9.68016 5.9403 9.39137 6.277 9.18689C6.61369 8.98241 6.99791 8.86932 7.39169 8.8588C7.99617 8.84748 8.55762 9.25952 8.92212 9.25952C9.28661 9.25952 9.93862 8.77956 10.7061 8.82937C11.0419 8.84251 11.3702 8.93288 11.6655 9.09347C11.9608 9.25405 12.215 9.48053 12.4086 9.75532C12.1053 9.94219 11.8541 10.2027 11.6784 10.5126C11.5026 10.8225 11.408 11.1718 11.4034 11.528C11.4075 11.9282 11.5272 12.3188 11.7481 12.6526C11.969 12.9863 12.2817 13.2491 12.6486 13.4093Z" fill="white"/>
<path d="M17.3734 7.23102H14.1564V15.8068H15.4876V12.8773H17.3304C19.0125 12.8773 20.1943 11.7249 20.1943 10.0474C20.1943 8.36978 19.0374 7.23102 17.3734 7.23102ZM17.0157 11.7589H15.4876V8.36299H17.0225C18.1749 8.36299 18.8337 8.98104 18.8337 10.0632C18.8337 11.1454 18.1749 11.7589 17.0157 11.7589Z" fill="white"/>
<path d="M23.3729 9.44287C21.8266 9.44287 20.8644 10.2737 20.792 11.4034H22.0055C22.1187 10.8442 22.5828 10.4979 23.3253 10.4979C24.1087 10.4979 24.5796 10.9122 24.5796 11.6095V12.0894L22.868 12.1913C21.3806 12.2751 20.543 12.9452 20.543 14.0387C20.543 15.1321 21.3987 15.9245 22.6235 15.9245C23.0238 15.9297 23.4181 15.8275 23.7653 15.6284C24.1126 15.4293 24.4 15.1406 24.5977 14.7926H24.6271V15.8204H25.8564V11.5189C25.8564 10.2443 24.8875 9.44287 23.3729 9.44287ZM24.5796 13.4659C24.5796 14.2809 23.8777 14.899 22.9812 14.899C22.2907 14.899 21.8379 14.5413 21.8379 13.9934C21.8379 13.4455 22.2726 13.1195 23.0401 13.0652L24.5796 12.9701V13.4659Z" fill="white"/>
<path d="M32.3313 9.55383L29.9904 16.1351C29.4561 17.6497 28.8381 18.1387 27.5408 18.1387C27.3661 18.1375 27.1915 18.1269 27.0178 18.107V17.0678C27.1558 17.087 27.2952 17.0945 27.4344 17.0905C28.0298 17.0905 28.34 16.8414 28.546 16.2008C28.546 16.1872 28.6592 15.8204 28.6592 15.8136L26.3953 9.55383H27.7876L29.3723 14.6432H29.395L30.9797 9.55383H32.3313Z" fill="white"/>
<path d="M10.2308 8.06866C10.0652 8.27684 9.85389 8.44399 9.61318 8.55709C9.37246 8.67018 9.10887 8.72616 8.84297 8.72067C8.82589 8.46099 8.86073 8.20051 8.94547 7.95445C9.03021 7.70839 9.16315 7.48169 9.33651 7.2876C9.68602 6.88261 10.1782 6.62799 10.7107 6.57672C10.7496 7.11738 10.5776 7.6521 10.2308 8.06866Z" fill="black"/>
<path d="M12.6486 13.4093C12.4957 13.8736 12.2769 14.3136 11.9988 14.7156C11.6117 15.2861 11.211 15.8476 10.5703 15.8476C9.92957 15.8476 9.75751 15.5012 9.05569 15.5012C8.35387 15.5012 8.11163 15.8476 7.52753 15.8793C6.94343 15.911 6.4431 15.2725 6.05371 14.702C5.25454 13.5452 4.65007 11.442 5.47188 10.0247C5.66279 9.68016 5.9403 9.39137 6.277 9.18689C6.61369 8.98241 6.99791 8.86932 7.39169 8.8588C7.99617 8.84748 8.55762 9.25952 8.92212 9.25952C9.28661 9.25952 9.93862 8.77956 10.7061 8.82937C11.0419 8.84251 11.3702 8.93288 11.6655 9.09347C11.9608 9.25405 12.215 9.48053 12.4086 9.75532C12.1053 9.94219 11.8541 10.2027 11.6784 10.5126C11.5026 10.8225 11.408 11.1718 11.4034 11.528C11.4075 11.9282 11.5272 12.3188 11.7481 12.6526C11.969 12.9863 12.2817 13.2491 12.6486 13.4093Z" fill="black"/>
<path d="M17.3734 7.23102H14.1564V15.8068H15.4876V12.8773H17.3304C19.0125 12.8773 20.1943 11.7249 20.1943 10.0474C20.1943 8.36978 19.0374 7.23102 17.3734 7.23102ZM17.0157 11.7589H15.4876V8.36299H17.0225C18.1749 8.36299 18.8337 8.98104 18.8337 10.0632C18.8337 11.1454 18.1749 11.7589 17.0157 11.7589Z" fill="black"/>
<path d="M23.3729 9.44287C21.8266 9.44287 20.8644 10.2737 20.792 11.4034H22.0055C22.1187 10.8442 22.5828 10.4979 23.3253 10.4979C24.1087 10.4979 24.5796 10.9122 24.5796 11.6095V12.0894L22.868 12.1913C21.3806 12.2751 20.543 12.9452 20.543 14.0387C20.543 15.1321 21.3987 15.9245 22.6235 15.9245C23.0238 15.9297 23.4181 15.8275 23.7653 15.6284C24.1126 15.4293 24.4 15.1406 24.5977 14.7926H24.6271V15.8204H25.8564V11.5189C25.8564 10.2443 24.8875 9.44287 23.3729 9.44287ZM24.5796 13.4659C24.5796 14.2809 23.8777 14.899 22.9812 14.899C22.2907 14.899 21.8379 14.5413 21.8379 13.9934C21.8379 13.4455 22.2726 13.1195 23.0401 13.0652L24.5796 12.9701V13.4659Z" fill="black"/>
<path d="M32.3313 9.55383L29.9904 16.1351C29.4561 17.6497 28.8381 18.1387 27.5408 18.1387C27.3661 18.1375 27.1915 18.1269 27.0178 18.107V17.0678C27.1558 17.087 27.2952 17.0945 27.4344 17.0905C28.0298 17.0905 28.34 16.8414 28.546 16.2008C28.546 16.1872 28.6592 15.8204 28.6592 15.8136L26.3953 9.55383H27.7876L29.3723 14.6432H29.395L30.9797 9.55383H32.3313Z" fill="black"/>
</svg>
