<svg width="24" height="24" viewBox="0 0 24 24" fill="none" xmlns="http://www.w3.org/2000/svg">
<path fill-rule="evenodd" clip-rule="evenodd" d="M12 24C9.62663 24 7.30655 23.2962 5.33316 21.9776C3.35977 20.6591 1.8217 18.7849 0.91345 16.5922C0.0051994 14.3995 -0.23244 11.9867 0.230582 9.65892C0.693604 7.33115 1.83649 5.19295 3.51472 3.51472C5.19295 1.83649 7.33115 0.693604 9.65892 0.230582C11.9867 -0.23244 14.3995 0.0051994 16.5922 0.91345C18.7849 1.8217 20.6591 3.35977 21.9776 5.33316C23.2962 7.30655 24 9.62663 24 12C24 15.1826 22.7357 18.2348 20.4853 20.4853C18.2348 22.7357 15.1826 24 12 24ZM17.3911 10.5153C17.6269 8.94221 16.4292 8.09826 14.7925 7.53355L15.3246 5.40349L14.0277 5.0808L13.5111 7.15501C13.1697 7.06968 12.8207 6.99056 12.4716 6.90989L12.9929 4.82327L11.6975 4.49903L11.17 6.62909C10.8892 6.56548 10.6115 6.50188 10.3431 6.43362L8.55126 5.98061L8.20685 7.366C8.20685 7.366 9.16871 7.5863 9.1532 7.60181C9.67757 7.73213 9.77376 8.07964 9.75669 8.35579L9.1532 10.7806C9.19907 10.7916 9.24416 10.8055 9.28817 10.8225L9.1532 10.7899L8.29838 14.189C8.27967 14.2485 8.24941 14.3038 8.20933 14.3516C8.16926 14.3994 8.12015 14.4388 8.06482 14.4676C8.0095 14.4964 7.94903 14.5141 7.88689 14.5195C7.82475 14.5249 7.76214 14.5181 7.70265 14.4993C7.71661 14.5179 6.76096 14.265 6.76096 14.265L6.11713 15.7482L7.80504 16.1686C8.11532 16.2477 8.4256 16.3237 8.72812 16.4075L8.19289 18.5608L9.48675 18.8835L10.0189 16.755C10.3726 16.8496 10.7154 16.9381 11.0521 17.0234L10.5231 19.1441L11.8185 19.4668L12.3553 17.3166C14.566 17.7355 16.2337 17.5664 16.9272 15.5666C17.4919 13.9579 16.8993 13.0286 15.7357 12.4235C16.5844 12.2234 17.2204 11.6665 17.3911 10.5153ZM14.4279 14.6684C14.0292 16.2787 11.3251 15.4084 10.4393 15.1897L11.1514 12.3366C12.031 12.5554 14.8483 12.9898 14.4279 14.6684ZM14.8282 10.492C14.4652 11.9566 12.2094 11.2119 11.4803 11.0288L12.1257 8.44266C12.8548 8.62418 15.2114 8.96393 14.8297 10.492H14.8282Z" fill="white"/>
</svg>
