<svg width="36" height="24" viewBox="0 0 36 24" fill="none" xmlns="http://www.w3.org/2000/svg">
<path d="M31.7655 -4.41968e-05H3.62758C3.15196 -0.00149553 2.68071 0.0908868 2.24084 0.271813C1.80096 0.452739 1.4011 0.718656 1.06414 1.05434C0.727176 1.39002 0.459739 1.78887 0.277138 2.22805C0.0945375 2.66723 0.000360585 3.13812 0 3.61375L0 20.3889C0.00146181 21.3471 0.383135 22.2656 1.06121 22.9426C1.73929 23.6197 2.65834 23.9999 3.61655 23.9999H31.7545C32.7132 23.9992 33.6323 23.6179 34.31 22.9397C34.9876 22.2615 35.3683 21.3421 35.3683 20.3834V3.61375C35.3675 2.65744 34.9881 1.74035 34.3129 1.06311C33.6377 0.385862 32.7218 0.00360277 31.7655 -4.41968e-05ZM31.6965 19.862C31.6995 19.9692 31.681 20.0758 31.6422 20.1758C31.6034 20.2757 31.545 20.3669 31.4705 20.444C31.396 20.521 31.3068 20.5825 31.2083 20.6246C31.1097 20.6668 31.0037 20.6889 30.8965 20.6896H4.48827C4.38061 20.6896 4.27403 20.6681 4.17483 20.6262C4.07563 20.5844 3.98583 20.5231 3.91074 20.4459C3.83564 20.3688 3.77678 20.2773 3.73762 20.1771C3.69846 20.0768 3.67981 19.9696 3.68276 19.862V11.3324H31.6965V19.862ZM31.6965 6.49099H3.68276V4.13788C3.68276 3.92425 3.76762 3.71936 3.91869 3.5683C4.06975 3.41723 4.27464 3.33237 4.48827 3.33237H30.8965C31.1092 3.33382 31.3127 3.41933 31.4626 3.57024C31.6124 3.72115 31.6965 3.9252 31.6965 4.13788V6.49099Z" fill="white"/>
<path d="M20.4332 14.9876H6.29801C5.73734 14.9876 5.28284 15.4421 5.28284 16.0028C5.28284 16.5634 5.73734 17.018 6.29801 17.018H20.4332C20.9938 17.018 21.4483 16.5634 21.4483 16.0028C21.4483 15.4421 20.9938 14.9876 20.4332 14.9876Z" fill="white"/>
<path d="M28.4552 13.4455H26.869C26.2748 13.4455 25.7931 13.9272 25.7931 14.5214V17.4869C25.7931 18.0811 26.2748 18.5627 26.869 18.5627H28.4552C29.0493 18.5627 29.531 18.0811 29.531 17.4869V14.5214C29.531 13.9272 29.0493 13.4455 28.4552 13.4455Z" fill="white"/>
</svg>
