<svg width="43" height="24" viewBox="0 0 43 24" fill="none" xmlns="http://www.w3.org/2000/svg">
<path d="M31.6281 5.37075C31.6281 5.37075 31.6281 5.37075 31.6281 5.36708C31.5431 5.12675 31.4283 4.89803 31.2864 4.68624L31.2423 4.61951C31.2054 4.5628 31.1645 4.50879 31.1199 4.45787L31.1156 4.45297C31.0589 4.38195 30.9976 4.31338 30.9319 4.24725L30.7005 4.00847C26.5469 -0.144486 21.2564 0.000619565 21.2564 0.000619565C21.2564 0.000619565 15.9658 -0.144486 11.8165 4.00664L11.5851 4.24542C11.5206 4.31154 11.4594 4.38011 11.4014 4.45114L11.3971 4.45603C11.3526 4.50695 11.3116 4.56097 11.2747 4.61767L11.2306 4.68441C11.0879 4.89596 10.9725 5.12472 10.8871 5.36524C10.8869 5.36645 10.8869 5.3677 10.8871 5.36891C10.281 6.85058 9.56221 10.3405 11.3016 17.3741L11.3904 17.3619C11.4502 17.4866 11.5222 17.6052 11.6053 17.7157C11.8123 18.003 12.0015 18.3028 12.1717 18.6133C12.4595 19.1254 12.9027 19.5328 13.4372 19.7766C13.575 19.8378 13.7286 19.907 13.8909 19.9787C14.6508 20.3126 15.4331 20.5929 16.2322 20.8175C16.1273 20.3904 16.0633 19.9544 16.0411 19.5152C15.7182 19.3508 15.4045 19.1689 15.1013 18.9703C14.9213 18.8535 14.7454 18.7311 14.5736 18.6029C13.9778 18.1535 13.4464 17.649 13.2713 17.1819C12.8041 15.9359 11.5569 11.2656 11.7143 10.1892C11.8717 9.11288 12.8323 7.82591 14.7572 6.99079C15.0395 6.86834 15.2911 6.76609 15.5195 6.68466C16.8493 6.19485 17.3789 6.3069 18.3934 6.66935C19.5825 7.09426 20.7145 7.24916 21.2527 7.24916C21.6311 7.24916 22.3039 7.17202 23.0827 6.97855H23.0864C23.4134 6.89712 23.7599 6.79487 24.1107 6.67242C25.2997 6.24751 25.8251 6.16302 27.7482 6.99814C29.6713 7.83326 30.6362 9.12146 30.7917 10.1966C30.8529 10.608 30.706 11.5436 30.4776 12.6156C30.1103 14.344 29.5231 16.4196 29.2341 17.1892C29.0596 17.6564 28.5282 18.1609 27.9325 18.6103C27.4699 18.9571 26.9783 19.2634 26.463 19.5256C26.4416 19.9655 26.3782 20.4024 26.2738 20.8303C27.073 20.6052 27.8555 20.3248 28.6157 19.9909C28.778 19.9193 28.9317 19.8507 29.0694 19.7889C29.6039 19.545 30.0471 19.1377 30.335 18.6256C30.5059 18.3148 30.6959 18.0148 30.9038 17.7274C30.9869 17.6168 31.0589 17.4983 31.1187 17.3735L31.2074 17.3857C32.953 10.3423 32.2342 6.85242 31.6281 5.37075Z" fill="#353535"/>
<path d="M34.1231 20.2744C34.0778 20.6303 33.9281 20.9648 33.6928 21.2356C33.4575 21.5064 33.1471 21.7014 32.801 21.7958C32.4549 21.8903 32.0885 21.88 31.7483 21.7662C31.408 21.6525 31.1091 21.4404 30.8894 21.1568C30.6696 20.8732 30.5389 20.5308 30.5137 20.1729C30.4886 19.8151 30.5701 19.4577 30.748 19.1462C30.9259 18.8346 31.1922 18.5828 31.5132 18.4226C31.8342 18.2623 32.1955 18.2009 32.5514 18.246C33.0286 18.3069 33.4622 18.5547 33.7568 18.935C34.0515 19.3153 34.1832 19.797 34.1231 20.2744Z" fill="#353535"/>
<path d="M32.6591 17.3968C32.1352 17.3302 31.6034 17.4206 31.1308 17.6563C30.6582 17.8921 30.2662 18.2627 30.0043 18.7212C29.7423 19.1798 29.6223 19.7058 29.6593 20.2326C29.6963 20.7594 29.8886 21.2634 30.2121 21.6809C30.5355 22.0983 30.9755 22.4105 31.4764 22.5779C31.9772 22.7453 32.5165 22.7604 33.026 22.6214C33.5354 22.4823 33.9922 22.1952 34.3385 21.7966C34.6849 21.3979 34.9052 20.9054 34.9716 20.3815C35.0594 19.6793 34.8653 18.9709 34.4319 18.4115C33.9984 17.8521 33.361 17.4872 32.6591 17.3968ZM34.123 20.2744C34.0778 20.6303 33.9281 20.9648 33.6927 21.2356C33.4574 21.5064 33.1471 21.7014 32.801 21.7958C32.4549 21.8903 32.0885 21.88 31.7482 21.7663C31.408 21.6525 31.1091 21.4404 30.8893 21.1568C30.6696 20.8732 30.5389 20.5308 30.5137 20.173C30.4886 19.8151 30.5701 19.4578 30.748 19.1462C30.9259 18.8346 31.1921 18.5828 31.5131 18.4226C31.8341 18.2623 32.1954 18.2009 32.5514 18.246C33.0286 18.3069 33.4621 18.5547 33.7568 18.935C34.0515 19.3154 34.1832 19.797 34.123 20.2744Z" fill="#FFF8E6"/>
<path d="M30.1612 20.3822C30.0727 19.6798 30.2666 18.9711 30.7001 18.4115C31.1337 17.8519 31.7715 17.4872 32.4737 17.3974C32.5061 17.3925 32.538 17.3901 32.5704 17.387C32.3761 17.3694 32.1805 17.3729 31.9869 17.3974C31.2927 17.4851 30.6607 17.8419 30.227 18.3909C29.7932 18.9399 29.5923 19.6373 29.6676 20.333C29.7429 21.0286 30.0883 21.6669 30.6295 22.1105C31.1707 22.554 31.8644 22.7673 32.5612 22.7045C31.957 22.6472 31.3903 22.386 30.9542 21.964C30.518 21.542 30.2384 20.9842 30.1612 20.3822Z" fill="#D6D1C1"/>
<path d="M34.1231 20.2744C34.0778 20.6303 33.9281 20.9648 33.6928 21.2356C33.4575 21.5064 33.1471 21.7014 32.801 21.7958C32.4549 21.8903 32.0885 21.88 31.7483 21.7662C31.408 21.6525 31.1091 21.4404 30.8894 21.1568C30.6696 20.8732 30.5389 20.5308 30.5137 20.1729C30.4886 19.8151 30.5701 19.4577 30.748 19.1462C30.9259 18.8346 31.1922 18.5828 31.5132 18.4226C31.8342 18.2623 32.1955 18.2009 32.5514 18.246C33.0286 18.3069 33.4622 18.5547 33.7568 18.935C34.0515 19.3153 34.1832 19.797 34.1231 20.2744Z" fill="#353535"/>
<path d="M33.1881 17.507L33.1428 17.5039L33.1998 17.5235L33.1881 17.507Z" fill="#353535"/>
<path d="M42.5135 13.8542L40.0186 13.654L35.0017 17.1365C34.9209 17.0612 34.8364 16.9896 34.7495 16.9222L40.3988 11.9948L40.9039 9.00511L37.9651 9.76309L33.2507 16.201C33.1986 16.1881 33.146 16.1765 33.0933 16.1661C33.0407 16.1557 32.9953 16.1483 32.9458 16.1404L37.9087 7.50263L37.3069 3.87927L34.2456 5.90585L31.0251 16.3112C30.3595 16.5425 29.7679 16.9475 29.3113 17.4843C28.8548 18.021 28.55 18.67 28.4285 19.3641C28.307 20.0582 28.3732 20.7721 28.6202 21.432C28.8672 22.092 29.286 22.6739 29.8334 23.1176C30.3808 23.5613 31.0368 23.8507 31.7335 23.9558C32.4303 24.0609 33.1425 23.9778 33.7964 23.7153C34.4503 23.4528 35.0221 23.0203 35.4528 22.4626C35.8835 21.9049 36.1572 21.2422 36.2458 20.5431C36.3462 19.7624 36.2097 18.9696 35.854 18.2674L41.316 16.0516L42.5135 13.8542ZM34.9717 20.3815C34.9049 20.9047 34.6845 21.3963 34.3383 21.7942C33.9922 22.1921 33.5358 22.4785 33.027 22.6172C32.5181 22.7559 31.9796 22.7406 31.4794 22.5733C30.9792 22.406 30.5399 22.0941 30.2169 21.6772C29.8938 21.2603 29.7017 20.757 29.6646 20.2309C29.6275 19.7048 29.7473 19.1795 30.0086 18.7214C30.27 18.2633 30.6613 17.893 31.1331 17.6572C31.6049 17.4214 32.1359 17.3308 32.6592 17.3967C32.8234 17.4177 32.9853 17.4535 33.1429 17.5039L33.1882 17.507L33.1998 17.5235C33.3946 17.5912 33.5807 17.6814 33.7545 17.7923C33.8066 17.8253 33.858 17.8608 33.9076 17.8976C34.2159 18.1266 34.4716 18.4188 34.6576 18.7547C34.9331 19.2497 35.0431 19.8196 34.9717 20.3815Z" fill="#353535"/>
<path d="M8.38796 20.2744C8.43313 20.6302 8.58278 20.9647 8.81799 21.2355C9.05321 21.5063 9.36343 21.7013 9.70944 21.7959C10.0555 21.8905 10.4217 21.8803 10.762 21.7667C11.1022 21.6532 11.4012 21.4413 11.6211 21.1579C11.8409 20.8745 11.9718 20.5322 11.9972 20.1744C12.0226 19.8166 11.9414 19.4593 11.7638 19.1477C11.5862 18.836 11.3201 18.584 10.9993 18.4235C10.6785 18.263 10.3174 18.2012 9.96147 18.246C9.48383 18.3063 9.04973 18.5539 8.75464 18.9343C8.45956 19.3147 8.32766 19.7967 8.38796 20.2744Z" fill="#353535"/>
<path d="M9.32535 17.507L9.31372 17.5235L9.37066 17.5039L9.32535 17.507ZM9.32535 17.507L9.31372 17.5235L9.37066 17.5039L9.32535 17.507Z" fill="#353535"/>
<path d="M14.112 19.5488C14.0312 18.908 13.7944 18.2967 13.4224 17.7686C13.0504 17.2405 12.5545 16.8118 11.9783 16.52C11.8199 16.4395 11.6563 16.3699 11.4884 16.3118L8.26551 5.90768L5.20421 3.8811L4.60297 7.50446L9.56595 16.1422C9.51574 16.1502 9.46676 16.1588 9.41778 16.1679C9.3688 16.1771 9.31247 16.19 9.26043 16.2028L4.54603 9.76492L1.60963 9.00694L2.11475 11.9966L7.76346 16.9241C7.67652 16.9914 7.59202 17.0631 7.51121 17.1378L2.49435 13.654L0 13.8542L1.19819 16.0516L6.65955 18.2668C6.38146 18.8186 6.23661 19.428 6.23662 20.0459C6.23663 20.6639 6.38151 21.2732 6.65962 21.8251C6.93773 22.3769 7.34133 22.8559 7.83804 23.2235C8.33474 23.5911 8.91071 23.8372 9.51972 23.942C10.1287 24.0467 10.7538 24.0073 11.3448 23.8268C11.9358 23.6463 12.4763 23.3297 12.9228 22.9025C13.3693 22.4754 13.7095 21.9495 13.916 21.367C14.1226 20.7846 14.1897 20.1619 14.112 19.5488ZM10.5254 22.694C9.93928 22.768 9.34519 22.6456 8.83617 22.3458C8.32715 22.046 7.93194 21.5859 7.71246 21.0374C7.49298 20.4889 7.46162 19.8832 7.62331 19.315C7.78499 18.7468 8.13057 18.2483 8.60593 17.8976C8.65552 17.8608 8.70634 17.8253 8.75838 17.7923C8.93243 17.6814 9.11879 17.5912 9.3137 17.5235L9.32533 17.5069L9.37064 17.5039C9.52827 17.4535 9.69017 17.4177 9.85432 17.3967C10.2038 17.3491 10.5592 17.3712 10.9 17.4617C11.2409 17.5521 11.5604 17.7093 11.8402 17.9239C12.12 18.1386 12.3545 18.4066 12.5302 18.7124C12.7059 19.0182 12.8192 19.3557 12.8637 19.7056C12.9082 20.0554 12.8829 20.4106 12.7893 20.7507C12.6958 21.0907 12.5358 21.4088 12.3186 21.6867C12.1014 21.9645 11.8314 22.1966 11.524 22.3695C11.2166 22.5424 10.878 22.6527 10.5278 22.694H10.5254Z" fill="#353535"/>
<path d="M7.54179 20.3815C7.60815 20.9053 7.82832 21.3977 8.17447 21.7964C8.52061 22.1951 8.97719 22.4822 9.48649 22.6215C9.99579 22.7607 10.5349 22.7458 11.0358 22.5787C11.5366 22.4116 11.9767 22.0997 12.3003 21.6826C12.624 21.2654 12.8167 20.7616 12.854 20.235C12.8914 19.7083 12.7718 19.1824 12.5104 18.7237C12.2489 18.265 11.8573 17.8941 11.3851 17.6579C10.9129 17.4217 10.3812 17.3308 9.85736 17.3967C9.1545 17.4855 8.51569 17.8498 8.08144 18.4096C7.64719 18.9693 7.45307 19.6786 7.54179 20.3815ZM9.96144 18.2459C10.3173 18.2012 10.6785 18.263 10.9993 18.4235C11.3201 18.584 11.5861 18.836 11.7637 19.1476C11.9414 19.4593 12.0226 19.8166 11.9972 20.1744C11.9718 20.5322 11.8409 20.8744 11.621 21.1579C11.4012 21.4413 11.1022 21.6532 10.762 21.7667C10.4217 21.8803 10.0554 21.8904 9.70941 21.7959C9.3634 21.7013 9.05318 21.5063 8.81797 21.2355C8.58275 20.9647 8.4331 20.6302 8.38793 20.2744C8.35799 20.0378 8.37495 19.7978 8.43783 19.5678C8.50071 19.3378 8.60829 19.1225 8.75442 18.9341C8.90054 18.7458 9.08235 18.588 9.28946 18.47C9.49657 18.3519 9.72491 18.2758 9.96144 18.2459Z" fill="#FFF8E6"/>
<path d="M8.02851 20.3822C7.94008 19.6798 8.13391 18.9711 8.56746 18.4115C9.00101 17.8519 9.63885 17.4872 10.341 17.3974C10.3729 17.3925 10.4022 17.3901 10.4371 17.387C10.0674 17.3522 9.69452 17.3949 9.34224 17.5124C8.98997 17.6298 8.66607 17.8195 8.39124 18.0692C8.11641 18.319 7.8967 18.6233 7.74614 18.9628C7.59559 19.3022 7.51749 19.6694 7.51685 20.0407C7.51621 20.412 7.59303 20.7794 7.74242 21.1194C7.8918 21.4594 8.11046 21.7645 8.38443 22.0152C8.65839 22.2658 8.98163 22.4566 9.3335 22.5753C9.68537 22.694 10.0581 22.738 10.428 22.7045C9.82379 22.6472 9.25708 22.3861 8.82101 21.9641C8.38493 21.542 8.10545 20.9841 8.02851 20.3822Z" fill="#D6D1C1"/>
<path d="M8.38796 20.2744C8.43313 20.6302 8.58278 20.9647 8.81799 21.2355C9.05321 21.5063 9.36343 21.7013 9.70944 21.7959C10.0555 21.8905 10.4217 21.8803 10.762 21.7667C11.1022 21.6532 11.4012 21.4413 11.6211 21.1579C11.8409 20.8745 11.9718 20.5322 11.9972 20.1744C12.0226 19.8166 11.9414 19.4593 11.7638 19.1477C11.5862 18.836 11.3201 18.584 10.9993 18.4235C10.6785 18.263 10.3174 18.2012 9.96147 18.246C9.48383 18.3063 9.04973 18.5539 8.75464 18.9343C8.45956 19.3147 8.32766 19.7967 8.38796 20.2744Z" fill="#353535"/>
<path d="M8.38796 20.2744C8.43313 20.6302 8.58278 20.9647 8.81799 21.2355C9.05321 21.5063 9.36343 21.7013 9.70944 21.7959C10.0555 21.8905 10.4217 21.8803 10.762 21.7667C11.1022 21.6532 11.4012 21.4413 11.6211 21.1579C11.8409 20.8745 11.9718 20.5322 11.9972 20.1744C12.0226 19.8166 11.9414 19.4593 11.7638 19.1477C11.5862 18.836 11.3201 18.584 10.9993 18.4235C10.6785 18.263 10.3174 18.2012 9.96147 18.246C9.48383 18.3063 9.04973 18.5539 8.75464 18.9343C8.45956 19.3147 8.32766 19.7967 8.38796 20.2744Z" fill="#353535"/>
<path d="M33.8579 20.2113C33.8149 20.5465 33.6449 20.8524 33.3828 21.0659C33.1207 21.2793 32.7867 21.3839 32.4497 21.3581C32.7745 21.3328 33.0783 21.188 33.3025 20.9516C33.5267 20.7153 33.6553 20.4042 33.6635 20.0786C33.6716 19.7529 33.5587 19.4358 33.3467 19.1886C33.1346 18.9413 32.8383 18.7815 32.5152 18.74L32.4509 18.7333C32.5397 18.7267 32.6289 18.729 32.7173 18.74C33.0633 18.7846 33.3775 18.9645 33.5913 19.2402C33.8051 19.5159 33.9009 19.8651 33.8579 20.2113Z" fill="#FFF8E6"/>
<path d="M11.7253 20.2113C11.6824 20.5465 11.5123 20.8525 11.2502 21.0659C10.9882 21.2793 10.6541 21.3839 10.3171 21.3581C10.6419 21.3328 10.9458 21.188 11.17 20.9516C11.3942 20.7153 11.5228 20.4043 11.5309 20.0786C11.5391 19.753 11.4262 19.4358 11.2141 19.1886C11.002 18.9414 10.7058 18.7815 10.3827 18.74L10.3184 18.7333C10.4071 18.7267 10.4964 18.729 10.5847 18.74C10.9308 18.7843 11.2453 18.9641 11.4591 19.2399C11.673 19.5157 11.7687 19.865 11.7253 20.2113Z" fill="#FFF8E6"/>
<path d="M29.2397 17.1794C29.0646 17.6466 28.5331 18.1511 27.9374 18.6005C27.3717 19.0248 26.7628 19.3883 26.1208 19.6848C26.0296 20.8658 25.6806 22.1644 24.5822 22.1644H17.93C16.8322 22.1644 16.4826 20.8652 16.3914 19.6842C15.7499 19.3874 15.1414 19.024 14.576 18.5999C13.9803 18.1505 13.4489 17.646 13.2738 17.1788C12.8066 15.9328 11.5594 11.2625 11.7162 10.1862C11.8729 9.10982 12.8348 7.82285 14.7603 6.98773C16.6859 6.15261 17.2094 6.2371 18.3978 6.66201C19.5862 7.08692 20.7188 7.24182 21.2564 7.24182C21.794 7.24182 22.9266 7.08692 24.1157 6.66201C25.3047 6.2371 25.83 6.15261 27.7531 6.98773C29.6762 7.82285 30.6411 9.11105 30.7966 10.1862C30.9521 11.2613 29.7068 15.9335 29.2397 17.1794Z" fill="#FFF8E6"/>
<path d="M13.1794 11.5515C13.2688 14.8608 15.0775 18.9066 15.1032 18.9702C14.9232 18.8535 14.7472 18.731 14.5754 18.6029C13.9797 18.1535 13.4482 17.649 13.2731 17.1818C12.806 15.9359 11.5588 11.2656 11.7161 10.1892C11.8735 9.11285 12.8341 7.82588 14.7591 6.99076C15.0413 6.86831 15.293 6.76606 15.5213 6.68463C15.4491 6.72565 13.0907 8.2661 13.1794 11.5515Z" fill="#D6D1C1"/>
<path d="M30.4825 12.6058C30.3882 10.9601 28.9464 8.77246 27.6741 7.7653C26.3167 6.69017 23.2272 6.95895 23.0901 6.96936C23.417 6.88793 23.7636 6.78568 24.1144 6.66323C25.3034 6.23832 25.8287 6.15383 27.7518 6.98895C29.6749 7.82407 30.6399 9.11227 30.7954 10.1874C30.8578 10.5982 30.7109 11.5356 30.4825 12.6058Z" fill="#D6D1C1"/>
<path d="M30.6087 5.67134C30.6087 5.67134 29.0211 2.54882 23.9393 1.7688C23.9393 1.7688 27.2002 2.348 30.6087 5.67134Z" fill="#FFF8E6"/>
<path d="M25.8558 8.86001C25.5659 8.66549 25.2252 8.56071 24.8762 8.55878C23.6106 8.55878 22.5857 9.97555 22.5857 11.7229C22.5857 12.5679 22.8263 13.3362 23.2175 13.9038C23.6345 14.5081 24.2229 14.8834 24.8762 14.8834C26.1411 14.8834 27.166 13.4667 27.166 11.7205C27.1685 10.4574 26.6333 9.36818 25.8558 8.86001ZM24.8762 14.5883C24.5088 14.5883 24.1519 14.442 23.8421 14.1689C23.9587 14.1942 24.0778 14.2069 24.1972 14.2069C25.4621 14.2069 26.4876 12.7913 26.4876 11.0439C26.4897 10.5737 26.4117 10.1066 26.2568 9.66268C26.6413 10.1953 26.8691 10.9362 26.8691 11.7229C26.8691 12.5097 26.6505 13.2377 26.2568 13.785C25.8821 14.303 25.3923 14.5883 24.8786 14.5883H24.8762Z" fill="#353535"/>
<path d="M17.6331 8.55878C17.2841 8.56071 16.9433 8.66549 16.6535 8.86001C15.8778 9.36696 15.3408 10.4574 15.3408 11.7229C15.3408 13.4691 16.3664 14.8859 17.6313 14.8859C18.284 14.8859 18.8723 14.5081 19.2893 13.9063C19.6805 13.3387 19.9217 12.5703 19.9217 11.7254C19.9248 9.97555 18.8993 8.55878 17.6331 8.55878ZM17.6331 14.5883C17.1194 14.5883 16.6296 14.303 16.2543 13.785C15.8582 13.2377 15.6421 12.5054 15.6421 11.7229C15.6421 10.9405 15.8698 10.1923 16.2543 9.66268C16.0999 10.1067 16.0221 10.5738 16.0241 11.0439C16.0241 12.7913 17.049 14.2069 18.314 14.2069C18.4335 14.2069 18.5528 14.1942 18.6697 14.1689C18.3586 14.442 18.0035 14.5883 17.6331 14.5883Z" fill="#353535"/>
<path d="M19.847 16.1086L20.7654 15.0708C20.8256 14.9996 20.9006 14.9424 20.9852 14.9032C21.0698 14.864 21.162 14.8436 21.2552 14.8436C21.3484 14.8436 21.4406 14.864 21.5252 14.9032C21.6097 14.9424 21.6848 14.9996 21.745 15.0708L22.6634 16.108C22.7886 16.2564 22.8572 16.4443 22.8572 16.6385C22.8572 16.8327 22.7886 17.0206 22.6634 17.169C22.6059 17.2378 22.5341 17.2931 22.4529 17.3311C22.3717 17.3691 22.2831 17.3888 22.1935 17.3888C22.1038 17.3888 22.0153 17.3691 21.9341 17.3311C21.8529 17.2931 21.781 17.2378 21.7236 17.169L21.4015 16.8053C21.3834 16.7837 21.3608 16.7663 21.3353 16.7544C21.3097 16.7425 21.2819 16.7363 21.2537 16.7363C21.2255 16.7363 21.1976 16.7425 21.1721 16.7544C21.1465 16.7663 21.1239 16.7837 21.1058 16.8053L20.7838 17.169C20.7263 17.2377 20.6545 17.2929 20.5733 17.3309C20.4922 17.3688 20.4037 17.3884 20.3142 17.3884C20.2246 17.3884 20.1361 17.3688 20.055 17.3309C19.9739 17.2929 19.902 17.2377 19.8446 17.169C19.7195 17.0205 19.6512 16.8325 19.6516 16.6383C19.6521 16.4442 19.7213 16.2565 19.847 16.1086Z" fill="#353535"/>
<path d="M17.9907 21.5816V21.8265H17.9295C17.8096 21.8296 17.6905 21.8055 17.5812 21.7561C17.4719 21.7067 17.3752 21.6332 17.2982 21.5412C17.0239 21.235 16.8697 20.7183 16.7839 20.1593C17.0821 20.7789 17.5107 21.4677 17.9907 21.5816Z" fill="#D6D1C1"/>
<path d="M19.9438 21.7169V21.8283H18.6642V21.0538C18.6642 21.0538 18.756 21.6893 19.9438 21.7169Z" fill="#D6D1C1"/>
<path d="M21.8969 21.7169V21.8283H20.6173V21.0538C20.6173 21.0538 20.7092 21.6893 21.8969 21.7169Z" fill="#D6D1C1"/>
<path d="M23.8499 21.7169V21.8283H22.5703V21.0538C22.5703 21.0538 22.6622 21.6893 23.8499 21.7169Z" fill="#D6D1C1"/>
<path d="M25.132 21.6238C24.9822 21.7614 24.7843 21.8348 24.581 21.8283H24.5198V21.1609C24.5835 21.2889 24.7396 21.502 25.132 21.6238Z" fill="#D6D1C1"/>
<path d="M25.715 21.9912C25.575 22.1543 25.4009 22.2847 25.2049 22.3729C25.009 22.4612 24.796 22.5052 24.581 22.5018H17.9301C17.7152 22.5051 17.5022 22.4611 17.3062 22.3729C17.1102 22.2846 16.9361 22.1543 16.7962 21.9912C15.7467 20.8175 16.0706 17.8823 16.0853 17.7562C16.0888 17.711 16.1014 17.6671 16.1223 17.6269C16.1432 17.5868 16.172 17.5512 16.207 17.5224C16.2419 17.4937 16.2823 17.4722 16.3257 17.4594C16.3691 17.4466 16.4147 17.4426 16.4596 17.4478C16.5046 17.453 16.5481 17.4672 16.5874 17.4896C16.6268 17.512 16.6613 17.542 16.6887 17.578C16.7162 17.614 16.7361 17.6552 16.7473 17.699C16.7585 17.7429 16.7608 17.7886 16.7539 17.8333C16.7007 18.2993 16.6529 19.2838 16.7845 20.1599C16.8678 20.7189 17.0245 21.2338 17.2988 21.5418C17.3757 21.6338 17.4725 21.7073 17.5818 21.7567C17.6911 21.8061 17.8102 21.8302 17.9301 21.8271H17.9913V18.7413C17.9913 18.652 18.0268 18.5663 18.0899 18.5032C18.1531 18.44 18.2387 18.4046 18.328 18.4046C18.4173 18.4046 18.503 18.44 18.5661 18.5032C18.6293 18.5663 18.6648 18.652 18.6648 18.7413V21.8271H19.9444V18.7413C19.9444 18.652 19.9799 18.5663 20.043 18.5032C20.1062 18.44 20.1918 18.4046 20.2811 18.4046C20.3705 18.4046 20.4561 18.44 20.5193 18.5032C20.5824 18.5663 20.6179 18.652 20.6179 18.7413V21.8271H21.8975V18.7413C21.8975 18.652 21.933 18.5663 21.9961 18.5032C22.0593 18.44 22.1449 18.4046 22.2343 18.4046C22.3236 18.4046 22.4092 18.44 22.4724 18.5032C22.5355 18.5663 22.571 18.652 22.571 18.7413V21.8271H23.8506V18.7413C23.8506 18.652 23.8861 18.5663 23.9493 18.5032C24.0124 18.44 24.0981 18.4046 24.1874 18.4046C24.2767 18.4046 24.3623 18.44 24.4255 18.5032C24.4886 18.5663 24.5241 18.652 24.5241 18.7413V21.8271H24.5853C24.7887 21.8336 24.9865 21.7602 25.1364 21.6226C25.1653 21.5975 25.1925 21.5705 25.2178 21.5418C25.9225 20.752 25.8496 18.5974 25.7627 17.8339C25.7628 17.7515 25.7931 17.6719 25.848 17.6103C25.9028 17.5487 25.9784 17.5094 26.0603 17.4998C26.1422 17.4902 26.2248 17.511 26.2924 17.5583C26.36 17.6055 26.4079 17.676 26.427 17.7562C26.4417 17.8823 26.7656 20.8175 25.715 21.9912Z" fill="#353535"/>
</svg>
