<svg width="351" height="258" viewBox="0 0 351 258" fill="none" xmlns="http://www.w3.org/2000/svg">
<path d="M36.5308 10.352C36.6987 8.43485 38.8789 7.41831 40.4553 8.52224L44.7116 11.5029C46.288 12.6068 46.0782 15.0033 44.334 15.8165L39.6246 18.0122C37.8803 18.8255 35.9098 17.4455 36.0777 15.5284L36.5308 10.352Z" stroke="#00F0FF" stroke-width="2"/>
<path d="M276.589 242.189C276.025 240.349 277.663 238.588 279.539 239.019L284.603 240.182C286.479 240.612 287.185 242.912 285.874 244.321L282.335 248.125C281.024 249.534 278.68 248.996 278.115 247.156L276.589 242.189Z" stroke="#FF007A" stroke-width="2"/>
<circle cx="283.5" cy="29.5" r="5.5" stroke="#FFA73F" stroke-width="2"/>
<rect x="343.133" y="159.399" width="8" height="8" rx="2" transform="rotate(36.5062 343.133 159.399)" stroke="#FF0000" stroke-width="2"/>
<rect x="12.1426" y="214.819" width="8" height="8" rx="2" transform="rotate(107.453 12.1426 214.819)" stroke="#00FF47" stroke-width="2"/>
</svg>
