<svg width="1323" height="414" viewBox="0 0 1323 414" fill="none" xmlns="http://www.w3.org/2000/svg">
<path d="M30.7382 57.3776C31.0068 54.3102 34.4952 52.6837 37.0175 54.45L44.1113 59.4177C46.6335 61.184 46.2978 65.0183 43.5071 66.3195L35.658 69.9791C32.8672 71.2802 29.7144 69.0724 29.983 66.0049L30.7382 57.3776Z" stroke="#00F0FF" stroke-width="2"/>
<path d="M1057.84 301.053C1058.1 297.985 1061.59 296.359 1064.12 298.125L1071.21 303.093C1073.73 304.859 1073.4 308.694 1070.6 309.995L1062.76 313.654C1059.96 314.956 1056.81 312.748 1057.08 309.68L1057.84 301.053Z" stroke="#FA00FF" stroke-width="2"/>
<path d="M1286.46 88.1411C1289.13 86.6112 1292.46 88.5478 1292.45 91.627L1292.42 100.287C1292.41 103.366 1289.07 105.279 1286.4 103.729L1278.92 99.372C1276.26 97.8227 1276.27 93.9738 1278.95 92.4439L1286.46 88.1411Z" stroke="#FF007A" stroke-width="2"/>
<circle cx="275" cy="285" r="9" stroke="#FFA73F" stroke-width="2"/>
<circle cx="1117" cy="10" r="9" stroke="#3FFF52" stroke-width="2"/>
<rect x="226.133" y="83.3987" width="13" height="13" rx="4" transform="rotate(36.5062 226.133 83.3987)" stroke="#FF0000" stroke-width="2"/>
<rect x="1320.3" y="279.37" width="13" height="13" rx="4" transform="rotate(84.2341 1320.3 279.37)" stroke="#FFD600" stroke-width="2"/>
<rect x="19.7786" y="402.179" width="13" height="13" rx="4" transform="rotate(132.404 19.7786 402.179)" stroke="#00FF47" stroke-width="2"/>
</svg>
