<svg width="320" height="251" viewBox="0 0 320 251" fill="none" xmlns="http://www.w3.org/2000/svg">
<path d="M313.091 245.09C313.067 245.12 313.037 245.144 313.003 245.162C312.969 245.18 312.932 245.19 312.894 245.193C312.856 245.196 312.817 245.191 312.78 245.179C312.744 245.167 312.71 245.148 312.681 245.122C312.193 244.7 311.845 244.305 311.637 243.938C311.393 243.507 311.264 243.023 311.26 242.531C311.251 242.016 311.203 241.592 311.118 241.259C311.041 240.938 310.86 240.651 310.603 240.442C309.974 239.93 309.442 239.941 309.006 240.476C308.804 240.724 308.733 240.998 308.792 241.299C308.838 241.535 308.96 241.759 309.157 241.972C309.205 242.022 309.233 242.089 309.236 242.158C309.239 242.227 309.217 242.295 309.174 242.349L307.823 244.006C307.798 244.036 307.767 244.061 307.732 244.079C307.697 244.097 307.658 244.107 307.619 244.109C307.579 244.111 307.54 244.105 307.503 244.091C307.465 244.078 307.431 244.056 307.402 244.029C306.727 243.39 306.368 242.671 306.325 241.871C306.276 240.981 306.627 240.076 307.379 239.153C308.127 238.235 308.922 237.699 309.762 237.545C310.603 237.39 311.418 237.635 312.209 238.28C312.538 238.541 312.804 238.874 312.986 239.252C313.158 239.619 313.27 240.073 313.32 240.615L313.409 241.869C313.44 242.23 313.527 242.534 313.669 242.78C313.802 242.999 313.965 243.198 314.153 243.372C314.205 243.423 314.236 243.49 314.24 243.561C314.245 243.633 314.222 243.703 314.177 243.758L313.091 245.09ZM314.6 247.115C314.292 246.863 314.128 246.547 314.11 246.165C314.092 245.784 314.217 245.429 314.486 245.101C314.754 244.771 315.077 244.577 315.455 244.518C315.832 244.459 316.174 244.555 316.481 244.806C316.789 245.058 316.953 245.374 316.971 245.755C316.989 246.137 316.865 246.492 316.597 246.822C316.329 247.151 316.006 247.345 315.629 247.404C315.251 247.464 314.908 247.367 314.6 247.115Z" fill="#FF0000"/>
<path d="M6.11006 27.5422C6.06297 27.5547 6.01382 27.5575 5.96552 27.5504C5.91723 27.5433 5.87079 27.5265 5.82894 27.501C5.7871 27.4755 5.75071 27.4418 5.72194 27.4019C5.69317 27.362 5.67261 27.3167 5.66147 27.2687C5.47353 26.4678 5.40861 25.7998 5.4667 25.2645C5.53672 24.6378 5.76446 24.0406 6.12825 23.5295C6.50263 22.9898 6.77019 22.5159 6.93092 22.1076C7.09119 21.7189 7.11868 21.2868 7.00905 20.8791C6.74184 19.8797 6.18292 19.4938 5.33226 19.7213C4.9387 19.8265 4.66029 20.0571 4.49701 20.413C4.36807 20.6912 4.32625 21.0135 4.37155 21.38C4.38328 21.4684 4.36295 21.5579 4.31432 21.632C4.26568 21.7061 4.19203 21.7597 4.10699 21.783L1.47407 22.487C1.42559 22.4998 1.37496 22.5024 1.32534 22.4945C1.27573 22.4866 1.2282 22.4685 1.18575 22.4412C1.14329 22.4139 1.10682 22.3781 1.07862 22.3361C1.05043 22.294 1.03111 22.2465 1.02188 22.1967C0.800288 21.0322 0.966187 20.0204 1.51958 19.1611C2.13295 18.2051 3.17263 17.5311 4.63864 17.1391C6.09763 16.7489 7.31921 16.7879 8.30339 17.2558C9.28758 17.7237 9.94767 18.586 10.2837 19.8426C10.4291 20.3589 10.4554 20.9013 10.3606 21.4282C10.2649 21.9363 10.041 22.4891 9.68895 23.0864L8.84395 24.4497C8.60657 24.8461 8.46944 25.2249 8.43255 25.586C8.40639 25.9113 8.42586 26.239 8.4904 26.5593C8.50641 26.6497 8.4883 26.7426 8.43966 26.8197C8.39101 26.8969 8.31537 26.9526 8.22769 26.9759L6.11006 27.5422ZM6.15746 30.761C6.02655 30.2714 6.09419 29.8226 6.36039 29.4145C6.62658 29.0064 7.02098 28.7331 7.54359 28.5945C8.06731 28.4545 8.5462 28.4949 8.98026 28.7158C9.41433 28.9366 9.69624 29.2914 9.826 29.78C9.95698 30.2699 9.88951 30.7188 9.6236 31.1268C9.35769 31.5348 8.96341 31.8092 8.44077 31.9498C7.91762 32.0897 7.4389 32.0494 7.00463 31.8289C6.57037 31.6084 6.28797 31.2524 6.15746 30.761Z" fill="#01D4E4"/>
<path d="M292.07 66.9954C292.022 66.9822 291.978 66.9594 291.939 66.9284C291.9 66.8974 291.868 66.8588 291.844 66.815C291.821 66.7711 291.806 66.7229 291.801 66.6731C291.797 66.6233 291.802 66.573 291.817 66.5252C292.063 65.7261 292.349 65.1067 292.675 64.667C293.058 64.1531 293.564 63.7461 294.146 63.4845C294.752 63.2033 295.23 62.9249 295.58 62.6493C295.92 62.3906 296.166 62.0256 296.28 61.6116C296.558 60.5977 296.266 59.9722 295.403 59.735C295.004 59.6253 294.641 59.6846 294.315 59.913C294.059 60.0908 293.857 60.3521 293.708 60.6969C293.673 60.7805 293.61 60.8486 293.529 60.8886C293.448 60.9286 293.356 60.9378 293.27 60.9146L290.598 60.1804C290.549 60.1667 290.503 60.143 290.464 60.1106C290.424 60.0782 290.392 60.0379 290.369 59.9922C290.346 59.9465 290.332 59.8963 290.329 59.8449C290.326 59.7936 290.333 59.742 290.351 59.6935C290.754 58.5582 291.419 57.7557 292.346 57.286C293.375 56.7623 294.633 56.7048 296.12 57.1136C297.6 57.5204 298.652 58.1818 299.275 59.0976C299.898 60.0134 300.035 61.1087 299.684 62.3836C299.547 62.9112 299.291 63.4006 298.938 63.8141C298.593 64.2107 298.113 64.5807 297.497 64.924L296.056 65.6861C295.644 65.912 295.329 66.1739 295.112 66.4717C294.922 66.7437 294.771 67.0412 294.663 67.3553C294.63 67.4428 294.567 67.515 294.484 67.5577C294.402 67.6004 294.307 67.6105 294.218 67.5859L292.07 66.9954ZM290.459 69.8435C290.595 69.3468 290.885 68.9878 291.328 68.7664C291.771 68.5451 292.257 68.5078 292.787 68.6546C293.318 68.8007 293.718 69.082 293.985 69.4986C294.253 69.9152 294.318 70.3712 294.181 70.8665C294.044 71.3635 293.754 71.7227 293.312 71.9441C292.869 72.1655 292.382 72.2037 291.851 72.0588C291.321 71.9129 290.921 71.6318 290.654 71.2154C290.386 70.799 290.321 70.3417 290.459 69.8435Z" fill="#3FFF52"/>
<path d="M9.99 245.78C9.94715 245.789 9.90296 245.789 9.86007 245.78C9.81717 245.771 9.77644 245.753 9.7403 245.728C9.70416 245.703 9.67334 245.671 9.64967 245.634C9.62601 245.596 9.60998 245.555 9.60253 245.511C9.47649 244.784 9.45364 244.182 9.53399 243.705C9.62986 243.147 9.86549 242.624 10.2185 242.186C10.5824 241.722 10.8472 241.311 11.0128 240.954C11.177 240.614 11.2244 240.229 11.1478 239.858C10.9612 238.948 10.4808 238.573 9.70662 238.732C9.34844 238.805 9.08679 238.997 8.92168 239.307C8.79145 239.55 8.73694 239.836 8.75814 240.167C8.76398 240.247 8.74104 240.326 8.69354 240.39C8.64605 240.453 8.57723 240.498 8.4998 240.514L6.10356 241.006C6.05944 241.014 6.01394 241.014 5.9699 241.004C5.92586 240.995 5.88424 240.976 5.84764 240.949C5.81104 240.923 5.78026 240.889 5.75722 240.849C5.73418 240.81 5.71938 240.767 5.71375 240.722C5.57678 239.667 5.77892 238.769 6.32017 238.028C6.92028 237.204 7.88745 236.655 9.22168 236.381C10.5495 236.109 11.642 236.208 12.499 236.68C13.3561 237.151 13.9019 237.958 14.1365 239.102C14.2395 239.572 14.2344 240.06 14.1217 240.527C14.009 240.977 13.7792 241.46 13.4322 241.977L12.603 243.154C12.3694 243.496 12.2265 243.828 12.1743 244.15C12.1337 244.44 12.1338 244.735 12.1747 245.025C12.1843 245.107 12.1631 245.189 12.1155 245.256C12.0678 245.322 11.9971 245.368 11.9173 245.385L9.99 245.78ZM9.86228 248.666C9.77088 248.221 9.85522 247.822 10.1153 247.471C10.3754 247.119 10.7432 246.895 11.2188 246.799C11.6954 246.701 12.1223 246.762 12.4996 246.983C12.8768 247.204 13.1106 247.537 13.2011 247.981C13.2925 248.427 13.2083 248.826 12.9485 249.177C12.6887 249.529 12.3209 249.754 11.8452 249.852C11.3691 249.95 10.9423 249.889 10.5649 249.668C10.1874 249.448 9.95324 249.114 9.86228 248.666Z" fill="#FFD600"/>
<path d="M194.434 11.924C194.392 11.9477 194.345 11.9627 194.297 11.968C194.249 11.9733 194.201 11.9689 194.154 11.9549C194.108 11.9409 194.064 11.9177 194.027 11.8867C193.989 11.8556 193.958 11.8174 193.936 11.7742C193.555 11.0539 193.326 10.4301 193.248 9.90285C193.158 9.28495 193.227 8.65579 193.448 8.07521C193.672 7.46457 193.809 6.94361 193.861 6.51233C193.918 6.09988 193.836 5.67897 193.629 5.31579C193.123 4.42524 192.491 4.19528 191.733 4.6259C191.382 4.82512 191.173 5.11563 191.106 5.49742C191.052 5.79616 191.092 6.11544 191.227 6.45527C191.261 6.537 191.264 6.62783 191.236 6.71095C191.208 6.79408 191.15 6.86388 191.075 6.90744L188.728 8.24028C188.685 8.26468 188.637 8.27978 188.588 8.28463C188.538 8.28949 188.488 8.284 188.441 8.2685C188.393 8.253 188.349 8.22783 188.312 8.19457C188.274 8.16131 188.244 8.12067 188.223 8.07521C187.719 7.01507 187.625 6.00421 187.94 5.04263C188.289 3.97335 189.116 3.06765 190.423 2.32553C191.723 1.58696 192.903 1.31877 193.963 1.52097C195.023 1.72317 195.871 2.38418 196.507 3.50401C196.775 3.96228 196.936 4.47536 196.977 5.00377C197.012 5.51452 196.936 6.10005 196.748 6.76037L196.28 8.27771C196.151 8.71685 196.115 9.11401 196.17 9.46917C196.226 9.78738 196.327 10.0964 196.468 10.3872C196.506 10.4697 196.512 10.5633 196.485 10.6494C196.458 10.7354 196.399 10.8077 196.321 10.852L194.434 11.924ZM195.284 14.9958C195.036 14.5595 194.989 14.1126 195.142 13.6551C195.295 13.1976 195.604 12.8371 196.07 12.5737C196.537 12.3086 197.006 12.2276 197.477 12.3306C197.948 12.4337 198.307 12.703 198.553 13.1387C198.801 13.5753 198.849 14.0222 198.696 14.4796C198.544 14.937 198.234 15.2984 197.769 15.5638C197.303 15.8287 196.834 15.9098 196.363 15.8071C195.892 15.7045 195.532 15.434 195.284 14.9958Z" fill="#FA00FF"/>
</svg>
