<svg width="1320" height="409" viewBox="0 0 1320 409" fill="none" xmlns="http://www.w3.org/2000/svg">
<path d="M7.52166 402.076C7.46028 402.086 7.3975 402.083 7.33705 402.068C7.2766 402.053 7.21971 402.026 7.16976 401.988C7.11982 401.951 7.07784 401.903 7.04631 401.849C7.01478 401.795 6.99436 401.735 6.98624 401.672C6.84815 400.631 6.84963 399.775 6.99068 399.102C7.15836 398.315 7.52268 397.585 8.04897 396.982C8.59232 396.343 8.99172 395.775 9.24717 395.276C9.49959 394.803 9.5888 394.257 9.50078 393.726C9.28695 392.423 8.6255 391.862 7.51644 392.044C7.00332 392.129 6.62071 392.386 6.3686 392.818C6.16987 393.155 6.07625 393.559 6.08773 394.031C6.09153 394.144 6.05446 394.255 5.98338 394.343C5.91229 394.431 5.81201 394.49 5.70106 394.509L2.26832 395.073C2.20513 395.083 2.1405 395.08 2.07847 395.063C2.01643 395.047 1.95835 395.018 1.90785 394.978C1.85735 394.938 1.81552 394.888 1.78499 394.831C1.75446 394.774 1.73589 394.711 1.73044 394.647C1.59528 393.14 1.93315 391.876 2.74403 390.854C3.64324 389.717 5.04852 388.991 6.95988 388.677C8.86207 388.365 10.4088 388.568 11.6001 389.286C12.7914 390.004 13.5215 391.182 13.7904 392.821C13.9102 393.495 13.8755 394.187 13.6889 394.844C13.5034 395.478 13.1496 396.152 12.6274 396.866L11.3828 398.492C11.0314 398.965 10.8097 399.429 10.7175 399.883C10.6433 400.293 10.6269 400.712 10.6686 401.127C10.6776 401.244 10.6429 401.359 10.5715 401.451C10.5 401.543 10.3969 401.604 10.2826 401.623L7.52166 402.076ZM7.17742 406.17C7.07266 405.532 7.21498 404.971 7.60437 404.486C7.99375 404.001 8.52906 403.703 9.21028 403.593C9.89309 403.481 10.4963 403.592 11.0199 403.927C11.5435 404.262 11.857 404.748 11.9604 405.385C12.0652 406.024 11.9231 406.586 11.5341 407.071C11.1451 407.556 10.6098 407.854 9.92825 407.967C9.24618 408.079 8.64319 407.968 8.11929 407.633C7.5954 407.299 7.28144 406.811 7.17742 406.17Z" fill="#00FF47"/>
<path d="M268.615 290.379C268.558 290.353 268.508 290.317 268.466 290.271C268.425 290.225 268.392 290.172 268.372 290.113C268.351 290.054 268.343 289.992 268.346 289.93C268.35 289.868 268.366 289.807 268.394 289.751C268.852 288.814 269.325 288.106 269.811 287.628C270.383 287.069 271.086 286.666 271.853 286.456C272.653 286.227 273.296 285.977 273.782 285.705C274.251 285.452 274.625 285.05 274.844 284.562C275.384 283.367 275.145 282.54 274.128 282.08C273.657 281.868 273.199 281.871 272.753 282.089C272.404 282.258 272.104 282.541 271.854 282.937C271.795 283.033 271.703 283.105 271.596 283.138C271.489 283.172 271.373 283.165 271.271 283.12L268.123 281.698C268.065 281.671 268.013 281.633 267.971 281.586C267.928 281.538 267.896 281.482 267.876 281.421C267.857 281.361 267.85 281.296 267.856 281.232C267.862 281.168 267.881 281.106 267.912 281.05C268.629 279.73 269.604 278.87 270.836 278.471C272.206 278.025 273.767 278.198 275.52 278.99C277.265 279.778 278.432 280.796 279.022 282.045C279.612 283.295 279.568 284.67 278.889 286.173C278.618 286.796 278.208 287.35 277.692 287.791C277.191 288.213 276.527 288.575 275.702 288.879L273.779 289.538C273.228 289.737 272.79 289.999 272.464 290.323C272.177 290.622 271.933 290.959 271.739 291.325C271.682 291.426 271.59 291.503 271.48 291.54C271.371 291.576 271.252 291.57 271.147 291.523L268.615 290.379ZM266.078 293.575C266.342 292.99 266.769 292.604 267.358 292.417C267.946 292.23 268.553 292.279 269.177 292.562C269.803 292.845 270.241 293.269 270.489 293.834C270.738 294.399 270.73 294.973 270.465 295.557C270.2 296.143 269.774 296.529 269.186 296.716C268.597 296.903 267.99 296.856 267.364 296.575C266.739 296.292 266.301 295.868 266.052 295.303C265.803 294.738 265.812 294.162 266.078 293.575Z" fill="#FFA73F"/>
<path d="M225.288 94.6468C225.259 94.6828 225.222 94.7124 225.181 94.7339C225.139 94.7555 225.094 94.7684 225.047 94.7721C225.001 94.7757 224.954 94.77 224.909 94.7552C224.865 94.7404 224.823 94.7168 224.788 94.6859C224.195 94.1712 223.771 93.6906 223.517 93.2439C223.221 92.7198 223.063 92.1303 223.059 91.5314C223.047 90.9045 222.989 90.3882 222.885 89.9824C222.792 89.592 222.572 89.2422 222.259 88.988C221.493 88.3641 220.845 88.3779 220.314 89.0294C220.068 89.3309 219.982 89.6649 220.054 90.0316C220.11 90.319 220.258 90.5918 220.498 90.8501C220.556 90.912 220.591 90.9926 220.594 91.0771C220.598 91.1616 220.571 91.2443 220.518 91.3098L218.874 93.3265C218.844 93.3635 218.806 93.3938 218.764 93.4154C218.721 93.4371 218.674 93.4496 218.626 93.4522C218.578 93.4549 218.529 93.4476 218.484 93.4308C218.439 93.414 218.397 93.3881 218.362 93.3546C217.54 92.5774 217.103 91.7017 217.05 90.7274C216.991 89.6447 217.418 88.5419 218.334 87.419C219.245 86.3015 220.212 85.6487 221.235 85.4606C222.258 85.2725 223.251 85.5708 224.213 86.3554C224.615 86.6736 224.938 87.0786 225.159 87.5393C225.369 87.986 225.505 88.539 225.567 89.198L225.675 90.7254C225.713 91.1648 225.818 91.5346 225.992 91.8346C226.153 92.101 226.352 92.3437 226.581 92.5555C226.643 92.6165 226.681 92.6985 226.687 92.7854C226.692 92.8723 226.665 92.9577 226.61 93.0248L225.288 94.6468ZM227.124 97.1111C226.749 96.8054 226.551 96.4203 226.528 95.9557C226.506 95.4911 226.659 95.0591 226.986 94.6598C227.313 94.2586 227.706 94.0222 228.165 93.9504C228.624 93.8787 229.041 93.9956 229.415 94.3012C229.79 94.607 229.989 94.9922 230.011 95.4565C230.033 95.9209 229.881 96.3537 229.556 96.7547C229.229 97.1554 228.836 97.3918 228.377 97.464C227.917 97.5361 227.5 97.4185 227.124 97.1111Z" fill="#FF0000"/>
<path d="M1112.19 15.6483C1112.13 15.6309 1112.07 15.6009 1112.02 15.56C1111.97 15.5191 1111.93 15.4683 1111.9 15.4104C1111.86 15.3526 1111.85 15.289 1111.84 15.2233C1111.83 15.1577 1111.84 15.0914 1111.86 15.0283C1112.18 13.9747 1112.56 13.158 1112.99 12.5782C1113.5 11.9007 1114.16 11.3639 1114.93 11.0191C1115.73 10.6483 1116.36 10.2811 1116.82 9.91776C1117.27 9.57665 1117.59 9.09534 1117.74 8.54952C1118.11 7.21269 1117.73 6.38789 1116.59 6.07512C1116.06 5.93042 1115.58 6.00864 1115.15 6.30978C1114.82 6.54427 1114.55 6.88884 1114.35 7.34348C1114.31 7.45366 1114.22 7.54342 1114.12 7.59618C1114.01 7.64894 1113.89 7.66112 1113.77 7.63047L1110.25 6.66239C1110.19 6.64439 1110.13 6.61305 1110.08 6.57035C1110.02 6.52764 1109.98 6.47449 1109.95 6.41421C1109.92 6.35394 1109.9 6.28785 1109.9 6.22009C1109.89 6.15232 1109.9 6.08435 1109.93 6.02043C1110.46 4.52348 1111.33 3.46536 1112.56 2.84605C1113.91 2.15542 1115.57 2.07961 1117.53 2.61864C1119.49 3.15509 1120.87 4.02709 1121.69 5.23464C1122.52 6.44219 1122.7 7.88648 1122.23 9.56749C1122.05 10.2631 1121.71 10.9084 1121.25 11.4537C1120.79 11.9766 1120.16 12.4644 1119.35 12.9171L1117.45 13.922C1116.91 14.2198 1116.49 14.5651 1116.2 14.9578C1115.95 15.3164 1115.75 15.7087 1115.61 16.1229C1115.57 16.2382 1115.49 16.3335 1115.38 16.3898C1115.27 16.4461 1115.14 16.4593 1115.03 16.4269L1112.19 15.6483ZM1110.07 19.4037C1110.25 18.7488 1110.63 18.2754 1111.21 17.9835C1111.8 17.6917 1112.44 17.6426 1113.14 17.8361C1113.84 18.0287 1114.37 18.3996 1114.72 18.9489C1115.07 19.4983 1115.16 20.0995 1114.98 20.7525C1114.8 21.4078 1114.41 21.8815 1113.83 22.1734C1113.25 22.4653 1112.6 22.5158 1111.9 22.3247C1111.21 22.1323 1110.68 21.7616 1110.33 21.2126C1109.97 20.6635 1109.89 20.0606 1110.07 19.4037Z" fill="#3FFF52"/>
<path d="M1311.51 290.732C1311.45 290.743 1311.39 290.743 1311.34 290.732C1311.28 290.72 1311.23 290.697 1311.18 290.665C1311.13 290.632 1311.09 290.59 1311.06 290.542C1311.03 290.493 1311.01 290.439 1311 290.382C1310.84 289.433 1310.81 288.648 1310.91 288.027C1311.04 287.3 1311.34 286.618 1311.8 286.046C1312.28 285.442 1312.62 284.906 1312.84 284.441C1313.05 283.998 1313.11 283.495 1313.01 283.011C1312.77 281.825 1312.15 281.336 1311.14 281.543C1310.67 281.639 1310.33 281.889 1310.11 282.293C1309.94 282.609 1309.87 282.983 1309.9 283.414C1309.91 283.518 1309.88 283.622 1309.82 283.705C1309.75 283.788 1309.66 283.845 1309.56 283.867L1306.44 284.508C1306.38 284.519 1306.32 284.519 1306.26 284.506C1306.21 284.494 1306.15 284.469 1306.11 284.434C1306.06 284.4 1306.02 284.355 1305.99 284.304C1305.96 284.253 1305.94 284.196 1305.93 284.137C1305.75 282.762 1306.02 281.591 1306.72 280.626C1307.5 279.551 1308.76 278.836 1310.5 278.479C1312.23 278.124 1313.66 278.253 1314.78 278.868C1315.89 279.482 1316.61 280.535 1316.91 282.026C1317.05 282.639 1317.04 283.275 1316.89 283.883C1316.75 284.47 1316.45 285.101 1315.99 285.774L1314.91 287.308C1314.61 287.755 1314.42 288.188 1314.35 288.607C1314.3 288.985 1314.3 289.37 1314.35 289.748C1314.37 289.855 1314.34 289.962 1314.28 290.049C1314.21 290.136 1314.12 290.195 1314.02 290.217L1311.51 290.732ZM1311.34 294.495C1311.22 293.914 1311.33 293.395 1311.67 292.936C1312.01 292.478 1312.49 292.186 1313.11 292.06C1313.73 291.933 1314.29 292.013 1314.78 292.301C1315.27 292.589 1315.57 293.023 1315.69 293.602C1315.81 294.183 1315.7 294.703 1315.36 295.162C1315.02 295.62 1314.54 295.913 1313.92 296.041C1313.3 296.169 1312.75 296.089 1312.25 295.801C1311.76 295.514 1311.46 295.078 1311.34 294.495Z" fill="#FFD600"/>
<path d="M1062.42 308.337C1062.37 308.365 1062.32 308.382 1062.26 308.388C1062.21 308.394 1062.15 308.389 1062.1 308.373C1062.04 308.357 1061.99 308.33 1061.95 308.294C1061.91 308.258 1061.87 308.214 1061.84 308.164C1061.4 307.331 1061.14 306.61 1061.05 306C1060.94 305.285 1061.02 304.558 1061.28 303.886C1061.54 303.18 1061.7 302.577 1061.76 302.079C1061.82 301.602 1061.73 301.115 1061.49 300.695C1060.9 299.665 1060.17 299.399 1059.3 299.897C1058.89 300.127 1058.65 300.463 1058.57 300.905C1058.51 301.25 1058.56 301.62 1058.71 302.013C1058.75 302.107 1058.75 302.212 1058.72 302.308C1058.69 302.404 1058.62 302.485 1058.53 302.536L1055.82 304.077C1055.77 304.105 1055.72 304.123 1055.66 304.128C1055.6 304.134 1055.54 304.128 1055.49 304.11C1055.43 304.092 1055.38 304.063 1055.34 304.024C1055.3 303.986 1055.26 303.939 1055.24 303.886C1054.65 302.66 1054.55 301.491 1054.91 300.379C1055.31 299.142 1056.27 298.095 1057.78 297.236C1059.28 296.382 1060.65 296.072 1061.88 296.306C1063.1 296.54 1064.08 297.304 1064.82 298.599C1065.13 299.129 1065.31 299.723 1065.36 300.334C1065.4 300.925 1065.31 301.602 1065.1 302.365L1064.55 304.12C1064.41 304.628 1064.36 305.088 1064.43 305.498C1064.49 305.866 1064.61 306.224 1064.77 306.56C1064.82 306.655 1064.82 306.764 1064.79 306.863C1064.76 306.963 1064.69 307.046 1064.6 307.098L1062.42 308.337ZM1063.4 311.89C1063.12 311.385 1063.06 310.869 1063.24 310.339C1063.42 309.81 1063.77 309.393 1064.31 309.089C1064.85 308.782 1065.39 308.688 1065.94 308.808C1066.48 308.927 1066.9 309.238 1067.18 309.742C1067.47 310.247 1067.53 310.764 1067.35 311.293C1067.17 311.822 1066.82 312.24 1066.28 312.547C1065.74 312.853 1065.2 312.947 1064.65 312.828C1064.11 312.71 1063.69 312.397 1063.4 311.89Z" fill="#FA00FF"/>
<path d="M35.3638 68.6096C35.2994 68.6267 35.2321 68.6305 35.166 68.6209C35.0999 68.6112 35.0363 68.5882 34.979 68.5533C34.9217 68.5184 34.8719 68.4722 34.8326 68.4176C34.7932 68.3629 34.765 68.3009 34.7498 68.2352C34.4925 67.139 34.4036 66.2245 34.4832 65.4918C34.579 64.634 34.8908 63.8164 35.3887 63.1168C35.9012 62.378 36.2675 61.7293 36.4875 61.1705C36.7069 60.6384 36.7445 60.0468 36.5944 59.4887C36.2287 58.1208 35.4636 57.5925 34.2991 57.9039C33.7604 58.0479 33.3793 58.3635 33.1558 58.8507C32.9793 59.2315 32.922 59.6728 32.9841 60.1745C33.0001 60.2955 32.9723 60.418 32.9057 60.5194C32.8391 60.6208 32.7383 60.6942 32.6219 60.7261L29.0178 61.6898C28.9514 61.7073 28.8821 61.7108 28.8142 61.7C28.7463 61.6892 28.6812 61.6644 28.6231 61.6271C28.565 61.5898 28.5151 61.5408 28.4765 61.4832C28.4379 61.4256 28.4114 61.3606 28.3988 61.2923C28.0955 59.6984 28.3226 58.3133 29.0801 57.1371C29.9197 55.8284 31.3429 54.9058 33.3497 54.3692C35.3468 53.8352 37.019 53.8884 38.3662 54.529C39.7134 55.1695 40.617 56.3498 41.0769 58.07C41.276 58.7767 41.312 59.5192 41.1823 60.2404C41.0512 60.9359 40.7447 61.6926 40.2628 62.5103L39.1062 64.3764C38.7812 64.9191 38.5935 65.4375 38.543 65.9318C38.5072 66.3772 38.5339 66.8257 38.6222 67.2642C38.6441 67.3879 38.6193 67.5151 38.5527 67.6207C38.4861 67.7263 38.3826 67.8026 38.2626 67.8345L35.3638 68.6096ZM35.4287 73.0157C35.2495 72.3455 35.3421 71.7312 35.7065 71.1725C36.0709 70.6139 36.6108 70.2398 37.3261 70.0502C38.043 69.8585 38.6986 69.9138 39.2928 70.2161C39.8869 70.5184 40.2728 71.004 40.4504 71.6729C40.6297 72.3434 40.5374 72.958 40.1734 73.5165C39.8094 74.075 39.2697 74.4506 38.5543 74.6431C37.8381 74.8346 37.1828 74.7794 36.5884 74.4776C35.9939 74.1758 35.6074 73.6885 35.4287 73.0157Z" fill="#01D4E4"/>
</svg>
