<svg width="228" height="45" viewBox="0 0 228 45" fill="none" xmlns="http://www.w3.org/2000/svg">
<path d="M87.9463 15.1931H95.6748C97.1358 15.1931 98.4428 15.4554 99.2392 15.9377C100.679 16.7922 101.41 18.3695 101.41 20.6489C101.41 24.965 101.294 26.3017 100.878 27.2651C100.037 29.084 98.5307 29.8068 95.4525 29.8068H87.9463V15.1931ZM95.1238 26.4552C96.1425 26.4552 96.5859 26.2353 96.9621 25.6007C97.2724 25.0967 97.3604 24.2857 97.3604 22.2915C97.3604 20.5607 97.2446 19.728 96.9621 19.2904C96.6519 18.7864 96.1425 18.5882 95.1238 18.5882H91.9101V26.4552H95.1238Z" fill="#FFF8E6"/>
<path d="M114.859 15.5871C116.276 16.2011 117.096 17.2309 117.406 18.7864C117.561 19.4656 117.606 20.5389 117.606 22.5767C117.606 25.7313 117.451 26.7393 116.742 27.8355C115.768 29.3692 114.079 29.9168 110.475 29.9168C108.173 29.9168 107.021 29.7197 106.068 29.1275C104.917 28.4265 104.297 27.5067 104.009 26.0829C103.893 25.469 103.854 24.7233 103.854 23.2777C103.854 20.626 103.969 19.2022 104.253 18.2159C104.585 16.9892 105.604 16.0029 107.087 15.4772C107.884 15.2149 109.08 15.0831 110.963 15.0831C112.974 15.0831 113.996 15.2149 114.859 15.5871ZM108.238 19.3121C107.994 19.7944 107.927 20.5172 107.927 22.6867C107.927 26.3017 108.104 26.5423 110.806 26.5423C112.427 26.5423 112.932 26.3235 113.264 25.4907C113.486 24.918 113.552 24.2639 113.552 22.3361C113.552 20.3201 113.508 19.8597 113.286 19.3339C112.977 18.6329 112.446 18.4359 110.855 18.4359C109.123 18.4359 108.592 18.6111 108.238 19.3121Z" fill="#FFF8E6"/>
<path d="M138.73 29.8068H134.832V25.4255C134.832 24.067 134.832 24.067 135.121 18.6112H134.987C134.301 20.8242 133.592 23.0372 132.839 25.272L131.311 29.8068H127.923L126.351 25.2491C125.974 24.1529 125.598 23.036 125.221 21.9181C124.867 20.823 124.513 19.7268 124.159 18.61H124.026C124.358 24.1529 124.358 24.1529 124.358 25.4243V29.8057H120.46V15.1931H126.634L128.007 19.3775C128.47 20.7795 128.671 21.4393 129.025 22.6202C129.181 23.2124 129.336 23.7817 129.513 24.3739H129.668L130.199 22.3797C130.42 21.5034 130.687 20.6489 131.085 19.4015L132.422 15.1931H138.734L138.73 29.8068Z" fill="#FFF8E6"/>
<path d="M145.931 29.8068H141.967V15.1931H145.931V29.8068Z" fill="#FFF8E6"/>
<path d="M163.855 29.8068H157.141L154.819 23.6454C154.2 21.9582 153.58 20.2709 152.982 18.5619H152.804C152.982 22.3533 152.982 22.3533 152.982 23.9524V29.8022H149.106V15.1931H155.772L158.122 21.3545C158.743 22.9971 159.363 24.6626 159.939 26.3063H160.09C159.935 22.713 159.935 22.713 159.935 21.0475V15.1931H163.855V29.8068Z" fill="#FFF8E6"/>
<path d="M179.896 15.1931V24.4175C179.896 24.6362 179.78 26.3017 179.762 26.4988C179.607 27.7038 178.965 28.69 177.968 29.2375C176.995 29.7633 176.042 29.9168 173.54 29.9168C171.192 29.9168 170.04 29.7633 169.067 29.3257C167.76 28.7118 167.207 27.8137 167.099 26.1047C167.056 25.6456 167.041 25.1842 167.055 24.7233V15.1931H171.019V24.7233C171.019 26.3017 171.417 26.564 173.681 26.564C175.587 26.564 175.94 26.2582 175.94 24.5263V15.1931H179.896Z" fill="#FFF8E6"/>
<path d="M191.115 19.7508V19.4873C191.115 18.3258 190.717 18.0624 189.031 18.0624C187.105 18.0624 186.639 18.3258 186.639 19.4873C186.639 20.0349 186.795 20.4289 187.06 20.5606C187.392 20.7577 187.392 20.7577 190.116 20.9329C192.375 21.0864 193.194 21.2616 193.97 21.7221C194.989 22.3361 195.32 23.1894 195.32 25.1837C195.32 27.1562 195.033 28.1619 194.278 28.8217C193.304 29.6544 192.108 29.9167 189.184 29.9167C185.419 29.9167 184.002 29.5444 183.249 28.3612C182.786 27.6384 182.651 26.8492 182.651 25.0749H186.416V25.3635C186.416 25.9775 186.548 26.3498 186.858 26.5685C187.191 26.832 187.368 26.8538 189.184 26.8538C190.468 26.8538 190.667 26.832 190.999 26.5468C191.288 26.3062 191.421 25.9741 191.421 25.3864C191.421 24.3555 191.11 24.115 189.56 24.0268C187.147 23.8962 185.929 23.7645 185.176 23.5892C183.338 23.131 182.673 22.0555 182.673 19.4472C182.673 17.6729 183.05 16.5779 183.891 15.9857C184.866 15.3064 186.106 15.0876 188.985 15.0876C192.085 15.0876 193.347 15.3946 194.099 16.3362C194.654 16.9937 194.897 17.87 194.897 19.0967L194.875 19.7542L191.115 19.7508Z" fill="#FFF8E6"/>
<path d="M211.266 21.5469C211.288 22.7955 211.312 23.9135 211.312 24.6798C211.312 26.8275 211.045 27.792 210.248 28.6465C209.296 29.6316 208.034 29.9168 204.401 29.9168C202.276 29.9168 201.368 29.8022 200.505 29.4346C198.537 28.6018 197.759 27.0028 197.759 23.8218C197.759 22.6168 197.803 20.4702 197.847 19.7463C197.963 18.0808 198.622 16.8105 199.751 16.0659C200.947 15.2767 202.01 15.0797 205.155 15.0797C207.746 15.0797 208.654 15.2114 209.65 15.7807C210.735 16.3718 211.2 17.5333 211.271 19.7463H207.263C207.108 18.5848 206.71 18.3443 204.849 18.3443C203.21 18.3443 202.48 18.6077 202.125 19.3087C201.882 19.7669 201.815 20.3603 201.815 22.3327C201.815 24.217 201.904 25.2239 202.082 25.7061C202.348 26.3636 203.055 26.6488 204.495 26.6488C206 26.6488 206.71 26.4518 207.042 25.9696C207.285 25.5973 207.329 25.3556 207.351 24.2388H204.602V21.5469H211.266Z" fill="#C86EED"/>
<path d="M227.292 21.5469C227.314 22.7955 227.336 23.9135 227.336 24.6798C227.336 26.8275 227.07 27.792 226.273 28.6465C225.32 29.6316 224.059 29.9168 220.427 29.9168C218.3 29.9168 217.393 29.8022 216.529 29.4346C214.561 28.6018 213.783 27.0028 213.783 23.8218C213.783 22.6168 213.827 20.4702 213.872 19.7463C213.988 18.0808 214.647 16.8105 215.776 16.0659C216.973 15.2767 218.035 15.0797 221.179 15.0797C223.77 15.0797 224.678 15.2114 225.675 15.7807C226.761 16.3718 227.225 17.5333 227.295 19.7463H223.286C223.131 18.5848 222.733 18.3443 220.873 18.3443C219.235 18.3443 218.503 18.6077 218.149 19.3087C217.906 19.7669 217.838 20.3603 217.838 22.3327C217.838 24.217 217.928 25.2239 218.105 25.7061C218.371 26.3636 219.079 26.6488 220.518 26.6488C222.023 26.6488 222.733 26.4518 223.065 25.9696C223.308 25.5973 223.354 25.3556 223.376 24.2388H220.63V21.5469H227.292Z" fill="#C86EED"/>
<path d="M59.8021 10.0969C59.8021 10.0969 59.8021 10.0969 59.8021 10.0901C59.6403 9.64029 59.4221 9.21237 59.1526 8.81633L59.0693 8.69148C58.9994 8.58539 58.9221 8.48433 58.8378 8.38908L58.8297 8.37991C58.7224 8.24704 58.6066 8.11875 58.4824 7.99504L58.0448 7.54831C50.1947 -0.221303 40.1914 0.0490248 40.1914 0.0490248C40.1914 0.0490248 30.188 -0.223594 22.3391 7.54259L21.9015 7.98931C21.7804 8.11302 21.6646 8.24131 21.5542 8.37418L21.5461 8.38335C21.4618 8.47861 21.3845 8.57966 21.3146 8.68575L21.2312 8.8106C20.9613 9.20638 20.7431 9.63436 20.5818 10.0843C20.5813 10.0866 20.5813 10.089 20.5818 10.0912C19.4357 12.8632 18.0766 19.3923 21.3655 32.5513L21.5334 32.5284C21.6464 32.7618 21.7825 32.9836 21.9397 33.1905C22.3328 33.7282 22.6919 34.2894 23.0152 34.8708C23.5595 35.8289 24.3975 36.5911 25.4081 37.0472C25.6686 37.1617 25.9591 37.2912 26.2659 37.4252C27.7027 38.0499 29.1819 38.5743 30.6928 38.9945C30.4954 38.1939 30.3756 37.3766 30.3351 36.5535C29.7245 36.2459 29.1312 35.9056 28.5581 35.5341C28.2177 35.3157 27.8851 35.0866 27.5602 34.8468C26.4338 34.006 25.4289 33.0622 25.0978 32.1882C24.2145 29.8572 21.8564 21.1197 22.1539 19.1059C22.4514 17.0922 24.2678 14.6845 27.9075 13.1221C28.4411 12.893 28.9169 12.7017 29.3487 12.5494C31.8632 11.633 32.8646 11.8426 34.7828 12.5207C37.031 13.3157 39.1715 13.6055 40.1891 13.6055C40.9045 13.6055 42.1768 13.4611 43.6493 13.0992H43.6586C44.2767 12.9468 44.932 12.7555 45.5953 12.5265C47.8435 11.7315 48.8368 11.5734 52.473 13.1358C56.1092 14.6982 57.9336 17.1083 58.2277 19.1197C58.3434 19.8894 58.0656 21.6397 57.6338 23.6454C56.9392 26.879 55.829 30.7621 55.2826 32.2019C54.9527 33.0759 53.9478 34.0198 52.8214 34.8605C51.9469 35.5095 51.0173 36.0824 50.043 36.573C50.0025 37.396 49.8827 38.2134 49.6853 39.0139C51.1964 38.5929 52.676 38.0681 54.1134 37.4435C54.4201 37.3095 54.7107 37.1812 54.9712 37.0655C55.9818 36.6094 56.8198 35.8472 57.3641 34.8892C57.6895 34.3032 58.0514 33.7378 58.4476 33.1962C58.6049 32.9893 58.741 32.7675 58.854 32.5341L59.0218 32.557C62.3073 19.398 60.9482 12.8689 59.8021 10.0969Z" fill="#353535"/>
<path d="M64.5193 37.9796C64.4335 38.6454 64.1502 39.2711 63.7051 39.7776C63.2599 40.284 62.673 40.6486 62.0185 40.825C61.3641 41.0015 60.6714 40.982 60.0281 40.769C59.3848 40.556 58.8198 40.159 58.4045 39.6283C57.9892 39.0976 57.7423 38.457 57.6949 37.7874C57.6475 37.1179 57.8019 36.4495 58.1384 35.8667C58.475 35.2839 58.9786 34.813 59.5856 34.5134C60.1926 34.2138 60.8758 34.099 61.5487 34.1835C62.4512 34.2975 63.2711 34.7614 63.8281 35.4732C64.3851 36.185 64.6337 37.0865 64.5193 37.9796Z" fill="#353535"/>
<path d="M61.7519 32.5959C60.7613 32.4715 59.7557 32.6405 58.8622 33.0816C57.9686 33.5226 57.2274 34.216 56.7321 35.0739C56.2369 35.9318 56.0098 36.9158 56.0798 37.9014C56.1497 38.887 56.5135 39.8299 57.125 40.6109C57.7366 41.3919 58.5685 41.976 59.5156 42.2892C60.4626 42.6024 61.4822 42.6307 62.4455 42.3705C63.4088 42.1103 64.2725 41.5733 64.9273 40.8274C65.5822 40.0815 65.9987 39.1602 66.1244 38.18C66.2903 36.8663 65.9234 35.541 65.1038 34.4944C64.2843 33.4478 63.079 32.7651 61.7519 32.5959ZM64.5199 37.9796C64.4341 38.6454 64.1508 39.2711 63.7056 39.7776C63.2605 40.2841 62.6736 40.6486 62.0191 40.8251C61.3646 41.0015 60.672 40.982 60.0287 40.769C59.3854 40.556 58.8204 40.1591 58.4051 39.6284C57.9898 39.0977 57.7428 38.457 57.6955 37.7875C57.6481 37.1179 57.8024 36.4495 58.139 35.8667C58.4755 35.2839 58.9791 34.813 59.5862 34.5134C60.1932 34.2138 60.8764 34.099 61.5493 34.1835C62.4518 34.2975 63.2716 34.7614 63.8287 35.4732C64.3857 36.185 64.6343 37.0865 64.5199 37.9796Z" fill="#FFF8E6"/>
<path d="M57.029 38.1812C56.8621 36.8673 57.2287 35.5415 58.0484 34.4947C58.8681 33.4478 60.0739 32.7654 61.4015 32.5971C61.4628 32.5879 61.5172 32.5833 61.5844 32.5776C61.217 32.5447 60.8471 32.5512 60.4811 32.5971C59.1685 32.7612 57.9735 33.4287 57.1534 34.4558C56.3332 35.483 55.9534 36.7877 56.0957 38.0892C56.2381 39.3907 56.8911 40.5848 57.9144 41.4146C58.9377 42.2444 60.2493 42.6434 61.567 42.5259C60.4246 42.4187 59.353 41.9301 58.5283 41.1406C57.7036 40.351 57.1749 39.3074 57.029 38.1812Z" fill="#D6D1C1"/>
<path d="M64.5193 37.9796C64.4335 38.6454 64.1502 39.2711 63.7051 39.7776C63.2599 40.284 62.673 40.6486 62.0185 40.825C61.3641 41.0015 60.6714 40.982 60.0281 40.769C59.3848 40.556 58.8198 40.159 58.4045 39.6283C57.9892 39.0976 57.7423 38.457 57.6949 37.7874C57.6475 37.1179 57.8019 36.4495 58.1384 35.8667C58.475 35.2839 58.9786 34.813 59.5856 34.5134C60.1926 34.2138 60.8758 34.099 61.5487 34.1835C62.4512 34.2975 63.2711 34.7614 63.8281 35.4732C64.3851 36.185 64.6337 37.0865 64.5193 37.9796Z" fill="#353535"/>
<path d="M62.7517 32.8021L62.666 32.7964L62.7737 32.833L62.7517 32.8021Z" fill="#353535"/>
<path d="M80.3839 25.9684L75.6664 25.5927L66.1806 32.1126C66.0278 31.9717 65.868 31.8377 65.7036 31.7117L76.3911 22.4931L77.3462 16.8998L71.7894 18.3179L62.8755 30.3623C62.7771 30.3383 62.6775 30.3165 62.5779 30.297C62.4784 30.2776 62.3927 30.2638 62.2989 30.2489L71.6829 14.0889L70.5449 7.31006L64.7567 11.1015L58.6674 30.5651C57.4088 30.9977 56.2899 31.7553 55.4265 32.7594C54.5631 33.7635 53.9866 34.9776 53.7567 36.2762C53.5268 37.5748 53.6517 38.9105 54.1187 40.1453C54.5856 41.38 55.3776 42.4688 56.4126 43.299C57.4476 44.1293 58.688 44.6707 60.0055 44.8674C61.323 45.064 62.6696 44.9087 63.9061 44.4175C65.1425 43.9264 66.2239 43.1172 67.0382 42.0737C67.8525 41.0302 68.3701 39.7903 68.5376 38.4825C68.7273 37.0218 68.4692 35.5385 67.7967 34.2248L78.1241 30.0794L80.3839 25.9684ZM66.1238 38.1801C65.9975 39.1588 65.5807 40.0785 64.9262 40.823C64.2717 41.5675 63.4089 42.1033 62.4467 42.3627C61.4846 42.6221 60.4663 42.5935 59.5206 42.2805C58.5749 41.9675 57.7441 41.3841 57.1334 40.6041C56.5226 39.8241 56.1592 38.8825 56.0892 37.8982C56.0191 36.914 56.2455 35.9312 56.7397 35.0742C57.2339 34.2172 57.9737 33.5243 58.8658 33.0832C59.7578 32.6421 60.762 32.4726 61.7514 32.596C62.0618 32.6351 62.3679 32.7022 62.6659 32.7964L62.7516 32.8021L62.7736 32.8331C63.1417 32.9598 63.4937 33.1286 63.8224 33.3359C63.9208 33.3978 64.0181 33.4642 64.1118 33.5329C64.6947 33.9614 65.1782 34.5081 65.53 35.1366C66.0508 36.0625 66.2588 37.1289 66.1238 38.1801Z" fill="#353535"/>
<path d="M15.8642 37.9796C15.9499 38.6454 16.2333 39.2711 16.6784 39.7776C17.1235 40.284 17.7104 40.6486 18.3649 40.825C19.0194 41.0015 19.7121 40.982 20.3554 40.769C20.9986 40.556 21.5637 40.159 21.979 39.6283C22.3943 39.0976 22.6412 38.457 22.6886 37.7874C22.7359 37.1179 22.5816 36.4495 22.245 35.8667C21.9085 35.2839 21.4049 34.813 20.7979 34.5134C20.1908 34.2138 19.5077 34.099 18.8347 34.1835C17.9322 34.2975 17.1124 34.7614 16.5554 35.4732C15.9984 36.185 15.7498 37.0865 15.8642 37.9796Z" fill="#353535"/>
<path d="M17.6323 32.8021L17.6104 32.833L17.718 32.7964L17.6323 32.8021ZM17.6323 32.8021L17.6104 32.833L17.718 32.7964L17.6323 32.8021Z" fill="#353535"/>
<path d="M26.6829 36.6222C26.5301 35.4233 26.0825 34.2796 25.3791 33.2917C24.6757 32.3037 23.738 31.5016 22.6484 30.9557C22.3491 30.805 22.0396 30.6749 21.7223 30.5662L15.6319 11.1015L9.84357 7.31006L8.70675 14.0889L18.0907 30.2489C17.9958 30.2638 17.9032 30.2799 17.8106 30.297C17.718 30.3142 17.6115 30.3383 17.5131 30.3623L8.59908 18.3179L3.04927 16.8998L4.00434 22.4931L14.6849 31.7117C14.5205 31.8377 14.3608 31.9717 14.2079 32.1114L4.7163 25.5927L0 25.9638L2.26554 30.0748L12.5918 34.2191C12.066 35.2515 11.7921 36.3915 11.7922 37.5476C11.7922 38.7038 12.0661 39.8438 12.592 40.8762C13.1178 41.9086 13.881 42.8046 14.8201 43.4924C15.7593 44.1802 16.8483 44.6406 17.9998 44.8366C19.1513 45.0326 20.3333 44.9588 21.4507 44.6211C22.5682 44.2834 23.5901 43.6912 24.4344 42.892C25.2787 42.0928 25.9219 41.1089 26.3124 40.0193C26.7029 38.9296 26.8298 37.7646 26.6829 36.6177V36.6222ZM19.8978 42.5065C18.7897 42.645 17.6664 42.4158 16.7039 41.855C15.7415 41.2941 14.9942 40.4332 14.5792 39.4071C14.1642 38.3811 14.1049 37.2478 14.4106 36.1848C14.7163 35.1218 15.3698 34.1891 16.2686 33.533C16.3623 33.4642 16.4584 33.3978 16.5568 33.3359C16.8859 33.1286 17.2383 32.9598 17.6068 32.8331L17.6288 32.8022L17.7145 32.7964C18.0125 32.7022 18.3187 32.6351 18.629 32.596C19.2897 32.5069 19.9617 32.5481 20.6062 32.7174C21.2507 32.8867 21.8549 33.1807 22.384 33.5823C22.913 33.9839 23.3564 34.4852 23.6886 35.0573C24.0207 35.6294 24.235 36.261 24.3191 36.9155C24.4032 37.57 24.3554 38.2345 24.1786 38.8707C24.0017 39.5068 23.6992 40.102 23.2885 40.6218C22.8779 41.1417 22.3672 41.5758 21.786 41.8993C21.2049 42.2228 20.5647 42.4291 19.9025 42.5065H19.8978Z" fill="#353535"/>
<path d="M14.2596 38.18C14.3852 39.1602 14.8018 40.0815 15.4567 40.8274C16.1115 41.5733 16.9752 42.1103 17.9384 42.3705C18.9017 42.6307 19.9214 42.6024 20.8684 42.2892C21.8155 41.976 22.6474 41.3919 23.2589 40.6109C23.8705 39.8299 24.2342 38.887 24.3042 37.9014C24.3741 36.9158 24.1471 35.9318 23.6519 35.0739C23.1566 34.216 22.4153 33.5226 21.5218 33.0816C20.6283 32.6405 19.6227 32.4715 18.6321 32.5959C17.3042 32.7634 16.0978 33.4456 15.2779 34.4926C14.458 35.5397 14.0918 36.866 14.2596 38.18ZM18.8347 34.1835C19.5077 34.0989 20.191 34.2137 20.7981 34.5134C21.4053 34.813 21.9089 35.2841 22.2455 35.867C22.582 36.4499 22.7363 37.1184 22.6888 37.7881C22.6413 38.4578 22.3941 39.0984 21.9786 39.6291C21.5631 40.1598 20.9978 40.5566 20.3543 40.7694C19.7109 40.9822 19.0181 41.0014 18.3636 40.8246C17.7091 40.6478 17.1223 40.2829 16.6774 39.7761C16.2325 39.2693 15.9494 38.6433 15.8641 37.9773C15.75 37.0845 15.9988 36.1835 16.5558 35.4721C17.1129 34.7607 17.9325 34.2973 18.8347 34.1835Z" fill="#FFF8E6"/>
<path d="M15.1807 38.1812C15.0138 36.8676 15.3801 35.5422 16.1993 34.4954C17.0185 33.4486 18.2238 32.766 19.5509 32.5971C19.6111 32.588 19.6724 32.5834 19.7326 32.5776C19.0336 32.5125 18.3285 32.5924 17.6624 32.8122C16.9963 33.032 16.3839 33.3868 15.8642 33.8541C15.3446 34.3213 14.9292 34.8906 14.6445 35.5257C14.3598 36.1608 14.2122 36.8476 14.2109 37.5424C14.2097 38.2371 14.355 38.9245 14.6375 39.5605C14.9199 40.1966 15.3333 40.7673 15.8514 41.2363C16.3694 41.7053 16.9805 42.0622 17.6459 42.2843C18.3112 42.5063 19.016 42.5886 19.7152 42.5259C18.5733 42.4184 17.5023 41.9296 16.6783 41.1401C15.8542 40.3505 15.3261 39.3071 15.1807 38.1812Z" fill="#D6D1C1"/>
<path d="M15.8642 37.9796C15.9499 38.6454 16.2333 39.2711 16.6784 39.7776C17.1235 40.284 17.7104 40.6486 18.3649 40.825C19.0194 41.0015 19.7121 40.982 20.3554 40.769C20.9986 40.556 21.5637 40.159 21.979 39.6283C22.3943 39.0976 22.6412 38.457 22.6886 37.7874C22.7359 37.1179 22.5816 36.4495 22.245 35.8667C21.9085 35.2839 21.4049 34.813 20.7979 34.5134C20.1908 34.2138 19.5077 34.099 18.8347 34.1835C17.9322 34.2975 17.1124 34.7614 16.5554 35.4732C15.9984 36.185 15.7498 37.0865 15.8642 37.9796Z" fill="#353535"/>
<path d="M15.8642 37.9796C15.9499 38.6454 16.2333 39.2711 16.6784 39.7776C17.1235 40.284 17.7104 40.6486 18.3649 40.825C19.0194 41.0015 19.7121 40.982 20.3554 40.769C20.9986 40.556 21.5637 40.159 21.979 39.6283C22.3943 39.0976 22.6412 38.457 22.6886 37.7874C22.7359 37.1179 22.5816 36.4495 22.245 35.8667C21.9085 35.2839 21.4049 34.813 20.7979 34.5134C20.1908 34.2138 19.5077 34.099 18.8347 34.1835C17.9322 34.2975 17.1124 34.7614 16.5554 35.4732C15.9984 36.185 15.7498 37.0865 15.8642 37.9796Z" fill="#353535"/>
<path d="M64.021 37.8628C63.9398 38.4899 63.6181 39.0621 63.1226 39.4612C62.627 39.8602 61.9954 40.0557 61.3584 40.0071C61.9725 39.9598 62.547 39.6889 62.9709 39.2467C63.3948 38.8046 63.638 38.2226 63.6534 37.6134C63.6688 37.0041 63.4554 36.4109 63.0543 35.9483C62.6533 35.4858 62.0932 35.1868 61.4823 35.1091C61.4418 35.1091 61.4012 35.1 61.3607 35.0977C61.5285 35.0849 61.6972 35.0888 61.8643 35.1091C62.5189 35.1923 63.1135 35.5288 63.5177 36.045C63.922 36.5611 64.103 37.2148 64.021 37.8628Z" fill="#FFF8E6"/>
<path d="M22.1704 37.8628C22.0892 38.4899 21.7675 39.0621 21.272 39.4612C20.7764 39.8602 20.1449 40.0557 19.5078 40.0071C20.1219 39.9598 20.6964 39.6888 21.1203 39.2467C21.5442 38.8046 21.7874 38.2226 21.8028 37.6134C21.8182 37.0041 21.6048 36.4109 21.2037 35.9483C20.8027 35.4858 20.2426 35.1868 19.6317 35.1091C19.5912 35.1091 19.5506 35.1 19.5159 35.0977C19.6834 35.0849 19.8517 35.0888 20.0183 35.1091C20.6721 35.1934 21.2655 35.5304 21.6688 36.0464C22.0721 36.5625 22.2525 37.2155 22.1704 37.8628Z" fill="#FFF8E6"/>
<path d="M55.2863 32.1894C54.9552 33.0634 53.9504 34.0072 52.824 34.848C51.7544 35.6419 50.6031 36.3219 49.3892 36.8766C49.2167 39.0862 48.5568 41.5145 46.48 41.5145H33.9055C31.8298 41.5145 31.1688 39.0839 30.9963 36.8743C29.7834 36.3191 28.6329 35.6392 27.5639 34.8457C26.4375 34.0049 25.4326 33.0611 25.1015 32.1871C24.2182 29.8561 21.8601 21.1186 22.1564 19.1048C22.4528 17.0911 24.2715 14.6834 27.9123 13.121C31.5532 11.5586 32.543 11.7167 34.79 12.5116C37.037 13.3066 39.1787 13.5964 40.1951 13.5964C41.2115 13.5964 43.3532 13.3066 45.6013 12.5116C47.8495 11.7167 48.8428 11.5586 52.479 13.121C56.1152 14.6834 57.9397 17.0934 58.2337 19.1048C58.5278 21.1163 56.1696 29.8584 55.2863 32.1894Z" fill="#FFF8E6"/>
<path d="M24.9195 21.6603C25.0885 27.8515 28.5083 35.4206 28.5569 35.5397C28.2165 35.3213 27.8839 35.0923 27.559 34.8525C26.4326 34.0117 25.4277 33.0679 25.0967 32.1939C24.2134 29.8629 21.8552 21.1253 22.1527 19.1116C22.4502 17.0979 24.2666 14.6902 27.9063 13.1278C28.44 12.8987 28.9158 12.7074 29.3476 12.5551C29.211 12.6318 24.7517 15.5126 24.9195 21.6603Z" fill="#D6D1C1"/>
<path d="M57.6374 23.6328C57.4591 20.5492 54.7328 16.4611 52.3295 14.5768C49.763 12.5654 43.9214 13.0683 43.6621 13.0878C44.2803 12.9354 44.9355 12.7441 45.5989 12.515C47.8471 11.7201 48.8403 11.562 52.4765 13.1244C56.1127 14.6868 57.9372 17.0968 58.2313 19.1083C58.3436 19.8769 58.068 21.6305 57.6374 23.6328Z" fill="#D6D1C1"/>
<path d="M57.8746 10.6594C57.8746 10.6594 54.8705 4.81759 45.2666 3.35828C45.2666 3.35828 51.4311 4.44188 57.8746 10.6594Z" fill="#FFF8E6"/>
<path d="M48.8881 16.6248C48.3401 16.2609 47.6959 16.0649 47.0359 16.0613C44.643 16.0613 42.7051 18.7119 42.7051 21.981C42.7051 23.5617 43.16 24.9993 43.8998 26.0611C44.6881 27.1917 45.8007 27.8938 47.0359 27.8938C49.4276 27.8938 51.3655 25.2432 51.3655 21.9764C51.3702 19.6133 50.3549 17.5744 48.8881 16.6248ZM47.0359 27.3417C46.3413 27.3417 45.6664 27.068 45.0806 26.5571C45.3012 26.6044 45.5263 26.6282 45.752 26.6281C48.1438 26.6281 50.0828 23.9798 50.0828 20.7107C50.088 19.8312 49.9416 18.9573 49.6499 18.1265C50.3769 19.1231 50.8075 20.5091 50.8075 21.981C50.8075 23.4529 50.3943 24.8148 49.6499 25.8389C48.9379 26.8079 48.0118 27.3417 47.0405 27.3417H47.0359Z" fill="#353535"/>
<path d="M33.3431 16.0613C32.6831 16.0649 32.0388 16.2609 31.4908 16.6248C30.0241 17.5733 29.0088 19.6133 29.0088 21.981C29.0088 25.2478 30.9479 27.8984 33.3396 27.8984C34.5736 27.8984 35.6862 27.1917 36.4745 26.0657C37.2143 25.0038 37.6704 23.5663 37.6704 21.9856C37.6739 18.7119 35.7348 16.0613 33.3431 16.0613ZM33.3431 27.3417C32.3718 27.3417 31.4457 26.8079 30.736 25.8389C29.987 24.8148 29.5784 23.4449 29.5784 21.981C29.5784 20.5171 30.009 19.1174 30.736 18.1265C30.4441 18.9573 30.2969 19.8311 30.3007 20.7107C30.3007 23.9798 32.2387 26.6281 34.6304 26.6281C34.8565 26.6282 35.082 26.6044 35.303 26.5571C34.716 27.068 34.0411 27.3417 33.3431 27.3417Z" fill="#353535"/>
<path d="M37.5264 30.1859L39.2629 28.2386C39.3767 28.1053 39.5185 27.9981 39.6785 27.9246C39.8384 27.8511 40.0127 27.813 40.189 27.813C40.3654 27.813 40.5397 27.8511 40.6996 27.9246C40.8596 27.9981 41.0014 28.1053 41.1152 28.2386L42.8516 30.179C43.0883 30.4567 43.2182 30.8083 43.2182 31.1715C43.2182 31.5348 43.0883 31.8864 42.8516 32.1641C42.743 32.2928 42.6071 32.3963 42.4536 32.4674C42.3001 32.5384 42.1326 32.5752 41.9631 32.5752C41.7937 32.5752 41.6262 32.5384 41.4727 32.4674C41.3192 32.3963 41.1833 32.2928 41.0746 32.1641L40.4657 31.4848C40.4315 31.4444 40.3887 31.4119 40.3404 31.3895C40.2921 31.3672 40.2395 31.3557 40.1861 31.3557C40.1328 31.3557 40.0802 31.3672 40.0319 31.3895C39.9836 31.4119 39.9408 31.4444 39.9066 31.4848L39.2976 32.1641C39.189 32.2926 39.0532 32.3959 38.8998 32.4669C38.7463 32.5378 38.5791 32.5746 38.4097 32.5746C38.2404 32.5746 38.0731 32.5378 37.9197 32.4669C37.7663 32.3959 37.6305 32.2926 37.5218 32.1641C37.2874 31.8864 37.1593 31.5359 37.1602 31.1741C37.161 30.8124 37.2907 30.4624 37.5264 30.1859Z" fill="#353535"/>
<path d="M34.021 40.4252V40.8834H33.9052C33.6785 40.8891 33.4534 40.8441 33.2467 40.7517C33.04 40.6593 32.8571 40.5218 32.7117 40.3496C32.1931 39.7768 31.9013 38.8101 31.7393 37.7643C32.2996 38.9235 33.1134 40.2121 34.021 40.4252Z" fill="#D6D1C1"/>
<path d="M37.7098 40.6783V40.8867H35.2949V39.4377C35.2949 39.4377 35.4639 40.6267 37.7098 40.6783Z" fill="#D6D1C1"/>
<path d="M41.4029 40.6783V40.8867H38.9834V39.4377C38.9834 39.4377 39.157 40.6267 41.4029 40.6783Z" fill="#D6D1C1"/>
<path d="M45.0953 40.6783V40.8867H42.6758V39.4377C42.6758 39.4377 42.8494 40.6267 45.0953 40.6783Z" fill="#D6D1C1"/>
<path d="M47.52 40.5042C47.2366 40.7615 46.8626 40.8989 46.4781 40.8867H46.3623V39.6382C46.4827 39.8776 46.7779 40.2762 47.52 40.5042Z" fill="#D6D1C1"/>
<path d="M48.624 41.1914C48.3595 41.4967 48.0303 41.7406 47.6597 41.9057C47.2892 42.0708 46.8864 42.1531 46.48 42.1468H33.9056C33.4992 42.153 33.0965 42.0707 32.726 41.9056C32.3554 41.7405 32.0262 41.4966 31.7616 41.1914C29.7739 38.9945 30.3863 33.5043 30.4141 33.2672C30.439 33.106 30.5261 32.9607 30.6571 32.8618C30.7881 32.7628 30.9527 32.718 31.1164 32.7367C31.2801 32.7554 31.4301 32.8361 31.5349 32.962C31.6397 33.0878 31.691 33.249 31.6782 33.4115C31.5775 34.2832 31.4872 36.1251 31.7361 37.7642C31.8936 38.81 32.1899 39.7734 32.7085 40.3495C32.854 40.5228 33.0373 40.6612 33.2446 40.7543C33.452 40.8473 33.678 40.8926 33.9056 40.8868H34.0213V35.1137C34.0213 34.9466 34.0884 34.7863 34.2078 34.6682C34.3272 34.55 34.4892 34.4837 34.658 34.4837C34.8269 34.4837 34.9889 34.55 35.1083 34.6682C35.2277 34.7863 35.2948 34.9466 35.2948 35.1137V40.8868H37.7143V35.1137C37.7143 34.9466 37.7813 34.7863 37.9007 34.6682C38.0202 34.55 38.1821 34.4837 38.351 34.4837C38.5198 34.4837 38.6818 34.55 38.8012 34.6682C38.9206 34.7863 38.9877 34.9466 38.9877 35.1137V40.8868H41.4072V35.1137C41.4072 34.9466 41.4743 34.7863 41.5937 34.6682C41.7131 34.55 41.875 34.4837 42.0439 34.4837C42.2128 34.4837 42.3747 34.55 42.4941 34.6682C42.6135 34.7863 42.6806 34.9466 42.6806 35.1137V40.8868H45.1001V35.1137C45.1001 34.9466 45.1672 34.7863 45.2866 34.6682C45.406 34.55 45.568 34.4837 45.7368 34.4837C45.9057 34.4837 46.0676 34.55 46.1871 34.6682C46.3065 34.7863 46.3735 34.9466 46.3735 35.1137V40.8868H46.4893C46.8738 40.8989 47.2478 40.7616 47.5312 40.5042C47.5859 40.4573 47.6374 40.4068 47.6852 40.353C49.0176 38.8753 48.8799 34.8445 48.7155 33.4161C48.6925 33.3291 48.6885 33.2382 48.704 33.1495C48.7195 33.0608 48.7539 32.9765 48.8051 32.9021C48.8563 32.8277 48.9229 32.7651 49.0006 32.7183C49.0783 32.6716 49.1652 32.6418 49.2555 32.6311C49.3458 32.6204 49.4373 32.6289 49.524 32.6561C49.6107 32.6833 49.6904 32.7286 49.758 32.7888C49.8255 32.8491 49.8792 32.923 49.9154 33.0055C49.9516 33.088 49.9696 33.1772 49.9681 33.2672C49.997 33.5043 50.6083 38.9945 48.624 41.1914Z" fill="#353535"/>
</svg>
