<svg width="14" height="21" viewBox="0 0 14 21" fill="none" xmlns="http://www.w3.org/2000/svg">
<path d="M7.36383 14.6095C7.29937 14.6266 7.23209 14.6304 7.16599 14.6208C7.09988 14.6111 7.0363 14.5881 6.97903 14.5532C6.92175 14.5183 6.87194 14.4721 6.83256 14.4175C6.79317 14.3628 6.76502 14.3008 6.74978 14.2351C6.49251 13.1389 6.40364 12.2244 6.48317 11.4917C6.57902 10.6339 6.89076 9.81626 7.38874 9.11669C7.90122 8.37794 8.26747 7.72916 8.48749 7.17036C8.70688 6.6383 8.7445 6.0467 8.59443 5.4886C8.22866 4.12068 7.46357 3.5924 6.29914 3.90376C5.76041 4.04781 5.37929 4.36342 5.15579 4.8506C4.97929 5.23139 4.92205 5.67265 4.98405 6.17439C5.00011 6.29537 4.97228 6.41788 4.90571 6.51928C4.83914 6.62067 4.73832 6.69409 4.62191 6.72595L1.01781 7.68965C0.951444 7.70719 0.88213 7.71068 0.814214 7.69989C0.746297 7.6891 0.68124 7.66427 0.623125 7.62696C0.565009 7.58964 0.515086 7.54065 0.476488 7.48305C0.437889 7.42545 0.411447 7.36049 0.398819 7.29223C0.0954851 5.69829 0.322578 4.3132 1.0801 3.13697C1.91971 1.82829 3.3429 0.905659 5.34967 0.369068C7.34682 -0.164951 9.019 -0.111687 10.3662 0.528859C11.7134 1.1694 12.617 2.34973 13.0769 4.06985C13.276 4.77659 13.312 5.51911 13.1823 6.24026C13.0512 6.93583 12.7447 7.69247 12.2628 8.51019L11.1062 10.3763C10.7812 10.919 10.5935 11.4374 10.543 11.9317C10.5072 12.3771 10.5339 12.8256 10.6222 13.2641C10.6441 13.3878 10.6193 13.515 10.5527 13.6206C10.4861 13.7262 10.3826 13.8025 10.2626 13.8344L7.36383 14.6095ZM7.42872 19.0156C7.24952 18.3454 7.34212 17.731 7.7065 17.1724C8.07088 16.6138 8.61076 16.2397 9.32615 16.0501C10.043 15.8584 10.6986 15.9137 11.2928 16.216C11.8869 16.5183 12.2728 17.0039 12.4504 17.6728C12.6297 18.3433 12.5374 18.9579 12.1734 19.5164C11.8094 20.0749 11.2697 20.4504 10.5543 20.643C9.83813 20.8345 9.18284 20.7793 8.58839 20.4775C7.99393 20.1757 7.60738 19.6884 7.42872 19.0156Z" fill="#01D4E4"/>
</svg>
