<svg width="14" height="21" viewBox="0 0 14 21" fill="none" xmlns="http://www.w3.org/2000/svg">
<path d="M3.19277 13.6483C3.12984 13.6308 3.07109 13.6008 3.02001 13.5599C2.96894 13.5191 2.92657 13.4682 2.89544 13.4104C2.86431 13.3525 2.84504 13.2889 2.83878 13.2233C2.83253 13.1576 2.83941 13.0913 2.85901 13.0282C3.18379 11.9746 3.56095 11.1579 3.99049 10.5781C4.49575 9.90061 5.16353 9.36388 5.93032 9.019C6.72874 8.64819 7.35909 8.28109 7.82137 7.9177C8.26989 7.57659 8.59426 7.09528 8.74347 6.54945C9.1109 5.21263 8.72564 4.38783 7.58768 4.07506C7.0612 3.93036 6.58305 4.00857 6.15325 4.30972C5.81578 4.54421 5.54918 4.88877 5.35343 5.34342C5.30717 5.4536 5.22307 5.54336 5.11666 5.59612C5.01026 5.64888 4.88876 5.66106 4.77463 5.63041L1.25246 4.66233C1.1877 4.64433 1.12741 4.61299 1.07535 4.57029C1.0233 4.52758 0.980601 4.47443 0.949945 4.41415C0.919289 4.35388 0.901333 4.28779 0.897203 4.22003C0.893073 4.15226 0.902857 4.08429 0.925943 4.02037C1.45791 2.52342 2.33482 1.4653 3.55666 0.845989C4.91337 0.155354 6.57231 0.0795515 8.53346 0.61858C10.4852 1.15502 11.8719 2.02702 12.6935 3.23458C13.5152 4.44213 13.695 5.88642 13.233 7.56743C13.0516 8.26308 12.7149 8.90836 12.2486 9.45359C11.7938 9.97654 11.1606 10.4643 10.349 10.917L8.44869 11.9219C7.90573 12.2198 7.49069 12.565 7.20357 12.9578C6.95307 13.3164 6.75376 13.7086 6.61155 14.1228C6.56891 14.2382 6.48505 14.3334 6.37656 14.3897C6.26807 14.446 6.14283 14.4593 6.02563 14.4269L3.19277 13.6483ZM1.06853 17.4036C1.24854 16.7487 1.63063 16.2753 2.21481 15.9835C2.79899 15.6916 3.44024 15.6425 4.13854 15.8361C4.83914 16.0286 5.36573 16.3996 5.71831 16.9489C6.07089 17.4982 6.15683 18.0994 5.97611 18.7525C5.796 19.4078 5.41404 19.8814 4.83024 20.1733C4.24643 20.4653 3.60463 20.5157 2.90485 20.3246C2.205 20.1322 1.67855 19.7615 1.32549 19.2125C0.972423 18.6635 0.886772 18.0605 1.06853 17.4036Z" fill="#3FFF52"/>
</svg>
