<svg width="13" height="21" viewBox="0 0 13 21" fill="none" xmlns="http://www.w3.org/2000/svg">
<path d="M6.52166 14.076C6.46028 14.086 6.3975 14.0834 6.33705 14.0683C6.2766 14.0533 6.21971 14.0261 6.16976 13.9885C6.11982 13.9508 6.07784 13.9034 6.04631 13.8491C6.01478 13.7948 5.99436 13.7347 5.98624 13.6723C5.84815 12.6314 5.84963 11.7747 5.99068 11.1022C6.15836 10.315 6.52268 9.58494 7.04897 8.98151C7.59232 8.34305 7.99172 7.77467 8.24717 7.27635C8.49959 6.80278 8.5888 6.25729 8.50078 5.72565C8.28695 4.42277 7.6255 3.86234 6.51644 4.04436C6.00332 4.12858 5.62071 4.38645 5.3686 4.818C5.16987 5.15513 5.07625 5.55933 5.08773 6.03059C5.09153 6.14432 5.05446 6.25545 4.98338 6.34342C4.91229 6.43139 4.81201 6.49026 4.70106 6.50914L1.26832 7.07254C1.20513 7.08272 1.1405 7.0796 1.07847 7.06335C1.01643 7.0471 0.958348 7.01809 0.907847 6.97813C0.857345 6.93818 0.815519 6.88813 0.784991 6.83114C0.754462 6.77415 0.735889 6.71144 0.730437 6.64695C0.595284 5.14007 0.933147 3.87568 1.74403 2.85378C2.64324 1.71652 4.04852 0.991036 5.95988 0.677336C7.86207 0.36514 9.40881 0.568059 10.6001 1.28609C11.7914 2.00413 12.5215 3.18231 12.7904 4.82064C12.9102 5.4947 12.8755 6.187 12.6889 6.84425C12.5034 7.47764 12.1496 8.1516 11.6274 8.86614L10.3828 10.4916C10.0314 10.9653 9.80967 11.4291 9.71745 11.8832C9.64334 12.2931 9.62691 12.7117 9.66863 13.1267C9.67761 13.2435 9.64293 13.3593 9.57145 13.4511C9.49997 13.543 9.39689 13.6043 9.28259 13.6229L6.52166 14.076ZM6.17742 18.1704C6.07266 17.5322 6.21498 16.9706 6.60437 16.4857C6.99375 16.0008 7.52906 15.7032 8.21028 15.5929C8.89309 15.4808 9.49629 15.5923 10.0199 15.9274C10.5435 16.2624 10.857 16.7485 10.9604 17.3854C11.0652 18.0241 10.9231 18.5858 10.5341 19.0707C10.1451 19.5555 9.60978 19.8544 8.92825 19.9674C8.24618 20.0794 7.64319 19.968 7.11929 19.6334C6.5954 19.2988 6.28144 18.8111 6.17742 18.1704Z" fill="#00FF47"/>
</svg>
