<svg width="15" height="19" viewBox="0 0 15 19" fill="none" xmlns="http://www.w3.org/2000/svg">
<path d="M3.61465 12.3788C3.55842 12.3533 3.50794 12.3166 3.46622 12.2709C3.42451 12.2252 3.3924 12.1714 3.37182 12.1128C3.35123 12.0542 3.34258 11.9919 3.34638 11.9297C3.35018 11.8674 3.36636 11.8064 3.39395 11.7504C3.85227 10.8137 4.32471 10.1061 4.81126 9.6275C5.38293 9.06873 6.08576 8.66541 6.85289 8.45588C7.65338 8.22677 8.2963 7.97642 8.78164 7.70484C9.25085 7.45206 9.62467 7.05003 9.84431 6.56198C10.3841 5.36694 10.1454 4.53967 9.12811 4.08017C8.65747 3.86758 8.19922 3.87039 7.75337 4.08858C7.4036 4.25807 7.10385 4.54083 6.85414 4.93685C6.79472 5.03299 6.70294 5.1045 6.59577 5.13815C6.4886 5.1718 6.37329 5.16533 6.27116 5.11991L3.12255 3.69769C3.0647 3.67135 3.01297 3.63322 2.9706 3.58566C2.92824 3.53811 2.89617 3.48217 2.87638 3.42135C2.8566 3.36052 2.84954 3.29614 2.85564 3.23221C2.86174 3.16829 2.88087 3.10622 2.91184 3.04989C3.62891 1.72943 4.60376 0.869676 5.8364 0.470627C7.20555 0.024759 8.76669 0.197773 10.5198 0.98967C12.2646 1.77777 13.4321 2.79634 14.0223 4.04537C14.6125 5.2944 14.5682 6.67028 13.8894 8.173C13.6177 8.79632 13.2082 9.34973 12.6924 9.79063C12.1906 10.2124 11.5273 10.5751 10.7025 10.8788L8.77921 11.5383C8.22812 11.7368 7.78958 11.9984 7.46359 12.3232C7.17683 12.6214 6.93296 12.9586 6.73919 13.3247C6.6824 13.4262 6.59005 13.5029 6.48041 13.5395C6.37076 13.5762 6.25181 13.5702 6.14705 13.5227L3.61465 12.3788ZM1.07791 15.5753C1.34236 14.9899 1.76895 14.6037 2.35767 14.4169C2.94639 14.2301 3.55275 14.2784 4.17675 14.5619C4.80304 14.8448 5.24053 15.2688 5.48922 15.8339C5.73791 16.399 5.72983 16.9733 5.46499 17.557C5.20039 18.1427 4.77389 18.5291 4.18551 18.7161C3.59712 18.9031 2.99006 18.8558 2.36431 18.5744C1.73869 18.2918 1.30129 17.8681 1.05212 17.3032C0.802938 16.7383 0.811537 16.1624 1.07791 15.5753Z" fill="#FFA73F"/>
</svg>
