<svg width="14" height="17" viewBox="0 0 14 17" fill="none" xmlns="http://www.w3.org/2000/svg">
<path d="M8.41971 12.3373C8.37115 12.3648 8.3175 12.3821 8.26195 12.3882C8.2064 12.3944 8.15008 12.3892 8.09634 12.373C8.0426 12.3569 7.99254 12.33 7.94912 12.2941C7.9057 12.2582 7.86981 12.214 7.84359 12.164C7.40375 11.331 7.13862 10.6096 7.0482 9.99978C6.94454 9.28516 7.02414 8.55751 7.27941 7.88605C7.53815 7.17982 7.69754 6.57731 7.75757 6.07852C7.82274 5.60151 7.7282 5.11471 7.48883 4.69468C6.90377 3.66473 6.17288 3.39877 5.29615 3.89679C4.89052 4.12721 4.64871 4.46319 4.57073 4.90474C4.50832 5.25025 4.55521 5.61951 4.7114 6.01253C4.74996 6.10706 4.75331 6.2121 4.72085 6.30824C4.68839 6.40437 4.62229 6.4851 4.5348 6.53548L1.82116 8.07696C1.77115 8.10517 1.71579 8.12264 1.65853 8.12825C1.60128 8.13387 1.54338 8.12752 1.48845 8.10959C1.43353 8.09167 1.38277 8.06256 1.33936 8.02409C1.29595 7.98562 1.26082 7.93862 1.23618 7.88604C0.653904 6.65996 0.545092 5.49086 0.909745 4.37876C1.31286 3.1421 2.2699 2.09463 3.78085 1.23633C5.28457 0.382155 6.64932 0.0719889 7.87511 0.305837C9.10089 0.539685 10.0816 1.30417 10.8173 2.5993C11.1277 3.1293 11.3138 3.7227 11.3611 4.33382C11.402 4.92451 11.3138 5.60171 11.0965 6.36539L10.5545 8.12024C10.4061 8.62813 10.3637 9.08745 10.4273 9.49821C10.4924 9.86623 10.6087 10.2237 10.7729 10.5599C10.8167 10.6554 10.8235 10.7636 10.7919 10.8631C10.7604 10.9627 10.6927 11.0463 10.6023 11.0975L8.41971 12.3373ZM9.40309 15.89C9.11647 15.3854 9.06162 14.8685 9.23854 14.3394C9.41546 13.8103 9.77341 13.3934 10.3124 13.0887C10.8522 12.7821 11.3945 12.6884 11.9393 12.8076C12.4841 12.9267 12.899 13.2383 13.1841 13.7422C13.4709 14.247 13.526 14.764 13.3493 15.2929C13.1727 15.8219 12.8152 16.2399 12.2768 16.5469C11.7376 16.8532 11.1955 16.947 10.6506 16.8283C10.1057 16.7096 9.68984 16.3968 9.40309 15.89Z" fill="#FA00FF"/>
</svg>
