<svg width="14" height="13" viewBox="0 0 14 13" fill="none" xmlns="http://www.w3.org/2000/svg">
<path d="M8.28797 9.64667C8.25851 9.68267 8.22204 9.71231 8.18072 9.73384C8.1394 9.75537 8.09408 9.76834 8.04744 9.77199C8.0008 9.77564 7.95379 9.7699 7.90921 9.75509C7.86464 9.74029 7.8234 9.71673 7.78795 9.68582C7.19481 9.17113 6.77111 8.69046 6.51686 8.2438C6.2207 7.7197 6.06303 7.13018 6.05885 6.53133C6.04687 5.90441 5.98896 5.38807 5.88513 4.98231C5.79187 4.59194 5.57154 4.24213 5.25878 3.98791C4.49336 3.36398 3.84509 3.37779 3.31398 4.02935C3.06825 4.33079 2.9817 4.66486 3.0543 5.03154C3.11004 5.31889 3.25788 5.59172 3.49784 5.85004C3.55632 5.91187 3.59063 5.9925 3.5944 6.07701C3.59817 6.16151 3.57116 6.24419 3.51836 6.30975L1.87447 8.32642C1.84411 8.36344 1.80635 8.39371 1.76355 8.41535C1.72075 8.43699 1.67383 8.44952 1.62574 8.45216C1.57765 8.4548 1.52942 8.44749 1.48408 8.43069C1.43873 8.41389 1.39725 8.38796 1.36224 8.35453C0.539811 7.57733 0.102537 6.70157 0.0504177 5.72727C-0.00938471 4.64456 0.418376 3.54176 1.3337 2.41888C2.24463 1.30138 3.2117 0.648586 4.23489 0.460512C5.25809 0.272437 6.25093 0.570687 7.21342 1.35526C7.61456 1.67351 7.93817 2.07855 8.15935 2.53921C8.3693 2.98596 8.50505 3.53886 8.56658 4.19793L8.67479 5.72526C8.71271 6.16474 8.81833 6.5345 8.99165 6.83455C9.15327 7.10092 9.35152 7.34361 9.58054 7.55543C9.64343 7.61639 9.68137 7.69842 9.68685 7.78531C9.69233 7.8722 9.66496 7.95762 9.61014 8.02468L8.28797 9.64667ZM10.124 12.111C9.74907 11.8053 9.5505 11.4202 9.52836 10.9556C9.50621 10.491 9.65863 10.059 9.98561 9.65966C10.3126 9.25852 10.7058 9.02208 11.1651 8.95033C11.6245 8.87858 12.041 8.9955 12.4145 9.3011C12.7897 9.60695 12.9885 9.99206 13.0108 10.4565C13.0331 10.9209 12.8814 11.3536 12.5556 11.7546C12.229 12.1553 11.836 12.3917 11.3767 12.4639C10.9173 12.536 10.4998 12.4184 10.124 12.111Z" fill="#FF0000"/>
</svg>
