<svg width="13" height="19" viewBox="0 0 13 19" fill="none" xmlns="http://www.w3.org/2000/svg">
<path d="M6.5055 12.7321C6.44964 12.7434 6.39203 12.7433 6.33611 12.7317C6.28019 12.7201 6.22709 12.6973 6.17997 12.6646C6.13285 12.632 6.09267 12.5901 6.06182 12.5415C6.03096 12.4929 6.01007 12.4385 6.00036 12.3817C5.83604 11.4333 5.80625 10.6484 5.911 10.0272C6.03599 9.30004 6.34318 8.61805 6.80335 8.04616C7.27786 7.44157 7.62306 6.90639 7.83895 6.44063C8.05295 5.99766 8.11484 5.49472 8.01489 5.01092C7.77165 3.82522 7.14538 3.3359 6.13606 3.54295C5.6691 3.63875 5.32799 3.88888 5.11273 4.29335C4.94295 4.6094 4.87188 4.98306 4.89952 5.41433C4.90714 5.51837 4.87722 5.62151 4.81531 5.70468C4.75339 5.78785 4.66367 5.84543 4.56272 5.86675L1.43872 6.50762C1.3812 6.51925 1.32188 6.51873 1.26447 6.5061C1.20706 6.49348 1.15279 6.46901 1.10508 6.43425C1.05737 6.39948 1.01723 6.35516 0.987196 6.30406C0.95716 6.25297 0.937867 6.1962 0.930528 6.13732C0.751949 4.76189 1.01548 3.59139 1.72112 2.62583C2.50348 1.55138 3.76439 0.835732 5.50384 0.478895C7.23495 0.12377 8.65919 0.253424 9.77655 0.867859C10.8939 1.48229 11.6055 2.535 11.9114 4.02598C12.0456 4.63909 12.039 5.27452 11.892 5.88336C11.7451 6.4703 11.4455 7.10053 10.9931 7.77405L9.9121 9.30822C9.60749 9.75492 9.4212 10.1879 9.35322 10.6071C9.30024 10.9853 9.3004 11.3695 9.3537 11.7481C9.36618 11.8547 9.33862 11.962 9.27648 12.0488C9.21434 12.1355 9.12214 12.1954 9.01812 12.2166L6.5055 12.7321ZM6.339 16.4952C6.21984 15.9143 6.32979 15.3947 6.66885 14.9363C7.00792 14.478 7.48745 14.1859 8.10746 14.0602C8.72886 13.9327 9.28546 14.0129 9.77726 14.3008C10.2691 14.5887 10.5739 15.0225 10.6918 15.6022C10.811 16.1834 10.7013 16.7032 10.3625 17.1614C10.0238 17.6197 9.54435 17.913 8.92416 18.0413C8.30343 18.1686 7.74703 18.0885 7.25496 17.801C6.7629 17.5136 6.45758 17.0783 6.339 16.4952Z" fill="#FFD600"/>
</svg>
