<svg id="Layer_1" data-name="Layer 1" xmlns="http://www.w3.org/2000/svg" viewBox="0 0 80.38 44.9"><defs><style>.cls-1{fill:#353535;}.cls-2{fill:#fff8e6;}.cls-3{fill:#d6d1c1;}</style></defs><title>Dominus GG Horizontal White Logo 1</title><path class="cls-1" d="M59.8,10.1h0a5.44,5.44,0,0,0-.65-1.27l-.08-.13a3.4,3.4,0,0,0-.23-.3h0A4.14,4.14,0,0,0,58.48,8L58,7.55A26.59,26.59,0,0,0,40.19.05,26.61,26.61,0,0,0,22.34,7.54L21.9,8c-.12.12-.24.25-.35.38h0a2.34,2.34,0,0,0-.24.31l-.08.12a5.64,5.64,0,0,0-.65,1.27h0c-1.14,2.77-2.5,9.3.79,22.46l.16,0a4.53,4.53,0,0,0,.41.66A18.45,18.45,0,0,1,23,34.87a5.21,5.21,0,0,0,2.39,2.18l.86.38A34.07,34.07,0,0,0,30.69,39a13.29,13.29,0,0,1-.35-2.44,14.9,14.9,0,0,1-1.78-1c-.34-.21-.67-.44-1-.68a7.23,7.23,0,0,1-2.46-2.66c-.89-2.33-3.24-11.07-3-13.08s2.12-4.43,5.76-6q.8-.34,1.44-.57a6.42,6.42,0,0,1,5.43,0,18.22,18.22,0,0,0,5.41,1.09,16.17,16.17,0,0,0,3.46-.51h0c.62-.15,1.27-.34,1.94-.57,2.24-.8,3.24-1,6.87.61s5.46,4,5.76,6a17.45,17.45,0,0,1-.6,4.53,75.57,75.57,0,0,1-2.35,8.55,7.16,7.16,0,0,1-2.46,2.66A18.35,18.35,0,0,1,50,36.57,13.29,13.29,0,0,1,49.69,39a32.69,32.69,0,0,0,4.42-1.57l.86-.37a5.21,5.21,0,0,0,2.39-2.18,15.7,15.7,0,0,1,1.09-1.69,4.09,4.09,0,0,0,.4-.67l.17,0C62.31,19.4,61,12.87,59.8,10.1Z" transform="translate(0 -0.05)"/><path class="cls-1" d="M64.52,38a3.45,3.45,0,0,1-.81,1.8,3.45,3.45,0,0,1-3.68,1,3.36,3.36,0,0,1-1.89-4.9,3.34,3.34,0,0,1,1.45-1.36,3.45,3.45,0,0,1,4.24,1A3.4,3.4,0,0,1,64.52,38Z" transform="translate(0 -0.05)"/><path class="cls-2" d="M61.75,32.6a5.05,5.05,0,0,0-5,2.47,5,5,0,0,0-.65,2.83,4.89,4.89,0,0,0,1.05,2.71,5,5,0,0,0,2.39,1.68,5.09,5.09,0,0,0,5.41-1.46,5,5,0,0,0,.17-6.34A5.08,5.08,0,0,0,61.75,32.6ZM64.52,38a3.45,3.45,0,0,1-.81,1.8,3.45,3.45,0,0,1-3.68,1,3.39,3.39,0,0,1-1.62-1.14,3.37,3.37,0,0,1-.27-3.76,3.4,3.4,0,0,1,1.45-1.36,3.45,3.45,0,0,1,4.24,1A3.4,3.4,0,0,1,64.52,38Z" transform="translate(0 -0.05)"/><path class="cls-3" d="M57,38.18a5,5,0,0,1,1-3.69A5.08,5.08,0,0,1,61.4,32.6l.18,0a4.51,4.51,0,0,0-1.1,0,5,5,0,0,0-3.33,1.86,4.9,4.9,0,0,0-1,3.63,5,5,0,0,0,1.81,3.32,5.15,5.15,0,0,0,3.66,1.12,5.07,5.07,0,0,1-3-1.39A4.92,4.92,0,0,1,57,38.18Z" transform="translate(0 -0.05)"/><path class="cls-1" d="M64.52,38a3.45,3.45,0,0,1-.81,1.8,3.45,3.45,0,0,1-3.68,1,3.36,3.36,0,0,1-1.89-4.9,3.34,3.34,0,0,1,1.45-1.36,3.45,3.45,0,0,1,4.24,1A3.4,3.4,0,0,1,64.52,38Z" transform="translate(0 -0.05)"/><path class="cls-1" d="M62.75,32.8h-.08l.1,0Z" transform="translate(0 -0.05)"/><path class="cls-1" d="M80.38,26l-4.71-.38-9.49,6.52c-.15-.14-.31-.27-.48-.4l10.69-9.22,1-5.59-5.56,1.42-8.91,12-.3-.06-.28-.05,9.38-16.16L70.54,7.31,64.76,11.1,58.67,30.57a7.45,7.45,0,0,0-3.24,2.19,7.35,7.35,0,0,0-1.31,7.39,7.48,7.48,0,0,0,2.29,3.15,7.55,7.55,0,0,0,7.5,1.12A7.49,7.49,0,0,0,67,42.07a7.39,7.39,0,0,0,1.5-3.59,7.32,7.32,0,0,0-.74-4.26l10.32-4.14ZM66.12,38.18a4.91,4.91,0,0,1-1.19,2.64,5.05,5.05,0,0,1-2.48,1.54,5.13,5.13,0,0,1-2.93-.08,5,5,0,0,1-2.39-1.68,5,5,0,0,1,1.74-7.52,5,5,0,0,1,2.88-.48,4.87,4.87,0,0,1,.92.2h.08l0,0a5.1,5.1,0,0,1,1,.51,2.9,2.9,0,0,1,.29.19,5.1,5.1,0,0,1,1.42,1.61A4.88,4.88,0,0,1,66.12,38.18Z" transform="translate(0 -0.05)"/><path class="cls-1" d="M15.86,38a3.38,3.38,0,0,0,.82,1.8,3.49,3.49,0,0,0,1.68,1,3.58,3.58,0,0,0,2-.06,3.4,3.4,0,0,0,2.33-3,3.39,3.39,0,0,0-.44-1.92,3.46,3.46,0,0,0-1.45-1.36,3.51,3.51,0,0,0-2-.33,3.44,3.44,0,0,0-2.27,1.29A3.4,3.4,0,0,0,15.86,38Z" transform="translate(0 -0.05)"/><path class="cls-1" d="M17.63,32.8l0,0,.11,0Zm0,0,0,0,.11,0Z" transform="translate(0 -0.05)"/><path class="cls-1" d="M26.68,36.62a7.35,7.35,0,0,0-4-5.66,6.31,6.31,0,0,0-.93-.39L15.63,11.1,9.84,7.31,8.71,14.09l9.38,16.16-.28.05-.3.06-8.91-12L3.05,16.9l1,5.59,10.68,9.22c-.16.13-.32.26-.47.4L4.72,25.59,0,26l2.27,4.11,10.32,4.15a7.33,7.33,0,0,0,0,6.66,7.48,7.48,0,0,0,2.23,2.61,7.5,7.5,0,0,0,6.63,1.13,7.45,7.45,0,0,0,3-1.73,7.33,7.33,0,0,0,2.25-6.27ZM19.9,42.51a5.05,5.05,0,0,1-3.2-.66,5,5,0,0,1-2.12-2.44,4.91,4.91,0,0,1-.17-3.23,5,5,0,0,1,1.86-2.65,2.9,2.9,0,0,1,.29-.19,5.1,5.1,0,0,1,1.05-.51l0,0h.08a4.87,4.87,0,0,1,.92-.2,5.08,5.08,0,0,1,3.75,1,5,5,0,0,1,1.31,1.48,4.89,4.89,0,0,1,.63,1.86,5,5,0,0,1-.14,1.95,5,5,0,0,1-2.39,3,5.31,5.31,0,0,1-1.89.61Z" transform="translate(0 -0.05)"/><path class="cls-2" d="M14.26,38.18a5,5,0,0,0,1.2,2.65,5.08,5.08,0,0,0,2.48,1.54,5.13,5.13,0,0,0,2.93-.08,5,5,0,0,0,2.39-1.68,5,5,0,0,0-1.74-7.53,5.1,5.1,0,0,0-6.24,1.41A5,5,0,0,0,14.26,38.18Zm4.57-4a3.51,3.51,0,0,1,2,.33,3.38,3.38,0,0,1-.45,6.26,3.46,3.46,0,0,1-2,0,3.37,3.37,0,0,1-1.8-5.35A3.44,3.44,0,0,1,18.83,34.18Z" transform="translate(0 -0.05)"/><path class="cls-3" d="M15.18,38.18a4.93,4.93,0,0,1,1-3.68,5.05,5.05,0,0,1,3.35-1.9l.18,0a5,5,0,0,0-2.07.23,5.24,5.24,0,0,0-1.8,1,5.08,5.08,0,0,0-1.22,1.68,5,5,0,0,0-.43,2,4.86,4.86,0,0,0,.43,2,4.91,4.91,0,0,0,1.21,1.68,5.19,5.19,0,0,0,3.87,1.29,5.07,5.07,0,0,1-3-1.39A5,5,0,0,1,15.18,38.18Z" transform="translate(0 -0.05)"/><path class="cls-1" d="M15.86,38a3.38,3.38,0,0,0,.82,1.8,3.49,3.49,0,0,0,1.68,1,3.58,3.58,0,0,0,2-.06,3.4,3.4,0,0,0,2.33-3,3.39,3.39,0,0,0-.44-1.92,3.46,3.46,0,0,0-1.45-1.36,3.51,3.51,0,0,0-2-.33,3.44,3.44,0,0,0-2.27,1.29A3.4,3.4,0,0,0,15.86,38Z" transform="translate(0 -0.05)"/><path class="cls-1" d="M15.86,38a3.38,3.38,0,0,0,.82,1.8,3.49,3.49,0,0,0,1.68,1,3.58,3.58,0,0,0,2-.06,3.4,3.4,0,0,0,2.33-3,3.39,3.39,0,0,0-.44-1.92,3.46,3.46,0,0,0-1.45-1.36,3.51,3.51,0,0,0-2-.33,3.44,3.44,0,0,0-2.27,1.29A3.4,3.4,0,0,0,15.86,38Z" transform="translate(0 -0.05)"/><path class="cls-2" d="M64,37.86a2.44,2.44,0,0,1-.9,1.6,2.48,2.48,0,0,1-1.76.55A2.52,2.52,0,0,0,63,39.25a2.47,2.47,0,0,0,.68-1.64,2.37,2.37,0,0,0-.6-1.66,2.52,2.52,0,0,0-1.57-.84h-.12a2.08,2.08,0,0,1,.5,0,2.52,2.52,0,0,1,1.66.93A2.48,2.48,0,0,1,64,37.86Z" transform="translate(0 -0.05)"/><path class="cls-2" d="M22.17,37.86a2.44,2.44,0,0,1-.9,1.6,2.49,2.49,0,0,1-1.76.55,2.52,2.52,0,0,0,1.61-.76,2.47,2.47,0,0,0,.68-1.64A2.41,2.41,0,0,0,21.2,36a2.52,2.52,0,0,0-1.57-.84h-.11a2.1,2.1,0,0,1,.5,0,2.47,2.47,0,0,1,2.15,2.75Z" transform="translate(0 -0.05)"/><path class="cls-2" d="M55.29,32.19a7.27,7.27,0,0,1-2.47,2.66,19.72,19.72,0,0,1-3.43,2c-.17,2.21-.83,4.63-2.91,4.63H33.91c-2.08,0-2.74-2.43-2.91-4.64a18.8,18.8,0,0,1-3.44-2,7.4,7.4,0,0,1-2.46-2.66c-.88-2.33-3.24-11.07-2.94-13.09s2.11-4.42,5.75-6,4.63-1.4,6.88-.61A18.22,18.22,0,0,0,40.2,13.6a18.23,18.23,0,0,0,5.4-1.09c2.25-.79,3.24-.95,6.88.61s5.46,4,5.75,6S56.17,29.86,55.29,32.19Z" transform="translate(0 -0.05)"/><path class="cls-3" d="M24.92,21.66c.17,6.19,3.59,13.76,3.64,13.88-.34-.22-.68-.45-1-.69a7.16,7.16,0,0,1-2.46-2.66c-.89-2.33-3.24-11.06-3-13.08s2.12-4.42,5.76-6q.8-.35,1.44-.57A10.54,10.54,0,0,0,24.92,21.66Z" transform="translate(0 -0.05)"/><path class="cls-3" d="M57.64,23.63c-.18-3.08-2.91-7.17-5.31-9-2.57-2-8.41-1.51-8.67-1.49.62-.15,1.28-.35,1.94-.57,2.25-.8,3.24-1,6.88.6s5.46,4,5.75,6A17.66,17.66,0,0,1,57.64,23.63Z" transform="translate(0 -0.05)"/><path class="cls-2" d="M57.87,10.66s-3-5.84-12.6-7.3C45.27,3.36,51.43,4.44,57.87,10.66Z" transform="translate(0 -0.05)"/><path class="cls-1" d="M48.89,16.63A3.39,3.39,0,0,0,47,16.06c-2.4,0-4.33,2.65-4.33,5.92a7.18,7.18,0,0,0,1.19,4.08A3.88,3.88,0,0,0,47,27.89c2.39,0,4.33-2.65,4.33-5.91A6.34,6.34,0,0,0,48.89,16.63ZM47,27.34a3,3,0,0,1-2-.78,3.81,3.81,0,0,0,.67.07c2.39,0,4.33-2.65,4.33-5.92a7.56,7.56,0,0,0-.43-2.58A6.58,6.58,0,0,1,50.81,22a6.61,6.61,0,0,1-1.16,3.86A3.28,3.28,0,0,1,47,27.34Z" transform="translate(0 -0.05)"/><path class="cls-1" d="M33.34,16.06a3.39,3.39,0,0,0-1.85.57A6.31,6.31,0,0,0,29,22c0,3.27,1.94,5.92,4.33,5.92a3.89,3.89,0,0,0,3.13-1.83A7.2,7.2,0,0,0,37.67,22C37.67,18.71,35.73,16.06,33.34,16.06Zm0,11.28a3.27,3.27,0,0,1-2.6-1.5A6.56,6.56,0,0,1,29.58,22a6.6,6.6,0,0,1,1.16-3.85,7.56,7.56,0,0,0-.44,2.58c0,3.27,1.94,5.92,4.33,5.92a3.71,3.71,0,0,0,.67-.07A3,3,0,0,1,33.34,27.34Z" transform="translate(0 -0.05)"/><path class="cls-1" d="M37.53,30.19l1.73-2a1.46,1.46,0,0,1,.42-.32,1.24,1.24,0,0,1,1,0,1.46,1.46,0,0,1,.42.32l1.73,1.94a1.52,1.52,0,0,1,.37,1,1.5,1.5,0,0,1-.37,1,1.11,1.11,0,0,1-.4.31,1.17,1.17,0,0,1-.49.11,1.16,1.16,0,0,1-.89-.42l-.6-.68a.38.38,0,0,0-.13-.09.4.4,0,0,0-.15,0,.41.41,0,0,0-.16,0,.27.27,0,0,0-.12.09l-.61.68a1.2,1.2,0,0,1-.4.31,1.25,1.25,0,0,1-1,0,1.2,1.2,0,0,1-.4-.31,1.52,1.52,0,0,1-.36-1A1.48,1.48,0,0,1,37.53,30.19Z" transform="translate(0 -0.05)"/><path class="cls-3" d="M34,40.43v.45h-.11a1.47,1.47,0,0,1-.66-.13,1.52,1.52,0,0,1-.54-.4,5.1,5.1,0,0,1-1-2.59C32.3,38.92,33.11,40.21,34,40.43Z" transform="translate(0 -0.05)"/><path class="cls-3" d="M37.71,40.68v.21H35.29V39.44S35.46,40.63,37.71,40.68Z" transform="translate(0 -0.05)"/><path class="cls-3" d="M41.4,40.68v.21H39V39.44S39.16,40.63,41.4,40.68Z" transform="translate(0 -0.05)"/><path class="cls-3" d="M45.1,40.68v.21H42.68V39.44S42.85,40.63,45.1,40.68Z" transform="translate(0 -0.05)"/><path class="cls-3" d="M47.52,40.5a1.48,1.48,0,0,1-1,.39h-.12V39.64A1.77,1.77,0,0,0,47.52,40.5Z" transform="translate(0 -0.05)"/><path class="cls-1" d="M48.62,41.19a2.73,2.73,0,0,1-1,.72,3,3,0,0,1-1.18.24H33.91a3,3,0,0,1-1.18-.24,2.86,2.86,0,0,1-1-.72c-2-2.2-1.37-7.69-1.35-7.92a.68.68,0,0,1,.25-.41.62.62,0,0,1,.46-.12.64.64,0,0,1,.41.22.63.63,0,0,1,.15.45,18.33,18.33,0,0,0,.06,4.35,5,5,0,0,0,1,2.59,1.49,1.49,0,0,0,.53.4,1.55,1.55,0,0,0,.67.14H34V35.11a.64.64,0,0,1,1.09-.44.62.62,0,0,1,.18.44v5.78h2.42V35.11a.64.64,0,0,1,1.28,0v5.78h2.42V35.11a.62.62,0,0,1,.18-.44.65.65,0,0,1,.45-.19.65.65,0,0,1,.64.63v5.78H45.1V35.11a.64.64,0,0,1,1.09-.44.62.62,0,0,1,.18.44v5.78h.12a1.48,1.48,0,0,0,1-.39.75.75,0,0,0,.16-.15c1.33-1.47,1.19-5.51,1-6.93a.56.56,0,0,1,.09-.52.66.66,0,0,1,.19-.18.62.62,0,0,1,.26-.09.7.7,0,0,1,.5.16.6.6,0,0,1,.16.22.75.75,0,0,1,0,.26C50,33.5,50.61,39,48.62,41.19Z" transform="translate(0 -0.05)"/></svg>