<svg width="25" height="25" viewBox="0 0 25 25" fill="none" xmlns="http://www.w3.org/2000/svg">
<path d="M16.8754 18.0595C16.6997 17.8837 16.601 17.6454 16.601 17.3968C16.601 17.1483 16.6997 16.9099 16.8754 16.7341L21.499 12.1106L16.8764 7.48801C16.7006 7.31226 16.6019 7.07389 16.6019 6.82534C16.6019 6.57679 16.7006 6.33842 16.8764 6.16267C17.0521 5.98692 17.2905 5.88818 17.5391 5.88818C17.7876 5.88818 18.026 5.98692 18.2017 6.16267L23.487 11.4479C23.6627 11.6237 23.7615 11.8621 23.7615 12.1106C23.7615 12.3592 23.6627 12.5975 23.487 12.7733L18.2008 18.0595C18.025 18.2352 17.7867 18.334 17.5381 18.334C17.2896 18.334 17.0512 18.2352 16.8754 18.0595Z" fill="white"/>
<path d="M1.36452 12.7399C1.19047 12.6004 1.07194 12.4227 1.02392 12.2292C0.975895 12.0357 1.00053 11.8351 1.09472 11.6528C1.1889 11.4706 1.34839 11.3148 1.55304 11.2052C1.75768 11.0956 1.99827 11.0371 2.24439 11.0371L20.7556 11.0381C21.0856 11.0381 21.4022 11.1432 21.6355 11.3303C21.8689 11.5173 22 11.7711 22 12.0356C22 12.3001 21.8689 12.5539 21.6355 12.7409C21.4022 12.928 21.0856 13.0331 20.7556 13.0331L2.25067 13.0371C2.08576 13.0371 1.9225 13.0108 1.77037 12.9598C1.61824 12.9088 1.48029 12.834 1.36452 12.7399Z" fill="white"/>
</svg>
