<svg width="92" height="88" viewBox="0 0 92 88" fill="none" xmlns="http://www.w3.org/2000/svg">
<path d="M15.9939 25.2533C15.262 25.2533 14.5601 24.9626 14.0426 24.4451C13.5251 23.9276 13.2344 23.2257 13.2344 22.4938C13.2344 21.762 13.5251 21.0601 14.0426 20.5426C14.5601 20.0251 15.262 19.7343 15.9939 19.7343L31.3682 19.6594C32.1001 19.6594 32.802 19.9502 33.3195 20.4677C33.837 20.9852 34.1278 21.6871 34.1278 22.4189C34.1278 23.1508 33.837 23.8527 33.3195 24.3702C32.802 24.8877 32.1001 25.1784 31.3682 25.1784L15.9939 25.2533Z" fill="white"/>
<path d="M79.1623 62.0849H22.3953C21.7453 62.0852 21.1159 61.856 20.6183 61.4377C20.1207 61.0194 19.7867 60.4389 19.6753 59.7984L10.2496 5.51901H2.7595C2.02764 5.51901 1.32575 5.22827 0.80824 4.71077C0.290733 4.19326 0 3.49137 0 2.7595C0 2.02764 0.290733 1.32575 0.80824 0.80824C1.32575 0.290732 2.02764 0 2.7595 0L12.5597 0C13.2091 0.000591547 13.8375 0.230194 14.3343 0.648409C14.8311 1.06662 15.1645 1.64666 15.2758 2.28645L24.737 56.5659H77.0414L85.4145 25.0287L70.0165 25.0996C69.2846 25.0996 68.5827 24.8089 68.0652 24.2914C67.5477 23.7739 67.257 23.072 67.257 22.3401C67.257 21.6083 67.5477 20.9064 68.0652 20.3889C68.5827 19.8714 69.2846 19.5806 70.0165 19.5806L89.0255 19.49C89.4482 19.4903 89.8652 19.5876 90.2443 19.7746C90.6235 19.9616 90.9545 20.2332 91.2121 20.5684C91.4696 20.9036 91.6466 21.2936 91.7296 21.708C91.8125 22.1225 91.7991 22.5506 91.6904 22.9591L81.835 60.0152C81.6821 60.6077 81.3365 61.1326 80.8526 61.5072C80.3688 61.8819 79.7742 62.0851 79.1623 62.0849Z" fill="white"/>
<path d="M26.6642 87.9691C24.4125 87.9691 22.2113 87.3013 20.3391 86.0504C18.4669 84.7994 17.0076 83.0213 16.1459 80.941C15.2842 78.8606 15.0588 76.5715 15.4981 74.3631C15.9373 72.1546 17.0217 70.126 18.6139 68.5338C20.2061 66.9416 22.2347 65.8573 24.4431 65.418C26.6516 64.9787 28.9407 65.2042 31.021 66.0659C33.1014 66.9275 34.8794 68.3868 36.1304 70.259C37.3814 72.1313 38.0491 74.3324 38.0491 76.5841C38.0471 79.603 36.8469 82.4976 34.7123 84.6322C32.5776 86.7668 29.683 87.967 26.6642 87.9691ZM26.6642 70.7222C25.5039 70.7222 24.3696 71.0663 23.4049 71.711C22.4402 72.3558 21.6883 73.2721 21.2444 74.3442C20.8006 75.4163 20.6847 76.5959 20.9113 77.7339C21.138 78.8719 21.697 79.9171 22.5178 80.7373C23.3385 81.5575 24.3841 82.1159 25.5223 82.3418C26.6604 82.5677 27.84 82.4509 28.9117 82.0064C29.9835 81.5618 30.8994 80.8093 31.5435 79.8441C32.1875 78.879 32.5309 77.7445 32.5301 76.5841C32.528 75.0294 31.9092 73.539 30.8095 72.44C29.7098 71.341 28.219 70.7232 26.6642 70.7222Z" fill="white"/>
<path d="M76.5295 87.9691C74.2776 87.9698 72.0761 87.3028 70.2033 86.0523C68.3305 84.8018 66.8707 83.024 66.0084 80.9437C65.1461 78.8634 64.9201 76.5742 65.3589 74.3655C65.7978 72.1568 66.8818 70.1278 68.4738 68.5352C70.0659 66.9426 72.0944 65.8579 74.303 65.4183C76.5116 64.9787 78.8009 65.2039 80.8815 66.0655C82.962 66.9271 84.7403 68.3863 85.9915 70.2586C87.2427 72.1309 87.9105 74.3323 87.9105 76.5841C87.9073 79.602 86.7074 82.4954 84.5738 84.6296C82.4403 86.7639 79.5473 87.9649 76.5295 87.9691ZM76.5295 70.7222C75.369 70.7214 74.2343 71.0649 73.2691 71.7091C72.3038 72.3534 71.5514 73.2695 71.1069 74.3415C70.6624 75.4135 70.5459 76.5933 70.7722 77.7315C70.9984 78.8697 71.5571 79.9153 72.3777 80.7359C73.1983 81.5565 74.2439 82.1153 75.3821 82.3415C76.5204 82.5677 77.7001 82.4512 78.7722 82.0067C79.8442 81.5623 80.7603 80.8098 81.4045 79.8446C82.0488 78.8793 82.3922 77.7447 82.3915 76.5841C82.3894 75.0301 81.7711 73.5403 80.6722 72.4414C79.5734 71.3425 78.0835 70.7243 76.5295 70.7222Z" fill="white"/>
<path d="M51.7162 44.0849C51.1321 44.0839 50.5635 43.8975 50.092 43.5527L35.987 33.2716C35.4043 32.8371 35.0165 32.1903 34.9079 31.4716C34.7993 30.7529 34.9787 30.0203 35.4071 29.4331C35.8354 28.8459 36.4782 28.4513 37.1957 28.3352C37.9133 28.2191 38.6476 28.3908 39.2393 28.813L51.7162 37.9115L64.197 28.813C64.7887 28.3908 65.5231 28.2191 66.2406 28.3352C66.9582 28.4513 67.6009 28.8459 68.0293 29.4331C68.4576 30.0203 68.637 30.7529 68.5284 31.4716C68.4198 32.1903 68.032 32.8371 67.4493 33.2716L53.3443 43.5527C52.8718 43.8983 52.3016 44.0847 51.7162 44.0849Z" fill="white"/>
<path d="M51.7165 44.085C50.9847 44.085 50.2828 43.7943 49.7653 43.2768C49.2478 42.7593 48.957 42.0574 48.957 41.3255V2.7595C48.957 2.02764 49.2478 1.32575 49.7653 0.80824C50.2828 0.290732 50.9847 0 51.7165 0C52.4484 0 53.1503 0.290732 53.6678 0.80824C54.1853 1.32575 54.476 2.02764 54.476 2.7595V41.3255C54.476 42.0574 54.1853 42.7593 53.6678 43.2768C53.1503 43.7943 52.4484 44.085 51.7165 44.085Z" fill="white"/>
</svg>
