<svg width="25" height="23" viewBox="0 0 25 23" fill="none" xmlns="http://www.w3.org/2000/svg">
<path d="M20.8328 22.1942H1.23292C0.90593 22.1942 0.592332 22.0643 0.361114 21.8331C0.129897 21.6019 0 21.2883 0 20.9613L0 1.36134C0 1.03435 0.129897 0.72075 0.361114 0.489532C0.592332 0.258315 0.90593 0.128418 1.23292 0.128418H13.6731C14.0001 0.128418 14.3137 0.258315 14.5449 0.489532C14.7761 0.72075 14.906 1.03435 14.906 1.36134C14.906 1.68833 14.7761 2.00193 14.5449 2.23315C14.3137 2.46436 14.0001 2.59426 13.6731 2.59426H2.46584V19.7283H19.5999V13.1569C19.5999 12.8299 19.7298 12.5163 19.961 12.2851C20.1923 12.0538 20.5059 11.924 20.8328 11.924C21.1598 11.924 21.4734 12.0538 21.7047 12.2851C21.9359 12.5163 22.0658 12.8299 22.0658 13.1569V20.9613C22.0658 21.2883 21.9359 21.6019 21.7047 21.8331C21.4734 22.0643 21.1598 22.1942 20.8328 22.1942Z" fill="white"/>
<path d="M11.0322 15.7496H10.9758C10.8 15.7417 10.628 15.6963 10.4712 15.6164C10.3145 15.5365 10.1766 15.4239 10.067 15.2863L5.60731 9.68888C5.40364 9.43196 5.31037 9.10465 5.34803 8.77897C5.38568 8.45328 5.55118 8.15589 5.8081 7.95222C5.93531 7.85138 6.08114 7.77657 6.23727 7.73209C6.39339 7.6876 6.55675 7.6743 6.71801 7.69294C7.0437 7.7306 7.34109 7.89609 7.54475 8.15301L11.1167 12.6461L22.8717 0.382085C22.9837 0.264816 23.1176 0.170746 23.2659 0.105245C23.4142 0.0397433 23.574 0.00409411 23.7361 0.000332387C23.8982 -0.00342934 24.0594 0.0247701 24.2106 0.0833205C24.3618 0.141871 24.4999 0.229626 24.6172 0.341575C24.7345 0.453524 24.8285 0.587474 24.894 0.735778C24.9595 0.884082 24.9952 1.04384 24.9989 1.20592C25.0027 1.368 24.9745 1.52923 24.916 1.68042C24.8574 1.8316 24.7697 1.96977 24.6577 2.08704L11.9216 15.3709C11.8065 15.4907 11.6684 15.586 11.5156 15.651C11.3627 15.7161 11.1983 15.7496 11.0322 15.7496Z" fill="#6D40CD"/>
</svg>
