<svg width="9" height="8" viewBox="0 0 9 8" fill="none" xmlns="http://www.w3.org/2000/svg">
<path d="M1.20461 0.283892C1.32238 0.283816 1.4381 0.314764 1.54012 0.37362C1.64214 0.432475 1.72685 0.517164 1.78574 0.619161L4.76741 5.78231L7.74795 0.619162C7.79198 0.542847 7.85061 0.47595 7.92049 0.422293C7.99037 0.368635 8.07014 0.329267 8.15524 0.306436C8.24033 0.283606 8.32909 0.277759 8.41645 0.289232C8.5038 0.300703 8.58804 0.329269 8.66436 0.373298C8.74067 0.417326 8.80757 0.475955 8.86123 0.545836C8.91489 0.615717 8.95425 0.695484 8.97708 0.78058C8.99991 0.865675 9.00576 0.954435 8.99429 1.04179C8.98282 1.12915 8.95425 1.21339 8.91022 1.2897L5.68828 6.86859C5.59491 7.03035 5.4606 7.16468 5.29885 7.25807C5.1371 7.35147 4.95362 7.40063 4.76685 7.40063C4.58007 7.40063 4.39659 7.35147 4.23484 7.25807C4.0731 7.16468 3.93879 7.03035 3.84541 6.86859L0.617886 1.2897C0.573808 1.2134 0.545203 1.12915 0.533704 1.04179C0.522206 0.954423 0.528041 0.865648 0.550875 0.780539C0.57371 0.69543 0.613096 0.615656 0.666781 0.545778C0.720466 0.4759 0.787398 0.417289 0.86375 0.373297C0.967366 0.313639 1.08505 0.282771 1.20461 0.283892Z" fill="white"/>
</svg>
