<svg width="9" height="8" viewBox="0 0 9 8" fill="none" xmlns="http://www.w3.org/2000/svg">
<path d="M7.79539 7.11674C7.67761 7.11682 7.5619 7.08587 7.45988 7.02702C7.35786 6.96816 7.27315 6.88347 7.21426 6.78147L4.23259 1.61832L1.25204 6.78147C1.20802 6.85779 1.14939 6.92468 1.07951 6.97834C1.00962 7.032 0.929859 7.07137 0.844763 7.0942C0.759667 7.11703 0.670908 7.12288 0.583552 7.1114C0.496197 7.09993 0.411957 7.07137 0.335641 7.02734C0.259325 6.98331 0.192429 6.92468 0.138771 6.8548C0.0851139 6.78492 0.0457459 6.70515 0.0229153 6.62006C8.47004e-05 6.53496 -0.00576145 6.4462 0.00571063 6.35884C0.0171827 6.27149 0.0457484 6.18725 0.0897766 6.11093L3.31172 0.532047C3.40509 0.370287 3.5394 0.235958 3.70115 0.142564C3.8629 0.0491693 4.04638 7.07491e-07 4.23315 7.40148e-07C4.41993 7.72805e-07 4.60341 0.0491694 4.76516 0.142564C4.9269 0.235958 5.06121 0.370287 5.15459 0.532047L8.38211 6.11093C8.42619 6.18724 8.4548 6.27148 8.4663 6.35885C8.47779 6.44621 8.47196 6.53499 8.44912 6.6201C8.42629 6.70521 8.3869 6.78498 8.33322 6.85486C8.27953 6.92474 8.2126 6.98335 8.13625 7.02734C8.03263 7.087 7.91495 7.11786 7.79539 7.11674Z" fill="white"/>
</svg>
