<svg
                  class="hidden-pw eye"
                  width="24"
                  height="17"
                  viewBox="0 0 24 17"
                  fill="none"
                  xmlns="http://www.w3.org/2000/svg"
                >
                  <path
                    d="M23.8205 8.72197C22.5736 10.1511 21.1276 11.3934 19.5269 12.4107L18.371 11.2593C19.754 10.4097 21.0243 9.38907 22.1518 8.22146C20.8078 6.8273 19.2584 5.64691 17.5574 4.72126C18.134 5.63383 18.4766 6.67452 18.5549 7.75114C18.6332 8.82776 18.4448 9.90707 18.0063 10.8935L16.7853 9.67362C17.0073 8.93744 17.0568 8.16001 16.9297 7.40165C16.8027 6.64329 16.5027 5.92439 16.0529 5.30073C15.6031 4.67708 15.0157 4.16544 14.3362 3.80552C13.6567 3.44559 12.9035 3.24706 12.1348 3.22534H11.8666C11.4199 3.23729 10.9768 3.309 10.5491 3.43856L9.11719 2.00885C10.0034 1.79038 10.9114 1.67255 11.824 1.65759H12.0002H12.1775C18.8098 1.75635 23.6174 7.47743 23.8205 7.7232C23.9364 7.86384 23.9997 8.04038 23.9997 8.22259C23.9997 8.40479 23.9364 8.58133 23.8205 8.72197Z"
                    fill="white"
                  />
                  <path
                    d="M20.0052 15.1142C20.1525 15.2616 20.2352 15.4616 20.2351 15.67C20.235 15.8785 20.1521 16.0784 20.0046 16.2257C19.8572 16.373 19.6572 16.4557 19.4487 16.4556C19.2403 16.4555 19.0404 16.3726 18.8931 16.2251L16.5757 13.9044L14.9339 12.266L7.95815 5.28911L5.89102 3.2231L3.99671 1.33552C3.92376 1.26258 3.86589 1.17597 3.82641 1.08066C3.78692 0.985348 3.7666 0.883191 3.7666 0.780024C3.7666 0.676857 3.78692 0.5747 3.82641 0.479387C3.86589 0.384074 3.92376 0.297471 3.99671 0.224525C4.07079 0.151922 4.15852 0.0947079 4.25482 0.0561855C4.35113 0.017663 4.45411 -0.00140541 4.55782 8.06302e-05C4.66086 -0.000210138 4.76293 0.0199776 4.8581 0.0594711C4.95327 0.0989645 5.03964 0.156976 5.1122 0.230136L7.42622 2.5363L9.06803 4.17811L10.335 5.44397L14.7779 9.88797L16.0482 11.155L18.1143 13.2198L20.0052 15.1142Z"
                    fill="white"
                  />
                  <path
                    d="M11.9039 11.458C11.0781 11.4342 10.2925 11.0956 9.70833 10.5113C9.12411 9.92713 8.78544 9.1416 8.76172 8.31573L11.9039 11.458Z"
                    fill="white"
                  />
                  <path
                    d="M13.4515 13.0066L14.8846 14.4386C13.9983 14.6565 13.0903 14.7743 12.1778 14.7898H12.0004H11.8243C5.19193 14.69 0.384336 8.96664 0.180092 8.722C0.0636837 8.58118 0 8.40419 0 8.22149C0 8.03878 0.0636837 7.86179 0.180092 7.72098C1.42945 6.29123 2.87724 5.04789 4.47932 4.02887L5.63184 5.18476C4.24832 6.03412 2.97731 7.05439 1.84883 8.22149C3.19505 9.61636 4.74669 10.7971 6.44994 11.7228C5.87271 10.8105 5.5297 9.76975 5.4514 8.69301C5.37309 7.61626 5.56189 6.53684 6.00105 5.5506L7.21866 6.77158C7.07571 7.24158 7.00347 7.73023 7.00432 8.22149C7.00555 9.52332 7.51408 10.7734 8.42196 11.7064C9.32983 12.6395 10.5656 13.182 11.8669 13.2187H12.1351C12.5814 13.2072 13.0241 13.1359 13.4515 13.0066Z"
                    fill="white"
                  />
                  <path
                    d="M15.2379 8.12611L12.0957 4.98389C12.9216 5.00761 13.7071 5.34628 14.2913 5.9305C14.8755 6.51471 15.2142 7.30024 15.2379 8.12611Z"
                    fill="white"
                  />
                </svg>