<svg width="40" height="40" viewBox="0 0 40 40" fill="none" xmlns="http://www.w3.org/2000/svg">
<path d="M14.4103 36.7866C14.0785 36.7866 13.7603 36.6548 13.5257 36.4202C13.2911 36.1856 13.1593 35.8674 13.1593 35.5356V26.8072H4.43264C4.10086 26.8072 3.78266 26.6754 3.54805 26.4408C3.31344 26.2062 3.18164 25.888 3.18164 25.5562C3.18164 25.2244 3.31344 24.9062 3.54805 24.6716C3.78266 24.437 4.10086 24.3052 4.43264 24.3052H14.4103C14.742 24.3052 15.0602 24.437 15.2949 24.6716C15.5295 24.9062 15.6613 25.2244 15.6613 25.5562V35.5356C15.6613 35.8674 15.5295 36.1856 15.2949 36.4202C15.0602 36.6548 14.742 36.7866 14.4103 36.7866Z" fill="white"/>
<path d="M35.5761 15.6716H25.5967C25.2649 15.6716 24.9467 15.5398 24.7121 15.3052C24.4775 15.0706 24.3457 14.7524 24.3457 14.4206V4.44119C24.3457 4.1094 24.4775 3.7912 24.7121 3.5566C24.9467 3.32199 25.2649 3.19019 25.5967 3.19019C25.9285 3.19019 26.2467 3.32199 26.4813 3.5566C26.7159 3.7912 26.8477 4.1094 26.8477 4.44119V13.1696H35.5761C35.9079 13.1696 36.2261 13.3014 36.4607 13.536C36.6953 13.7706 36.8271 14.0888 36.8271 14.4206C36.8271 14.7524 36.6953 15.0706 36.4607 15.3052C36.2261 15.5398 35.9079 15.6716 35.5761 15.6716Z" fill="white"/>
<path d="M25.5875 15.6626C25.3375 15.6662 25.0921 15.5948 24.883 15.4576C24.6739 15.3204 24.5108 15.1237 24.4146 14.8929C24.3184 14.662 24.2936 14.4077 24.3434 14.1626C24.3932 13.9175 24.5153 13.693 24.694 13.518L37.8634 0.366428C38.0981 0.131808 38.4163 0 38.7481 0C39.0799 0 39.3981 0.131808 39.6327 0.366428C39.8673 0.601048 39.9991 0.919261 39.9991 1.25106C39.9991 1.58287 39.8673 1.90108 39.6327 2.1357L26.4722 15.2962C26.356 15.4124 26.2181 15.5045 26.0663 15.5674C25.9145 15.6303 25.7518 15.6626 25.5875 15.6626Z" fill="white"/>
<path d="M1.25109 39.966C1.00365 39.966 0.761768 39.8926 0.556025 39.7552C0.350283 39.6177 0.189925 39.4223 0.0952324 39.1937C0.000539651 38.9651 -0.0242345 38.7136 0.0240431 38.4709C0.0723207 38.2282 0.191481 38.0053 0.366455 37.8303L13.527 24.6716C13.7616 24.437 14.0798 24.3052 14.4116 24.3052C14.7434 24.3052 15.0616 24.437 15.2963 24.6716C15.5309 24.9062 15.6627 25.2244 15.6627 25.5562C15.6627 25.888 15.5309 26.2063 15.2963 26.4409L2.14466 39.5996C2.02743 39.7168 1.88806 39.8096 1.73466 39.8725C1.58125 39.9354 1.41688 39.9672 1.25109 39.966Z" fill="white"/>
</svg>
