<svg width="114" height="87" viewBox="0 0 114 87" fill="none" xmlns="http://www.w3.org/2000/svg">
<path d="M30.4013 86.9924C30.1378 86.9904 29.8759 86.9511 29.6233 86.8757C19.5295 83.8253 10.0359 79.0607 1.55799 72.7906C1.24879 72.5619 0.991519 72.2704 0.80312 71.9352C0.614721 71.6 0.499464 71.2286 0.464937 70.8456C-1.69783 48.1288 3.67018 27.5826 16.8763 8.04383C17.1557 7.63084 17.5432 7.30253 17.9965 7.09471C25.2879 3.7573 32.9834 1.38522 40.8884 0.0384985C41.4424 -0.0556614 42.0119 0.0238944 42.5189 0.266253C43.026 0.508611 43.4455 0.9019 43.7202 1.39217C44.4748 2.73806 45.1828 4.11507 45.8402 5.52709C52.9227 4.63242 60.0896 4.63242 67.1721 5.52709C67.8295 4.12285 68.5375 2.73806 69.2921 1.39217C69.5665 0.902609 69.9855 0.509796 70.4917 0.267483C70.9979 0.0251696 71.5666 -0.0548064 72.1201 0.0384985C80.0202 1.37438 87.7112 3.74012 94.9963 7.07526C95.4472 7.28154 95.8332 7.60703 96.1127 8.0166C102.508 17.3678 107.144 27.2286 109.894 37.3423C112.808 48.2612 113.714 59.6183 112.571 70.8612C112.536 71.2442 112.421 71.6155 112.233 71.9507C112.044 72.286 111.787 72.5775 111.478 72.8061C103.001 79.0815 93.5037 83.8441 83.4045 86.8835C82.8685 87.0456 82.2955 87.0384 81.7637 86.863C81.2319 86.6876 80.7671 86.3524 80.4327 85.9033C78.1353 82.8187 76.104 79.5446 74.3606 76.1164C74.2223 75.8457 74.1303 75.5539 74.0883 75.2528C62.5826 78.4133 50.4375 78.4133 38.9318 75.2528C38.8894 75.5525 38.7974 75.8431 38.6595 76.1125C36.9147 79.5412 34.8834 82.8164 32.5874 85.9033C32.333 86.2425 32.0029 86.5176 31.6233 86.7067C31.2438 86.8958 30.8253 86.9936 30.4013 86.9924ZM80.6272 76.2603C81.5685 77.9148 82.5851 79.5226 83.6768 81.0837C92.1046 78.3383 100.058 74.309 107.257 69.138C109.011 48.3117 104.029 29.5081 92.0439 11.7159C85.9896 9.00866 79.6436 7.00776 73.1314 5.7527C72.4857 7.00524 71.8828 8.285 71.3304 9.57255C71.0934 10.1269 70.6792 10.5869 70.1526 10.8804C69.626 11.174 69.0169 11.2845 68.4208 11.1946C60.5249 10.0043 52.4952 10.0043 44.5993 11.1946C44.0036 11.2848 43.3949 11.1748 42.8684 10.882C42.3419 10.5892 41.9273 10.13 41.6897 9.57644C41.1373 8.285 40.5227 7.00524 39.8887 5.75659C33.3717 7.01811 27.0208 9.02281 20.9606 11.7314C9.0343 29.6248 4.06306 48.4323 5.79016 69.1263C12.9846 74.295 20.9311 78.3266 29.351 81.0798C30.4402 79.5239 31.4593 77.9057 32.4007 76.2525C30.09 75.2522 27.8438 74.1089 25.6751 72.8295C25.2857 72.5998 24.9595 72.2769 24.7261 71.8897C24.4927 71.5025 24.3593 71.0633 24.3381 70.6117C24.3169 70.1601 24.4084 69.7103 24.6045 69.303C24.8006 68.8956 25.095 68.5434 25.4612 68.2783C26.2003 67.7454 26.9199 67.193 27.6551 66.629C28.0515 66.3249 28.5239 66.1358 29.0206 66.0823C29.5174 66.0288 30.0192 66.1129 30.4713 66.3256C38.6208 70.1735 47.5212 72.1692 56.5334 72.1692C65.5456 72.1692 74.446 70.1735 82.5955 66.3256C83.0599 66.1074 83.5765 66.0248 84.0857 66.0875C84.595 66.1501 85.0762 66.3554 85.4739 66.6796C86.2247 67.2903 86.8976 67.796 87.5317 68.2355C87.9124 68.493 88.2217 68.8427 88.4308 69.2519C88.6399 69.6612 88.742 70.1167 88.7277 70.576C88.7133 71.0354 88.5829 71.4836 88.3486 71.879C88.1143 72.2744 87.7838 72.604 87.3878 72.8372C85.2074 74.1174 82.9495 75.2606 80.6272 76.2603ZM74.4034 61.0354C67.565 61.0354 61.9986 54.9983 61.9986 47.5765C61.9986 40.1546 67.565 34.0709 74.4034 34.0709C75.9945 34.0751 77.5686 34.3984 79.0325 35.0218C80.4965 35.6452 81.8204 36.5559 82.9261 37.7001C84.1964 39.0154 85.1941 40.5689 85.8617 42.2712C86.5293 43.9735 86.8536 45.7911 86.8159 47.6193C86.6681 55.1423 81.2262 61.0354 74.3917 61.0354H74.4034ZM74.4034 39.5167C70.5135 39.5167 67.4444 43.0565 67.4444 47.5765C67.4444 51.9954 70.5563 55.5896 74.4034 55.5896C78.2505 55.5896 81.2846 52.0498 81.3546 47.5298C81.3842 46.4256 81.1957 45.3264 80.7999 44.2951C80.4041 43.2638 79.8087 42.3208 79.0479 41.52C78.4454 40.8914 77.7228 40.3902 76.923 40.0461C76.1232 39.7019 75.2624 39.5219 74.3917 39.5167H74.4034ZM38.6478 61.0354C31.8017 61.0354 26.2314 54.9983 26.2314 47.5765C26.2314 40.1546 31.7939 34.0709 38.6284 34.0709C40.2259 34.0741 41.8065 34.398 43.2765 35.0234C44.7465 35.6488 46.0759 36.563 47.1861 37.7118C48.455 39.0257 49.4518 40.5772 50.1194 42.2775C50.7869 43.9777 51.112 45.793 51.0759 47.6193C50.932 55.1423 45.4823 61.0354 38.6478 61.0354ZM38.6478 39.5167C34.8163 39.5167 31.6966 43.1304 31.6966 47.5765C31.6966 52.0226 34.8085 55.5896 38.6673 55.5896C42.526 55.5896 45.5523 52.0498 45.6223 47.5298C45.6518 46.427 45.4629 45.3293 45.0663 44.2999C44.6698 43.2704 44.0735 42.3296 43.3117 41.5316C42.706 40.8991 41.9792 40.3947 41.1747 40.0486C40.3701 39.7024 39.5042 39.5216 38.6284 39.5167H38.6478Z" fill="white"/>
</svg>
