<svg width="22" height="21" viewBox="0 0 22 21" fill="none" xmlns="http://www.w3.org/2000/svg">
<path d="M19.1166 20.2828H1.13135C0.831298 20.2828 0.543534 20.1636 0.331365 19.9514C0.119196 19.7393 0 19.4515 0 19.1514L0 1.1662C0 0.866149 0.119196 0.578385 0.331365 0.366216C0.543534 0.154047 0.831298 0.0348511 1.13135 0.0348511H12.5467C12.8467 0.0348511 13.1345 0.154047 13.3467 0.366216C13.5588 0.578385 13.678 0.866149 13.678 1.1662C13.678 1.46625 13.5588 1.75402 13.3467 1.96619C13.1345 2.17836 12.8467 2.29755 12.5467 2.29755H2.2627V18.0201H17.9852V11.9916C17.9852 11.6916 18.1044 11.4038 18.3166 11.1916C18.5288 10.9795 18.8165 10.8603 19.1166 10.8603C19.4166 10.8603 19.7044 10.9795 19.9166 11.1916C20.1287 11.4038 20.2479 11.6916 20.2479 11.9916V19.1514C20.2479 19.3 20.2187 19.4471 20.1618 19.5844C20.105 19.7217 20.0216 19.8464 19.9166 19.9514C19.8115 20.0565 19.6868 20.1398 19.5495 20.1967C19.4123 20.2535 19.2652 20.2828 19.1166 20.2828Z" fill="white"/>
<path d="M9.42001 10.975L18.327 2.06805L19.927 3.66811L11.0201 12.5751L8.27734 13.7177L9.42001 10.975Z" fill="white"/>
<path d="M21.6677 0.328989C21.7728 0.434046 21.8561 0.55877 21.913 0.696039C21.9698 0.833309 21.9991 0.980434 21.9991 1.12902C21.9991 1.2776 21.9698 1.42472 21.913 1.56199C21.8561 1.69926 21.7728 1.82398 21.6677 1.92904L20.5493 3.04585L18.9492 1.45226L20.0676 0.333837C20.1724 0.228451 20.2968 0.144727 20.4339 0.0874478C20.571 0.0301686 20.7181 0.00045544 20.8667 5.19487e-06C21.0152 -0.000445051 21.1625 0.0283764 21.2999 0.0848237C21.4373 0.141271 21.5623 0.224239 21.6677 0.328989Z" fill="white"/>
</svg>
