<svg width="114" height="87" viewBox="0 0 114 87" fill="none" xmlns="http://www.w3.org/2000/svg">
<path d="M102.299 87H11.4778C8.43468 86.9969 5.51704 85.7866 3.3652 83.6348C1.21336 81.483 0.00309632 78.5653 0 75.5222L0 11.4778C0.0041259 8.43499 1.21472 5.51796 3.36634 3.36634C5.51796 1.21472 8.435 0.0041259 11.4778 0L102.318 0C105.361 0.0041259 108.278 1.21472 110.43 3.36634C112.581 5.51796 113.792 8.43499 113.796 11.4778V75.5222C113.793 78.5687 112.58 81.4893 110.424 83.6417C108.268 85.7941 105.345 87.0021 102.299 87ZM11.4778 5.45821C9.88165 5.45924 8.35114 6.09379 7.22246 7.22246C6.09379 8.35114 5.45925 9.88165 5.45821 11.4778V75.5222C5.45925 77.1183 6.09379 78.6489 7.22246 79.7775C8.35114 80.9062 9.88165 81.5408 11.4778 81.5418H102.318C103.914 81.5397 105.444 80.9049 106.572 79.7764C107.701 78.6479 108.336 77.118 108.338 75.5222V11.4778C108.337 10.686 108.18 9.90208 107.876 9.17093C107.571 8.43979 107.126 7.77573 106.565 7.21671C106.005 6.65768 105.339 6.21465 104.607 5.91292C103.875 5.61119 103.09 5.45667 102.299 5.45821H11.4778Z" fill="white"/>
<path d="M56.8872 53.7595C56.2174 53.7602 55.5708 53.5146 55.0704 53.0694L3.62285 7.18534C3.11844 6.69457 2.82312 6.02792 2.79854 5.32459C2.77397 4.62126 3.02204 3.93562 3.49097 3.41085C3.95989 2.88608 4.61341 2.56274 5.31507 2.50835C6.01673 2.45396 6.71227 2.67273 7.25646 3.11897L56.8872 47.3812L106.518 3.11897C106.783 2.86886 107.096 2.67446 107.438 2.54724C107.779 2.42002 108.143 2.36257 108.507 2.37826C108.872 2.39396 109.229 2.48249 109.559 2.63864C109.888 2.79478 110.183 3.01537 110.426 3.28737C110.669 3.55937 110.854 3.87727 110.972 4.22229C111.09 4.56732 111.138 4.93247 111.112 5.29619C111.087 5.65991 110.989 6.01482 110.824 6.33996C110.659 6.6651 110.43 6.95388 110.152 7.18923L58.6884 53.0772C58.1909 53.516 57.5506 53.7585 56.8872 53.7595Z" fill="white"/>
<path d="M5.36558 84.5088C4.82147 84.5045 4.29108 84.3376 3.84251 84.0296C3.39395 83.7216 3.04769 83.2865 2.84821 82.7803C2.64873 82.2741 2.60514 81.7197 2.72302 81.1885C2.84091 80.6573 3.11489 80.1735 3.50979 79.7992L45.2261 40.3324C45.7537 39.8449 46.4521 39.5851 47.17 39.6092C47.8879 39.6334 48.5673 39.9395 49.0609 40.4614C49.5545 40.9832 49.8225 41.6786 49.8067 42.3967C49.791 43.1148 49.4927 43.7977 48.9767 44.2974L7.24086 83.7642C6.73385 84.2428 6.06285 84.5093 5.36558 84.5088Z" fill="white"/>
<path d="M108.412 84.5086C107.715 84.5091 107.044 84.2427 106.537 83.764L64.7852 44.2972C64.52 44.0522 64.306 43.7569 64.1558 43.4286C64.0055 43.1003 63.9219 42.7454 63.9097 42.3846C63.8976 42.0237 63.9572 41.664 64.0851 41.3263C64.2129 40.9887 64.4065 40.6797 64.6547 40.4174C64.9028 40.1551 65.2005 39.9446 65.5306 39.7982C65.8606 39.6518 66.2164 39.5723 66.5774 39.5644C66.9384 39.5565 67.2974 39.6202 67.6335 39.752C67.9697 39.8838 68.2763 40.081 68.5357 40.3322L110.287 79.799C110.683 80.1745 110.958 80.6601 111.075 81.1931C111.192 81.7261 111.147 82.2821 110.945 82.7891C110.743 83.2962 110.394 83.731 109.942 84.0376C109.491 84.3441 108.958 84.5082 108.412 84.5086Z" fill="white"/>
</svg>
