<svg width="70" height="70" viewBox="0 0 70 70" fill="none" xmlns="http://www.w3.org/2000/svg">
<path d="M35.0031 70C28.0805 70.0006 21.3132 67.9483 15.557 64.1027C9.80081 60.2571 5.31428 54.7909 2.66483 48.3954C0.0153759 41.9998 -0.678004 34.9622 0.672378 28.1726C2.02276 21.383 5.35625 15.1463 10.2513 10.2513C15.1463 5.35625 21.383 2.02276 28.1726 0.672378C34.9622 -0.678004 41.9998 0.0153759 48.3954 2.66483C54.7909 5.31428 60.2571 9.80081 64.1027 15.557C67.9483 21.3132 70.0006 28.0805 70 35.0031C69.9892 44.2816 66.2986 53.1769 59.7378 59.7378C53.1769 66.2986 44.2816 69.9892 35.0031 70ZM35.0031 4.38519C28.9473 4.38457 23.0274 6.17975 17.9919 9.54372C12.9564 12.9077 9.03149 17.6893 6.71361 23.284C4.39573 28.8786 3.78894 35.035 4.96999 40.9745C6.15104 46.914 9.06687 52.3699 13.3487 56.6522C17.6306 60.9345 23.0862 63.8509 29.0256 65.0325C34.965 66.2142 41.1214 65.608 46.7163 63.2907C52.3111 60.9734 57.0932 57.049 60.4577 52.0139C63.8222 46.9787 65.618 41.0589 65.618 35.0031C65.6088 26.8861 62.3805 19.1041 56.6412 13.3641C50.9019 7.62423 43.1202 4.39513 35.0031 4.38519Z" fill="#CD4040"/>
<path d="M35.0031 60.6099C29.9377 60.6105 24.9858 59.109 20.7738 56.2952C16.5618 53.4813 13.2789 49.4816 11.3401 44.8019C9.40138 40.1222 8.89396 34.9726 9.88202 30.0045C10.8701 25.0364 13.3093 20.4729 16.8911 16.8911C20.4729 13.3093 25.0364 10.8701 30.0045 9.88202C34.9726 8.89396 40.1222 9.40138 44.8019 11.3401C49.4816 13.2789 53.4813 16.5618 56.2952 20.7738C59.109 24.9858 60.6105 29.9377 60.6099 35.0031C60.6016 41.7919 57.9011 48.3003 53.1007 53.1007C48.3003 57.9011 41.7919 60.6016 35.0031 60.6099ZM35.0031 13.7753C30.8045 13.7746 26.7 15.0191 23.2087 17.3513C19.7174 19.6834 16.9961 22.9986 15.3889 26.8774C13.7817 30.7562 13.3609 35.0245 14.1796 39.1425C14.9984 43.2606 17.0199 47.0433 19.9885 50.0124C22.9572 52.9815 26.7396 55.0035 30.8575 55.8229C34.9754 56.6422 39.2437 56.222 43.1228 54.6154C47.0019 53.0088 50.3174 50.288 52.6501 46.797C54.9828 43.306 56.2279 39.2017 56.2279 35.0031C56.2221 29.3755 53.9841 23.9799 50.0051 20.0003C46.026 16.0206 40.6308 13.7819 35.0031 13.7753Z" fill="#CD4040"/>
<path d="M47.733 32.5555V37.4352C47.733 38.0894 46.8816 38.6183 45.8268 38.6183H24.1795C23.1247 38.6183 22.2733 38.0894 22.2733 37.4352V32.5555C22.2733 31.9044 23.1247 31.3723 24.1795 31.3723H45.8268C46.8816 31.3786 47.733 31.9107 47.733 32.5555Z" fill="#CD4040"/>
</svg>
