<svg width="40" height="22" viewBox="0 0 40 22" fill="none" xmlns="http://www.w3.org/2000/svg">
<path d="M39.6999 10.1127C39.3613 9.70311 31.3471 0.168327 20.2936 0H20H19.7045C8.65103 0.168327 0.638666 9.70311 0.300142 10.1127C0.106136 10.3474 0 10.6424 0 10.9469C0 11.2514 0.106136 11.5463 0.300142 11.781C0.638666 12.1906 8.65103 21.7254 19.7045 21.8918H20H20.2936C31.3471 21.7254 39.3707 12.1906 39.6999 11.781C39.8939 11.5463 40 11.2514 40 10.9469C40 10.6424 39.8939 10.3474 39.6999 10.1127ZM3.08128 10.9469C5.32476 8.62253 7.91077 6.65526 10.7495 5.1134C9.64627 6.85941 9.06069 8.88244 9.06069 10.9478C9.06069 13.0131 9.64627 15.0362 10.7495 16.7822C7.91103 15.2392 5.32509 13.2713 3.08128 10.9469ZM20 19.2772H19.7774C17.6311 19.1861 15.603 18.2695 14.1165 16.7186C12.63 15.1677 11.8001 13.1026 11.8001 10.9543C11.8001 8.80611 12.63 6.74094 14.1165 5.19006C15.603 3.63919 17.6311 2.72253 19.7774 2.63151H20.2226C22.3937 2.68787 24.457 3.58996 25.9727 5.14553C27.4885 6.70109 28.3367 8.78712 28.3367 10.959C28.3367 13.1309 27.4885 15.2169 25.9727 16.7725C24.457 18.3281 22.3937 19.2302 20.2226 19.2865L20 19.2772ZM29.258 16.7822C30.3601 15.0358 30.9451 13.0129 30.9451 10.9478C30.9451 8.88268 30.3601 6.8598 29.258 5.1134C32.0965 6.65563 34.6824 8.62286 36.9262 10.9469C34.6826 13.2716 32.0966 15.2394 29.258 16.7822Z" fill="white"/>
<path d="M25.3986 10.9469C25.3993 12.1442 25.0022 13.3078 24.2697 14.2549C23.5372 15.202 22.5107 15.8788 21.3517 16.1791C20.1926 16.4793 18.9666 16.386 17.8664 15.9137C16.7662 15.4414 15.8541 14.6169 15.2734 13.5698C14.6928 12.5227 14.4765 11.3124 14.6585 10.129C14.8406 8.94562 15.4106 7.85626 16.2791 7.03211C17.1477 6.20796 18.2654 5.69574 19.4567 5.57594C20.648 5.45614 21.8453 5.73556 22.8606 6.37028C22.2655 6.15751 21.6156 6.15449 21.0185 6.36172C20.4215 6.56894 19.9132 6.97397 19.5779 7.50966C19.2426 8.04536 19.1004 8.67955 19.1749 9.30712C19.2495 9.93469 19.5362 10.5179 19.9876 10.9602C20.4391 11.4025 21.0281 11.6772 21.6571 11.7388C22.286 11.8005 22.9172 11.6453 23.4459 11.2991C23.9746 10.9529 24.3691 10.4364 24.564 9.83519C24.7589 9.23402 24.7426 8.5843 24.5176 7.9937C25.094 8.87065 25.4003 9.8975 25.3986 10.9469Z" fill="white"/>
</svg>
