<svg width="39" height="25" viewBox="0 0 39 25" fill="none" xmlns="http://www.w3.org/2000/svg">
<path d="M4.23526 24.4758C3.38469 24.485 2.5348 24.4243 1.69403 24.2945L0.335938 24.0467L6.60046 17.3442C6.70731 17.2284 6.77514 17.0817 6.7943 16.9249C6.81345 16.7681 6.78295 16.6092 6.70714 16.4708C6.01054 15.1794 5.64394 13.7342 5.6403 12.265C5.6403 9.06451 7.37499 6.07429 10.5254 3.84478C13.6043 1.67213 17.6743 0.47583 21.9929 0.47583C26.3115 0.47583 30.3805 1.67213 33.4508 3.84478C36.6012 6.07429 38.3359 9.06451 38.3359 12.265C38.3359 15.4655 36.6012 18.4546 33.4508 20.6852C30.3805 22.8579 26.3115 24.0553 21.9929 24.0553C18.8681 24.0553 15.8692 23.4297 13.2618 22.242C13.1518 22.1926 13.0313 22.171 12.911 22.179C12.7907 22.1871 12.6742 22.2245 12.5716 22.2882C9.64417 24.1003 6.41696 24.4758 4.23526 24.4758ZM3.41486 22.9459C5.4568 23.0349 9.27291 22.8386 12.4116 20.5951C12.5228 20.5155 12.6537 20.4681 12.7899 20.4581C12.926 20.4481 13.0624 20.4758 13.184 20.5382C15.7508 21.8558 18.7924 22.5532 21.9929 22.5532C30.181 22.5532 36.8424 17.9396 36.8424 12.265C36.8424 6.59037 30.181 1.97791 21.9929 1.97791C13.8049 1.97791 7.14242 6.59144 7.14242 12.265C7.14242 13.78 7.61183 15.2413 8.53679 16.6071C8.63225 16.7484 8.67699 16.9181 8.66361 17.0884C8.65022 17.2587 8.57952 17.4193 8.46317 17.5437L3.41486 22.9459Z" fill="white"/>
<path d="M13.3414 15.4044C12.7238 15.4044 12.12 15.2202 11.6064 14.875C11.0929 14.5299 10.6927 14.0394 10.4563 13.4655C10.22 12.8916 10.1583 12.2601 10.2788 11.6509C10.3994 11.0417 10.6969 10.4821 11.1337 10.043C11.5706 9.60381 12.1271 9.3048 12.7329 9.18375C13.3387 9.0627 13.9666 9.12504 14.5371 9.3629C15.1077 9.60075 15.5953 10.0034 15.9383 10.52C16.2813 11.0366 16.4643 11.6439 16.4641 12.265C16.4629 13.0975 16.1336 13.8955 15.5482 14.484C14.9628 15.0725 14.1691 15.4035 13.3414 15.4044ZM13.3414 10.6267C13.0192 10.6267 12.7042 10.7228 12.4363 10.9028C12.1684 11.0828 11.9596 11.3387 11.8363 11.6381C11.713 11.9374 11.6808 12.2668 11.7436 12.5847C11.8065 12.9025 11.9617 13.1944 12.1895 13.4235C12.4173 13.6526 12.7076 13.8087 13.0236 13.8719C13.3396 13.9351 13.6672 13.9027 13.9648 13.7787C14.2625 13.6547 14.5169 13.4447 14.6959 13.1752C14.8749 12.9058 14.9705 12.5891 14.9705 12.265C14.9699 11.8307 14.7981 11.4143 14.4927 11.1072C14.1873 10.8001 13.7733 10.6273 13.3414 10.6267Z" fill="white"/>
<path d="M22.1003 15.4044C21.4826 15.4046 20.8787 15.2206 20.365 14.8756C19.8514 14.5306 19.4509 14.0401 19.2145 13.4662C18.978 12.8924 18.9161 12.2608 19.0365 11.6516C19.157 11.0423 19.4544 10.4826 19.8912 10.0433C20.3279 9.60408 20.8844 9.30497 21.4903 9.18383C22.0961 9.06269 22.7241 9.12497 23.2947 9.36279C23.8653 9.60062 24.353 10.0033 24.6961 10.5199C25.0391 11.0365 25.2221 11.6438 25.2219 12.265C25.2208 13.0973 24.8915 13.8951 24.3063 14.4836C23.7212 15.0721 22.9278 15.4032 22.1003 15.4044ZM22.1003 10.6267C21.778 10.6265 21.463 10.7224 21.1949 10.9023C20.9269 11.0822 20.7179 11.338 20.5945 11.6373C20.471 11.9367 20.4386 12.2661 20.5013 12.584C20.5641 12.9019 20.7191 13.1939 20.9469 13.4231C21.1747 13.6524 21.465 13.8085 21.781 13.8718C22.0971 13.9351 22.4247 13.9027 22.7224 13.7788C23.0201 13.6548 23.2746 13.4448 23.4537 13.1754C23.6327 12.9059 23.7283 12.5891 23.7283 12.265C23.7277 11.8309 23.5561 11.4146 23.2509 11.1076C22.9457 10.8005 22.532 10.6275 22.1003 10.6267Z" fill="white"/>
<path d="M30.6441 15.4044C30.0265 15.4044 29.4227 15.2202 28.9092 14.875C28.3956 14.5299 27.9954 14.0394 27.7591 13.4655C27.5228 12.8916 27.461 12.2601 27.5816 11.6509C27.7021 11.0417 27.9996 10.4821 28.4365 10.043C28.8733 9.60381 29.4298 9.3048 30.0356 9.18375C30.6414 9.0627 31.2693 9.12504 31.8399 9.3629C32.4104 9.60075 32.8981 10.0034 33.2411 10.52C33.5841 11.0366 33.767 11.6439 33.7668 12.265C33.7657 13.0975 33.4363 13.8955 32.8509 14.484C32.2655 15.0725 31.4719 15.4035 30.6441 15.4044ZM30.6441 10.6267C30.3219 10.6267 30.007 10.7228 29.7391 10.9028C29.4712 11.0828 29.2624 11.3387 29.1391 11.6381C29.0158 11.9374 28.9835 12.2668 29.0464 12.5847C29.1092 12.9025 29.2644 13.1944 29.4922 13.4235C29.72 13.6526 30.0103 13.8087 30.3263 13.8719C30.6423 13.9351 30.9699 13.9027 31.2676 13.7787C31.5652 13.6547 31.8197 13.4447 31.9987 13.1752C32.1777 12.9058 32.2732 12.5891 32.2732 12.265C32.2727 11.8307 32.1008 11.4143 31.7955 11.1072C31.4901 10.8001 31.076 10.6273 30.6441 10.6267Z" fill="white"/>
</svg>
