<svg width="88" height="88" viewBox="0 0 88 88" fill="none" xmlns="http://www.w3.org/2000/svg">
<path d="M43.9874 56.211C41.5895 56.2118 39.2453 55.5014 37.2512 54.1697C35.2571 52.838 33.7028 50.9448 32.7848 48.7297C31.8668 46.5145 31.6265 44.0768 32.0941 41.725C32.5617 39.3731 33.7163 37.2128 35.4118 35.5173C37.1074 33.8217 39.2677 32.6671 41.6195 32.1995C43.9713 31.7319 46.409 31.9723 48.6242 32.8903C50.8394 33.8083 52.7325 35.3626 54.0642 37.3567C55.3959 39.3508 56.1063 41.695 56.1055 44.0928C56.1014 47.3055 54.8233 50.3854 52.5516 52.6571C50.2799 54.9288 47.2 56.2068 43.9874 56.211ZM43.9874 37.4897C42.6812 37.489 41.4042 37.8756 40.3178 38.6007C39.2314 39.3257 38.3845 40.3567 37.8841 41.5632C37.3837 42.7697 37.2524 44.0975 37.5067 45.3786C37.7611 46.6598 38.3896 47.8367 39.3129 48.7605C40.2362 49.6844 41.4128 50.3137 42.6938 50.5688C43.9748 50.8239 45.3026 50.6933 46.5094 50.1937C47.7162 49.694 48.7477 48.8477 49.4734 47.7617C50.1992 46.6758 50.5865 45.399 50.5865 44.0928C50.5844 42.3429 49.8886 40.6652 48.6516 39.4274C47.4146 38.1897 45.7373 37.4929 43.9874 37.4897Z" fill="white"/>
<path d="M43.986 65.0691C39.8362 65.0699 35.7794 63.84 32.3286 61.535C28.8778 59.2299 26.1882 55.9533 24.5997 52.1196C23.0113 48.2858 22.5955 44.0671 23.4049 39.997C24.2143 35.9268 26.2125 32.1882 29.1469 29.2538C32.0813 26.3195 35.8199 24.3212 39.89 23.5118C43.9601 22.7024 48.1789 23.1182 52.0126 24.7067C55.8464 26.2951 59.123 28.9848 61.428 32.4355C63.7331 35.8863 64.963 39.9431 64.9622 44.0929C64.9559 49.6542 62.7439 54.986 58.8115 58.9184C54.879 62.8509 49.5473 65.0628 43.986 65.0691ZM43.986 28.6318C40.9279 28.6311 37.9383 29.5372 35.3952 31.2356C32.8521 32.934 30.8698 35.3484 29.699 38.1735C28.5282 40.9986 28.2214 44.1074 28.8176 47.1068C29.4137 50.1063 30.8859 52.8615 33.048 55.0242C35.2101 57.1869 37.965 58.6598 40.9643 59.2567C43.9636 59.8536 47.0725 59.5476 49.8979 58.3775C52.7232 57.2074 55.1382 55.2257 56.8372 52.6831C58.5363 50.1404 59.4432 47.151 59.4432 44.0929C59.439 39.9944 57.8093 36.0648 54.9115 33.1663C52.0137 30.2678 48.0846 28.6371 43.986 28.6318Z" fill="white"/>
<path d="M45.9891 87.969H41.9799C39.4549 87.9669 37.0338 86.9635 35.2476 85.1787C33.4614 83.394 32.4559 80.9737 32.4518 78.4487V72.709L31.8328 72.4527L27.7843 76.5052C25.994 78.2886 23.5701 79.2898 21.0432 79.2898C18.5163 79.2898 16.0923 78.2886 14.3021 76.5052L11.4638 73.6669C9.67996 71.8785 8.67822 69.4557 8.67822 66.9298C8.67822 64.4038 9.67996 61.981 11.4638 60.1926L15.5636 56.0928C15.4848 55.9036 15.4059 55.6986 15.331 55.5251H9.53211C7.00432 55.522 4.58101 54.5162 2.79396 52.7284C1.0069 50.9406 0.00208629 48.5169 0 45.9891L0 41.9839C0.00312955 39.4567 1.00841 37.034 2.79535 35.2471C4.58229 33.4602 7.005 32.4549 9.53211 32.4518H15.4138C15.4821 32.2836 15.5531 32.114 15.6267 31.9432L11.4638 27.7843C9.68236 25.993 8.6824 23.5694 8.6824 21.0432C8.6824 18.5169 9.68236 16.0934 11.4638 14.3021L14.3021 11.4638C16.0922 9.68164 18.5153 8.68112 21.0412 8.68112C23.5671 8.68112 25.9902 9.68164 27.7803 11.4638L31.9826 15.6661L32.4518 15.4729V9.52817C32.4538 7.00178 33.4584 4.57947 35.2448 2.79304C37.0312 1.00662 39.4535 0.00208792 41.9799 0L45.9891 0C48.5169 0.00208629 50.9406 1.0069 52.7284 2.79396C54.5162 4.58101 55.522 7.00432 55.5251 9.53211V15.4769L55.9864 15.67L60.1926 11.4638C61.0769 10.5781 62.127 9.87555 63.2831 9.39618C64.4391 8.9168 65.6783 8.67006 66.9298 8.67006C68.1812 8.67006 69.4204 8.9168 70.5765 9.39618C71.7325 9.87555 72.7827 10.5781 73.6669 11.4638L76.5052 14.2982C78.2905 16.0874 79.2931 18.5117 79.2931 21.0392C79.2931 23.5668 78.2905 25.9911 76.5052 27.7803L72.3463 31.9314L72.5592 32.4439H78.4487C80.9755 32.446 83.3982 33.4504 85.1852 35.2367C86.9723 37.023 87.9777 39.4453 87.9808 41.972V45.9812C87.9808 48.5104 86.9769 50.9361 85.1897 52.7256C83.4024 54.5151 80.9779 55.522 78.4487 55.5251H72.6459L72.4093 56.0967L76.5052 60.1926C77.3905 61.0775 78.0928 62.1281 78.5719 63.2844C79.051 64.4407 79.2976 65.6801 79.2976 66.9317C79.2976 68.1834 79.051 69.4228 78.5719 70.5791C78.0928 71.7354 77.3905 72.786 76.5052 73.6708L73.6708 76.5052C72.786 77.3905 71.7354 78.0928 70.5791 78.5719C69.4228 79.051 68.1834 79.2976 66.9317 79.2976C65.6801 79.2976 64.4407 79.051 63.2844 78.5719C62.1281 78.0928 61.0775 77.3905 60.1926 76.5052L56.1362 72.4488C55.9351 72.5394 55.742 72.6222 55.5251 72.705V78.4487C55.5189 80.9745 54.5117 83.3947 52.7242 85.1792C50.9368 86.9637 48.5148 87.9669 45.9891 87.969ZM31.5805 66.709C32.2026 66.7072 32.8176 66.8418 33.3821 67.1032C33.9576 67.3673 34.5647 67.6118 35.1442 67.8325C35.9744 68.1409 36.6903 68.696 37.1956 69.4233C37.7009 70.1506 37.9714 71.0152 37.9708 71.9008V78.4487C37.9718 79.5117 38.3945 80.5308 39.1462 81.2825C39.8978 82.0341 40.9169 82.4568 41.9799 82.4579H45.9891C47.0528 82.4568 48.0727 82.0344 48.8256 81.283C49.5785 80.5315 50.003 79.5124 50.0061 78.4487V71.9008C50.0049 71.0161 50.2742 70.1522 50.778 69.425C51.2819 68.6979 51.996 68.1422 52.8248 67.8325C53.4121 67.6157 54.0074 67.3713 54.579 67.1032C55.3858 66.7301 56.2879 66.6139 57.1629 66.7704C58.038 66.9269 58.8438 67.3486 59.4712 67.9784L64.0954 72.6025C64.4674 72.9751 64.9092 73.2707 65.3955 73.4724C65.8819 73.6741 66.4032 73.7779 66.9298 73.7779C67.4563 73.7779 67.9776 73.6741 68.464 73.4724C68.9503 73.2707 69.3922 72.9751 69.7642 72.6025L72.6025 69.7642C72.9751 69.3922 73.2707 68.9503 73.4724 68.464C73.6741 67.9776 73.7779 67.4563 73.7779 66.9298C73.7779 66.4032 73.6741 65.8819 73.4724 65.3955C73.2707 64.9092 72.9751 64.4674 72.6025 64.0954L67.9389 59.4318C67.3161 58.806 66.8981 58.0057 66.7404 57.1369C66.5827 56.2682 66.6927 55.372 67.0559 54.5672C67.3122 54.0035 67.5487 53.424 67.7576 52.8484C68.0665 52.015 68.6229 51.296 69.3523 50.7879C70.0816 50.2798 70.9489 50.007 71.8377 50.0061H78.4487C79.5131 50.004 80.5332 49.58 81.2855 48.827C82.0378 48.074 82.4608 47.0535 82.4618 45.9891V41.9799C82.4597 40.9166 82.0361 39.8974 81.2839 39.1459C80.5316 38.3944 79.5121 37.9718 78.4487 37.9708H71.7471C70.8648 37.9685 70.0039 37.6986 69.2782 37.1968C68.5526 36.6949 67.9962 35.9847 67.6827 35.16C67.4698 34.5923 67.2333 34.0365 66.985 33.4964C66.6161 32.6894 66.5022 31.789 66.6586 30.9155C66.815 30.042 67.2341 29.2371 67.8601 28.6082L72.5907 23.8776C73.3427 23.1244 73.7651 22.1036 73.7651 21.0392C73.7651 19.9749 73.3427 18.9541 72.5907 18.2009L69.776 15.3744C69.4043 15.0013 68.9625 14.7053 68.4761 14.5033C67.9897 14.3013 67.4683 14.1973 66.9416 14.1973C66.4149 14.1973 65.8934 14.3013 65.4071 14.5033C64.9207 14.7053 64.4789 15.0013 64.1072 15.3744L59.3214 20.1404C58.6971 20.7657 57.8967 21.1853 57.0273 21.3431C56.1579 21.501 55.2611 21.3894 54.4568 21.0235C53.9286 20.783 53.3806 20.5544 52.8248 20.3494C51.9976 20.0374 51.285 19.4811 50.7815 18.7544C50.2781 18.0277 50.0076 17.1651 50.0061 16.2811V9.53211C50.004 8.46773 49.58 7.44759 48.827 6.69533C48.074 5.94306 47.0535 5.52005 45.9891 5.51901H41.9799C40.9169 5.52005 39.8978 5.94278 39.1462 6.69441C38.3945 7.44605 37.9718 8.46519 37.9708 9.52817V16.2811C37.9714 17.1667 37.7009 18.0313 37.1956 18.7586C36.6903 19.4859 35.9744 20.041 35.1442 20.3494C34.6002 20.5504 34.0523 20.7751 33.5201 21.0195C32.7157 21.3869 31.8183 21.4995 30.9481 21.3424C30.0779 21.1853 29.2766 20.7659 28.6515 20.1404L23.8815 15.3744C23.1272 14.6231 22.1059 14.2012 21.0412 14.2012C19.9765 14.2012 18.9552 14.6231 18.2009 15.3744L15.3744 18.2048C14.6233 18.9585 14.2016 19.9792 14.2016 21.0432C14.2016 22.1072 14.6233 23.1278 15.3744 23.8815L20.1049 28.6121C20.7313 29.2426 21.15 30.0494 21.305 30.9244C21.46 31.7995 21.3439 32.701 20.9722 33.5082C20.7199 34.0562 20.4873 34.616 20.2784 35.1679C19.966 35.9937 19.41 36.705 18.6842 37.2077C17.9584 37.7103 17.0969 37.9806 16.2141 37.9826H9.5124C8.45416 37.9898 7.44144 38.414 6.69388 39.163C5.94631 39.9121 5.52417 40.9256 5.51901 41.9839V45.9891C5.52005 47.0535 5.94306 48.074 6.69533 48.827C7.44759 49.58 8.46773 50.004 9.53211 50.0061H16.1391C17.0275 50.0047 17.8949 50.2762 18.6239 50.7839C19.3529 51.2915 19.9084 52.0108 20.2153 52.8445C20.4243 53.4161 20.6608 53.9956 20.921 54.5633C21.2836 55.3682 21.3933 56.2642 21.2356 57.1328C21.078 58.0014 20.6603 58.8017 20.0379 59.4279L15.3744 64.0954C14.6211 64.8487 14.198 65.8704 14.198 66.9357C14.198 68.001 14.6211 69.0227 15.3744 69.776L18.2127 72.6143C18.9659 73.3664 19.9867 73.7888 21.0511 73.7888C22.1154 73.7888 23.1362 73.3664 23.8894 72.6143L28.5017 67.9784C28.9059 67.5743 29.386 67.2542 29.9144 67.0364C30.4428 66.8185 31.009 66.7073 31.5805 66.709Z" fill="white"/>
</svg>
