<svg width="70" height="70" viewBox="0 0 70 70" fill="none" xmlns="http://www.w3.org/2000/svg">
<path d="M32.3583 40.8531C32.2549 40.8528 32.1526 40.8317 32.0575 40.7911C31.9624 40.7505 31.8764 40.6912 31.8046 40.6168C31.7328 40.5424 31.6767 40.4543 31.6395 40.3578C31.6024 40.2613 31.5849 40.1583 31.5883 40.055C31.5888 38.6331 31.8246 37.2212 32.2863 35.8764C32.7751 34.6434 33.5701 33.5554 34.5963 32.7151C35.4961 31.9928 36.311 31.1706 37.0252 30.2643C37.5662 29.5619 37.859 28.7 37.8577 27.8134C37.8577 25.6412 36.9187 24.5551 35.0407 24.5551C34.6432 24.5413 34.2477 24.6187 33.8847 24.7815C33.5217 24.9443 33.2009 25.188 32.9467 25.4941C32.5094 26.0385 32.2368 26.6966 32.1611 27.3909C32.1362 27.5762 32.0453 27.7464 31.9049 27.87C31.7646 27.9937 31.5844 28.0625 31.3974 28.0638H25.6225C25.5164 28.0632 25.4116 28.0409 25.3145 27.9982C25.2174 27.9556 25.1301 27.8934 25.058 27.8157C24.9858 27.738 24.9304 27.6463 24.895 27.5463C24.8597 27.4464 24.8452 27.3402 24.8525 27.2344C25.034 24.7575 25.9323 22.796 27.5474 21.3499C29.3315 19.7432 31.8356 18.9408 35.0595 18.9429C38.2834 18.945 40.7697 19.6858 42.5184 21.1653C44.2795 22.6489 45.1611 24.7575 45.1632 27.491C45.1782 28.6175 44.9341 29.7323 44.4496 30.7494C43.8651 31.8741 43.0911 32.8895 42.1615 33.7511L39.6794 36.0611C39.0424 36.638 38.541 37.3488 38.2114 38.1425C37.9796 38.7886 37.8395 39.4639 37.7951 40.1489C37.7787 40.341 37.6908 40.5199 37.5488 40.6503C37.4068 40.7807 37.2211 40.8531 37.0283 40.8531H32.3583ZM30.69 47.4262C30.6764 46.9308 30.773 46.4385 30.9727 45.9849C31.1725 45.5314 31.4704 45.1278 31.845 44.8032C32.6592 44.1411 33.6767 43.7796 34.7262 43.7796C35.7756 43.7796 36.7931 44.1411 37.6073 44.8032C37.9713 45.1364 38.262 45.5416 38.4608 45.9932C38.6597 46.4448 38.7624 46.9328 38.7624 47.4262C38.7624 47.9196 38.6597 48.4076 38.4608 48.8592C38.262 49.3108 37.9713 49.716 37.6073 50.0492C36.7931 50.7113 35.7756 51.0728 34.7262 51.0728C33.6767 51.0728 32.6592 50.7113 31.845 50.0492C31.4664 49.7245 31.1652 49.3194 30.9632 48.8635C30.7612 48.4075 30.6636 47.9122 30.6775 47.4137L30.69 47.4262Z" fill="#6D40CD"/>
<path d="M35.0031 70C28.0805 70.0006 21.3132 67.9483 15.557 64.1027C9.80081 60.2571 5.31428 54.7909 2.66483 48.3954C0.0153759 41.9998 -0.678004 34.9622 0.672378 28.1726C2.02276 21.383 5.35625 15.1463 10.2513 10.2513C15.1463 5.35625 21.383 2.02276 28.1726 0.672378C34.9622 -0.678004 41.9998 0.0153759 48.3954 2.66483C54.7909 5.31428 60.2571 9.80081 64.1027 15.557C67.9483 21.3132 70.0006 28.0805 70 35.0031C69.9892 44.2816 66.2986 53.1769 59.7378 59.7378C53.1769 66.2986 44.2816 69.9892 35.0031 70ZM35.0031 4.38519C28.9473 4.38457 23.0274 6.17975 17.9919 9.54372C12.9564 12.9077 9.03149 17.6893 6.71361 23.284C4.39573 28.8786 3.78894 35.035 4.96999 40.9745C6.15104 46.914 9.06687 52.3699 13.3487 56.6522C17.6306 60.9345 23.0862 63.8509 29.0256 65.0325C34.965 66.2142 41.1214 65.608 46.7163 63.2907C52.3111 60.9734 57.0932 57.049 60.4577 52.0139C63.8222 46.9787 65.618 41.0589 65.618 35.0031C65.6088 26.8861 62.3805 19.1041 56.6412 13.3641C50.9019 7.62423 43.1202 4.39513 35.0031 4.38519Z" fill="#6D40CD"/>
<path d="M35.0031 60.6099C29.9377 60.6105 24.9858 59.109 20.7738 56.2952C16.5618 53.4813 13.2789 49.4816 11.3401 44.8019C9.40138 40.1222 8.89396 34.9726 9.88202 30.0045C10.8701 25.0364 13.3093 20.4729 16.8911 16.8911C20.4729 13.3093 25.0364 10.8701 30.0045 9.88202C34.9726 8.89396 40.1222 9.40138 44.8019 11.3401C49.4816 13.2789 53.4813 16.5618 56.2952 20.7738C59.109 24.9858 60.6105 29.9377 60.6099 35.0031C60.6016 41.7919 57.9011 48.3003 53.1007 53.1007C48.3003 57.9011 41.7919 60.6016 35.0031 60.6099ZM35.0031 13.7753C30.8045 13.7746 26.7 15.0191 23.2087 17.3513C19.7174 19.6834 16.9961 22.9986 15.3889 26.8774C13.7817 30.7562 13.3609 35.0245 14.1796 39.1425C14.9984 43.2606 17.0199 47.0433 19.9885 50.0124C22.9572 52.9815 26.7396 55.0035 30.8575 55.8229C34.9754 56.6422 39.2437 56.222 43.1228 54.6154C47.0019 53.0088 50.3174 50.288 52.6501 46.797C54.9828 43.306 56.2279 39.2017 56.2279 35.0031C56.2221 29.3755 53.9841 23.9799 50.0051 20.0003C46.026 16.0206 40.6308 13.7819 35.0031 13.7753Z" fill="#6D40CD"/>
</svg>
