<svg width="27" height="25" viewBox="0 0 27 25" fill="none" xmlns="http://www.w3.org/2000/svg">
<path d="M14.1983 24.5221C12.3404 24.5288 10.5064 24.1023 8.84236 23.2764C7.17828 22.4505 5.72993 21.2482 4.61243 19.7648C4.49695 19.6052 4.44856 19.4067 4.47762 19.2118C4.50668 19.0169 4.61088 18.8412 4.76794 18.7221C4.92499 18.603 5.12244 18.5501 5.31805 18.5746C5.51367 18.5991 5.69193 18.6991 5.81471 18.8532C7.32263 20.841 9.48857 22.2285 11.9257 22.7677C14.3628 23.3069 16.9124 22.9629 19.1191 21.7969C21.3257 20.631 23.0458 18.7191 23.9721 16.4028C24.8983 14.0865 24.9705 11.5166 24.1756 9.152C23.3807 6.78744 21.7706 4.78224 19.6328 3.49453C17.495 2.20683 14.9687 1.72048 12.5052 2.12234C10.0416 2.52421 7.80129 3.78812 6.18423 5.68834C4.56717 7.58856 3.67872 10.0013 3.67756 12.4958C3.67756 12.6958 3.59804 12.8877 3.45648 13.0291C3.31493 13.1706 3.12295 13.25 2.92276 13.25C2.72258 13.25 2.53059 13.1706 2.38904 13.0291C2.24749 12.8877 2.16797 12.6958 2.16797 12.4958C2.16861 10.1179 2.87481 7.79362 4.19728 5.81682C5.51975 3.84002 7.39909 2.29949 9.59766 1.39001C11.7962 0.480536 14.2153 0.242962 16.549 0.70733C18.8827 1.1717 21.0262 2.31716 22.7084 3.99886C24.3907 5.68057 25.5362 7.82299 26 10.1552C26.4639 12.4875 26.2253 14.9048 25.3144 17.1015C24.4035 19.2983 22.8612 21.1758 20.8826 22.4966C18.904 23.8175 16.5778 24.5224 14.1983 24.5221Z" fill="white"/>
<path d="M5.43213 12.4882L3.42438 15.9622C3.37355 16.0502 3.30046 16.1232 3.21245 16.1739C3.12443 16.2247 3.0246 16.2514 2.92298 16.2514C2.82136 16.2514 2.72153 16.2247 2.63351 16.1739C2.5455 16.1232 2.47241 16.0502 2.42158 15.9622L0.413825 12.4882C0.362872 12.4003 0.336009 12.3004 0.335938 12.1988C0.335867 12.0971 0.362591 11.9973 0.413421 11.9092C0.464251 11.8212 0.537392 11.7481 0.625484 11.6973C0.713576 11.6464 0.813509 11.6197 0.915225 11.6198H4.93073C5.03245 11.6197 5.13238 11.6464 5.22048 11.6973C5.30857 11.7481 5.38171 11.8212 5.43254 11.9092C5.48337 11.9973 5.51009 12.0971 5.51002 12.1988C5.50995 12.3004 5.48309 12.4003 5.43213 12.4882Z" fill="white"/>
<path d="M19.0734 13.2543H14.1985C14.0399 13.2542 13.8854 13.2042 13.7569 13.1113C13.6284 13.0185 13.5324 12.8875 13.4825 12.7371L11.0693 5.4551C11.0085 5.26575 11.025 5.06006 11.1151 4.88277C11.2053 4.70548 11.3618 4.57094 11.5508 4.50844C11.7397 4.44593 11.9457 4.46052 12.1239 4.54902C12.3021 4.63751 12.4381 4.79276 12.5024 4.98098L14.7441 11.7458H19.0734C19.2736 11.7458 19.4656 11.8252 19.6071 11.9667C19.7487 12.1081 19.8282 12.3 19.8282 12.5C19.8282 12.7001 19.7487 12.8919 19.6071 13.0334C19.4656 13.1748 19.2736 13.2543 19.0734 13.2543Z" fill="white"/>
</svg>
