<svg width="30" height="25" viewBox="0 0 30 25" fill="none" xmlns="http://www.w3.org/2000/svg">
<path d="M24.1989 24.4754H5.47371C5.2727 24.4754 5.07993 24.3961 4.9378 24.2549C4.79567 24.1137 4.71582 23.9222 4.71582 23.7225V11.5746C4.71582 11.375 4.79567 11.1835 4.9378 11.0423C5.07993 10.9011 5.2727 10.8218 5.47371 10.8218C5.67471 10.8218 5.86748 10.9011 6.00961 11.0423C6.15174 11.1835 6.23159 11.375 6.23159 11.5746V22.975H23.4464V11.5746C23.4464 11.375 23.5263 11.1835 23.6684 11.0423C23.8106 10.9011 24.0033 10.8218 24.2043 10.8218C24.4053 10.8218 24.5981 10.9011 24.7402 11.0423C24.8824 11.1835 24.9622 11.375 24.9622 11.5746V23.7279C24.9615 23.8268 24.9412 23.9245 24.9025 24.0156C24.8637 24.1067 24.8073 24.1893 24.7364 24.2587C24.6655 24.3281 24.5816 24.383 24.4894 24.4201C24.3971 24.4573 24.2984 24.4761 24.1989 24.4754Z" fill="white"/>
<path d="M24.1983 5.55934C23.9973 5.55934 23.8045 5.48002 23.6624 5.33883C23.5202 5.19765 23.4404 5.00615 23.4404 4.80648V3.08567H21.7081C21.5071 3.08567 21.3143 3.00635 21.1722 2.86516C21.03 2.72397 20.9502 2.53248 20.9502 2.33281C20.9502 2.13314 21.03 1.94165 21.1722 1.80046C21.3143 1.65927 21.5071 1.57996 21.7081 1.57996H24.1983C24.2978 1.57996 24.3964 1.59943 24.4883 1.63726C24.5803 1.6751 24.6638 1.73055 24.7342 1.80046C24.8046 1.87037 24.8604 1.95337 24.8985 2.04471C24.9366 2.13605 24.9562 2.23395 24.9562 2.33281V4.80648C24.9562 4.90535 24.9366 5.00325 24.8985 5.09459C24.8604 5.18593 24.8046 5.26893 24.7342 5.33883C24.6638 5.40874 24.5803 5.4642 24.4883 5.50203C24.3964 5.53987 24.2978 5.55934 24.1983 5.55934Z" fill="white"/>
<path d="M28.5772 12.4047C28.4114 12.4047 28.2501 12.3507 28.1182 12.2509L14.8356 2.17557L1.55422 12.2509C1.39442 12.3722 1.19269 12.4254 0.993399 12.3989C0.79411 12.3723 0.613591 12.2683 0.491553 12.1095C0.369514 11.9508 0.315954 11.7504 0.342655 11.5524C0.369355 11.3545 0.474129 11.1751 0.633927 11.0539L14.3766 0.630062C14.5086 0.530018 14.6701 0.47583 14.8362 0.47583C15.0023 0.47583 15.1637 0.530018 15.2958 0.630062L29.0384 11.0539C29.1644 11.1496 29.2569 11.2821 29.303 11.4327C29.3492 11.5833 29.3466 11.7446 29.2957 11.8937C29.2448 12.0428 29.1481 12.1723 29.0192 12.264C28.8903 12.3557 28.7357 12.4049 28.5772 12.4047Z" fill="white"/>
</svg>
