<svg width="26" height="25" viewBox="0 0 26 25" fill="none" xmlns="http://www.w3.org/2000/svg">
<path d="M4.69316 7.36551C4.49378 7.36551 4.30257 7.28619 4.16159 7.145C4.02061 7.00381 3.94141 6.81232 3.94141 6.61265C3.94141 6.41298 4.02061 6.22149 4.16159 6.0803C4.30257 5.93911 4.49378 5.85979 4.69316 5.85979L11.0293 5.83936C11.2287 5.83936 11.4199 5.91867 11.5609 6.05986C11.7019 6.20105 11.7811 6.39254 11.7811 6.59221C11.7811 6.79188 11.7019 6.98338 11.5609 7.12456C11.4199 7.26575 11.2287 7.34507 11.0293 7.34507L4.69316 7.36551Z" fill="white"/>
<path d="M21.9015 17.414H6.43693C6.25983 17.4141 6.08839 17.3516 5.95283 17.2375C5.81726 17.1234 5.72628 16.965 5.69592 16.7902L3.12815 1.98154H1.08769C0.888311 1.98154 0.697101 1.90223 0.55612 1.76104C0.41514 1.61985 0.335938 1.42836 0.335938 1.22869C0.335937 1.02902 0.41514 0.837525 0.55612 0.696337C0.697101 0.555149 0.888311 0.47583 1.08769 0.47583L3.75748 0.47583C3.93439 0.475991 4.10558 0.538632 4.24092 0.652731C4.37626 0.76683 4.46709 0.925076 4.49741 1.09963L7.07484 15.9083H21.3237L23.6058 7.30424L17.2611 7.32468C17.0617 7.32468 16.8705 7.24536 16.7295 7.10417C16.5885 6.96298 16.5093 6.77149 16.5093 6.57182C16.5093 6.37215 16.5885 6.18066 16.7295 6.03947C16.8705 5.89828 17.0617 5.81896 17.2611 5.81896L24.5863 5.79423C24.7015 5.7943 24.8151 5.82087 24.9184 5.87189C25.0217 5.9229 25.1118 5.99699 25.182 6.08845C25.2522 6.17991 25.3004 6.28628 25.323 6.39937C25.3456 6.51245 25.3419 6.62923 25.3123 6.74067L22.6275 16.8505C22.5857 17.0116 22.4918 17.1542 22.3604 17.2562C22.2291 17.3582 22.0677 17.4137 21.9015 17.414Z" fill="white"/>
<path d="M7.59956 24.4758C6.98609 24.4758 6.3864 24.2936 5.87634 23.9523C5.36628 23.6109 4.96875 23.1258 4.73403 22.5581C4.49932 21.9905 4.43796 21.3659 4.55772 20.7634C4.67748 20.1608 4.97298 19.6074 5.40684 19.173C5.8407 18.7387 6.39344 18.443 6.99514 18.3232C7.59684 18.2035 8.22049 18.2652 8.7872 18.5004C9.3539 18.7357 9.83822 19.134 10.1789 19.6449C10.5196 20.1558 10.7013 20.7565 10.7011 21.3708C10.7002 22.1942 10.3731 22.9837 9.79165 23.5658C9.21015 24.148 8.42177 24.4753 7.59956 24.4758ZM7.59956 19.7705C7.2835 19.7705 6.97454 19.8643 6.71175 20.0402C6.44896 20.216 6.24414 20.466 6.12319 20.7584C6.00224 21.0508 5.97059 21.3726 6.03225 21.683C6.09391 21.9935 6.24611 22.2786 6.46959 22.5024C6.69308 22.7263 6.97782 22.8787 7.2878 22.9404C7.59778 23.0022 7.91909 22.9705 8.21109 22.8494C8.50308 22.7282 8.75266 22.5231 8.92825 22.2599C9.10384 21.9968 9.19756 21.6873 9.19756 21.3708C9.19728 20.9465 9.02883 20.5396 8.7292 20.2395C8.42958 19.9394 8.02329 19.7707 7.59956 19.7705Z" fill="white"/>
<path d="M21.1846 24.4758C20.5711 24.476 19.9713 24.294 19.4611 23.9528C18.9509 23.6116 18.5532 23.1265 18.3183 22.5589C18.0834 21.9913 18.0219 21.3667 18.1416 20.764C18.2612 20.1614 18.5566 19.6079 18.9904 19.1734C19.4243 18.739 19.977 18.4431 20.5787 18.3233C21.1805 18.2035 21.8042 18.2651 22.3709 18.5003C22.9377 18.7355 23.4221 19.1338 23.7628 19.6448C24.1035 20.1557 24.2853 20.7564 24.2851 21.3708C24.2839 22.194 23.9569 22.9831 23.3757 23.5651C22.7945 24.1472 22.0066 24.4747 21.1846 24.4758ZM21.1846 19.7705C20.8685 19.7702 20.5595 19.8639 20.2965 20.0396C20.0336 20.2154 19.8286 20.4652 19.7075 20.7576C19.5864 21.0501 19.5546 21.3719 19.6161 21.6824C19.6776 21.9929 19.8298 22.2781 20.0532 22.5021C20.2766 22.726 20.5614 22.8785 20.8714 22.9404C21.1814 23.0022 21.5028 22.9706 21.7948 22.8495C22.0869 22.7284 22.3365 22.5232 22.5122 22.26C22.6878 21.9968 22.7815 21.6874 22.7815 21.3708C22.781 20.9467 22.6126 20.5402 22.3133 20.2402C22.0139 19.9402 21.6081 19.7713 21.1846 19.7705Z" fill="white"/>
</svg>
