<svg width="82" height="52" viewBox="0 0 82 52" fill="none" xmlns="http://www.w3.org/2000/svg">
<path d="M81.3883 0H18.1484V32.9394H81.3883V0Z" fill="#66C87D"/>
<path d="M78.0496 2.06006H21.4882C21.3201 2.06006 21.1536 2.09322 20.9982 2.15763C20.8429 2.22205 20.7018 2.31646 20.5829 2.43547C20.4641 2.55448 20.3699 2.69575 20.3058 2.85119C20.2416 3.00664 20.2087 3.17321 20.209 3.34138V29.5981C20.2087 29.7663 20.2416 29.9328 20.3058 30.0883C20.3699 30.2437 20.4641 30.385 20.5829 30.504C20.7018 30.623 20.8429 30.7174 20.9982 30.7818C21.1536 30.8463 21.3201 30.8794 21.4882 30.8794H78.0496C78.3894 30.8794 78.7153 30.7444 78.9556 30.5041C79.1959 30.2638 79.3309 29.9379 79.3309 29.5981V3.34138C79.3309 3.00155 79.1959 2.67564 78.9556 2.43535C78.7153 2.19505 78.3894 2.06006 78.0496 2.06006ZM77.2709 26.2053C77.176 26.1928 77.0803 26.1866 76.9846 26.1867C76.3623 26.1867 75.7655 26.434 75.3255 26.874C74.8854 27.314 74.6382 27.9108 74.6382 28.5331C74.6382 28.6288 74.6444 28.7245 74.6568 28.8194H24.8811C24.8935 28.7245 24.8996 28.6288 24.8996 28.5331C24.8999 28.2251 24.8394 27.92 24.7217 27.6353C24.6041 27.3507 24.4314 27.092 24.2137 26.8741C23.996 26.6562 23.7375 26.4833 23.4529 26.3654C23.1684 26.2475 22.8634 26.1867 22.5553 26.1867C22.4596 26.1866 22.3639 26.1928 22.269 26.2053V6.73419C22.3639 6.74666 22.4596 6.75285 22.5553 6.75273C22.8634 6.75273 23.1684 6.69203 23.4529 6.57409C23.7375 6.45615 23.996 6.28329 24.2137 6.06538C24.4314 5.84748 24.6041 5.5888 24.7217 5.30414C24.8394 5.01949 24.8999 4.71442 24.8996 4.4064C24.8996 4.31065 24.8935 4.215 24.8811 4.12006H74.6568C74.6444 4.215 74.6382 4.31065 74.6382 4.4064C74.6382 5.02868 74.8854 5.62548 75.3255 6.06551C75.7655 6.50553 76.3623 6.75273 76.9846 6.75273C77.0803 6.75285 77.176 6.74666 77.2709 6.73419V26.2053Z" fill="#227042"/>
<path d="M33.5673 23.4448H29.1713C28.9699 23.4448 28.8066 23.6081 28.8066 23.8094V25.4162C28.8066 25.6176 28.9699 25.7809 29.1713 25.7809H33.5673C33.7687 25.7809 33.9319 25.6176 33.9319 25.4162V23.8094C33.9319 23.6081 33.7687 23.4448 33.5673 23.4448Z" fill="#227042"/>
<path d="M32.5371 11.9191V7.52307C32.5371 7.32169 32.3739 7.15845 32.1725 7.15845H30.5657C30.3643 7.15845 30.2011 7.32169 30.2011 7.52307V11.9191C30.2011 12.1205 30.3643 12.2837 30.5657 12.2837H32.1725C32.3739 12.2837 32.5371 12.1205 32.5371 11.9191Z" fill="#227042"/>
<path d="M69.3379 11.9191V7.52306C69.3379 7.32169 69.1746 7.15845 68.9733 7.15845H67.3665C67.1651 7.15845 67.0019 7.32169 67.0019 7.52306V11.9191C67.0019 12.1205 67.1651 12.2837 67.3665 12.2837H68.9733C69.1746 12.2837 69.3379 12.1205 69.3379 11.9191Z" fill="#227042"/>
<path d="M70.3661 23.4448H65.9701C65.7687 23.4448 65.6055 23.6081 65.6055 23.8094V25.4162C65.6055 25.6176 65.7687 25.7809 65.9701 25.7809H70.3661C70.5675 25.7809 70.7307 25.6176 70.7307 25.4162V23.8094C70.7307 23.6081 70.5675 23.4448 70.3661 23.4448Z" fill="#227042"/>
<path d="M48.616 6.88044L42.0467 10.6688C41.6932 10.8726 41.3995 11.1659 41.1952 11.5192C40.9909 11.8725 40.8832 12.2733 40.8828 12.6814V20.2581C40.8832 20.6662 40.9909 21.067 41.1952 21.4202C41.3995 21.7735 41.6932 22.0668 42.0467 22.2707L48.616 26.059C48.9698 26.2625 49.3708 26.3696 49.7789 26.3696C50.187 26.3696 50.588 26.2625 50.9418 26.059L57.5029 22.2707C57.8562 22.0667 58.1495 21.7733 58.3535 21.42C58.5574 21.0667 58.6648 20.666 58.6647 20.2581V12.6814C58.6648 12.2735 58.5574 11.8727 58.3535 11.5194C58.1495 11.1661 57.8562 10.8727 57.5029 10.6688L50.9315 6.88044C50.5789 6.67881 50.1799 6.57275 49.7738 6.57275C49.3676 6.57275 48.9686 6.67881 48.616 6.88044ZM55.826 20.3569L50.124 23.6529C50.0195 23.7127 49.9013 23.7442 49.781 23.7442C49.6606 23.7442 49.5424 23.7127 49.438 23.6529L43.7359 20.3569C43.6319 20.2967 43.5456 20.2101 43.4856 20.106C43.4256 20.0019 43.394 19.8838 43.3939 19.7637V13.184C43.3942 13.0639 43.4259 12.9459 43.4859 12.8418C43.5459 12.7377 43.6321 12.6512 43.7359 12.5907L49.438 9.29475C49.5424 9.23495 49.6606 9.20348 49.781 9.20348C49.9013 9.20348 50.0195 9.23495 50.124 9.29475L55.826 12.5907C55.9278 12.6526 56.0118 12.7398 56.07 12.8437C56.1281 12.9477 56.1583 13.0649 56.1577 13.184V19.776C56.1553 19.8943 56.1224 20.0099 56.0621 20.1117C56.0018 20.2135 55.9162 20.298 55.8137 20.3569H55.826Z" fill="#227042"/>
<path d="M45.6367 18.8449V13.971H47.8327C48.0524 13.9696 48.2696 14.0189 48.4672 14.1152C48.6579 14.2084 48.8291 14.3371 48.9719 14.4942C49.1136 14.6488 49.2266 14.8273 49.3056 15.0216C49.384 15.211 49.4246 15.4139 49.4251 15.619C49.4255 15.7663 49.4068 15.9131 49.3694 16.0557C49.3342 16.193 49.2816 16.3252 49.2129 16.4492C49.1453 16.5717 49.0607 16.6841 48.9616 16.7829C48.8629 16.8807 48.7513 16.9646 48.6299 17.0321L49.699 18.8449H48.4301L47.4969 17.2732H46.7615V18.8449H45.6367ZM46.7615 16.2905H47.7915C47.8597 16.2894 47.9266 16.2718 47.9865 16.2391C48.0465 16.2065 48.0976 16.1598 48.1355 16.1031C48.2356 15.962 48.2863 15.7918 48.2797 15.619C48.2886 15.4437 48.2295 15.2718 48.1149 15.139C48.0716 15.0855 48.0175 15.0419 47.956 15.011C47.8946 14.9801 47.8272 14.9626 47.7585 14.9598H46.7615V16.2905Z" fill="#227042"/>
<path d="M53.2642 15.3985C53.2277 15.3638 53.1869 15.334 53.1427 15.3099C53.0611 15.26 52.9765 15.2153 52.8893 15.176C52.7863 15.1286 52.671 15.0833 52.5453 15.038C52.4215 14.995 52.2939 14.964 52.1642 14.9453V15.8805L52.3846 15.9341C52.5992 15.9906 52.8103 16.0594 53.017 16.1401C53.1901 16.2064 53.3509 16.3011 53.4929 16.4202C53.6228 16.5337 53.7262 16.6744 53.7957 16.8322C53.8703 17.0152 53.906 17.2116 53.9008 17.409C53.9072 17.6383 53.8607 17.866 53.7648 18.0744C53.6783 18.25 53.5529 18.4036 53.3981 18.5235C53.2392 18.6428 53.0598 18.7322 52.8687 18.7872C52.6678 18.8472 52.4602 18.8818 52.2507 18.8902V19.6874H51.7769V18.884C51.4584 18.8545 51.1441 18.7903 50.8396 18.6924C50.5483 18.5967 50.2711 18.4623 50.0156 18.2928L50.51 17.3122C50.5537 17.3561 50.6029 17.3942 50.6563 17.4255C50.7542 17.4871 50.856 17.5421 50.9612 17.5903C51.0956 17.6523 51.2331 17.7073 51.3732 17.7551C51.5293 17.8076 51.69 17.8455 51.8531 17.8684V16.9579L51.5235 16.8611C51.3236 16.8024 51.1287 16.728 50.9406 16.6386C50.7891 16.5688 50.6499 16.4749 50.5286 16.3605C50.4216 16.2588 50.3392 16.1341 50.2875 15.9959C50.2317 15.8422 50.2052 15.6794 50.2093 15.5159C50.2054 15.2981 50.2475 15.0819 50.3329 14.8814C50.4108 14.7018 50.5235 14.5393 50.6645 14.4035C50.8078 14.2689 50.9756 14.1633 51.1589 14.0924C51.3569 14.0142 51.565 13.9643 51.7769 13.9441V13.252H52.2507V13.9441C52.5388 13.9713 52.8213 14.0408 53.0891 14.1501C53.3217 14.2402 53.5481 14.3455 53.7669 14.4653L53.2642 15.3985ZM51.3629 15.3367C51.3603 15.3882 51.3697 15.4395 51.3905 15.4868C51.4112 15.534 51.4427 15.5757 51.4823 15.6086C51.5908 15.6884 51.713 15.7478 51.8428 15.7837V14.9391C51.5215 14.9659 51.3629 15.0998 51.3629 15.3367ZM52.6936 17.5203C52.6957 17.4654 52.6835 17.4109 52.6582 17.3622C52.633 17.3134 52.5955 17.2721 52.5494 17.2422C52.4299 17.1645 52.3003 17.1035 52.1642 17.0609V17.8849C52.5165 17.8705 52.6936 17.7489 52.6936 17.5203Z" fill="#227042"/>
<path d="M77.7594 3.62964H14.5195V36.569H77.7594V3.62964Z" fill="#66C87D"/>
<path d="M74.4207 5.6897H17.8593C17.6912 5.6897 17.5247 5.72285 17.3693 5.78727C17.214 5.85169 17.0729 5.9461 16.954 6.06511C16.8352 6.18412 16.741 6.32539 16.6769 6.48083C16.6127 6.63628 16.5798 6.80285 16.5801 6.97102V33.2277C16.5798 33.3959 16.6127 33.5625 16.6769 33.7179C16.741 33.8734 16.8352 34.0146 16.954 34.1336C17.0729 34.2527 17.214 34.3471 17.3693 34.4115C17.5247 34.4759 17.6912 34.5091 17.8593 34.5091H74.4207C74.7605 34.5091 75.0864 34.3741 75.3267 34.1338C75.567 33.8935 75.702 33.5676 75.702 33.2277V6.97102C75.702 6.80275 75.6689 6.63613 75.6045 6.48068C75.5401 6.32522 75.4457 6.18397 75.3267 6.06499C75.2077 5.94601 75.0665 5.85162 74.911 5.78723C74.7556 5.72284 74.589 5.6897 74.4207 5.6897ZM73.642 29.8349C73.5471 29.8225 73.4514 29.8163 73.3557 29.8164C72.7334 29.8164 72.1366 30.0636 71.6966 30.5036C71.2565 30.9436 71.0093 31.5404 71.0093 32.1627C71.0093 32.2585 71.0155 32.3541 71.0279 32.4491H21.2522C21.2645 32.3541 21.2707 32.2585 21.2707 32.1627C21.271 31.8547 21.2105 31.5496 21.0928 31.265C20.9751 30.9803 20.8025 30.7216 20.5848 30.5037C20.3671 30.2858 20.1086 30.113 19.824 29.995C19.5395 29.8771 19.2344 29.8164 18.9264 29.8164C18.8307 29.8163 18.735 29.8225 18.6401 29.8349V10.3638C18.735 10.3763 18.8307 10.3825 18.9264 10.3824C19.2346 10.3824 19.5398 10.3216 19.8245 10.2035C20.1092 10.0855 20.3678 9.91241 20.5855 9.69429C20.8033 9.47617 20.9759 9.21725 21.0934 8.93236C21.211 8.64746 21.2712 8.34218 21.2707 8.03397C21.2707 7.93823 21.2645 7.84258 21.2522 7.74763H71.0279C71.0155 7.84258 71.0093 7.93823 71.0093 8.03397C71.0091 8.34227 71.0695 8.6476 71.1873 8.93251C71.3051 9.21742 71.4779 9.47632 71.6958 9.69442C71.9137 9.91251 72.1725 10.0855 72.4573 10.2036C72.7421 10.3216 73.0474 10.3824 73.3557 10.3824C73.4514 10.3825 73.5471 10.3763 73.642 10.3638V29.8349Z" fill="#227042"/>
<path d="M29.9384 27.0745H25.5424C25.341 27.0745 25.1777 27.2377 25.1777 27.4391V29.0459C25.1777 29.2473 25.341 29.4105 25.5424 29.4105H29.9384C30.1398 29.4105 30.303 29.2473 30.303 29.0459V27.4391C30.303 27.2377 30.1398 27.0745 29.9384 27.0745Z" fill="#227042"/>
<path d="M28.9082 15.549V11.1529C28.9082 10.9516 28.745 10.7883 28.5436 10.7883H26.9368C26.7354 10.7883 26.5722 10.9516 26.5722 11.1529V15.549C26.5722 15.7504 26.7354 15.9136 26.9368 15.9136H28.5436C28.745 15.9136 28.9082 15.7504 28.9082 15.549Z" fill="#227042"/>
<path d="M65.709 15.549V11.1529C65.709 10.9516 65.5457 10.7883 65.3444 10.7883H63.7376C63.5362 10.7883 63.3729 10.9516 63.3729 11.1529V15.549C63.3729 15.7504 63.5362 15.9136 63.7376 15.9136H65.3444C65.5457 15.9136 65.709 15.7504 65.709 15.549Z" fill="#227042"/>
<path d="M66.7353 27.0745H62.3392C62.1379 27.0745 61.9746 27.2377 61.9746 27.4391V29.0459C61.9746 29.2473 62.1379 29.4105 62.3392 29.4105H66.7353C66.9366 29.4105 67.0999 29.2473 67.0999 29.0459V27.4391C67.0999 27.2377 66.9366 27.0745 66.7353 27.0745Z" fill="#227042"/>
<path d="M44.9749 10.5059L38.4159 14.2984C38.0623 14.5023 37.7687 14.7956 37.5644 15.1488C37.3601 15.5021 37.2523 15.9029 37.252 16.311V23.8959C37.2523 24.304 37.3601 24.7048 37.5644 25.0581C37.7687 25.4114 38.0623 25.7047 38.4159 25.9085L44.9749 29.6969C45.3286 29.9004 45.7296 30.0075 46.1378 30.0075C46.5459 30.0075 46.9469 29.9004 47.3006 29.6969L53.8617 25.9085C54.215 25.7046 54.5083 25.4112 54.7123 25.0579C54.9162 24.7046 55.0236 24.3039 55.0235 23.8959V16.311C55.0236 15.9031 54.9162 15.5023 54.7123 15.149C54.5083 14.7957 54.215 14.5024 53.8617 14.2984L47.3006 10.5059C46.9469 10.3024 46.5459 10.1953 46.1378 10.1953C45.7296 10.1953 45.3286 10.3024 44.9749 10.5059ZM52.1849 23.9825L46.4828 27.2784C46.3784 27.3383 46.2601 27.3697 46.1398 27.3697C46.0195 27.3697 45.9012 27.3383 45.7968 27.2784L40.0947 23.9825C39.9908 23.9222 39.9045 23.8357 39.8444 23.7315C39.7844 23.6274 39.7528 23.5093 39.7528 23.3892V16.7972C39.753 16.677 39.7847 16.5591 39.8447 16.455C39.9047 16.3509 39.9909 16.2643 40.0947 16.2039L45.7968 12.9079C45.9012 12.8481 46.0195 12.8166 46.1398 12.8166C46.2601 12.8166 46.3784 12.8481 46.4828 12.9079L52.1849 16.2039C52.2902 16.2649 52.3774 16.3527 52.4379 16.4584C52.4983 16.564 52.5297 16.6837 52.5289 16.8054V23.3974C52.5277 23.5173 52.4951 23.6348 52.4344 23.7381C52.3737 23.8415 52.287 23.9272 52.1828 23.9866L52.1849 23.9825Z" fill="#227042"/>
<path d="M42.0078 22.4746V17.6006H44.2038C44.4235 17.5992 44.6407 17.6485 44.8382 17.7448C45.0293 17.8393 45.2006 17.9693 45.3429 18.128C45.4847 18.2825 45.5977 18.4611 45.6767 18.6553C45.7551 18.8448 45.7957 19.0477 45.7961 19.2527C45.7966 19.4001 45.7779 19.5469 45.7405 19.6895C45.7053 19.8267 45.6527 19.9589 45.584 20.0829C45.5164 20.2055 45.4318 20.3178 45.3326 20.4166C45.234 20.5145 45.1224 20.5984 45.001 20.6659L46.0701 22.4787H44.8012L43.8783 20.9028H43.1429V22.4746H42.0078ZM43.1326 19.9202H44.1626C44.2308 19.919 44.2977 19.9014 44.3576 19.8687C44.4175 19.8361 44.4687 19.7894 44.5066 19.7327C44.6067 19.5916 44.6574 19.4215 44.6508 19.2486C44.6597 19.0734 44.6006 18.9015 44.486 18.7686C44.4427 18.7152 44.3886 18.6715 44.3271 18.6406C44.2657 18.6097 44.1983 18.5923 44.1296 18.5894H43.1326V19.9202Z" fill="#227042"/>
<path d="M49.6339 19.0283C49.5974 18.9937 49.5565 18.9639 49.5124 18.9397C49.4308 18.8898 49.3462 18.8451 49.259 18.8058C49.156 18.7584 49.0406 18.7131 48.915 18.6678C48.7912 18.6249 48.6636 18.5938 48.5339 18.5751V19.5103L48.7543 19.5639C48.9689 19.6205 49.18 19.6893 49.3867 19.7699C49.5598 19.8362 49.7206 19.9309 49.8626 20.0501C49.9925 20.1635 50.0959 20.3042 50.1654 20.4621C50.2399 20.645 50.2757 20.8414 50.2705 21.0389C50.2769 21.2682 50.2304 21.4959 50.1345 21.7042C50.0479 21.8798 49.9225 22.0334 49.7678 22.1533C49.6088 22.2727 49.4294 22.362 49.2384 22.417C49.0342 22.4779 48.8231 22.5125 48.6101 22.52V23.3172H48.1363V22.5138C47.8178 22.4844 47.5035 22.4201 47.199 22.3222C46.9077 22.2266 46.6305 22.0922 46.375 21.9226L46.8694 20.942C46.9131 20.986 46.9622 21.024 47.0157 21.0553C47.1135 21.1169 47.2154 21.172 47.3205 21.2201C47.4549 21.2822 47.5924 21.3372 47.7325 21.3849C47.8887 21.4374 48.0494 21.4753 48.2125 21.4982V20.5877L47.8829 20.4909C47.683 20.4323 47.4881 20.3579 47.2999 20.2684C47.1485 20.1986 47.0093 20.1047 46.8879 19.9903C46.781 19.8887 46.6985 19.764 46.6469 19.6257C46.5911 19.472 46.5646 19.3092 46.5686 19.1457C46.5648 18.9279 46.6069 18.7117 46.6922 18.5112C46.7702 18.3316 46.8829 18.1692 47.0239 18.0333C47.1671 17.8988 47.335 17.7932 47.5183 17.7223C47.7163 17.644 47.9244 17.5941 48.1363 17.5739V16.8921H48.6163V17.5842C48.9043 17.6115 49.1868 17.6809 49.4547 17.7902C49.6874 17.8824 49.9138 17.9897 50.1324 18.1116L49.6339 19.0283ZM47.7325 18.9665C47.73 19.018 47.7394 19.0694 47.7601 19.1166C47.7809 19.1638 47.8123 19.2055 47.852 19.2384C47.9605 19.3183 48.0827 19.3776 48.2125 19.4135V18.5689C47.8912 18.5957 47.7325 18.7296 47.7325 18.9665ZM49.0633 21.1501C49.0654 21.0952 49.0532 21.0408 49.0279 20.992C49.0026 20.9433 48.9651 20.9019 48.9191 20.872C48.7995 20.7943 48.6699 20.7334 48.5339 20.6907V21.5147C48.8861 21.5003 49.0633 21.3788 49.0633 21.1501Z" fill="#227042"/>
<path d="M74.1285 7.25952H10.8887V40.1989H74.1285V7.25952Z" fill="#66C87D"/>
<path d="M70.7898 9.31934H14.2285C14.0603 9.31934 13.8938 9.35249 13.7385 9.41691C13.5831 9.48133 13.442 9.57574 13.3232 9.69475C13.2044 9.81376 13.1102 9.95503 13.046 10.1105C12.9818 10.2659 12.9489 10.4325 12.9492 10.6007V36.8574C12.9489 37.0255 12.9818 37.1921 13.046 37.3476C13.1102 37.503 13.2044 37.6443 13.3232 37.7633C13.442 37.8823 13.5831 37.9767 13.7385 38.0411C13.8938 38.1055 14.0603 38.1387 14.2285 38.1387H70.7898C71.1297 38.1387 71.4556 38.0037 71.6959 37.7634C71.9361 37.5231 72.0711 37.1972 72.0711 36.8574V10.6007C72.0711 10.2608 71.9361 9.93492 71.6959 9.69462C71.4556 9.45433 71.1297 9.31934 70.7898 9.31934ZM70.0111 33.4646C69.9162 33.4521 69.8206 33.4459 69.7248 33.446C69.1025 33.446 68.5057 33.6932 68.0657 34.1333C67.6257 34.5733 67.3785 35.1701 67.3785 35.7924C67.3784 35.8881 67.3846 35.9838 67.397 36.0787H17.6213C17.6337 35.9838 17.6399 35.8881 17.6398 35.7924C17.6401 35.4843 17.5797 35.1793 17.462 34.8946C17.3443 34.61 17.1717 34.3513 16.9539 34.1334C16.7362 33.9155 16.4777 33.7426 16.1931 33.6247C15.9086 33.5067 15.6036 33.446 15.2956 33.446C15.1998 33.4459 15.1042 33.4521 15.0092 33.4646V13.9935C15.1042 14.0059 15.1998 14.0121 15.2956 14.012C15.6036 14.012 15.9086 13.9513 16.1931 13.8334C16.4777 13.7154 16.7362 13.5426 16.9539 13.3247C17.1717 13.1068 17.3443 12.8481 17.462 12.5634C17.5797 12.2788 17.6401 11.9737 17.6398 11.6657C17.6399 11.5699 17.6337 11.4743 17.6213 11.3793H67.397C67.3846 11.4743 67.3784 11.5699 67.3785 11.6657C67.3796 12.2872 67.6273 12.883 68.0672 13.3221C68.5071 13.7613 69.1032 14.0079 69.7248 14.0079C69.8206 14.008 69.9162 14.0018 70.0111 13.9894V33.4646Z" fill="#227042"/>
<path d="M26.3095 30.7043H21.9134C21.7121 30.7043 21.5488 30.8676 21.5488 31.069V32.6758C21.5488 32.8771 21.7121 33.0404 21.9134 33.0404H26.3095C26.5109 33.0404 26.6741 32.8771 26.6741 32.6758V31.069C26.6741 30.8676 26.5109 30.7043 26.3095 30.7043Z" fill="#227042"/>
<path d="M25.2793 19.1786V14.7826C25.2793 14.5812 25.1161 14.418 24.9147 14.418H23.3079C23.1065 14.418 22.9433 14.5812 22.9433 14.7826V19.1786C22.9433 19.38 23.1065 19.5432 23.3079 19.5432H24.9147C25.1161 19.5432 25.2793 19.38 25.2793 19.1786Z" fill="#227042"/>
<path d="M62.0781 19.1786V14.7826C62.0781 14.5812 61.9149 14.418 61.7135 14.418H60.1067C59.9053 14.418 59.7421 14.5812 59.7421 14.7826V19.1786C59.7421 19.38 59.9053 19.5432 60.1067 19.5432H61.7135C61.9149 19.5432 62.0781 19.38 62.0781 19.1786Z" fill="#227042"/>
<path d="M63.1064 30.7043H58.7103C58.5089 30.7043 58.3457 30.8676 58.3457 31.069V32.6758C58.3457 32.8771 58.5089 33.0404 58.7103 33.0404H63.1064C63.3077 33.0404 63.471 32.8771 63.471 32.6758V31.069C63.471 30.8676 63.3077 30.7043 63.1064 30.7043Z" fill="#227042"/>
<path d="M41.346 14.1397L34.7869 17.9219C34.4334 18.1258 34.1398 18.4191 33.9355 18.7723C33.7312 19.1256 33.6234 19.5264 33.623 19.9345V27.5112C33.6234 27.9193 33.7312 28.3201 33.9355 28.6734C34.1398 29.0266 34.4334 29.3199 34.7869 29.5238L41.346 33.3121C41.6997 33.5157 42.1007 33.6228 42.5088 33.6228C42.917 33.6228 43.318 33.5157 43.6717 33.3121L50.2328 29.5238C50.5861 29.3198 50.8794 29.0265 51.0834 28.6732C51.2873 28.3199 51.3947 27.9191 51.3946 27.5112V19.9407C51.3958 19.5317 51.2889 19.1297 51.0849 18.7752C50.8809 18.4207 50.587 18.1264 50.2328 17.9219L43.6717 14.1397C43.318 13.9362 42.917 13.8291 42.5088 13.8291C42.1007 13.8291 41.6997 13.9362 41.346 14.1397ZM48.556 27.6162L42.8477 30.8999C42.7433 30.9597 42.6251 30.9911 42.5047 30.9911C42.3844 30.9911 42.2662 30.9597 42.1617 30.8999L36.4597 27.6039C36.3557 27.5436 36.2694 27.4571 36.2094 27.353C36.1493 27.2488 36.1177 27.1308 36.1177 27.0106V20.4186C36.121 20.3011 36.1543 20.1864 36.2146 20.0854C36.2748 19.9844 36.3599 19.9006 36.4617 19.8418L42.1638 16.5458C42.2682 16.486 42.3865 16.4545 42.5068 16.4545C42.6271 16.4545 42.7454 16.486 42.8498 16.5458L48.5518 19.8418C48.6559 19.9021 48.7424 19.9886 48.8028 20.0927C48.8631 20.1968 48.8952 20.3148 48.8959 20.4351V27.0271C48.8951 27.1466 48.8632 27.2638 48.8032 27.3671C48.7432 27.4704 48.6573 27.5563 48.5539 27.6162H48.556Z" fill="#227042"/>
<path d="M38.377 26.1042V21.2303H40.5811C40.8009 21.2288 41.0181 21.2782 41.2156 21.3745C41.4063 21.4677 41.5776 21.5963 41.7203 21.7535C41.862 21.908 41.975 22.0866 42.054 22.2809C42.1325 22.4703 42.1731 22.6732 42.1735 22.8783C42.174 23.0256 42.1553 23.1724 42.1179 23.315C42.0826 23.4522 42.03 23.5845 41.9613 23.7084C41.8938 23.831 41.8092 23.9434 41.71 24.0422C41.6114 24.14 41.4998 24.2239 41.3784 24.2914L42.4475 26.1042H41.1785L40.2454 24.5324H39.51V26.1042H38.377ZM39.5017 23.5498H40.5317C40.5999 23.5487 40.6669 23.531 40.7268 23.4984C40.7867 23.4657 40.8378 23.4191 40.8757 23.3624C40.9758 23.2213 41.0265 23.0511 41.0199 22.8783C41.0288 22.703 40.9698 22.5311 40.8551 22.3983C40.8119 22.3448 40.7577 22.3012 40.6963 22.2703C40.6348 22.2393 40.5675 22.2219 40.4988 22.2191H39.5017V23.5498Z" fill="#227042"/>
<path d="M46.0031 22.6601C45.9665 22.6254 45.9257 22.5956 45.8815 22.5715C45.7999 22.5216 45.7153 22.4769 45.6281 22.4376C45.5251 22.3902 45.4098 22.3449 45.2841 22.2996C45.1603 22.2566 45.0327 22.2256 44.903 22.2069V23.1421L45.1234 23.1957C45.338 23.2522 45.5491 23.321 45.7559 23.4017C45.9289 23.468 46.0898 23.5626 46.2317 23.6818C46.3616 23.7953 46.465 23.9359 46.5345 24.0938C46.6091 24.2767 46.6449 24.4731 46.6396 24.6706C46.646 24.8999 46.5995 25.1276 46.5036 25.336C46.4171 25.5116 46.2917 25.6651 46.137 25.7851C45.978 25.9044 45.7986 25.9938 45.6075 26.0487C45.4033 26.1097 45.1922 26.1443 44.9792 26.1517V26.949H44.5054V26.1456C44.1869 26.1161 43.8726 26.0519 43.5681 25.954C43.2768 25.8583 42.9996 25.7239 42.7441 25.5543L43.2385 24.5738C43.2822 24.6177 43.3314 24.6558 43.3848 24.6871C43.4827 24.7487 43.5845 24.8037 43.6897 24.8519C43.8241 24.9139 43.9616 24.9689 44.1017 25.0167C44.2578 25.0691 44.4185 25.1071 44.5817 25.13V24.2174L44.2521 24.1206C44.0528 24.0612 43.8586 23.9861 43.6711 23.896C43.5197 23.8263 43.3805 23.7323 43.2591 23.618C43.1522 23.5163 43.0697 23.3916 43.0181 23.2533C42.9623 23.0996 42.9358 22.9368 42.9398 22.7734C42.936 22.5555 42.9781 22.3393 43.0634 22.1389C43.1414 21.9592 43.2541 21.7968 43.3951 21.661C43.5383 21.5264 43.7062 21.4208 43.8895 21.3499C44.0875 21.2717 44.2956 21.2217 44.5075 21.2016V20.5115H44.9813V21.2036C45.2694 21.2309 45.5518 21.3003 45.8197 21.4096C46.0524 21.5017 46.2788 21.6091 46.4975 21.731L46.0031 22.6601ZM44.1017 22.5983C44.0991 22.6497 44.1085 22.7011 44.1293 22.7483C44.15 22.7955 44.1815 22.8373 44.2212 22.8702C44.3297 22.95 44.4518 23.0093 44.5817 23.0453V22.2007C44.2603 22.2254 44.1017 22.3593 44.1017 22.5962V22.5983ZM45.4324 24.7818C45.4345 24.727 45.4223 24.6725 45.3971 24.6238C45.3718 24.575 45.3343 24.5337 45.2882 24.5037C45.1687 24.4261 45.0391 24.3651 44.903 24.3225V25.1465C45.2553 25.132 45.4324 25.0084 45.4324 24.7798V24.7818Z" fill="#227042"/>
<path d="M70.4996 10.8892H7.25977V43.8285H70.4996V10.8892Z" fill="#66C87D"/>
<path d="M67.1548 12.9492H10.5976C10.4295 12.9492 10.2629 12.9824 10.1076 13.0468C9.95225 13.1112 9.81113 13.2056 9.69232 13.3246C9.5735 13.4436 9.47931 13.5849 9.41515 13.7404C9.35098 13.8958 9.31809 14.0624 9.31836 14.2305V40.4873C9.31809 40.6554 9.35098 40.822 9.41515 40.9774C9.47931 41.1329 9.5735 41.2742 9.69232 41.3932C9.81113 41.5122 9.95225 41.6066 10.1076 41.671C10.2629 41.7354 10.4295 41.7686 10.5976 41.7686H67.1548C67.4947 41.7686 67.8206 41.6336 68.0609 41.3933C68.3012 41.153 68.4362 40.8271 68.4362 40.4873V14.2305C68.4362 13.8907 68.3012 13.5648 68.0609 13.3245C67.8206 13.0842 67.4947 12.9492 67.1548 12.9492ZM66.3762 37.0944C66.2812 37.082 66.1856 37.0758 66.0898 37.0759C65.4675 37.0759 64.8707 37.3231 64.4307 37.7631C63.9907 38.2032 63.7435 38.8 63.7435 39.4222C63.7434 39.518 63.7496 39.6136 63.762 39.7086H13.9904C14.0028 39.6136 14.009 39.518 14.009 39.4222C14.0084 38.8009 13.7612 38.2051 13.3216 37.7659C12.882 37.3267 12.2861 37.08 11.6647 37.08C11.5689 37.0799 11.4733 37.0861 11.3784 37.0986V17.6234C11.4733 17.6358 11.5689 17.642 11.6647 17.6419C11.9726 17.6416 12.2773 17.5807 12.5617 17.4627C12.846 17.3446 13.1043 17.1717 13.3217 16.9538C13.5392 16.7359 13.7117 16.4774 13.8293 16.1928C13.9468 15.9083 14.0072 15.6034 14.0069 15.2956C14.007 15.1998 14.0008 15.1042 13.9884 15.0092H63.7661C63.7537 15.1042 63.7476 15.1998 63.7476 15.2956C63.7476 15.9178 63.9948 16.5146 64.4348 16.9547C64.8749 17.3947 65.4717 17.6419 66.0939 17.6419C66.1897 17.642 66.2853 17.6358 66.3803 17.6234L66.3762 37.0944Z" fill="#227042"/>
<path d="M22.6786 34.334H18.2826C18.0812 34.334 17.918 34.4972 17.918 34.6986V36.3054C17.918 36.5068 18.0812 36.67 18.2826 36.67H22.6786C22.88 36.67 23.0432 36.5068 23.0432 36.3054V34.6986C23.0432 34.4972 22.88 34.334 22.6786 34.334Z" fill="#227042"/>
<path d="M21.6484 22.8083V18.4122C21.6484 18.2109 21.4852 18.0476 21.2838 18.0476H19.677C19.4756 18.0476 19.3124 18.2109 19.3124 18.4122V22.8083C19.3124 23.0096 19.4756 23.1729 19.677 23.1729H21.2838C21.4852 23.1729 21.6484 23.0096 21.6484 22.8083Z" fill="#227042"/>
<path d="M58.4492 22.8083V18.4122C58.4492 18.2109 58.286 18.0476 58.0846 18.0476H56.4778C56.2764 18.0476 56.1132 18.2109 56.1132 18.4122V22.8083C56.1132 23.0096 56.2764 23.1729 56.4778 23.1729H58.0846C58.286 23.1729 58.4492 23.0096 58.4492 22.8083Z" fill="#227042"/>
<path d="M59.4775 34.334H55.0814C54.88 34.334 54.7168 34.4972 54.7168 34.6986V36.3054C54.7168 36.5068 54.88 36.67 55.0814 36.67H59.4775C59.6788 36.67 59.8421 36.5068 59.8421 36.3054V34.6986C59.8421 34.4972 59.6788 34.334 59.4775 34.334Z" fill="#227042"/>
<path d="M37.7151 17.7696L31.1561 21.558C30.8026 21.7618 30.5089 22.0551 30.3046 22.4084C30.1003 22.7617 29.9926 23.1625 29.9922 23.5706V31.1472C29.9926 31.5553 30.1003 31.9561 30.3046 32.3094C30.5089 32.6627 30.8026 32.956 31.1561 33.1599L37.7151 36.9482C38.0689 37.1517 38.4699 37.2588 38.878 37.2588C39.2861 37.2588 39.6871 37.1517 40.0409 36.9482L46.6019 33.166C46.9552 32.9621 47.2486 32.6687 47.4525 32.3154C47.6565 31.9621 47.7638 31.5614 47.7638 31.1534V23.5706C47.7638 23.1626 47.6565 22.7619 47.4525 22.4086C47.2486 22.0553 46.9552 21.7619 46.6019 21.558L40.0409 17.7696C39.6871 17.5661 39.2861 17.459 38.878 17.459C38.4699 17.459 38.0689 17.5661 37.7151 17.7696ZM44.9251 31.2461L39.223 34.5421C39.1186 34.6019 39.0004 34.6334 38.88 34.6334C38.7597 34.6334 38.6415 34.6019 38.5371 34.5421L32.835 31.2461C32.731 31.1859 32.6447 31.0993 32.5847 30.9952C32.5247 30.8911 32.4931 30.773 32.493 30.6528V24.0609C32.4933 23.9407 32.525 23.8227 32.585 23.7186C32.6449 23.6146 32.7311 23.528 32.835 23.4676L38.5371 20.1716C38.6415 20.1118 38.7597 20.0803 38.88 20.0803C39.0004 20.0803 39.1186 20.1118 39.223 20.1716L44.9251 23.4676C45.0292 23.5279 45.1157 23.6144 45.176 23.7185C45.2364 23.8225 45.2685 23.9406 45.2691 24.0609V30.6528C45.2687 30.7734 45.2364 30.8918 45.1757 30.9959C45.1149 31.1001 45.0278 31.1864 44.923 31.2461H44.9251Z" fill="#227042"/>
<path d="M34.748 29.7341V24.8601H36.944C37.1638 24.8587 37.3809 24.9081 37.5785 25.0043C37.7692 25.0976 37.9405 25.2262 38.0832 25.3834C38.2249 25.5379 38.3379 25.7165 38.4169 25.9107C38.4954 26.1002 38.536 26.3031 38.5364 26.5081C38.5368 26.6555 38.5181 26.8023 38.4808 26.9449C38.4455 27.0821 38.3929 27.2143 38.3242 27.3383C38.2566 27.4609 38.172 27.5732 38.0729 27.672C37.9742 27.7699 37.8627 27.8538 37.7412 27.9213L38.8104 29.7341H37.5414L36.6082 28.1623H35.8728V29.7341H34.748ZM35.8728 27.1797H36.9028C36.971 27.1786 37.038 27.1609 37.0979 27.1283C37.1578 27.0956 37.2089 27.0489 37.2468 26.9922C37.3469 26.8512 37.3976 26.681 37.391 26.5081C37.3999 26.3329 37.3409 26.161 37.2262 26.0282C37.183 25.9747 37.1288 25.931 37.0674 25.9001C37.0059 25.8692 36.9386 25.8518 36.8698 25.8489H35.8728V27.1797Z" fill="#227042"/>
<path d="M42.3741 26.2877C42.3376 26.253 42.2968 26.2233 42.2526 26.1991C42.171 26.1492 42.0864 26.1045 41.9992 26.0652C41.8962 26.0178 41.7809 25.9725 41.6552 25.9272C41.5314 25.8842 41.4038 25.8532 41.2741 25.8345V26.78L41.4945 26.8336C41.7091 26.8902 41.9202 26.9589 42.1269 27.0396C42.3 27.1059 42.4608 27.2006 42.6028 27.3197C42.7327 27.4332 42.8361 27.5739 42.9056 27.7317C42.9802 27.9147 43.0159 28.1111 43.0107 28.3085C43.0171 28.5378 42.9706 28.7655 42.8747 28.9739C42.7882 29.1495 42.6628 29.3031 42.5081 29.423C42.3491 29.5423 42.1697 29.6317 41.9786 29.6867C41.7744 29.7476 41.5633 29.7822 41.3503 29.7897V30.5869H40.8765V29.7835C40.5579 29.7551 40.2435 29.6908 39.9392 29.5919C39.6479 29.4963 39.3707 29.3618 39.1152 29.1923L39.6096 28.2117C39.6533 28.2556 39.7025 28.2937 39.7559 28.325C39.8538 28.3866 39.9556 28.4417 40.0608 28.4898C40.1952 28.5519 40.3327 28.6069 40.4728 28.6546C40.6289 28.7071 40.7896 28.745 40.9528 28.7679V27.8553L40.6232 27.7585C40.4233 27.6999 40.2283 27.6255 40.0402 27.536C39.8887 27.4663 39.7495 27.3723 39.6282 27.258C39.5212 27.1563 39.4388 27.0316 39.3872 26.8933C39.3313 26.7396 39.3048 26.5768 39.3089 26.4134C39.305 26.1955 39.3471 25.9793 39.4325 25.7789C39.5104 25.5992 39.6231 25.4368 39.7641 25.301C39.9074 25.1664 40.0752 25.0608 40.2585 24.9899C40.4565 24.9117 40.6646 24.8617 40.8765 24.8416V24.1494H41.3503V24.8416C41.6384 24.8688 41.9209 24.9382 42.1888 25.0476C42.4215 25.1397 42.6479 25.247 42.8665 25.3689L42.3741 26.2877ZM40.4728 26.2259C40.4702 26.2774 40.4796 26.3288 40.5004 26.376C40.5211 26.4232 40.5526 26.4649 40.5923 26.4978C40.7008 26.5776 40.8229 26.637 40.9528 26.6729V25.8283C40.6314 25.8551 40.4728 25.989 40.4728 26.2259ZM41.8035 28.4095C41.8056 28.3546 41.7934 28.3001 41.7682 28.2514C41.7429 28.2027 41.7054 28.1613 41.6593 28.1314C41.5398 28.0537 41.4102 27.9927 41.2741 27.9501V28.7741C41.6264 28.7597 41.8035 28.634 41.8035 28.4095Z" fill="#227042"/>
<path d="M66.8707 14.5188H3.63086V47.4582H66.8707V14.5188Z" fill="#66C87D"/>
<path d="M63.532 16.5789H6.97067C6.8025 16.5789 6.63598 16.612 6.48064 16.6764C6.3253 16.7408 6.18418 16.8353 6.06536 16.9543C5.94655 17.0733 5.85236 17.2145 5.78819 17.37C5.72403 17.5254 5.69114 17.692 5.69141 17.8602V44.1169C5.69114 44.2851 5.72403 44.4516 5.78819 44.6071C5.85236 44.7625 5.94655 44.9038 6.06536 45.0228C6.18418 45.1418 6.3253 45.2362 6.48064 45.3006C6.63598 45.3651 6.8025 45.3982 6.97067 45.3982H63.532C63.8718 45.3982 64.1978 45.2632 64.438 45.0229C64.6783 44.7826 64.8133 44.4567 64.8133 44.1169V17.8602C64.8133 17.5203 64.6783 17.1944 64.438 16.9541C64.1978 16.7139 63.8718 16.5789 63.532 16.5789ZM62.7533 40.7241C62.6584 40.7116 62.5627 40.7054 62.467 40.7055C62.1587 40.7055 61.8534 40.7663 61.5686 40.8843C61.2838 41.0024 61.0251 41.1754 60.8072 41.3935C60.5892 41.6116 60.4165 41.8705 60.2987 42.1554C60.1809 42.4403 60.1204 42.7456 60.1207 43.0539C60.1206 43.1497 60.1268 43.2453 60.1392 43.3403H10.3635C10.3759 43.2453 10.3821 43.1497 10.382 43.0539C10.3826 42.7456 10.3223 42.4401 10.2046 42.1551C10.0869 41.8701 9.91409 41.611 9.69613 41.3929C9.47817 41.1747 9.21931 41.0017 8.93439 40.8838C8.64946 40.7658 8.34406 40.7053 8.03568 40.7055C7.93993 40.7054 7.84428 40.7116 7.74935 40.7241V21.253C7.84428 21.2655 7.93993 21.2716 8.03568 21.2715C8.34389 21.2718 8.64912 21.2113 8.93391 21.0935C9.2187 20.9757 9.47747 20.8028 9.6954 20.5849C9.91333 20.367 10.0862 20.1082 10.204 19.8234C10.3218 19.5386 10.3823 19.2334 10.382 18.9252C10.3821 18.8294 10.3759 18.7338 10.3635 18.6389H60.1392C60.1268 18.7338 60.1206 18.8294 60.1207 18.9252C60.1207 19.5475 60.3679 20.1443 60.8079 20.5843C61.2479 21.0243 61.8447 21.2715 62.467 21.2715C62.5627 21.2716 62.6584 21.2655 62.7533 21.253V40.7241Z" fill="#227042"/>
<path d="M19.0478 37.9636H14.6517C14.4504 37.9636 14.2871 38.1269 14.2871 38.3282V39.935C14.2871 40.1364 14.4504 40.2997 14.6517 40.2997H19.0478C19.2491 40.2997 19.4124 40.1364 19.4124 39.935V38.3282C19.4124 38.1269 19.2491 37.9636 19.0478 37.9636Z" fill="#227042"/>
<path d="M18.0195 26.4379V22.0419C18.0195 21.8405 17.8563 21.6772 17.6549 21.6772H16.0481C15.8467 21.6772 15.6835 21.8405 15.6835 22.0419V26.4379C15.6835 26.6393 15.8467 26.8025 16.0481 26.8025H17.6549C17.8563 26.8025 18.0195 26.6393 18.0195 26.4379Z" fill="#227042"/>
<path d="M54.8184 26.4379V22.0419C54.8184 21.8405 54.6551 21.6772 54.4537 21.6772H52.8469C52.6456 21.6772 52.4823 21.8405 52.4823 22.0419V26.4379C52.4823 26.6393 52.6456 26.8025 52.8469 26.8025H54.4537C54.6551 26.8025 54.8184 26.6393 54.8184 26.4379Z" fill="#227042"/>
<path d="M55.8466 37.9636H51.4506C51.2492 37.9636 51.0859 38.1269 51.0859 38.3282V39.935C51.0859 40.1364 51.2492 40.2997 51.4506 40.2997H55.8466C56.048 40.2997 56.2112 40.1364 56.2112 39.935V38.3282C56.2112 38.1269 56.048 37.9636 55.8466 37.9636Z" fill="#227042"/>
<path d="M34.086 21.3992L27.527 25.1876C27.1754 25.3913 26.8834 25.6835 26.6799 26.0352C26.4764 26.3868 26.3686 26.7857 26.3672 27.192V34.7686C26.3676 35.1767 26.4753 35.5775 26.6796 35.9308C26.8839 36.2841 27.1776 36.5774 27.5311 36.7812L34.086 40.5819C34.4398 40.7855 34.8407 40.8926 35.2489 40.8926C35.657 40.8926 36.058 40.7855 36.4117 40.5819L42.9728 36.7936C43.3261 36.5896 43.6195 36.2963 43.8234 35.943C44.0274 35.5897 44.1347 35.1889 44.1347 34.781V27.192C44.1347 26.784 44.0274 26.3833 43.8234 26.03C43.6195 25.6767 43.3261 25.3833 42.9728 25.1793L36.4117 21.391C36.0573 21.1887 35.6559 21.083 35.2478 21.0845C34.8396 21.0859 34.439 21.1945 34.086 21.3992ZM41.296 34.8757L35.5939 38.1717C35.4895 38.2316 35.3713 38.263 35.2509 38.263C35.1306 38.263 35.0124 38.2316 34.9079 38.1717L29.2059 34.8757C29.1019 34.8155 29.0156 34.7289 28.9556 34.6248C28.8955 34.5207 28.8639 34.4026 28.8639 34.2825V27.6905C28.8641 27.5703 28.8958 27.4524 28.9558 27.3483C29.0158 27.2442 29.102 27.1576 29.2059 27.0972L34.9079 23.8012C35.0124 23.7414 35.1306 23.7099 35.2509 23.7099C35.3713 23.7099 35.4895 23.7414 35.5939 23.8012L41.296 27.0972C41.4001 27.1575 41.4866 27.244 41.5469 27.3481C41.6073 27.4521 41.6393 27.5702 41.64 27.6905V34.2825C41.6396 34.403 41.6073 34.5214 41.5466 34.6255C41.4858 34.7297 41.3987 34.816 41.2939 34.8757H41.296Z" fill="#227042"/>
<path d="M31.1172 33.372V28.4898H33.3131C33.5329 28.4884 33.7501 28.5377 33.9476 28.634C34.1383 28.7272 34.3096 28.8559 34.4523 29.013C34.594 29.1676 34.707 29.3461 34.786 29.5404C34.8645 29.7298 34.9051 29.9327 34.9055 30.1378C34.9059 30.2851 34.8873 30.4319 34.8499 30.5745C34.8146 30.7118 34.762 30.844 34.6933 30.968C34.6266 31.0942 34.542 31.21 34.442 31.312C34.3434 31.4098 34.2318 31.4937 34.1104 31.5612L35.1795 33.374H33.9105L32.9774 31.8023H32.2419V33.372H31.1172ZM32.2419 30.8176H33.2719C33.3402 30.8164 33.4071 30.7988 33.467 30.7661C33.5269 30.7335 33.578 30.6868 33.616 30.6301C33.7161 30.489 33.7668 30.3189 33.7602 30.146C33.769 29.9708 33.71 29.7989 33.5954 29.666C33.5521 29.6126 33.4979 29.5689 33.4365 29.538C33.375 29.5071 33.3077 29.4897 33.239 29.4868H32.2419V30.8176Z" fill="#227042"/>
<path d="M38.7447 29.9173C38.7082 29.8826 38.6673 29.8528 38.6232 29.8287C38.5416 29.7788 38.457 29.7341 38.3698 29.6948C38.2668 29.6474 38.1514 29.6021 38.0258 29.5568C37.902 29.5138 37.7744 29.4828 37.6447 29.4641V30.3993L37.8651 30.4529C38.0796 30.5094 38.2908 30.5782 38.4975 30.6589C38.6706 30.7252 38.8314 30.8199 38.9734 30.939C39.1033 31.0525 39.2067 31.1932 39.2762 31.351C39.3507 31.534 39.3865 31.7304 39.3812 31.9278C39.3877 32.1571 39.3412 32.3848 39.2453 32.5932C39.1587 32.7688 39.0333 32.9224 38.8786 33.0423C38.7196 33.1616 38.5402 33.251 38.3492 33.306C38.1483 33.366 37.9407 33.4006 37.7312 33.409V34.2062H37.2574V33.4028C36.9388 33.3743 36.6243 33.3101 36.3201 33.2112C36.0288 33.1155 35.7516 32.9811 35.4961 32.8116L35.9905 31.831C36.0342 31.8749 36.0833 31.913 36.1368 31.9443C36.2346 32.0059 36.3365 32.0609 36.4416 32.1091C36.576 32.1711 36.7135 32.2261 36.8536 32.2739C37.0098 32.3264 37.1705 32.3643 37.3336 32.3872V31.4767L37.004 31.3799C36.8041 31.3212 36.6092 31.2468 36.421 31.1574C36.2696 31.0876 36.1304 30.9937 36.009 30.8793C35.9021 30.7776 35.8196 30.6529 35.768 30.5147C35.7122 30.361 35.6856 30.1982 35.6897 30.0347C35.6859 29.8169 35.728 29.6007 35.8133 29.4002C35.8913 29.2206 36.004 29.0581 36.145 28.9223C36.2882 28.7877 36.4561 28.6821 36.6394 28.6112C36.8374 28.533 37.0454 28.4831 37.2574 28.4629V27.7708H37.7312V28.4629C38.0192 28.4901 38.3017 28.5596 38.5696 28.6689C38.8023 28.761 39.0287 28.8684 39.2473 28.9903L38.7447 29.9173ZM36.8433 29.8555C36.8407 29.907 36.8502 29.9583 36.8709 30.0056C36.8917 30.0528 36.9231 30.0945 36.9628 30.1274C37.0713 30.2072 37.1935 30.2666 37.3233 30.3025V29.4579C37.002 29.4847 36.8433 29.6186 36.8433 29.8555ZM38.1741 32.0391C38.1762 31.9842 38.164 31.9297 38.1387 31.881C38.1134 31.8322 38.0759 31.7909 38.0299 31.761C37.9103 31.6833 37.7807 31.6223 37.6447 31.5797V32.4037C37.9969 32.3893 38.1741 32.2677 38.1741 32.0391Z" fill="#227042"/>
<path d="M63.2399 18.1484H0V51.0878H63.2399V18.1484Z" fill="#66C87D"/>
<path d="M59.8992 20.2085H3.33785C3.16969 20.2085 3.00317 20.2417 2.84783 20.3061C2.69249 20.3705 2.55137 20.4649 2.43255 20.5839C2.31374 20.7029 2.21955 20.8442 2.15538 20.9996C2.09121 21.1551 2.05832 21.3216 2.0586 21.4898V47.7465C2.05832 47.9147 2.09121 48.0813 2.15538 48.2367C2.21955 48.3922 2.31374 48.5334 2.43255 48.6524C2.55137 48.7715 2.69249 48.8659 2.84783 48.9303C3.00317 48.9947 3.16969 49.0279 3.33785 49.0279H59.8992C60.0675 49.0279 60.2341 48.9947 60.3895 48.9303C60.545 48.8659 60.6862 48.7716 60.8052 48.6526C60.9242 48.5336 61.0186 48.3923 61.083 48.2369C61.1474 48.0814 61.1805 47.9148 61.1805 47.7465V21.4898C61.1805 21.3215 61.1474 21.1549 61.083 20.9995C61.0186 20.844 60.9242 20.7028 60.8052 20.5838C60.6862 20.4648 60.545 20.3704 60.3895 20.306C60.2341 20.2416 60.0675 20.2085 59.8992 20.2085ZM59.1205 44.3537C59.0256 44.3413 58.9299 44.3351 58.8342 44.3352C58.2119 44.3352 57.6151 44.5824 57.1751 45.0224C56.735 45.4624 56.4878 46.0592 56.4878 46.6815C56.4878 46.7773 56.494 46.8729 56.5064 46.9679H6.73067C6.74306 46.8729 6.74926 46.7773 6.74921 46.6815C6.74948 46.3735 6.68904 46.0684 6.57135 45.7838C6.45366 45.4991 6.28103 45.2404 6.06331 45.0225C5.8456 44.8046 5.58708 44.6318 5.30252 44.5138C5.01797 44.3959 4.71296 44.3352 4.40493 44.3352C4.30918 44.3351 4.21353 44.3413 4.11859 44.3537V24.8826C4.21353 24.8951 4.30918 24.9013 4.40493 24.9012C4.71296 24.9012 5.01797 24.8405 5.30252 24.7225C5.58708 24.6046 5.8456 24.4317 6.06331 24.2138C6.28103 23.9959 6.45366 23.7372 6.57135 23.4526C6.68904 23.1679 6.74948 22.8629 6.74921 22.5548C6.74926 22.4591 6.74306 22.3634 6.73067 22.2685H56.5064C56.494 22.3634 56.4878 22.4591 56.4878 22.5548C56.4878 23.1771 56.735 23.7739 57.1751 24.2139C57.6151 24.654 58.2119 24.9012 58.8342 24.9012C58.9299 24.9013 59.0256 24.8951 59.1205 24.8826V44.3537Z" fill="#227042"/>
<path d="M15.4189 41.5935H11.0228C10.8214 41.5935 10.6582 41.7567 10.6582 41.9581V43.5649C10.6582 43.7663 10.8214 43.9295 11.0228 43.9295H15.4189C15.6202 43.9295 15.7835 43.7663 15.7835 43.5649V41.9581C15.7835 41.7567 15.6202 41.5935 15.4189 41.5935Z" fill="#227042"/>
<path d="M14.3887 30.0678V25.6717C14.3887 25.4704 14.2254 25.3071 14.0241 25.3071H12.4173C12.2159 25.3071 12.0526 25.4704 12.0526 25.6717V30.0678C12.0526 30.2692 12.2159 30.4324 12.4173 30.4324H14.0241C14.2254 30.4324 14.3887 30.2692 14.3887 30.0678Z" fill="#227042"/>
<path d="M51.1895 30.0678V25.6717C51.1895 25.4704 51.0262 25.3071 50.8248 25.3071H49.218C49.0167 25.3071 48.8534 25.4704 48.8534 25.6717V30.0678C48.8534 30.2692 49.0167 30.4324 49.218 30.4324H50.8248C51.0262 30.4324 51.1895 30.2692 51.1895 30.0678Z" fill="#227042"/>
<path d="M52.2157 41.5935H47.8197C47.6183 41.5935 47.4551 41.7567 47.4551 41.9581V43.5649C47.4551 43.7663 47.6183 43.9295 47.8197 43.9295H52.2157C52.4171 43.9295 52.5804 43.7663 52.5804 43.5649V41.9581C52.5804 41.7567 52.4171 41.5935 52.2157 41.5935Z" fill="#227042"/>
<path d="M30.4574 25.0289L23.8963 28.8172C23.5428 29.0211 23.2491 29.3144 23.0448 29.6677C22.8405 30.0209 22.7328 30.4218 22.7324 30.8299V38.4065C22.7328 38.8146 22.8405 39.2154 23.0448 39.5687C23.2491 39.922 23.5428 40.2153 23.8963 40.4191L30.4554 44.2075C30.8091 44.411 31.2101 44.5181 31.6182 44.5181C32.0263 44.5181 32.4273 44.411 32.7811 44.2075L39.3463 40.4191C39.6996 40.2152 39.9929 39.9218 40.1969 39.5685C40.4008 39.2152 40.5082 38.8145 40.5081 38.4065V30.8299C40.5082 30.4219 40.4008 30.0212 40.1969 29.6679C39.9929 29.3146 39.6996 29.0212 39.3463 28.8172L32.7831 25.0289C32.4294 24.8254 32.0284 24.7183 31.6203 24.7183C31.2122 24.7183 30.8112 24.8254 30.4574 25.0289ZM37.6674 38.5054L31.9653 41.8014C31.8609 41.8612 31.7427 41.8927 31.6223 41.8927C31.502 41.8927 31.3838 41.8612 31.2794 41.8014L25.5773 38.5054C25.4733 38.4451 25.387 38.3586 25.327 38.2545C25.267 38.1504 25.2354 38.0323 25.2353 37.9121V31.3201C25.2356 31.2 25.2673 31.082 25.3272 30.9779C25.3872 30.8738 25.4734 30.7873 25.5773 30.7269L31.2794 27.4309C31.3838 27.371 31.502 27.3396 31.6223 27.3396C31.7427 27.3396 31.8609 27.371 31.9653 27.4309L37.6674 30.7269C37.7715 30.7872 37.858 30.8737 37.9183 30.9777C37.9787 31.0818 38.0108 31.1998 38.0114 31.3201V37.9121C38.011 38.0327 37.9787 38.151 37.918 38.2552C37.8572 38.3594 37.7701 38.4457 37.6653 38.5054H37.6674Z" fill="#227042"/>
<path d="M27.4883 36.9934V32.1194H29.6842C29.904 32.118 30.1211 32.1673 30.3187 32.2636C30.5094 32.3569 30.6807 32.4855 30.8234 32.6427C30.9651 32.7972 31.0781 32.9758 31.1571 33.17C31.2356 33.3594 31.2762 33.5624 31.2766 33.7674C31.277 33.9148 31.2583 34.0616 31.221 34.2041C31.1857 34.3414 31.1331 34.4736 31.0644 34.5976C30.9969 34.7202 30.9123 34.8325 30.8131 34.9313C30.7145 35.0292 30.6029 35.113 30.4815 35.1806L31.5506 36.9934H30.2816L29.3485 35.4319H28.613V37.0037L27.4883 36.9934ZM28.613 34.439H29.643C29.7113 34.4378 29.7782 34.4202 29.8381 34.3875C29.898 34.3549 29.9491 34.3082 29.9871 34.2515C30.0872 34.1104 30.1378 33.9403 30.1313 33.7674C30.1401 33.5922 30.0811 33.4203 29.9665 33.2874C29.9232 33.234 29.869 33.1903 29.8076 33.1594C29.7461 33.1285 29.6788 33.1111 29.6101 33.1082H28.613V34.439Z" fill="#227042"/>
<path d="M35.1139 33.5471C35.0773 33.5125 35.0365 33.4827 34.9923 33.4585C34.9107 33.4086 34.8261 33.3639 34.7389 33.3246C34.6359 33.2772 34.5206 33.2319 34.3949 33.1866C34.2711 33.1437 34.1435 33.1126 34.0138 33.0939V34.0291L34.2342 34.0827C34.4488 34.1393 34.6599 34.2081 34.8666 34.2887C35.0397 34.355 35.2006 34.4497 35.3425 34.5689C35.4724 34.6823 35.5758 34.823 35.6453 34.9809C35.7199 35.1638 35.7557 35.3602 35.7504 35.5577C35.7568 35.787 35.7103 36.0147 35.6144 36.223C35.5279 36.3986 35.4025 36.5522 35.2477 36.6721C35.0888 36.7915 34.9094 36.8808 34.7183 36.9358C34.5175 36.9959 34.3098 37.0305 34.1003 37.0388V37.836H33.6265V37.0326C33.3079 37.0042 32.9935 36.9399 32.6892 36.841C32.3979 36.7454 32.1207 36.611 31.8652 36.4414L32.3596 35.4608C32.4033 35.5048 32.4525 35.5428 32.5059 35.5741C32.6038 35.6357 32.7056 35.6908 32.8108 35.7389C32.9452 35.801 33.0827 35.856 33.2228 35.9037C33.3789 35.9562 33.5396 35.9941 33.7028 36.017V35.1045L33.3711 35.02C33.1712 34.9614 32.9763 34.887 32.7881 34.7975C32.6366 34.7277 32.4975 34.6338 32.3761 34.5194C32.2691 34.4178 32.1867 34.2931 32.1351 34.1548C32.0793 34.0011 32.0527 33.8383 32.0568 33.6748C32.0529 33.457 32.0951 33.2408 32.1804 33.0403C32.2583 32.8607 32.3711 32.6983 32.5121 32.5624C32.6553 32.4279 32.8232 32.3223 33.0065 32.2514C33.2045 32.1731 33.4125 32.1232 33.6245 32.103V31.4109H34.0983V32.103C34.3863 32.1303 34.6688 32.1997 34.9367 32.309C35.1694 32.4012 35.3958 32.5085 35.6144 32.6304L35.1139 33.5471ZM33.2125 33.4853C33.2099 33.5368 33.2193 33.5882 33.2401 33.6354C33.2608 33.6826 33.2923 33.7243 33.332 33.7572C33.4405 33.8371 33.5626 33.8964 33.6925 33.9323V33.0877C33.3711 33.1145 33.2125 33.2484 33.2125 33.4853ZM34.5432 35.6689C34.5453 35.614 34.5331 35.5596 34.5078 35.5108C34.4826 35.4621 34.4451 35.4207 34.399 35.3908C34.2795 35.3131 34.1499 35.2522 34.0138 35.2095V36.0335C34.3661 36.0191 34.5432 35.8976 34.5432 35.6689Z" fill="#227042"/>
</svg>
