<svg width="75" height="44" viewBox="0 0 75 44" fill="none" xmlns="http://www.w3.org/2000/svg">
<path d="M74.1285 0H10.8887V32.9394H74.1285V0Z" fill="#66C87D"/>
<path d="M70.7898 2.06006H14.2285C14.0603 2.06006 13.8938 2.09322 13.7385 2.15763C13.5831 2.22205 13.442 2.31646 13.3232 2.43547C13.2044 2.55448 13.1102 2.69575 13.046 2.85119C12.9818 3.00664 12.9489 3.17321 12.9492 3.34138V29.5981C12.9489 29.7663 12.9818 29.9328 13.046 30.0883C13.1102 30.2437 13.2044 30.385 13.3232 30.504C13.442 30.623 13.5831 30.7174 13.7385 30.7818C13.8938 30.8463 14.0603 30.8794 14.2285 30.8794H70.7898C71.1297 30.8794 71.4556 30.7444 71.6959 30.5041C71.9361 30.2638 72.0711 29.9379 72.0711 29.5981V3.34138C72.0711 3.00155 71.9361 2.67564 71.6959 2.43535C71.4556 2.19505 71.1297 2.06006 70.7898 2.06006ZM70.0111 26.2053C69.9162 26.1928 69.8206 26.1866 69.7248 26.1867C69.1025 26.1867 68.5057 26.434 68.0657 26.874C67.6257 27.314 67.3785 27.9108 67.3785 28.5331C67.3784 28.6288 67.3846 28.7245 67.397 28.8194H17.6213C17.6337 28.7245 17.6399 28.6288 17.6398 28.5331C17.6401 28.2251 17.5797 27.92 17.462 27.6353C17.3443 27.3507 17.1717 27.092 16.9539 26.8741C16.7362 26.6562 16.4777 26.4833 16.1931 26.3654C15.9086 26.2475 15.6036 26.1867 15.2956 26.1867C15.1998 26.1866 15.1042 26.1928 15.0092 26.2053V6.73419C15.1042 6.74666 15.1998 6.75285 15.2956 6.75273C15.6036 6.75273 15.9086 6.69203 16.1931 6.57409C16.4777 6.45615 16.7362 6.28329 16.9539 6.06538C17.1717 5.84748 17.3443 5.5888 17.462 5.30414C17.5797 5.01949 17.6401 4.71442 17.6398 4.4064C17.6399 4.31065 17.6337 4.215 17.6213 4.12006H67.397C67.3846 4.215 67.3784 4.31065 67.3785 4.4064C67.3785 5.02868 67.6257 5.62548 68.0657 6.06551C68.5057 6.50553 69.1025 6.75273 69.7248 6.75273C69.8206 6.75285 69.9162 6.74666 70.0111 6.73419V26.2053Z" fill="#227042"/>
<path d="M26.3095 23.4448H21.9134C21.7121 23.4448 21.5488 23.6081 21.5488 23.8094V25.4162C21.5488 25.6176 21.7121 25.7809 21.9134 25.7809H26.3095C26.5109 25.7809 26.6741 25.6176 26.6741 25.4162V23.8094C26.6741 23.6081 26.5109 23.4448 26.3095 23.4448Z" fill="#227042"/>
<path d="M25.2793 11.9191V7.52307C25.2793 7.32169 25.1161 7.15845 24.9147 7.15845H23.3079C23.1065 7.15845 22.9433 7.32169 22.9433 7.52307V11.9191C22.9433 12.1205 23.1065 12.2837 23.3079 12.2837H24.9147C25.1161 12.2837 25.2793 12.1205 25.2793 11.9191Z" fill="#227042"/>
<path d="M62.0781 11.9191V7.52306C62.0781 7.32169 61.9149 7.15845 61.7135 7.15845H60.1067C59.9053 7.15845 59.7421 7.32169 59.7421 7.52306V11.9191C59.7421 12.1205 59.9053 12.2837 60.1067 12.2837H61.7135C61.9149 12.2837 62.0781 12.1205 62.0781 11.9191Z" fill="#227042"/>
<path d="M63.1064 23.4448H58.7103C58.5089 23.4448 58.3457 23.6081 58.3457 23.8094V25.4162C58.3457 25.6176 58.5089 25.7809 58.7103 25.7809H63.1064C63.3077 25.7809 63.471 25.6176 63.471 25.4162V23.8094C63.471 23.6081 63.3077 23.4448 63.1064 23.4448Z" fill="#227042"/>
<path d="M41.346 6.88046L34.7869 10.6688C34.4334 10.8727 34.1398 11.166 33.9355 11.5192C33.7312 11.8725 33.6234 12.2733 33.623 12.6814V20.2581C33.6234 20.6662 33.7312 21.067 33.9355 21.4203C34.1398 21.7735 34.4334 22.0668 34.7869 22.2707L41.346 26.059C41.6997 26.2626 42.1007 26.3697 42.5088 26.3697C42.917 26.3697 43.318 26.2626 43.6717 26.059L50.2328 22.2707C50.5861 22.0667 50.8794 21.7734 51.0834 21.4201C51.2873 21.0668 51.3947 20.666 51.3946 20.2581V12.6814C51.3947 12.2735 51.2873 11.8727 51.0834 11.5194C50.8794 11.1661 50.5861 10.8728 50.2328 10.6688L43.6717 6.88046C43.318 6.67694 42.917 6.56982 42.5088 6.56982C42.1007 6.56982 41.6997 6.67694 41.346 6.88046ZM48.556 20.357L42.8477 23.6488C42.7433 23.7086 42.6251 23.7401 42.5047 23.7401C42.3844 23.7401 42.2662 23.7086 42.1617 23.6488L36.4617 20.357C36.3577 20.2967 36.2714 20.2102 36.2114 20.106C36.1514 20.0019 36.1198 19.8839 36.1198 19.7637V13.1841C36.1186 13.0625 36.1496 12.9428 36.2096 12.8372C36.2697 12.7315 36.3567 12.6437 36.4617 12.5825L42.1638 9.28654C42.2682 9.22673 42.3865 9.19527 42.5068 9.19527C42.6271 9.19527 42.7454 9.22673 42.8498 9.28654L48.5518 12.5825C48.6575 12.6433 48.7452 12.731 48.806 12.8366C48.8668 12.9423 48.8985 13.0622 48.8979 13.1841V19.776C48.8955 19.8943 48.8626 20.01 48.8023 20.1118C48.7421 20.2135 48.6565 20.298 48.5539 20.357H48.556Z" fill="#227042"/>
<path d="M38.377 18.8449V13.971H40.5811C40.8009 13.9696 41.0181 14.0189 41.2156 14.1152C41.4063 14.2084 41.5776 14.3371 41.7203 14.4942C41.862 14.6488 41.975 14.8273 42.054 15.0216C42.1325 15.211 42.1731 15.4139 42.1735 15.619C42.174 15.7663 42.1553 15.9131 42.1179 16.0557C42.0826 16.193 42.03 16.3252 41.9613 16.4492C41.8938 16.5717 41.8092 16.6841 41.71 16.7829C41.6114 16.8807 41.4998 16.9646 41.3784 17.0321L42.4475 18.8449H41.1785L40.2454 17.2732H39.51V18.8449H38.377ZM39.5017 16.2905H40.5317C40.5999 16.2894 40.6669 16.2718 40.7268 16.2391C40.7867 16.2065 40.8378 16.1598 40.8757 16.1031C40.9758 15.962 41.0265 15.7918 41.0199 15.619C41.0288 15.4437 40.9698 15.2718 40.8551 15.139C40.8119 15.0855 40.7577 15.0419 40.6963 15.011C40.6348 14.9801 40.5675 14.9626 40.4988 14.9598H39.5017V16.2905Z" fill="#227042"/>
<path d="M46.0047 15.3985C45.9682 15.3638 45.9273 15.334 45.8831 15.3099C45.8016 15.26 45.7169 15.2153 45.6298 15.176C45.5268 15.1286 45.4114 15.0833 45.2858 15.038C45.162 14.995 45.0343 14.964 44.9046 14.9453V15.8805L45.1251 15.9341C45.3396 15.9906 45.5508 16.0594 45.7575 16.1401C45.9306 16.2064 46.0914 16.3011 46.2333 16.4202C46.3633 16.5337 46.4667 16.6744 46.5362 16.8322C46.6107 17.0152 46.6465 17.2116 46.6412 17.409C46.6477 17.6383 46.6012 17.866 46.5053 18.0744C46.4208 18.2501 46.2975 18.4044 46.1448 18.5255C45.9858 18.6449 45.8064 18.7342 45.6153 18.7892C45.4111 18.8501 45.2 18.8848 44.9871 18.8922V19.6894H44.5133V18.886C44.1948 18.8566 43.8805 18.7924 43.576 18.6945C43.2846 18.5988 43.0075 18.4644 42.752 18.2948L43.2464 17.3143C43.29 17.3582 43.3392 17.3963 43.3926 17.4276C43.4905 17.4892 43.5923 17.5442 43.6975 17.5924C43.8319 17.6544 43.9694 17.7094 44.1095 17.7572C44.2657 17.8096 44.4263 17.8475 44.5895 17.8705V16.9579L44.2599 16.8611C44.0586 16.8026 43.8622 16.7282 43.6728 16.6386C43.5213 16.5688 43.3822 16.4749 43.2608 16.3605C43.1538 16.2588 43.0714 16.1341 43.0198 15.9959C42.9639 15.8422 42.9374 15.6794 42.9415 15.5159C42.9376 15.2981 42.9797 15.0819 43.0651 14.8814C43.143 14.7018 43.2557 14.5393 43.3967 14.4035C43.54 14.2689 43.7078 14.1633 43.8911 14.0924C44.0891 14.0142 44.2972 13.9643 44.5091 13.9441V13.252H44.9829V13.9441C45.271 13.9713 45.5535 14.0408 45.8213 14.1501C46.0541 14.2422 46.2805 14.3496 46.4991 14.4715L46.0047 15.3985ZM44.1033 15.3367C44.1007 15.3882 44.1102 15.4395 44.1309 15.4868C44.1517 15.534 44.1831 15.5757 44.2228 15.6086C44.3313 15.6884 44.4535 15.7478 44.5833 15.7837V14.9391C44.2619 14.9659 44.1033 15.0998 44.1033 15.3367ZM45.4341 17.5203C45.4362 17.4654 45.424 17.4109 45.3987 17.3622C45.3734 17.3134 45.3359 17.2721 45.2899 17.2422C45.1703 17.1645 45.0407 17.1035 44.9046 17.0609V17.8849C45.2569 17.8705 45.4341 17.7489 45.4341 17.5203Z" fill="#227042"/>
<path d="M70.4996 3.62964H7.25977V36.569H70.4996V3.62964Z" fill="#66C87D"/>
<path d="M67.1548 5.6897H10.5976C10.4295 5.6897 10.2629 5.72285 10.1076 5.78727C9.95225 5.85169 9.81113 5.9461 9.69232 6.06511C9.5735 6.18412 9.47931 6.32539 9.41515 6.48083C9.35098 6.63628 9.31809 6.80285 9.31836 6.97102V33.2277C9.31809 33.3959 9.35098 33.5625 9.41515 33.7179C9.47931 33.8734 9.5735 34.0146 9.69232 34.1336C9.81113 34.2527 9.95225 34.3471 10.1076 34.4115C10.2629 34.4759 10.4295 34.5091 10.5976 34.5091H67.1548C67.4947 34.5091 67.8206 34.3741 68.0609 34.1338C68.3012 33.8935 68.4362 33.5676 68.4362 33.2277V6.97102C68.4362 6.80275 68.403 6.63613 68.3386 6.48068C68.2742 6.32522 68.1799 6.18397 68.0609 6.06499C67.9419 5.94601 67.8006 5.85162 67.6452 5.78723C67.4897 5.72284 67.3231 5.6897 67.1548 5.6897ZM66.3762 29.8349C66.2812 29.8225 66.1856 29.8163 66.0898 29.8164C65.4675 29.8164 64.8707 30.0636 64.4307 30.5036C63.9907 30.9436 63.7435 31.5404 63.7435 32.1627C63.7434 32.2585 63.7496 32.3541 63.762 32.4491H13.9904C14.0028 32.3541 14.009 32.2585 14.009 32.1627C14.0092 31.8547 13.9488 31.5496 13.8311 31.265C13.7134 30.9803 13.5408 30.7216 13.3231 30.5037C13.1054 30.2858 12.8468 30.113 12.5623 29.995C12.2777 29.8771 11.9727 29.8164 11.6647 29.8164C11.5689 29.8163 11.4733 29.8225 11.3784 29.8349V10.3638C11.4733 10.3763 11.5689 10.3825 11.6647 10.3824C11.9727 10.3821 12.2777 10.3211 12.5621 10.2029C12.8466 10.0847 13.105 9.91166 13.3225 9.69356C13.54 9.47547 13.7124 9.21664 13.8298 8.93188C13.9473 8.64712 14.0075 8.342 14.0069 8.03397C14.007 7.93823 14.0008 7.84258 13.9884 7.74763H63.7661C63.7537 7.84258 63.7476 7.93823 63.7476 8.03397C63.7473 8.34227 63.8078 8.6476 63.9256 8.93251C64.0434 9.21742 64.2162 9.47632 64.4341 9.69442C64.652 9.91251 64.9108 10.0855 65.1956 10.2036C65.4804 10.3216 65.7856 10.3824 66.0939 10.3824C66.1897 10.3825 66.2853 10.3763 66.3803 10.3638L66.3762 29.8349Z" fill="#227042"/>
<path d="M22.6786 27.0745H18.2826C18.0812 27.0745 17.918 27.2377 17.918 27.4391V29.0459C17.918 29.2473 18.0812 29.4105 18.2826 29.4105H22.6786C22.88 29.4105 23.0432 29.2473 23.0432 29.0459V27.4391C23.0432 27.2377 22.88 27.0745 22.6786 27.0745Z" fill="#227042"/>
<path d="M21.6484 15.549V11.1529C21.6484 10.9516 21.4852 10.7883 21.2838 10.7883H19.677C19.4756 10.7883 19.3124 10.9516 19.3124 11.1529V15.549C19.3124 15.7504 19.4756 15.9136 19.677 15.9136H21.2838C21.4852 15.9136 21.6484 15.7504 21.6484 15.549Z" fill="#227042"/>
<path d="M58.4492 15.549V11.153C58.4492 10.9516 58.286 10.7883 58.0846 10.7883H56.4778C56.2764 10.7883 56.1132 10.9516 56.1132 11.153V15.549C56.1132 15.7504 56.2764 15.9136 56.4778 15.9136H58.0846C58.286 15.9136 58.4492 15.7504 58.4492 15.549Z" fill="#227042"/>
<path d="M59.4775 27.0745H55.0814C54.88 27.0745 54.7168 27.2377 54.7168 27.4391V29.0459C54.7168 29.2473 54.88 29.4105 55.0814 29.4105H59.4775C59.6788 29.4105 59.8421 29.2473 59.8421 29.0459V27.4391C59.8421 27.2377 59.6788 27.0745 59.4775 27.0745Z" fill="#227042"/>
<path d="M37.7151 10.5059L31.1561 14.2984C30.8026 14.5023 30.5089 14.7956 30.3046 15.1488C30.1003 15.5021 29.9926 15.9029 29.9922 16.311V23.8959C29.9926 24.304 30.1003 24.7048 30.3046 25.0581C30.5089 25.4114 30.8026 25.7047 31.1561 25.9085L37.7151 29.6969C38.0689 29.9004 38.4699 30.0075 38.878 30.0075C39.2861 30.0075 39.6871 29.9004 40.0409 29.6969L46.6019 25.9085C46.9552 25.7046 47.2486 25.4112 47.4525 25.0579C47.6565 24.7046 47.7638 24.3039 47.7638 23.8959V16.311C47.7638 15.9031 47.6565 15.5023 47.4525 15.149C47.2486 14.7957 46.9552 14.5024 46.6019 14.2984L40.0409 10.5059C39.6871 10.3024 39.2861 10.1953 38.878 10.1953C38.4699 10.1953 38.0689 10.3024 37.7151 10.5059ZM44.9251 23.9825L39.223 27.2784C39.1186 27.3383 39.0004 27.3697 38.88 27.3697C38.7597 27.3697 38.6415 27.3383 38.5371 27.2784L32.835 23.9825C32.731 23.9222 32.6447 23.8357 32.5847 23.7315C32.5247 23.6274 32.4931 23.5093 32.493 23.3892V16.7972C32.4933 16.677 32.525 16.5591 32.585 16.455C32.6449 16.3509 32.7311 16.2643 32.835 16.2039L38.5371 12.9079C38.6415 12.8481 38.7597 12.8166 38.88 12.8166C39.0004 12.8166 39.1186 12.8481 39.223 12.9079L44.9251 16.2039C45.0292 16.2642 45.1157 16.3507 45.176 16.4548C45.2364 16.5588 45.2685 16.6769 45.2691 16.7972V23.3892C45.2694 23.5105 45.2375 23.6296 45.1767 23.7346C45.1159 23.8395 45.0284 23.9265 44.923 23.9866L44.9251 23.9825Z" fill="#227042"/>
<path d="M34.748 22.4746V17.6006H36.944C37.1638 17.5992 37.3809 17.6485 37.5785 17.7448C37.7695 17.8393 37.9408 17.9693 38.0832 18.128C38.2249 18.2825 38.3379 18.4611 38.4169 18.6553C38.4954 18.8448 38.536 19.0477 38.5364 19.2527C38.5368 19.4001 38.5181 19.5469 38.4808 19.6895C38.4455 19.8267 38.3929 19.9589 38.3242 20.0829C38.2566 20.2055 38.172 20.3178 38.0729 20.4166C37.9742 20.5145 37.8627 20.5984 37.7412 20.6659L38.8104 22.4787H37.5414L36.6082 20.9069H35.8728V22.4787L34.748 22.4746ZM35.8728 19.9202H36.9028C36.971 19.919 37.038 19.9014 37.0979 19.8687C37.1578 19.8361 37.2089 19.7894 37.2468 19.7327C37.3469 19.5916 37.3976 19.4215 37.391 19.2486C37.3999 19.0734 37.3409 18.9015 37.2262 18.7686C37.183 18.7152 37.1288 18.6715 37.0674 18.6406C37.0059 18.6097 36.9386 18.5923 36.8698 18.5894H35.8728V19.9202Z" fill="#227042"/>
<path d="M42.3741 19.0283C42.3376 18.9937 42.2968 18.9639 42.2526 18.9397C42.171 18.8898 42.0864 18.8451 41.9992 18.8058C41.8962 18.7584 41.7809 18.7131 41.6552 18.6678C41.5314 18.6249 41.4038 18.5938 41.2741 18.5751V19.5103L41.4945 19.5639C41.7091 19.6205 41.9202 19.6893 42.1269 19.7699C42.3 19.8362 42.4608 19.9309 42.6028 20.0501C42.7327 20.1635 42.8361 20.3042 42.9056 20.4621C42.9802 20.645 43.0159 20.8414 43.0107 21.0389C43.0171 21.2682 42.9706 21.4959 42.8747 21.7042C42.7882 21.8798 42.6628 22.0334 42.5081 22.1533C42.3491 22.2727 42.1697 22.362 41.9786 22.417C41.7744 22.4779 41.5633 22.5125 41.3503 22.52V23.3172H40.8765V22.5138C40.558 22.4844 40.2437 22.4201 39.9392 22.3222C39.6479 22.2266 39.3707 22.0922 39.1152 21.9226L39.6096 20.942C39.6533 20.986 39.7025 21.024 39.7559 21.0553C39.8538 21.1169 39.9556 21.172 40.0608 21.2201C40.1952 21.2822 40.3327 21.3372 40.4728 21.3849C40.6289 21.4374 40.7896 21.4753 40.9528 21.4982V20.5877L40.6232 20.4909C40.4233 20.4323 40.2283 20.3579 40.0402 20.2684C39.8887 20.1986 39.7495 20.1047 39.6282 19.9903C39.5212 19.8887 39.4388 19.764 39.3872 19.6257C39.3313 19.472 39.3048 19.3092 39.3089 19.1457C39.305 18.9279 39.3471 18.7117 39.4325 18.5112C39.5104 18.3316 39.6231 18.1692 39.7641 18.0333C39.9074 17.8988 40.0752 17.7932 40.2585 17.7223C40.4565 17.644 40.6646 17.5941 40.8765 17.5739V16.8921H41.3503V17.5842C41.6384 17.6115 41.9209 17.6809 42.1888 17.7902C42.4215 17.8824 42.6479 17.9897 42.8665 18.1116L42.3741 19.0283ZM40.4728 18.9665C40.4702 19.018 40.4796 19.0694 40.5004 19.1166C40.5211 19.1638 40.5526 19.2055 40.5923 19.2384C40.7008 19.3183 40.8229 19.3776 40.9528 19.4135V18.5689C40.6314 18.5957 40.4728 18.7296 40.4728 18.9665ZM41.8035 21.1501C41.8056 21.0952 41.7934 21.0408 41.7682 20.992C41.7429 20.9433 41.7054 20.9019 41.6593 20.872C41.5398 20.7943 41.4102 20.7334 41.2741 20.6907V21.5147C41.6264 21.5003 41.8035 21.3788 41.8035 21.1501Z" fill="#227042"/>
<path d="M66.8707 7.25952H3.63086V40.1989H66.8707V7.25952Z" fill="#66C87D"/>
<path d="M63.532 9.31934H6.97067C6.8025 9.31934 6.63598 9.35249 6.48064 9.41691C6.3253 9.48133 6.18418 9.57574 6.06536 9.69475C5.94655 9.81376 5.85236 9.95503 5.78819 10.1105C5.72403 10.2659 5.69114 10.4325 5.69141 10.6007V36.8574C5.69114 37.0255 5.72403 37.1921 5.78819 37.3476C5.85236 37.503 5.94655 37.6443 6.06536 37.7633C6.18418 37.8823 6.3253 37.9767 6.48064 38.0411C6.63598 38.1055 6.8025 38.1387 6.97067 38.1387H63.532C63.8718 38.1387 64.1978 38.0037 64.438 37.7634C64.6783 37.5231 64.8133 37.1972 64.8133 36.8574V10.6007C64.8133 10.2608 64.6783 9.93492 64.438 9.69462C64.1978 9.45433 63.8718 9.31934 63.532 9.31934ZM62.7533 33.4646C62.6584 33.4521 62.5627 33.4459 62.467 33.446C61.8447 33.446 61.2479 33.6932 60.8079 34.1333C60.3679 34.5733 60.1207 35.1701 60.1207 35.7924C60.1206 35.8881 60.1268 35.9838 60.1392 36.0787H10.3635C10.3759 35.9838 10.3821 35.8881 10.382 35.7924C10.3823 35.4842 10.3218 35.1789 10.204 34.8941C10.0862 34.6093 9.91333 34.3506 9.6954 34.1326C9.47747 33.9147 9.2187 33.7419 8.93391 33.6241C8.64912 33.5063 8.34389 33.4458 8.03568 33.446C7.93993 33.4459 7.84428 33.4521 7.74935 33.4646V13.9935C7.84437 14.0046 7.94003 14.0094 8.03568 14.0079C8.34354 14.0082 8.64843 13.9478 8.93296 13.8302C9.21748 13.7127 9.47606 13.5402 9.69394 13.3227C9.91182 13.1052 10.0847 12.8469 10.2028 12.5626C10.3208 12.2783 10.3818 11.9735 10.382 11.6657C10.3821 11.5699 10.3759 11.4743 10.3635 11.3793H60.1392C60.1268 11.4743 60.1206 11.5699 60.1207 11.6657C60.1217 12.2872 60.3694 12.883 60.8093 13.3221C61.2492 13.7613 61.8454 14.0079 62.467 14.0079C62.5627 14.008 62.6584 14.0018 62.7533 13.9894V33.4646Z" fill="#227042"/>
<path d="M19.0478 30.7043H14.6517C14.4504 30.7043 14.2871 30.8676 14.2871 31.069V32.6758C14.2871 32.8771 14.4504 33.0404 14.6517 33.0404H19.0478C19.2491 33.0404 19.4124 32.8771 19.4124 32.6758V31.069C19.4124 30.8676 19.2491 30.7043 19.0478 30.7043Z" fill="#227042"/>
<path d="M18.0195 19.1786V14.7826C18.0195 14.5812 17.8563 14.418 17.6549 14.418H16.0481C15.8467 14.418 15.6835 14.5812 15.6835 14.7826V19.1786C15.6835 19.38 15.8467 19.5432 16.0481 19.5432H17.6549C17.8563 19.5432 18.0195 19.38 18.0195 19.1786Z" fill="#227042"/>
<path d="M54.8184 19.1786V14.7826C54.8184 14.5812 54.6551 14.418 54.4537 14.418H52.8469C52.6456 14.418 52.4823 14.5812 52.4823 14.7826V19.1786C52.4823 19.38 52.6456 19.5432 52.8469 19.5432H54.4537C54.6551 19.5432 54.8184 19.38 54.8184 19.1786Z" fill="#227042"/>
<path d="M55.8466 30.7043H51.4506C51.2492 30.7043 51.0859 30.8676 51.0859 31.069V32.6758C51.0859 32.8771 51.2492 33.0404 51.4506 33.0404H55.8466C56.048 33.0404 56.2112 32.8771 56.2112 32.6758V31.069C56.2112 30.8676 56.048 30.7043 55.8466 30.7043Z" fill="#227042"/>
<path d="M34.086 14.1397L27.527 17.9219C27.1733 18.1268 26.8799 18.4213 26.6763 18.7757C26.4727 19.1301 26.3661 19.532 26.3672 19.9407V27.5174C26.3676 27.9255 26.4753 28.3263 26.6796 28.6795C26.8839 29.0328 27.1776 29.3261 27.5311 29.53L34.0901 33.3183C34.4439 33.5218 34.8449 33.6289 35.253 33.6289C35.6611 33.6289 36.0621 33.5218 36.4159 33.3183L42.977 29.53C43.3302 29.326 43.6236 29.0326 43.8275 28.6793C44.0315 28.3261 44.1388 27.9253 44.1388 27.5174V19.9407C44.1395 19.5313 44.0321 19.129 43.8273 18.7745C43.6226 18.42 43.3278 18.1259 42.9728 17.9219L36.4117 14.1397C36.058 13.9362 35.657 13.8291 35.2489 13.8291C34.8407 13.8291 34.4398 13.9362 34.086 14.1397ZM41.296 27.6162L35.5939 30.9122C35.4895 30.972 35.3713 31.0035 35.2509 31.0035C35.1306 31.0035 35.0124 30.972 34.9079 30.9122L29.2059 27.6162C29.1019 27.556 29.0156 27.4694 28.9556 27.3653C28.8956 27.2612 28.8639 27.1431 28.8639 27.023V20.431C28.8642 20.3108 28.8959 20.1929 28.9558 20.0888C29.0158 19.9847 29.102 19.8981 29.2059 19.8377L34.9079 16.5417C35.0124 16.4819 35.1306 16.4504 35.2509 16.4504C35.3713 16.4504 35.4895 16.4819 35.5939 16.5417L41.296 19.8377C41.4001 19.898 41.4866 19.9845 41.5469 20.0886C41.6073 20.1926 41.6394 20.3107 41.64 20.431V27.023C41.6396 27.1435 41.6073 27.2619 41.5466 27.366C41.4858 27.4702 41.3987 27.5565 41.2939 27.6162H41.296Z" fill="#227042"/>
<path d="M31.1172 26.1042V21.2303H33.3131C33.5329 21.2288 33.7501 21.2782 33.9476 21.3745C34.1383 21.4677 34.3096 21.5963 34.4523 21.7535C34.594 21.908 34.707 22.0866 34.786 22.2809C34.8645 22.4703 34.9051 22.6732 34.9055 22.8783C34.9059 23.0256 34.8873 23.1724 34.8499 23.315C34.8146 23.4522 34.762 23.5845 34.6933 23.7084C34.6258 23.831 34.5412 23.9434 34.442 24.0422C34.3434 24.14 34.2318 24.2239 34.1104 24.2914L35.1795 26.1042H33.9105L32.9774 24.5324H32.2419V26.1042H31.1172ZM32.2419 23.5498H33.2719C33.3402 23.5487 33.4071 23.531 33.467 23.4984C33.5269 23.4657 33.578 23.4191 33.616 23.3624C33.7161 23.2213 33.7668 23.0511 33.7602 22.8783C33.769 22.703 33.71 22.5311 33.5954 22.3983C33.5521 22.3448 33.4979 22.3012 33.4365 22.2703C33.375 22.2393 33.3077 22.2219 33.239 22.2191H32.2419V23.5498Z" fill="#227042"/>
<path d="M38.7447 22.6601C38.7082 22.6254 38.6673 22.5956 38.6232 22.5715C38.5416 22.5216 38.457 22.4769 38.3698 22.4376C38.2668 22.3902 38.1514 22.3449 38.0258 22.2996C37.902 22.2566 37.7744 22.2256 37.6447 22.2069V23.1421L37.8651 23.1957C38.0796 23.2522 38.2908 23.321 38.4975 23.4017C38.6706 23.468 38.8314 23.5626 38.9734 23.6818C39.1033 23.7953 39.2067 23.9359 39.2762 24.0938C39.3507 24.2767 39.3865 24.4731 39.3812 24.6706C39.3877 24.8999 39.3412 25.1276 39.2453 25.336C39.1587 25.5116 39.0333 25.6651 38.8786 25.7851C38.7196 25.9044 38.5402 25.9938 38.3492 26.0487C38.1483 26.1088 37.9407 26.1434 37.7312 26.1517V26.949H37.2574V26.1456C36.9389 26.1161 36.6246 26.0519 36.3201 25.954C36.0288 25.8583 35.7516 25.7239 35.4961 25.5543L35.9905 24.5738C36.0342 24.6177 36.0833 24.6558 36.1368 24.6871C36.2346 24.7487 36.3365 24.8037 36.4416 24.8519C36.576 24.9139 36.7135 24.9689 36.8536 25.0167C37.0098 25.0691 37.1705 25.1071 37.3336 25.13V24.2174L37.004 24.1206C36.8041 24.0619 36.6092 23.9876 36.421 23.8981C36.2696 23.8283 36.1304 23.7344 36.009 23.62C35.9021 23.5183 35.8196 23.3936 35.768 23.2554C35.7122 23.1017 35.6856 22.9389 35.6897 22.7754C35.6859 22.5576 35.728 22.3414 35.8133 22.1409C35.8913 21.9613 36.004 21.7989 36.145 21.663C36.2882 21.5285 36.4561 21.4228 36.6394 21.352C36.8374 21.2737 37.0454 21.2238 37.2574 21.2036V20.5115H37.7312V21.2036C38.0192 21.2309 38.3017 21.3003 38.5696 21.4096C38.8023 21.5017 39.0287 21.6091 39.2473 21.731L38.7447 22.6601ZM36.8433 22.5983C36.8407 22.6497 36.8502 22.7011 36.8709 22.7483C36.8917 22.7955 36.9231 22.8373 36.9628 22.8702C37.0713 22.95 37.1935 23.0093 37.3233 23.0453V22.2007C37.002 22.2254 36.8433 22.3593 36.8433 22.5962V22.5983ZM38.1741 24.7818C38.1762 24.727 38.164 24.6725 38.1387 24.6238C38.1134 24.575 38.0759 24.5337 38.0299 24.5037C37.9103 24.4261 37.7807 24.3651 37.6447 24.3225V25.1465C37.9969 25.132 38.1741 25.0084 38.1741 24.7798V24.7818Z" fill="#227042"/>
<path d="M63.2399 10.8892H0V43.8285H63.2399V10.8892Z" fill="#66C87D"/>
<path d="M59.8992 12.9492H3.33785C3.16969 12.9492 3.00317 12.9824 2.84783 13.0468C2.69249 13.1112 2.55137 13.2056 2.43255 13.3246C2.31374 13.4436 2.21955 13.5849 2.15538 13.7404C2.09121 13.8958 2.05832 14.0624 2.0586 14.2305V40.4873C2.05832 40.6554 2.09121 40.822 2.15538 40.9774C2.21955 41.1329 2.31374 41.2742 2.43255 41.3932C2.55137 41.5122 2.69249 41.6066 2.84783 41.671C3.00317 41.7354 3.16969 41.7686 3.33785 41.7686H59.8992C60.0675 41.7686 60.2341 41.7354 60.3895 41.671C60.545 41.6067 60.6862 41.5123 60.8052 41.3933C60.9242 41.2743 61.0186 41.1331 61.083 40.9776C61.1474 40.8221 61.1805 40.6555 61.1805 40.4873V14.2305C61.1805 14.0623 61.1474 13.8957 61.083 13.7402C61.0186 13.5847 60.9242 13.4435 60.8052 13.3245C60.6862 13.2055 60.545 13.1111 60.3895 13.0468C60.2341 12.9824 60.0675 12.9492 59.8992 12.9492ZM59.1205 37.0944C59.0256 37.082 58.9299 37.0758 58.8342 37.0759C58.2119 37.0759 57.6151 37.3231 57.1751 37.7631C56.735 38.2032 56.4878 38.8 56.4878 39.4222C56.4878 39.518 56.494 39.6136 56.5064 39.7086H6.73067C6.74306 39.6136 6.74926 39.518 6.74921 39.4222C6.74866 38.8009 6.50144 38.2051 6.06186 37.7659C5.62228 37.3267 5.02632 37.08 4.40493 37.08C4.30918 37.0799 4.21353 37.0861 4.11859 37.0986V17.6234C4.21353 17.6358 4.30918 17.642 4.40493 17.6419C4.71296 17.6419 5.01797 17.5812 5.30252 17.4632C5.58708 17.3453 5.8456 17.1724 6.06331 16.9545C6.28103 16.7366 6.45366 16.478 6.57135 16.1933C6.68904 15.9086 6.74948 15.6036 6.74921 15.2956C6.74926 15.1998 6.74306 15.1042 6.73067 15.0092H56.5064C56.494 15.1042 56.4878 15.1998 56.4878 15.2956C56.4878 15.9178 56.735 16.5146 57.1751 16.9547C57.6151 17.3947 58.2119 17.6419 58.8342 17.6419C58.9299 17.642 59.0256 17.6358 59.1205 17.6234V37.0944Z" fill="#227042"/>
<path d="M15.4189 34.334H11.0228C10.8214 34.334 10.6582 34.4972 10.6582 34.6986V36.3054C10.6582 36.5068 10.8214 36.67 11.0228 36.67H15.4189C15.6202 36.67 15.7835 36.5068 15.7835 36.3054V34.6986C15.7835 34.4972 15.6202 34.334 15.4189 34.334Z" fill="#227042"/>
<path d="M14.3887 22.8083V18.4122C14.3887 18.2109 14.2254 18.0476 14.0241 18.0476H12.4173C12.2159 18.0476 12.0526 18.2109 12.0526 18.4122V22.8083C12.0526 23.0096 12.2159 23.1729 12.4173 23.1729H14.0241C14.2254 23.1729 14.3887 23.0096 14.3887 22.8083Z" fill="#227042"/>
<path d="M51.1895 22.8083V18.4122C51.1895 18.2109 51.0262 18.0476 50.8248 18.0476H49.218C49.0167 18.0476 48.8534 18.2109 48.8534 18.4122V22.8083C48.8534 23.0096 49.0167 23.1729 49.218 23.1729H50.8248C51.0262 23.1729 51.1895 23.0096 51.1895 22.8083Z" fill="#227042"/>
<path d="M52.2157 34.334H47.8197C47.6183 34.334 47.4551 34.4972 47.4551 34.6986V36.3054C47.4551 36.5068 47.6183 36.67 47.8197 36.67H52.2157C52.4171 36.67 52.5804 36.5068 52.5804 36.3054V34.6986C52.5804 34.4972 52.4171 34.334 52.2157 34.334Z" fill="#227042"/>
<path d="M30.4574 17.7696L23.8963 21.558C23.5428 21.7618 23.2491 22.0551 23.0448 22.4084C22.8405 22.7617 22.7328 23.1625 22.7324 23.5706V31.1472C22.7317 31.5564 22.8389 31.9585 23.0433 32.3129C23.2476 32.6674 23.5419 32.9616 23.8963 33.166L30.4554 36.9544C30.8091 37.1579 31.2101 37.265 31.6182 37.265C32.0264 37.265 32.4273 37.1579 32.7811 36.9544L39.3463 33.166C39.6996 32.9621 39.9929 32.6687 40.1969 32.3154C40.4008 31.9621 40.5082 31.5614 40.5081 31.1534V23.5706C40.5082 23.1626 40.4008 22.7619 40.1969 22.4086C39.9929 22.0553 39.6996 21.7619 39.3463 21.558L32.7832 17.7696C32.4294 17.5661 32.0284 17.459 31.6203 17.459C31.2122 17.459 30.8112 17.5661 30.4574 17.7696ZM37.6674 31.2461L31.9653 34.5421C31.8609 34.6019 31.7427 34.6334 31.6223 34.6334C31.502 34.6334 31.3838 34.6019 31.2794 34.5421L25.5773 31.2461C25.4733 31.1859 25.387 31.0993 25.327 30.9952C25.267 30.8911 25.2354 30.773 25.2353 30.6528V24.0609C25.2356 23.9407 25.2673 23.8227 25.3273 23.7186C25.3872 23.6146 25.4734 23.528 25.5773 23.4676L31.2794 20.1716C31.3838 20.1118 31.502 20.0803 31.6223 20.0803C31.7427 20.0803 31.8609 20.1118 31.9653 20.1716L37.6674 23.4676C37.7715 23.5279 37.858 23.6144 37.9183 23.7185C37.9787 23.8225 38.0108 23.9406 38.0114 24.0609V30.6528C38.011 30.7734 37.9787 30.8918 37.918 30.9959C37.8572 31.1001 37.7701 31.1864 37.6653 31.2461H37.6674Z" fill="#227042"/>
<path d="M27.4883 29.7341V24.8601H29.6842C29.904 24.8587 30.1211 24.9081 30.3187 25.0043C30.5094 25.0976 30.6807 25.2262 30.8234 25.3834C30.9651 25.5379 31.0781 25.7165 31.1571 25.9107C31.2356 26.1002 31.2762 26.3031 31.2766 26.5081C31.277 26.6555 31.2583 26.8023 31.221 26.9449C31.1857 27.0821 31.1331 27.2143 31.0644 27.3383C30.9969 27.4609 30.9123 27.5732 30.8131 27.672C30.7145 27.7699 30.6029 27.8538 30.4815 27.9213L31.5506 29.7341H30.2816L29.3485 28.1623H28.613V29.7341H27.4883ZM28.613 27.1797H29.643C29.7113 27.1786 29.7782 27.1609 29.8381 27.1283C29.898 27.0956 29.9491 27.0489 29.9871 26.9922C30.0872 26.8512 30.1378 26.681 30.1313 26.5081C30.1401 26.3329 30.0811 26.161 29.9665 26.0282C29.9232 25.9747 29.869 25.931 29.8076 25.9001C29.7461 25.8692 29.6788 25.8518 29.6101 25.8489H28.613V27.1797Z" fill="#227042"/>
<path d="M35.1139 26.2877C35.0773 26.253 35.0365 26.2233 34.9923 26.1991C34.9107 26.1492 34.8261 26.1045 34.7389 26.0652C34.6359 26.0178 34.5206 25.9725 34.3949 25.9272C34.2711 25.8842 34.1435 25.8532 34.0138 25.8345V26.78L34.2342 26.8336C34.4488 26.8902 34.6599 26.9589 34.8666 27.0396C35.0397 27.1059 35.2006 27.2006 35.3425 27.3197C35.4724 27.4332 35.5758 27.5739 35.6453 27.7317C35.7199 27.9147 35.7557 28.1111 35.7504 28.3085C35.7568 28.5378 35.7103 28.7655 35.6144 28.9739C35.5279 29.1495 35.4025 29.3031 35.2477 29.423C35.0888 29.5423 34.9094 29.6317 34.7183 29.6867C34.5175 29.7467 34.3098 29.7814 34.1003 29.7897V30.5869H33.6265V29.7835C33.3079 29.7551 32.9935 29.6908 32.6892 29.5919C32.3979 29.4963 32.1207 29.3618 31.8652 29.1923L32.3596 28.2117C32.4033 28.2556 32.4525 28.2937 32.5059 28.325C32.6038 28.3866 32.7056 28.4417 32.8108 28.4898C32.9452 28.5519 33.0827 28.6069 33.2228 28.6546C33.3789 28.7071 33.5396 28.745 33.7028 28.7679V27.8553L33.3732 27.7585C33.1733 27.6999 32.9783 27.6255 32.7902 27.536C32.6387 27.4663 32.4995 27.3723 32.3782 27.258C32.2712 27.1563 32.1888 27.0316 32.1372 26.8933C32.0813 26.7396 32.0548 26.5768 32.0589 26.4134C32.055 26.1955 32.0971 25.9793 32.1825 25.7789C32.2604 25.5992 32.3731 25.4368 32.5141 25.301C32.6574 25.1664 32.8252 25.0608 33.0085 24.9899C33.2065 24.9117 33.4146 24.8617 33.6265 24.8416V24.1494H34.1003V24.8416C34.3884 24.8688 34.6709 24.9382 34.9387 25.0476C35.1715 25.1397 35.3979 25.247 35.6165 25.3689L35.1139 26.2877ZM33.2125 26.2259C33.2099 26.2774 33.2193 26.3288 33.2401 26.376C33.2608 26.4232 33.2923 26.4649 33.332 26.4978C33.4405 26.5776 33.5626 26.637 33.6925 26.6729V25.8283C33.3711 25.8551 33.2125 25.989 33.2125 26.2259ZM34.5432 28.4095C34.5453 28.3546 34.5331 28.3001 34.5078 28.2514C34.4826 28.2027 34.4451 28.1613 34.399 28.1314C34.2795 28.0537 34.1499 27.9927 34.0138 27.9501V28.7741C34.3661 28.7597 34.5432 28.634 34.5432 28.4095Z" fill="#227042"/>
</svg>
