<svg width="75" height="65" viewBox="0 0 75 65" fill="none" xmlns="http://www.w3.org/2000/svg">
<path d="M55.4175 3.09371e-05L0 30.4661L15.8687 59.331L71.2862 28.865L55.4175 3.09371e-05Z" fill="#66C87D"/>
<path d="M53.4816 3.41259L3.91192 30.6622C3.76471 30.7433 3.63493 30.8527 3.52999 30.984C3.42505 31.1152 3.34701 31.2659 3.30033 31.4274C3.25365 31.5889 3.23924 31.7579 3.25794 31.925C3.27663 32.092 3.32806 32.2537 3.40928 32.4009L16.0659 55.4131C16.1468 55.5605 16.256 55.6905 16.3872 55.7956C16.5185 55.9008 16.6691 55.979 16.8306 56.0259C16.9921 56.0728 17.1612 56.0873 17.3283 56.0688C17.4954 56.0502 17.6573 55.9989 17.8045 55.9178L67.3598 28.6682C67.5073 28.587 67.6373 28.4776 67.7425 28.3462C67.8477 28.2148 67.9259 28.064 67.9728 27.9024C68.0197 27.7407 68.0342 27.5714 68.0156 27.4041C67.9971 27.2369 67.9457 27.0749 67.8645 26.9275L55.2223 3.91317C55.0578 3.61607 54.782 3.39646 54.4556 3.30259C54.1292 3.20873 53.7789 3.24829 53.4816 3.41259ZM64.4326 24.9478C64.3426 24.9819 64.2551 25.0226 64.171 25.0693C63.9004 25.2173 63.6618 25.4172 63.4685 25.6575C63.2753 25.8978 63.1314 26.1738 63.0449 26.4698C62.9584 26.7657 62.9311 27.0758 62.9646 27.3824C62.998 27.6889 63.0916 27.9858 63.2398 28.2562C63.2858 28.3399 63.3374 28.4205 63.3943 28.4972L19.7739 52.4776C19.7384 52.3888 19.6979 52.3021 19.6524 52.218C19.3529 51.6757 18.8508 51.2739 18.256 51.1006C17.6611 50.9273 17.0219 50.9965 16.4779 51.2931C16.3932 51.3385 16.3119 51.3902 16.2348 51.4476L6.8536 34.3826C6.94223 34.3467 7.02887 34.3062 7.11316 34.261C7.65737 33.9601 8.05982 33.4553 8.2321 32.8578C8.40437 32.2602 8.33237 31.6187 8.03192 31.0742C7.98675 30.99 7.93509 30.9094 7.87742 30.8332L51.4979 6.85278C51.5325 6.94195 51.5731 7.02867 51.6194 7.11234C51.7683 7.38252 51.9689 7.6207 52.2099 7.81324C52.4509 8.00578 52.7275 8.14891 53.0239 8.23444C53.3203 8.31997 53.6306 8.34621 53.9372 8.31167C54.2437 8.27714 54.5404 8.18249 54.8103 8.03316C54.8937 7.9865 54.9742 7.93491 55.0514 7.87866L64.4326 24.9478Z" fill="#227042"/>
<path d="M24.8056 43.582L20.9533 45.6998C20.7768 45.7968 20.7124 46.0185 20.8094 46.195L21.5835 47.6031C21.6805 47.7795 21.9022 47.8439 22.0787 47.7469L25.931 45.6291C26.1074 45.5321 26.1719 45.3104 26.0748 45.1339L25.3008 43.7259C25.2037 43.5494 24.982 43.485 24.8056 43.582Z" fill="#227042"/>
<path d="M18.3491 33.9782L16.2313 30.1259C16.1343 29.9495 15.9126 29.885 15.7361 29.9821L14.3281 30.7561C14.1516 30.8531 14.0872 31.0748 14.1842 31.2513L16.302 35.1036C16.3991 35.28 16.6208 35.3445 16.7972 35.2474L18.2053 34.4734C18.3817 34.3764 18.4461 34.1547 18.3491 33.9782Z" fill="#227042"/>
<path d="M50.5972 16.2492L48.4794 12.3969C48.3824 12.2204 48.1607 12.156 47.9842 12.253L46.5761 13.0271C46.3997 13.1241 46.3353 13.3458 46.4323 13.5223L48.5501 17.3746C48.6471 17.551 48.8688 17.6155 49.0453 17.5184L50.4533 16.7444C50.6298 16.6473 50.6942 16.4256 50.5972 16.2492Z" fill="#227042"/>
<path d="M57.0517 25.8538L53.1994 27.9716C53.0229 28.0686 52.9585 28.2903 53.0555 28.4667L53.8296 29.8748C53.9266 30.0512 54.1483 30.1157 54.3248 30.0186L58.1771 27.9008C58.3535 27.8038 58.4179 27.5821 58.3209 27.4057L57.5469 25.9976C57.4498 25.8212 57.2281 25.7567 57.0517 25.8538Z" fill="#227042"/>
<path d="M30.0055 21.8227L26.0915 28.3014C25.88 28.6503 25.7641 29.0487 25.7554 29.4566C25.7467 29.8645 25.8456 30.2675 26.0421 30.6251L29.6924 37.2645C29.8884 37.6225 30.1754 37.9224 30.5245 38.134C30.8735 38.3456 31.2722 38.4614 31.6803 38.4696L39.2549 38.6282C39.6627 38.6364 40.0654 38.5372 40.4227 38.3405C40.7799 38.1438 41.0791 37.8565 41.2902 37.5076L45.2165 31.0289C45.4281 30.6799 45.5439 30.2814 45.5523 29.8734C45.5606 29.4654 45.4611 29.0624 45.2639 28.7052L41.6115 22.0638C41.4151 21.7063 41.1279 21.4068 40.7789 21.1956C40.4299 20.9845 40.0315 20.8689 39.6236 20.8607L32.049 20.7021C31.6399 20.6922 31.2353 20.7906 30.8765 20.9874C30.5176 21.1842 30.2171 21.4724 30.0055 21.8227ZM42.8125 30.1595L39.4012 35.7916C39.339 35.8943 39.2508 35.9789 39.1456 36.0367C39.0404 36.0946 38.9218 36.1237 38.8017 36.1212L32.2097 35.9832C32.0894 35.9808 31.9718 35.9468 31.8687 35.8846C31.7657 35.8224 31.6808 35.7342 31.6226 35.6288L28.4502 29.8608C28.3922 29.7553 28.363 29.6363 28.3655 29.5159C28.368 29.3955 28.4022 29.2779 28.4646 29.1749L31.876 23.5428C31.9383 23.4402 32.0265 23.3558 32.1317 23.298C32.2369 23.2401 32.3554 23.2109 32.4755 23.2132L39.0674 23.3513C39.1878 23.3534 39.3055 23.3873 39.4086 23.4495C39.5117 23.5117 39.5965 23.6001 39.6545 23.7056L42.8269 29.4736C42.8854 29.579 42.9148 29.698 42.9123 29.8185C42.9098 29.939 42.8753 30.0567 42.8125 30.1595Z" fill="#227042"/>
<path d="M33.1647 33.7358L30.8184 29.4572L32.7424 28.4004C32.9315 28.293 33.1432 28.2316 33.3604 28.2212C33.57 28.211 33.7796 28.2404 33.9784 28.3077C34.1768 28.3757 34.3616 28.4782 34.5243 28.6105C34.6842 28.7389 34.8178 28.897 34.9178 29.0761C34.9889 29.2059 35.0429 29.3444 35.0784 29.4881C35.1138 29.6261 35.1311 29.768 35.1299 29.9104C35.1306 30.0498 35.1112 30.1886 35.0723 30.3224C35.0328 30.4566 34.9753 30.5848 34.9013 30.7035L36.712 31.7747L35.5996 32.3927L34.0237 31.4657L33.381 31.82L34.137 33.1961L33.1647 33.7358ZM32.9216 30.9569L33.8239 30.4604C33.8827 30.4267 33.9323 30.3789 33.9682 30.3214C34.0041 30.2639 34.0253 30.1985 34.0299 30.1308C34.0497 29.9587 34.0121 29.7849 33.9228 29.6364C33.8459 29.4788 33.7118 29.3565 33.5479 29.2945C33.4839 29.2686 33.4152 29.2567 33.3463 29.2595C33.2773 29.2623 33.2098 29.2799 33.1482 29.3109L32.2768 29.7909L32.9216 30.9569Z" fill="#227042"/>
<path d="M38.1886 27.0427C38.1401 27.0306 38.0903 27.0244 38.0403 27.0242C37.945 27.0182 37.8493 27.0182 37.754 27.0242C37.6407 27.0242 37.5191 27.0469 37.3873 27.0695C37.2578 27.0909 37.1308 27.1255 37.0083 27.1725L37.4594 27.9965L37.6778 27.9388C37.8929 27.8856 38.1109 27.845 38.3308 27.8173C38.5151 27.7923 38.7024 27.7979 38.8849 27.8338C39.0521 27.8674 39.2097 27.9377 39.3464 28.0398C39.5008 28.1636 39.6272 28.3188 39.7172 28.495C39.8366 28.6918 39.9073 28.9143 39.9232 29.1439C39.933 29.3397 39.8971 29.5351 39.8181 29.7146C39.7369 29.8958 39.6231 30.0606 39.4823 30.2007C39.3328 30.3525 39.1646 30.4848 38.9817 30.5942L39.367 31.2904L38.955 31.5191L38.5677 30.8167C38.2755 30.9458 37.9692 31.0405 37.6551 31.0989C37.3513 31.1581 37.0409 31.1761 36.7322 31.1524L36.6931 30.0524C36.7525 30.0708 36.8142 30.0805 36.8764 30.0812C36.9916 30.0894 37.1073 30.0894 37.2225 30.0812C37.3724 30.0696 37.5216 30.0503 37.6695 30.0236C37.8319 29.9946 37.9912 29.9504 38.1454 29.8917L37.6984 29.0924L37.3646 29.1687C37.1611 29.2128 36.9545 29.241 36.7466 29.2531C36.5817 29.2648 36.416 29.2488 36.2564 29.2057C36.1136 29.1667 35.9813 29.0963 35.8691 28.9997C35.7466 28.8916 35.6453 28.7617 35.5704 28.6166C35.458 28.4278 35.3878 28.217 35.3644 27.9986C35.3451 27.8034 35.3661 27.6064 35.4262 27.4197C35.486 27.2326 35.5819 27.0591 35.7084 26.9088C35.8441 26.7461 36.0015 26.6026 36.176 26.4824L35.8444 25.883L36.2564 25.6543L36.5901 26.262C36.852 26.1458 37.1297 26.0687 37.4141 26.0333C37.6626 26.0004 37.9132 25.9853 38.1639 25.988L38.1886 27.0427ZM36.4933 27.9059C36.516 27.9522 36.5492 27.9926 36.5904 28.0237C36.6315 28.0548 36.6794 28.0758 36.7302 28.0851C36.8635 28.1037 36.9991 28.0968 37.1298 28.0645L36.7178 27.325C36.4555 27.5104 36.3806 27.704 36.4933 27.9059ZM38.7119 29.1769C38.6873 29.1279 38.6505 29.086 38.605 29.0553C38.5596 29.0247 38.507 29.0062 38.4523 29.0018C38.3103 28.9926 38.1677 29.0016 38.028 29.0286L38.4235 29.7496C38.7284 29.5683 38.8231 29.3767 38.7119 29.1769Z" fill="#227042"/>
<path d="M67.443 19.5783L5.47266 32.1863L12.0397 64.4644L74.01 51.8564L67.443 19.5783Z" fill="#66C87D"/>
<path d="M64.5821 22.2615L9.16821 33.538C8.83563 33.606 8.54362 33.8032 8.3563 34.0863C8.16898 34.3694 8.10165 34.7152 8.16912 35.0479L13.3891 60.7794C13.4226 60.9442 13.4882 61.1008 13.5822 61.2402C13.6762 61.3797 13.7967 61.4992 13.937 61.592C14.0772 61.6848 14.2344 61.749 14.3995 61.781C14.5646 61.813 14.7344 61.8121 14.8991 61.7785L70.3254 50.502C70.4902 50.4686 70.6468 50.403 70.7863 50.309C70.9257 50.215 71.0452 50.0944 71.138 49.9542C71.2308 49.8139 71.2951 49.6568 71.3271 49.4917C71.3591 49.3266 71.3582 49.1568 71.3245 48.9921L66.0901 23.2627C66.022 22.9304 65.8252 22.6386 65.5427 22.451C65.2601 22.2634 64.9148 22.1953 64.5821 22.2615ZM68.6342 46.0772C68.5387 46.0843 68.4437 46.0973 68.3499 46.1163C68.0479 46.1775 67.7609 46.2976 67.5053 46.4698C67.2498 46.642 67.0307 46.8629 66.8606 47.1199C66.6905 47.3769 66.5728 47.6648 66.5141 47.9673C66.4554 48.2698 66.4569 48.581 66.5185 48.8829C66.5369 48.9771 66.5617 49.0701 66.5927 49.161L17.8161 59.084C17.8101 58.9884 17.797 58.8934 17.7769 58.7997C17.716 58.4978 17.5961 58.2108 17.4241 57.9553C17.2521 57.6998 17.0314 57.4807 16.7746 57.3106C16.5178 57.1405 16.23 57.0227 15.9276 56.964C15.6252 56.9052 15.3142 56.9067 15.0124 56.9684C14.9188 56.9865 14.8265 57.0113 14.7364 57.0425L10.8533 37.9628C10.9489 37.9569 11.0439 37.9438 11.1376 37.9237C11.4405 37.8637 11.7285 37.7444 11.9851 37.5726C12.2417 37.4009 12.4618 37.1801 12.6328 36.923C12.8037 36.6659 12.9222 36.3775 12.9813 36.0745C13.0404 35.7714 13.039 35.4596 12.9771 35.1571C12.9587 35.0635 12.934 34.9713 12.903 34.8811L61.6796 24.956C61.6854 25.0516 61.6985 25.1467 61.7187 25.2403C61.8424 25.8485 62.2023 26.3829 62.7193 26.7262C63.2364 27.0695 63.8685 27.1937 64.4771 27.0716C64.5707 27.0535 64.663 27.0287 64.7531 26.9975L68.6342 46.0772Z" fill="#227042"/>
<path d="M25.2569 52.0863L20.9491 52.9627C20.7518 53.0029 20.6243 53.1954 20.6645 53.3927L20.9848 54.9672C21.025 55.1646 21.2175 55.292 21.4148 55.2518L25.7226 54.3754C25.9199 54.3353 26.0474 54.1428 26.0072 53.9454L25.6869 52.3709C25.6467 52.1736 25.4542 52.0461 25.2569 52.0863Z" fill="#227042"/>
<path d="M21.9501 40.9949L21.0737 36.6871C21.0335 36.4898 20.841 36.3624 20.6437 36.4025L19.0691 36.7229C18.8718 36.763 18.7444 36.9555 18.7845 37.1529L19.661 41.4606C19.7011 41.658 19.8936 41.7854 20.091 41.7453L21.6655 41.4249C21.8628 41.3848 21.9902 41.1922 21.9501 40.9949Z" fill="#227042"/>
<path d="M58.0097 33.6585L57.1332 29.3507C57.0931 29.1534 56.9006 29.026 56.7032 29.0661L55.1287 29.3864C54.9314 29.4266 54.804 29.6191 54.8441 29.8164L55.7205 34.1242C55.7607 34.3215 55.9532 34.449 56.1505 34.4088L57.7251 34.0885C57.9224 34.0483 58.0498 33.8558 58.0097 33.6585Z" fill="#227042"/>
<path d="M61.3184 44.7496L57.0106 45.626C56.8133 45.6662 56.6859 45.8587 56.726 46.056L57.0464 47.6306C57.0865 47.8279 57.279 47.9553 57.4764 47.9152L61.7841 47.0387C61.9815 46.9986 62.1089 46.8061 62.0687 46.6088L61.7484 45.0342C61.7082 44.8369 61.5157 44.7095 61.3184 44.7496Z" fill="#227042"/>
<path d="M36.692 32.8562L31.0188 37.8743C30.713 38.1445 30.4838 38.4905 30.3543 38.8775C30.2249 39.2645 30.1997 39.6787 30.2813 40.0785L31.7913 47.5048C31.8732 47.9045 32.0587 48.2756 32.3291 48.5811C32.5995 48.8865 32.9454 49.1157 33.3322 49.2455L40.5154 51.6495C40.9024 51.779 41.3167 51.8043 41.7166 51.7229C42.1165 51.6416 42.488 51.4564 42.7937 51.186L48.467 46.1658C48.7727 45.8956 49.0019 45.5496 49.1314 45.1626C49.2609 44.7757 49.2861 44.3614 49.2044 43.9616L47.6945 36.5456C47.6137 36.1455 47.4286 35.7738 47.1581 35.4681C46.8875 35.1624 46.541 34.9337 46.1536 34.8049L38.9704 32.4009C38.584 32.2704 38.1702 32.2437 37.7703 32.3237C37.3704 32.4036 36.9985 32.5872 36.692 32.8562ZM46.442 44.6249L41.5103 48.988C41.42 49.0674 41.3105 49.1217 41.1927 49.1455C41.0749 49.1694 40.9528 49.1619 40.8388 49.124L34.5929 47.0351C34.4792 46.9964 34.3777 46.9288 34.2982 46.8388C34.2187 46.7488 34.1641 46.6397 34.1397 46.5222L32.8275 40.0662C32.8019 39.9494 32.8075 39.828 32.8437 39.7142C32.8798 39.6003 32.9453 39.4979 33.0335 39.4173L37.9651 35.0542C38.0551 34.9743 38.1646 34.9196 38.2825 34.8957C38.4005 34.8718 38.5227 34.8796 38.6366 34.9182L44.8826 37.0071C44.9969 37.0445 45.0992 37.1117 45.1789 37.2019C45.2586 37.2921 45.3127 37.4019 45.3358 37.52L46.65 43.974C46.6747 44.0912 46.6684 44.2128 46.6319 44.3269C46.5955 44.441 46.53 44.5437 46.442 44.6249Z" fill="#227042"/>
<path d="M36.1686 45.1707L35.1963 40.3956L37.349 39.963C37.564 39.9161 37.7872 39.9211 37.9999 39.9774C38.2045 40.0305 38.3973 40.1214 38.5685 40.2452C38.7384 40.3694 38.8849 40.5229 39.0011 40.6984C39.1153 40.8682 39.1958 41.0585 39.238 41.2587C39.2662 41.4032 39.2773 41.5505 39.271 41.6975C39.2618 41.8374 39.2363 41.9756 39.1947 42.1095C39.1098 42.3767 38.9522 42.6149 38.7395 42.7975L40.1485 44.359L38.9125 44.6124L37.6765 43.259L36.9576 43.4052L37.2707 44.9441L36.1686 45.1707ZM36.7619 42.4453L37.7713 42.2393C37.8377 42.224 37.8995 42.193 37.9515 42.1489C38.0034 42.1048 38.0441 42.0489 38.07 41.9859C38.1396 41.8278 38.1548 41.651 38.1132 41.4833C38.0879 41.309 37.9955 41.1516 37.8557 41.0445C37.8025 41.0009 37.7407 40.9692 37.6742 40.9515C37.6078 40.9337 37.5384 40.9303 37.4705 40.9415L36.4961 41.1475L36.7619 42.4453Z" fill="#227042"/>
<path d="M42.9519 40.2741C42.91 40.2475 42.865 40.2261 42.818 40.2103C42.7274 40.1788 42.6353 40.1519 42.542 40.1299C42.4307 40.1031 42.3092 40.0825 42.1773 40.064C42.0476 40.0469 41.9166 40.0421 41.7859 40.0496L41.9713 40.9642H42.1979C42.4196 40.9787 42.6403 41.0049 42.8592 41.0425C43.0423 41.074 43.2191 41.1352 43.3824 41.2238C43.5319 41.3075 43.6608 41.4236 43.7594 41.5637C43.8694 41.7279 43.9444 41.913 43.9798 42.1075C44.0327 42.331 44.0327 42.5638 43.9798 42.7873C43.9304 42.9767 43.8381 43.1522 43.71 43.3003C43.5787 43.4496 43.4209 43.5732 43.2444 43.6649C43.0562 43.7651 42.8562 43.8412 42.6491 43.8915L42.8077 44.6722L42.3442 44.767L42.1835 43.9801C41.8659 44.0161 41.5453 44.0161 41.2277 43.9801C40.92 43.9473 40.6184 43.8717 40.3316 43.7555L40.62 42.6946C40.6715 42.7298 40.7276 42.7575 40.7868 42.777C40.8948 42.8186 41.0057 42.8523 41.1185 42.878C41.2647 42.9117 41.4125 42.9378 41.5614 42.9562C41.7254 42.9765 41.8909 42.9814 42.0558 42.9707L41.8725 42.0766L41.5305 42.0478C41.3221 42.0302 41.1154 41.9958 40.9125 41.9448C40.7517 41.9061 40.598 41.8421 40.4572 41.7553C40.3341 41.6753 40.2294 41.57 40.1503 41.4463C40.064 41.307 40.0053 41.1524 39.9773 40.991C39.9321 40.7778 39.9321 40.5574 39.9773 40.3442C40.0176 40.1527 40.0961 39.9712 40.208 39.8106C40.3205 39.647 40.464 39.5071 40.6303 39.3986C40.8068 39.2861 40.9982 39.1987 41.1988 39.1391L41.0608 38.4593L41.5243 38.3645L41.6623 39.0443C41.9492 39.0114 42.2394 39.0211 42.5234 39.0731C42.7701 39.1174 43.0136 39.1772 43.2527 39.2524L42.9519 40.2741ZM41.0773 40.5934C41.0855 40.644 41.1052 40.692 41.1349 40.7337C41.1645 40.7755 41.2033 40.81 41.2483 40.8344C41.3708 40.8916 41.5028 40.9259 41.6376 40.9354L41.4687 40.1114C41.1597 40.1979 41.0299 40.3606 41.0773 40.5934ZM42.818 42.466C42.8076 42.4111 42.7831 42.3599 42.747 42.3173C42.7109 42.2747 42.6644 42.2422 42.612 42.2229C42.4799 42.1707 42.3413 42.1367 42.2 42.1219L42.3627 42.9274C42.715 42.8471 42.8633 42.6905 42.818 42.466Z" fill="#227042"/>
</svg>
