<svg width="16" height="18" viewBox="0 0 16 18" fill="none" xmlns="http://www.w3.org/2000/svg">
<path d="M6.95272 0.282539L1.04627 3.7253C0.72812 3.91084 0.463941 4.17767 0.280283 4.49896C0.0966258 4.82025 -3.94584e-05 5.18469 2.04413e-06 5.55565V12.4432C-0.000511988 12.8146 0.0959292 13.1796 0.27961 13.5014C0.463291 13.8233 0.727725 14.0905 1.04627 14.2763L6.95272 17.719C7.27093 17.9045 7.63189 18.0022 7.99933 18.0022C8.36676 18.0022 8.72773 17.9045 9.04594 17.719L14.9531 14.2763C15.2717 14.0905 15.5362 13.8233 15.72 13.5015C15.9038 13.1797 16.0004 12.8147 16 12.4432V5.55565C16.0004 5.18417 15.9038 4.81916 15.72 4.49735C15.5362 4.17555 15.2717 3.90832 14.9531 3.72259L9.04594 0.282539C8.72773 0.0970444 8.36676 -0.000610352 7.99933 -0.000610352C7.63189 -0.000610352 7.27093 0.0970444 6.95272 0.282539ZM13.4435 12.5328L8.30763 15.5255C8.21392 15.5802 8.10758 15.609 7.99933 15.609C7.89108 15.609 7.78474 15.5802 7.69103 15.5255L2.55516 12.5328C2.46083 12.4778 2.38259 12.3986 2.32838 12.3032C2.27417 12.2079 2.24593 12.0997 2.24652 11.9897V6.00577C2.24593 5.89579 2.27417 5.78762 2.32838 5.69223C2.38259 5.59684 2.46083 5.51763 2.55516 5.46264L7.68968 2.46999C7.7834 2.41529 7.88973 2.38648 7.99798 2.38648C8.10623 2.38648 8.21257 2.41529 8.30628 2.46999L13.4422 5.46264C13.5364 5.51766 13.6146 5.59689 13.6686 5.69229C13.7227 5.78769 13.7508 5.89585 13.7501 6.00577V11.9931C13.7504 12.1023 13.7222 12.2097 13.6684 12.3044C13.6146 12.3991 13.537 12.4779 13.4435 12.5328Z" fill="white"/>
<path d="M4.28125 11.1586V6.72868H6.25881C6.45681 6.72705 6.65247 6.77191 6.83036 6.85971C7.00154 6.94465 7.15548 7.06116 7.28423 7.20324C7.4117 7.34393 7.51326 7.50648 7.58413 7.68323C7.65484 7.85544 7.69161 8.03993 7.69239 8.22636C7.69269 8.36013 7.67597 8.49338 7.64263 8.62284C7.61054 8.74791 7.56287 8.86836 7.50075 8.98131C7.379 9.20472 7.19687 9.3886 6.9756 9.51154L7.93983 11.1586H6.79674L5.95622 9.73286H5.29457V11.1586H4.28125ZM5.29457 8.83806H6.22183C6.28316 8.83661 6.34325 8.82024 6.39698 8.79034C6.45071 8.76044 6.4965 8.71788 6.53046 8.66629C6.62052 8.53817 6.66549 8.38329 6.65822 8.22636C6.66666 8.06701 6.61365 7.91055 6.51029 7.78982C6.47131 7.74115 6.42245 7.70149 6.36701 7.6735C6.31157 7.64551 6.25082 7.62984 6.18888 7.62756H5.29457V8.83806Z" fill="white"/>
<path d="M11.1449 8.02678C11.1127 7.99478 11.0762 7.96737 11.0367 7.94531C10.9627 7.90059 10.8864 7.86002 10.808 7.82378C10.7152 7.77852 10.6124 7.73688 10.4994 7.69886C10.3879 7.66013 10.2731 7.63195 10.1565 7.61468V8.46332L10.3542 8.51356C10.5469 8.56608 10.7366 8.62955 10.9223 8.70365C11.0784 8.76473 11.2236 8.85119 11.352 8.9596C11.4683 9.06132 11.5602 9.18827 11.621 9.33097C11.689 9.49697 11.7217 9.67552 11.7171 9.85509C11.7232 10.0637 11.6809 10.2709 11.5934 10.46C11.5159 10.6198 11.4026 10.7593 11.2626 10.8673C11.1198 10.9758 10.9587 11.0572 10.7872 11.1077C10.6032 11.1621 10.4133 11.1935 10.2217 11.2014V11.9251H9.79539V11.1959C9.50837 11.1708 9.2252 11.1123 8.95152 11.0215C8.68685 10.9356 8.43505 10.8137 8.20312 10.6589L8.64759 9.76683C8.68822 9.80647 8.73336 9.84111 8.78207 9.87002C8.86998 9.92657 8.9619 9.9765 9.05708 10.0194C9.17987 10.0761 9.30556 10.1262 9.43363 10.1694C9.57445 10.2173 9.71944 10.2516 9.86666 10.2719V9.44299L9.57013 9.35541C9.39014 9.30129 9.21457 9.23319 9.04498 9.15174C8.90856 9.08893 8.78319 9.00409 8.67381 8.90054C8.57852 8.80741 8.50461 8.69432 8.4573 8.56923C8.40707 8.4294 8.38291 8.28139 8.38602 8.13269C8.38269 7.93455 8.42072 7.73793 8.49764 7.55561C8.56816 7.39237 8.67009 7.24491 8.79753 7.12179C8.92623 6.9992 9.07714 6.90285 9.242 6.838C9.41933 6.76706 9.60558 6.72136 9.79539 6.70222V6.07355H10.2217V6.70426C10.4804 6.72664 10.7344 6.7875 10.9755 6.88485C11.1857 6.96869 11.3901 7.06667 11.5874 7.17814L11.1449 8.02678ZM9.43296 7.97043C9.43134 8.01681 9.44026 8.06294 9.45902 8.10531C9.47778 8.14767 9.5059 8.18514 9.54122 8.21484C9.63855 8.28805 9.74875 8.34196 9.86599 8.3737V7.60653C9.57775 7.63324 9.43341 7.75453 9.43296 7.97043ZM10.6319 9.95489C10.6337 9.90497 10.6227 9.85542 10.5999 9.81105C10.5772 9.76668 10.5435 9.729 10.5021 9.70165C10.3947 9.63133 10.2785 9.57584 10.1565 9.53668V10.2835C10.473 10.2722 10.6314 10.1626 10.6319 9.95489Z" fill="white"/>
</svg>
