<svg width="76" height="97" viewBox="0 0 76 97" fill="none" xmlns="http://www.w3.org/2000/svg">
<path d="M46.5384 74.7886H28.6174C28.0445 74.7885 27.4858 74.6101 27.0188 74.2781C26.5519 73.9461 26.1999 73.477 26.0116 72.9358C25.7318 72.1474 19.1562 53.1265 19.1562 37.3934C19.1562 21.341 24.967 8.61576 35.9537 0.534357C36.4271 0.187187 36.9988 0 37.5858 0C38.1728 0 38.7445 0.187187 39.2178 0.534357C50.2085 8.59999 55.9996 21.3449 55.9996 37.3974C55.9996 53.1305 49.4241 72.1395 49.1442 72.9398C48.9552 73.4802 48.603 73.9484 48.1361 74.2797C47.6692 74.6109 47.1109 74.7888 46.5384 74.7886ZM30.6003 69.2696H44.5673C46.1836 64.1646 50.4805 49.4603 50.4805 37.3974C50.4805 23.8088 46.1442 13.3503 37.57 6.25441C29.0037 13.3503 24.6595 23.8009 24.6595 37.3974C24.6753 49.4603 28.9919 64.1646 30.6161 69.2696H30.6003Z" fill="white"/>
<path d="M50.614 60.2815H24.5564C23.8245 60.2815 23.1226 59.9907 22.6051 59.4732C22.0876 58.9557 21.7969 58.2538 21.7969 57.522C21.7969 56.7901 22.0876 56.0882 22.6051 55.5707C23.1226 55.0532 23.8245 54.7625 24.5564 54.7625H50.614C51.3458 54.7625 52.0477 55.0532 52.5652 55.5707C53.0827 56.0882 53.3735 56.7901 53.3735 57.522C53.3735 58.2538 53.0827 58.9557 52.5652 59.4732C52.0477 59.9907 51.3458 60.2815 50.614 60.2815Z" fill="white"/>
<path d="M51.9468 27.8967H23.2283C22.4964 27.8967 21.7945 27.606 21.277 27.0885C20.7595 26.5709 20.4687 25.8691 20.4688 25.1372C20.4687 24.4053 20.7595 23.7034 21.277 23.1859C21.7945 22.6684 22.4964 22.3777 23.2283 22.3777H51.9468C52.6787 22.3777 53.3806 22.6684 53.8981 23.1859C54.4156 23.7034 54.7063 24.4053 54.7063 25.1372C54.7063 25.8691 54.4156 26.5709 53.8981 27.0885C53.3806 27.606 52.6787 27.8967 51.9468 27.8967Z" fill="white"/>
<path d="M37.5859 52.2554C35.4243 52.2562 33.311 51.6159 31.5133 50.4154C29.7157 49.215 28.3144 47.5083 27.4869 45.5114C26.6593 43.5145 26.4426 41.317 26.8641 39.1969C27.2856 37.0768 28.3264 35.1293 29.8549 33.6008C31.3834 32.0723 33.3309 31.0315 35.451 30.6099C37.5711 30.1884 39.7687 30.4051 41.7656 31.2327C43.7625 32.0603 45.4691 33.4615 46.6696 35.2592C47.87 37.0568 48.5103 39.1701 48.5096 41.3317C48.5064 44.2279 47.3545 47.0046 45.3066 49.0525C43.2587 51.1004 40.4821 52.2523 37.5859 52.2554ZM37.5859 35.9231C36.516 35.9223 35.4699 36.2389 34.5799 36.8327C33.69 37.4265 32.9961 38.271 32.5861 39.2592C32.1762 40.2474 32.0685 41.335 32.2768 42.3845C32.485 43.4339 32.9998 44.398 33.7561 45.1548C34.5123 45.9116 35.476 46.4271 36.5253 46.6361C37.5746 46.8451 38.6623 46.7383 39.6508 46.329C40.6393 45.9198 41.4843 45.2265 42.0788 44.337C42.6732 43.4475 42.9906 42.4016 42.9906 41.3317C42.9895 39.8983 42.4199 38.5238 41.4066 37.5098C40.3934 36.4958 39.0193 35.9252 37.5859 35.9231Z" fill="white"/>
<path d="M28.6169 87.975C27.8851 87.975 27.1832 87.6843 26.6657 87.1668C26.1482 86.6493 25.8574 85.9474 25.8574 85.2155V78.5139C25.8574 77.782 26.1482 77.0801 26.6657 76.5626C27.1832 76.0451 27.8851 75.7544 28.6169 75.7544C29.3488 75.7544 30.0507 76.0451 30.5682 76.5626C31.0857 77.0801 31.3764 77.782 31.3764 78.5139V85.2155C31.3764 85.9474 31.0857 86.6493 30.5682 87.1668C30.0507 87.6843 29.3488 87.975 28.6169 87.975Z" fill="white"/>
<path d="M46.5368 87.975C45.805 87.975 45.1031 87.6843 44.5856 87.1668C44.0681 86.6493 43.7773 85.9474 43.7773 85.2155V78.5139C43.7773 77.782 44.0681 77.0801 44.5856 76.5626C45.1031 76.0451 45.805 75.7544 46.5368 75.7544C47.2687 75.7544 47.9706 76.0451 48.4881 76.5626C49.0056 77.0801 49.2963 77.782 49.2963 78.5139V85.2155C49.2963 85.9474 49.0056 86.6493 48.4881 87.1668C47.9706 87.6843 47.2687 87.975 46.5368 87.975Z" fill="white"/>
<path d="M37.5857 96.983C36.8538 96.983 36.1519 96.6922 35.6344 96.1747C35.1169 95.6572 34.8262 94.9553 34.8262 94.2235V78.5298C34.8262 77.7979 35.1169 77.096 35.6344 76.5785C36.1519 76.061 36.8538 75.7703 37.5857 75.7703C38.3175 75.7703 39.0194 76.061 39.5369 76.5785C40.0544 77.096 40.3452 77.7979 40.3452 78.5298V94.2235C40.3452 94.9553 40.0544 95.6572 39.5369 96.1747C39.0194 96.6922 38.3175 96.983 37.5857 96.983Z" fill="white"/>
<path d="M72.3901 74.9975H56.5427C55.8108 74.9975 55.1089 74.7068 54.5914 74.1893C54.0739 73.6718 53.7832 72.9699 53.7832 72.238C53.7832 71.5062 54.0739 70.8043 54.5914 70.2868C55.1089 69.7693 55.8108 69.4785 56.5427 69.4785H65.7279L58.1314 61.8978C57.6139 61.3802 57.3231 60.6783 57.3231 59.9464C57.3231 59.2145 57.6139 58.5126 58.1314 57.9951C58.6489 57.4775 59.3508 57.1868 60.0828 57.1868C60.8147 57.1868 61.5166 57.4775 62.0341 57.9951L74.3415 70.3064C74.7275 70.6923 74.9903 71.184 75.0968 71.7193C75.2033 72.2546 75.1487 72.8095 74.9398 73.3138C74.7309 73.818 74.3772 74.249 73.9233 74.5522C73.4695 74.8555 72.9359 75.0173 72.3901 75.0172V74.9975Z" fill="white"/>
<path d="M18.6311 74.9976H2.77969C2.2298 75.0016 1.69125 74.8413 1.23313 74.5371C0.775005 74.2329 0.418209 73.7988 0.208513 73.2905C-0.00118286 72.7821 -0.0542145 72.2227 0.0562217 71.684C0.166658 71.1453 0.435525 70.6519 0.82833 70.267L13.1357 57.9596C13.6532 57.4421 14.3552 57.1514 15.0871 57.1514C15.819 57.1514 16.5209 57.4421 17.0384 57.9596C17.556 58.4772 17.8467 59.1791 17.8467 59.911C17.8467 60.6429 17.556 61.3448 17.0384 61.8624L9.44192 69.4786H18.6311C19.3629 69.4786 20.0648 69.7693 20.5823 70.2868C21.0998 70.8044 21.3906 71.5062 21.3906 72.2381C21.3906 72.97 21.0998 73.6719 20.5823 74.1894C20.0648 74.7069 19.3629 74.9976 18.6311 74.9976Z" fill="white"/>
</svg>
