<svg width="23" height="25" viewBox="0 0 23 25" fill="none" xmlns="http://www.w3.org/2000/svg">
<path d="M9.68115 19.1894C7.83284 19.1894 6.02604 18.6414 4.48923 17.6145C2.95242 16.5876 1.75462 15.1281 1.0473 13.4205C0.339987 11.7129 0.15492 9.83387 0.515507 8.02108C0.876094 6.20828 1.76614 4.54313 3.07309 3.23618C4.38004 1.92922 6.0452 1.03918 7.85799 0.678593C9.67078 0.318006 11.5498 0.503073 13.2574 1.21039C14.965 1.91771 16.4245 3.1155 17.4514 4.65232C18.4783 6.18913 19.0264 7.99593 19.0264 9.84424C19.0235 12.3219 18.038 14.6972 16.2861 16.4492C14.5341 18.2011 12.1588 19.1866 9.68115 19.1894ZM9.68115 2.00285C8.13027 2.00285 6.61422 2.46274 5.32471 3.32437C4.0352 4.18599 3.03015 5.41064 2.43666 6.84347C1.84316 8.27629 1.68788 9.85293 1.99044 11.374C2.293 12.8951 3.03982 14.2923 4.13646 15.3889C5.23309 16.4856 6.63029 17.2324 8.15137 17.5349C9.67245 17.8375 11.2491 17.6822 12.6819 17.0887C14.1147 16.4952 15.3394 15.4902 16.201 14.2007C17.0626 12.9112 17.5225 11.3951 17.5225 9.84424C17.52 7.76536 16.693 5.77236 15.223 4.30237C13.753 2.83238 11.76 2.00541 9.68115 2.00285Z" fill="white"/>
<path d="M22.0236 24.4937C21.9244 24.4951 21.8258 24.4768 21.7336 24.44C21.6414 24.4031 21.5575 24.3483 21.4866 24.2788L14.3971 17.184C14.263 17.0417 14.1896 16.8528 14.1925 16.6573C14.1953 16.4619 14.2742 16.2752 14.4123 16.1369C14.5505 15.9986 14.7371 15.9195 14.9326 15.9165C15.1281 15.9134 15.317 15.9866 15.4594 16.1206L22.5489 23.2154C22.6541 23.3206 22.7257 23.4546 22.7547 23.6004C22.7837 23.7463 22.7688 23.8975 22.7119 24.0349C22.655 24.1723 22.5586 24.2897 22.435 24.3723C22.3113 24.455 22.1659 24.499 22.0172 24.499L22.0236 24.4937Z" fill="white"/>
</svg>
