<svg width="92" height="88" viewBox="0 0 92 88" fill="none" xmlns="http://www.w3.org/2000/svg">
<path d="M15.9939 25.2553C15.262 25.2553 14.5601 24.9646 14.0426 24.447C13.5251 23.9295 13.2344 23.2276 13.2344 22.4958C13.2344 21.7639 13.5251 21.062 14.0426 20.5445C14.5601 20.027 15.262 19.7363 15.9939 19.7363L31.3682 19.6614C32.1001 19.6614 32.802 19.9521 33.3195 20.4696C33.837 20.9871 34.1278 21.689 34.1278 22.4209C34.1278 23.1527 33.837 23.8546 33.3195 24.3721C32.802 24.8897 32.1001 25.1804 31.3682 25.1804L15.9939 25.2553Z" fill="white"/>
<path d="M79.1623 62.0873H22.3953C21.7453 62.0877 21.1159 61.8585 20.6183 61.4402C20.1207 61.0219 19.7867 60.4413 19.6753 59.8009L10.2496 5.52145H2.7595C2.02764 5.52145 1.32575 5.23071 0.80824 4.71321C0.290733 4.1957 0 3.49381 0 2.76194C0 2.03008 0.290733 1.32819 0.80824 0.810681C1.32575 0.293174 2.02764 0.00244141 2.7595 0.00244141L12.5597 0.00244141C13.2091 0.00303295 13.8375 0.232636 14.3343 0.650851C14.8311 1.06907 15.1645 1.6491 15.2758 2.28889L24.737 56.5683H77.0414L85.4145 25.0311L70.0165 25.1021C69.2846 25.1021 68.5827 24.8114 68.0652 24.2939C67.5477 23.7763 67.257 23.0745 67.257 22.3426C67.257 21.6107 67.5477 20.9088 68.0652 20.3913C68.5827 19.8738 69.2846 19.5831 70.0165 19.5831L89.0255 19.4924C89.4482 19.4927 89.8652 19.5901 90.2443 19.7771C90.6235 19.9641 90.9545 20.2356 91.2121 20.5709C91.4696 20.9061 91.6466 21.296 91.7296 21.7105C91.8125 22.125 91.7991 22.553 91.6904 22.9615L81.835 60.0177C81.6821 60.6102 81.3365 61.135 80.8526 61.5097C80.3688 61.8843 79.7742 62.0875 79.1623 62.0873Z" fill="white"/>
<path d="M26.6642 87.9708C24.4125 87.9708 22.2113 87.3031 20.3391 86.0521C18.4669 84.8011 17.0076 83.023 16.1459 80.9427C15.2842 78.8624 15.0588 76.5732 15.4981 74.3648C15.9373 72.1563 17.0217 70.1277 18.6139 68.5355C20.2061 66.9433 22.2347 65.859 24.4431 65.4197C26.6516 64.9804 28.9407 65.2059 31.021 66.0676C33.1014 66.9293 34.8794 68.3885 36.1304 70.2607C37.3814 72.133 38.0491 74.3341 38.0491 76.5859C38.046 79.6044 36.8455 82.4983 34.7111 84.6328C32.5767 86.7672 29.6827 87.9676 26.6642 87.9708ZM26.6642 70.7239C25.5039 70.7239 24.3696 71.068 23.4049 71.7127C22.4402 72.3575 21.6883 73.2738 21.2444 74.3459C20.8006 75.418 20.6847 76.5976 20.9113 77.7356C21.138 78.8736 21.697 79.9188 22.5178 80.739C23.3385 81.5592 24.3841 82.1176 25.5223 82.3435C26.6604 82.5694 27.84 82.4526 28.9117 82.0081C29.9835 81.5635 30.8994 80.811 31.5435 79.8459C32.1875 78.8807 32.5309 77.7462 32.5301 76.5859C32.528 75.0311 31.9092 73.5407 30.8095 72.4417C29.7098 71.3427 28.219 70.7249 26.6642 70.7239Z" fill="white"/>
<path d="M76.5295 87.9708C74.2776 87.9716 72.0761 87.3045 70.2033 86.054C68.3305 84.8035 66.8707 83.0257 66.0084 80.9454C65.1461 78.8652 64.9201 76.5759 65.3589 74.3672C65.7978 72.1585 66.8818 70.1295 68.4738 68.5369C70.0659 66.9443 72.0944 65.8596 74.303 65.42C76.5116 64.9804 78.8009 65.2056 80.8815 66.0672C82.962 66.9288 84.7403 68.388 85.9915 70.2603C87.2427 72.1326 87.9105 74.334 87.9105 76.5859C87.9073 79.6037 86.7074 82.4971 84.5738 84.6314C82.4403 86.7657 79.5473 87.9666 76.5295 87.9708ZM76.5295 70.7239C75.369 70.7231 74.2343 71.0666 73.2691 71.7108C72.3038 72.3551 71.5514 73.2712 71.1069 74.3432C70.6624 75.4152 70.5459 76.595 70.7722 77.7332C70.9984 78.8715 71.5571 79.917 72.3777 80.7376C73.1983 81.5582 74.2439 82.117 75.3821 82.3432C76.5204 82.5694 77.7001 82.4529 78.7722 82.0084C79.8442 81.564 80.7603 80.8115 81.4045 79.8463C82.0488 78.881 82.3922 77.7464 82.3915 76.5859C82.3894 75.0318 81.7711 73.542 80.6722 72.4431C79.5734 71.3442 78.0835 70.726 76.5295 70.7239Z" fill="white"/>
<path d="M65.833 15.8019C65.2491 15.8037 64.68 15.6185 64.2089 15.2737L51.7162 6.17519L39.2393 15.2737C38.6476 15.6959 37.9133 15.8676 37.1957 15.7515C36.4782 15.6354 35.8354 15.2408 35.4071 14.6536C34.9787 14.0664 34.7993 13.3338 34.9079 12.6151C35.0165 11.8964 35.4043 11.2496 35.987 10.8151L50.092 0.530032C50.5643 0.185595 51.1337 0 51.7182 0C52.3027 0 52.8721 0.185595 53.3443 0.530032L67.4493 10.8151C67.9182 11.158 68.2669 11.6402 68.4457 12.1929C68.6246 12.7456 68.6244 13.3406 68.4453 13.8932C68.2662 14.4459 67.9173 14.9279 67.4482 15.2706C66.9792 15.6133 66.4139 15.7992 65.833 15.8019Z" fill="white"/>
<path d="M51.7165 44.0867C50.9847 44.0867 50.2828 43.796 49.7653 43.2785C49.2478 42.761 48.957 42.0591 48.957 41.3272V2.76121C48.957 2.02935 49.2478 1.32746 49.7653 0.809949C50.2828 0.292441 50.9847 0.00170898 51.7165 0.00170898C52.4484 0.00170898 53.1503 0.292441 53.6678 0.809949C54.1853 1.32746 54.476 2.02935 54.476 2.76121V41.3272C54.476 42.0591 54.1853 42.761 53.6678 43.2785C53.1503 43.796 52.4484 44.0867 51.7165 44.0867Z" fill="white"/>
</svg>
