<svg width="40" height="40" viewBox="0 0 40 40" fill="none" xmlns="http://www.w3.org/2000/svg">
<path d="M20.0018 40C16.046 40.0004 12.179 38.8276 8.88972 36.6301C5.60046 34.4326 3.03674 31.3091 1.52276 27.6545C0.00878649 23.9999 -0.387431 19.9784 0.384216 16.0986C1.15586 12.2189 3.06071 8.65503 5.85787 5.85787C8.65503 3.06071 12.2189 1.15586 16.0986 0.384216C19.9784 -0.387431 23.9999 0.00878649 27.6545 1.52276C31.3091 3.03674 34.4326 5.60046 36.6301 8.88972C38.8276 12.179 40.0004 16.046 40 20.0018C39.9938 25.3038 37.8849 30.3868 34.1358 34.1358C30.3868 37.8849 25.3038 39.9938 20.0018 40ZM20.0018 2.51121C16.5424 2.51086 13.1606 3.53636 10.2841 5.45803C7.40751 7.37971 5.16542 10.1112 3.84132 13.3072C2.51723 16.5032 2.1706 20.02 2.84528 23.4129C3.51995 26.8059 5.18563 29.9226 7.63166 32.3689C10.0777 34.8152 13.1942 36.4812 16.5871 37.1562C19.98 37.8312 23.4969 37.4849 26.6929 36.1612C29.889 34.8374 32.6208 32.5956 34.5428 29.7192C36.4647 26.8429 37.4906 23.4612 37.4906 20.0018C37.4854 15.3649 35.6412 10.9194 32.3626 7.64048C29.084 4.36154 24.6387 2.5169 20.0018 2.51121Z" fill="white"/>
<path d="M12.1148 33.4791C11.9094 33.4782 11.7068 33.4303 11.5228 33.3391C11.3387 33.2478 11.178 33.1156 11.0529 32.9526C10.9278 32.7896 10.8417 32.6002 10.8011 32.3988C10.7605 32.1974 10.7666 31.9894 10.8189 31.7907L13.0218 23.4971L6.40231 18.1825C6.19095 18.0121 6.03621 17.7817 5.95851 17.5215C5.8808 17.2614 5.88379 16.9838 5.96708 16.7254C6.05036 16.467 6.21003 16.24 6.42501 16.0742C6.63999 15.9084 6.90019 15.8117 7.17127 15.7968L15.6871 15.2913L18.7486 7.38128C18.8454 7.12693 19.0173 6.908 19.2413 6.75354C19.4654 6.59907 19.7312 6.51636 20.0033 6.51636C20.2755 6.51636 20.5412 6.59907 20.7653 6.75354C20.9894 6.908 21.1612 7.12693 21.258 7.38128L24.3141 15.2913L32.8389 15.7968C33.1098 15.8124 33.3695 15.9098 33.5838 16.0761C33.7981 16.2424 33.9569 16.4699 34.0392 16.7283C34.1215 16.9868 34.1235 17.2642 34.0449 17.5238C33.9663 17.7834 33.8108 18.0131 33.5989 18.1825L26.9795 23.4971L29.1824 31.7907C29.2526 32.0533 29.2414 32.331 29.1502 32.5871C29.0589 32.8432 28.892 33.0655 28.6715 33.2245C28.4511 33.3835 28.1875 33.4718 27.9157 33.4776C27.6439 33.4834 27.3768 33.4064 27.1498 33.2569L20.0015 28.5661L12.8515 33.2569C12.633 33.4016 12.3768 33.4788 12.1148 33.4791ZM10.3367 18.1233L14.7282 21.6491C15.0681 21.9212 15.3214 22.2866 15.457 22.7004C15.5926 23.1143 15.6047 23.5586 15.4918 23.9792L14.0273 29.491L18.7701 26.3793C19.1358 26.1398 19.5635 26.0122 20.0006 26.0122C20.4378 26.0122 20.8654 26.1398 21.2311 26.3793L25.9739 29.491L24.5095 23.9792C24.397 23.5586 24.4093 23.1144 24.5449 22.7006C24.6805 22.2869 24.9335 21.9215 25.2731 21.6491L29.6645 18.1251L23.9933 17.7882C23.564 17.7615 23.1514 17.6122 22.8045 17.358C22.4576 17.1038 22.1908 16.7554 22.0359 16.3542L19.9997 11.1006L17.9653 16.3578C17.8103 16.7593 17.5433 17.1078 17.196 17.362C16.8487 17.6162 16.4357 17.7654 16.0062 17.7917L10.3367 18.1233Z" fill="white"/>
</svg>
