<svg width="25" height="25" viewBox="0 0 25 25" fill="none" xmlns="http://www.w3.org/2000/svg">
<path d="M4.23752 18.6368H2.0558C1.59993 18.6365 1.1628 18.4521 0.840353 18.1242C0.517908 17.7962 0.336496 17.3515 0.335938 16.8875L0.335938 10.6461C0.336496 10.182 0.517874 9.73716 0.840289 9.40903C1.1627 9.08091 1.59983 8.89632 2.0558 8.89575H4.23752C4.43329 8.89575 4.62103 8.9749 4.75946 9.11578C4.89789 9.25665 4.97566 9.44773 4.97566 9.64696V17.8856C4.97566 18.0848 4.89789 18.2759 4.75946 18.4167C4.62103 18.5576 4.43329 18.6368 4.23752 18.6368ZM2.0558 10.3982C1.99119 10.3982 1.92924 10.4243 1.88356 10.4708C1.83788 10.5173 1.81221 10.5803 1.81221 10.6461V16.8875C1.81221 16.92 1.81852 16.9522 1.83077 16.9822C1.84303 17.0122 1.86099 17.0395 1.88362 17.0624C1.90625 17.0854 1.93311 17.1035 1.96266 17.1159C1.99221 17.1282 2.02386 17.1345 2.0558 17.1343H3.49938V10.3982H2.0558Z" fill="white"/>
<path d="M22.6174 18.6368H20.4315C20.2357 18.6368 20.048 18.5576 19.9096 18.4167C19.7711 18.2759 19.6934 18.0848 19.6934 17.8856V9.64696C19.6934 9.44773 19.7711 9.25665 19.9096 9.11578C20.048 8.9749 20.2357 8.89575 20.4315 8.89575H22.6174C23.0733 8.89632 23.5103 9.08094 23.8326 9.4091C24.1548 9.73725 24.336 10.1821 24.3362 10.6461V16.8875C24.3357 17.3513 24.1544 17.7959 23.8322 18.1238C23.51 18.4517 23.0731 18.6362 22.6174 18.6368ZM21.1696 17.1343H22.6174C22.6818 17.1343 22.7434 17.1083 22.7889 17.0621C22.8344 17.0158 22.86 16.953 22.86 16.8875V10.6461C22.86 10.5805 22.8344 10.5176 22.789 10.4712C22.7435 10.4247 22.6819 10.3985 22.6174 10.3982H21.1696V17.1343Z" fill="white"/>
<path d="M18.2849 23.1988H17.0026C16.8069 23.1988 16.6191 23.1196 16.4807 22.9788C16.3423 22.8379 16.2645 22.6468 16.2645 22.4476C16.2645 22.2483 16.3423 22.0573 16.4807 21.9164C16.6191 21.7755 16.8069 21.6964 17.0026 21.6964H18.2849C18.9176 21.6964 19.6473 20.4998 19.6937 20.1435V7.69493C19.6937 7.40196 19.3552 5.9414 18.2786 4.59459C16.8919 2.85823 14.8884 1.97824 12.3366 1.97824C9.78471 1.97824 7.78225 2.85823 6.39455 4.59459C5.31898 5.9414 4.97627 7.40196 4.97627 7.69493V9.647C4.97627 9.84623 4.89851 10.0373 4.76008 10.1782C4.62165 10.3191 4.4339 10.3982 4.23814 10.3982C4.04237 10.3982 3.85462 10.3191 3.7162 10.1782C3.57777 10.0373 3.5 9.84623 3.5 9.647V7.69493C3.5 7.08753 3.92179 5.29751 5.24622 3.647C6.4051 2.20039 8.57311 0.47583 12.3366 0.47583C16.1 0.47583 18.268 2.20039 19.4227 3.647C20.7418 5.29751 21.1689 7.08753 21.1689 7.69493V20.1553C21.1699 21.0374 19.9214 23.1988 18.2849 23.1988Z" fill="white"/>
<path d="M17.0013 24.4758H12.6863C12.1578 24.4758 11.6508 24.2621 11.2771 23.8818C10.9033 23.5014 10.6934 22.9855 10.6934 22.4476C10.6934 21.9096 10.9033 21.3937 11.2771 21.0134C11.6508 20.633 12.1578 20.4193 12.6863 20.4193H17.0013C17.197 20.4193 17.3848 20.4985 17.5232 20.6393C17.6616 20.7802 17.7394 20.9713 17.7394 21.1705V23.7246C17.7394 23.9239 17.6616 24.1149 17.5232 24.2558C17.3848 24.3967 17.197 24.4758 17.0013 24.4758ZM12.6863 21.9217C12.5493 21.9217 12.4179 21.9771 12.321 22.0757C12.2241 22.1744 12.1696 22.3081 12.1696 22.4476C12.1696 22.587 12.2241 22.7208 12.321 22.8194C12.4179 22.918 12.5493 22.9734 12.6863 22.9734H16.2631V21.9217H12.6863Z" fill="white"/>
<path d="M12.3354 19.4159C10.8307 19.4159 9.33752 18.6154 8.2377 17.2192C6.93752 15.5676 6.25 13.1616 6.25 10.263C6.25 6.75165 7.9087 5.06894 9.30167 4.27588C10.2332 3.75265 11.2722 3.45863 12.3354 3.41736C13.399 3.45847 14.4384 3.75249 15.3702 4.27588C16.7621 5.06894 18.4208 6.75165 18.4208 10.263C18.4208 13.1605 17.7344 15.5676 16.4342 17.2192C15.3344 18.6121 13.8402 19.4159 12.3354 19.4159ZM12.3354 4.92085C11.5076 4.96454 10.7008 5.20176 9.97759 5.6141C8.48339 6.4855 7.72627 8.05231 7.72627 10.263C7.72627 15.8767 10.4827 17.9135 12.3354 17.9135C14.1881 17.9135 16.9446 15.8745 16.9446 10.263C16.9446 8.05231 16.1885 6.48765 14.6953 5.6141C13.971 5.20084 13.1626 4.96358 12.3333 4.92085H12.3354Z" fill="white"/>
</svg>
