<svg width="18" height="14" viewBox="0 0 18 14" fill="none" xmlns="http://www.w3.org/2000/svg">
<path d="M5.75721 13.6806H5.68893C5.47938 13.671 5.27432 13.6166 5.08752 13.5212C4.90072 13.4258 4.7365 13.2915 4.60589 13.1273L1.1072 8.73396C0.984507 8.58309 0.892934 8.40939 0.837776 8.22291C0.782618 8.03643 0.76497 7.84086 0.785852 7.64752C0.806734 7.45418 0.865731 7.26689 0.959434 7.09649C1.05314 6.92608 1.17969 6.77594 1.33177 6.65475C1.48385 6.53355 1.65844 6.4437 1.84546 6.39038C2.03248 6.33707 2.22821 6.32136 2.42133 6.34415C2.61446 6.36694 2.80115 6.42779 2.97062 6.52317C3.14009 6.61856 3.28897 6.74659 3.40866 6.89986L5.85845 9.97592L14.6805 0.771269C14.9556 0.51353 15.3191 0.371176 15.696 0.373565C16.0729 0.375954 16.4346 0.522904 16.7064 0.784109C16.9781 1.04531 17.1393 1.40085 17.1566 1.7774C17.174 2.15395 17.0461 2.52279 16.7995 2.80785L6.81906 13.2274C6.68189 13.3708 6.51707 13.4849 6.33456 13.5628C6.15205 13.6407 5.95564 13.6808 5.75721 13.6806Z" fill="#6D40CD"/>
</svg>
