<svg width="22" height="23" viewBox="0 0 22 23" fill="none" xmlns="http://www.w3.org/2000/svg">
<path d="M20.769 0.582764H1.22925C0.90323 0.582764 0.590566 0.712273 0.360038 0.942802C0.12951 1.17333 0 1.48599 0 1.81201L0 21.3535C0 21.6795 0.12951 21.9922 0.360038 22.2227C0.590566 22.4533 0.90323 22.5828 1.22925 22.5828H20.769C21.095 22.5828 21.4077 22.4533 21.6382 22.2227C21.8687 21.9922 21.9982 21.6795 21.9982 21.3535V1.81201C21.9982 1.48599 21.8687 1.17333 21.6382 0.942802C21.4077 0.712273 21.095 0.582764 20.769 0.582764ZM19.5397 20.1243H2.45849V3.04126H19.5397V20.1243Z" fill="white"/>
<path d="M15.7876 14.6312C15.9017 14.7453 15.9923 14.8809 16.0541 15.03C16.1158 15.1791 16.1476 15.339 16.1476 15.5004C16.1476 15.6619 16.1158 15.8217 16.0541 15.9709C15.9923 16.12 15.9017 16.2555 15.7876 16.3697C15.6734 16.4838 15.5379 16.5744 15.3888 16.6362C15.2396 16.6979 15.0798 16.7297 14.9183 16.7297C14.7569 16.7297 14.597 16.6979 14.4479 16.6362C14.2987 16.5744 14.1632 16.4838 14.0491 16.3697L10.997 13.3212L7.94499 16.3732C7.71445 16.6037 7.40177 16.7333 7.07573 16.7333C6.7497 16.7333 6.43702 16.6037 6.20648 16.3732C5.97594 16.1427 5.84642 15.83 5.84642 15.5039C5.84642 15.1779 5.97594 14.8652 6.20648 14.6347L9.25852 11.5827L6.20648 8.52885C6.08673 8.416 5.99086 8.28025 5.92455 8.12966C5.85824 7.97907 5.82284 7.8167 5.82044 7.65217C5.81805 7.48765 5.84871 7.32431 5.91061 7.17186C5.9725 7.0194 6.06438 6.88092 6.18079 6.76463C6.2972 6.64834 6.43577 6.5566 6.58829 6.49486C6.74081 6.43311 6.90418 6.40262 7.0687 6.40518C7.23322 6.40774 7.39556 6.44331 7.54608 6.50977C7.69661 6.57623 7.83225 6.67224 7.94499 6.7921L10.997 9.84415L14.0473 6.7921C14.16 6.67224 14.2957 6.57623 14.4462 6.50977C14.5967 6.44331 14.7591 6.40774 14.9236 6.40518C15.0881 6.40262 15.2515 6.43311 15.404 6.49486C15.5565 6.5566 15.6951 6.64834 15.8115 6.76463C15.9279 6.88092 16.0198 7.0194 16.0817 7.17186C16.1436 7.32431 16.1743 7.48765 16.1719 7.65217C16.1695 7.8167 16.1341 7.97907 16.0677 8.12966C16.0014 8.28025 15.9056 8.416 15.7858 8.52885L12.7355 11.5827L15.7876 14.6312Z" fill="#CD4040"/>
</svg>
