<svg width="21" height="25" viewBox="0 0 21 25" fill="none" xmlns="http://www.w3.org/2000/svg">
<path d="M10.2588 15.875C8.86769 15.875 7.4867 15.1028 6.47121 13.7562C5.27247 12.1677 4.63867 9.85535 4.63867 7.06871C4.63867 3.6873 6.17153 2.06651 7.45734 1.30182C8.31776 0.798215 9.27712 0.515352 10.2588 0.47583C11.2415 0.514852 12.202 0.797731 13.0633 1.30182C14.3481 2.06651 15.881 3.6873 15.881 7.06871C15.881 9.85535 15.2472 12.1677 14.0484 13.7562C13.0329 15.1028 11.6529 15.875 10.2588 15.875ZM10.2588 1.98154C9.50276 2.02309 8.76588 2.24905 8.10531 2.64191C6.74862 3.47435 6.05914 4.96286 6.05914 7.06871C6.05914 12.4247 8.57306 14.3693 10.2618 14.3693C11.9506 14.3693 14.4635 12.4247 14.4635 7.06871C14.4635 2.03962 10.4329 1.98154 10.2588 1.98154Z" fill="white"/>
<path d="M19.6272 24.4758H1.04465C0.856691 24.4758 0.676426 24.3965 0.543516 24.2553C0.410606 24.1141 0.335938 23.9226 0.335938 23.723V22.9594C0.33849 21.2828 0.71346 19.6306 1.43036 18.1371C2.14726 16.6435 3.18585 15.3507 4.46168 14.3639C4.53694 14.3056 4.62226 14.2637 4.71277 14.2404C4.80328 14.2172 4.89722 14.2131 4.98921 14.2285C5.08121 14.2438 5.16946 14.2782 5.24893 14.3298C5.32839 14.3813 5.39752 14.449 5.45237 14.529C5.50721 14.6089 5.5467 14.6995 5.56857 14.7957C5.59044 14.8919 5.59427 14.9916 5.57984 15.0894C5.56541 15.1871 5.533 15.2808 5.48446 15.3652C5.43593 15.4497 5.37221 15.5231 5.29696 15.5814C4.20125 16.428 3.30922 17.5375 2.69345 18.8196C2.07768 20.1017 1.75558 21.5201 1.75337 22.9594V22.9701H18.9185V22.9594C18.9166 21.4988 18.5854 20.0601 17.9525 18.7635C17.3195 17.4669 16.4034 16.3503 15.2808 15.5071C15.2047 15.4501 15.14 15.3777 15.0903 15.294C15.0406 15.2104 15.0069 15.1172 14.9911 15.0197C14.9753 14.9222 14.9777 14.8224 14.9982 14.726C15.0187 14.6295 15.057 14.5382 15.1107 14.4575C15.1644 14.3767 15.2326 14.3079 15.3113 14.2551C15.39 14.2023 15.4778 14.1665 15.5695 14.1497C15.6613 14.1329 15.7552 14.1355 15.8461 14.1573C15.9369 14.1791 16.0228 14.2197 16.0988 14.2768C17.4068 15.2591 18.4741 16.56 19.2113 18.0707C19.9485 19.5814 20.3342 21.2578 20.3359 22.9594V23.723C20.3359 23.9226 20.2613 24.1141 20.1284 24.2553C19.9954 24.3965 19.8152 24.4758 19.6272 24.4758Z" fill="white"/>
</svg>
